<svg xmlns="http://www.w3.org/2000/svg" xmlns:xlink="http://www.w3.org/1999/xlink" viewBox="0 0 204.99 208.06"><defs><style>.cls-1{fill:none;}.cls-2{opacity:0.2;}.cls-3{fill:#c1db4d;}.cls-4{clip-path:url(#clip-path);}.cls-5{fill:#ffb899;}.cls-6{fill:#efa084;}.cls-7{fill:#86c1e2;}.cls-8{clip-path:url(#clip-path-2);}.cls-9{fill:#fff;}.cls-10{fill:#723021;}.cls-11{fill:#f77b59;}.cls-12{fill:#161114;}</style><clipPath id="clip-path"><path class="cls-1" d="M101.57,205q-43.39,0-72.49-30.94T0,98.81q0-45.23,28.17-72T97,0a109.72,109.72,0,0,1,52.63,13.39,107.89,107.89,0,0,1,40.18,36.94A92.63,92.63,0,0,1,205,101.58q0,41.55-29.55,72.49T101.57,205Z"/></clipPath><clipPath id="clip-path-2"><path class="cls-1" d="M168.78,195.53c-3.9-42.34-38.61-42.35-38.61-42.35v0l-.09,0s-5.4,16.71-29.85,16.84c-24.46-.13-29.86-16.84-29.86-16.84s-34.72,0-38.61,42.35l25.49,4.66c-.49,2.43-1.05,4.93-1.76,7.52l44.45.35h.57l45.81-.35c-.72-2.68-1.31-5.24-1.8-7.74Z"/></clipPath></defs><g id="Layer_2" data-name="Layer 2"><g id="OBJECTS"><g class="cls-2"><path class="cls-3" d="M101.57,205q-43.39,0-72.49-30.94T0,98.81q0-45.23,28.17-72T97,0a109.72,109.72,0,0,1,52.63,13.39,107.89,107.89,0,0,1,40.18,36.94A92.63,92.63,0,0,1,205,101.58q0,41.55-29.55,72.49T101.57,205Z"/></g><g class="cls-4"><path class="cls-5" d="M81.24,149.51c6.46-5.3.46-35.62.46-35.62h36.63s-6,30.32.46,35.62,48.91,4.65,45,58H39.25C34.43,154,74.78,154.8,81.24,149.51Z"/><path class="cls-6" d="M83.11,146.48c3.19-9.34-1.41-32.59-1.41-32.59h36.63a145.07,145.07,0,0,0-2.53,22.85C106.58,143.71,95,146.47,83.11,146.48Z"/><path class="cls-7" d="M168.78,195.53c-3.9-42.34-38.61-42.35-38.61-42.35v0l-.09,0s-5.4,16.71-29.85,16.84c-24.46-.13-29.86-16.84-29.86-16.84s-34.72,0-38.61,42.35l25.49,4.66c-.49,2.43-1.05,4.93-1.76,7.52l44.45.35h.57l45.81-.35c-.72-2.68-1.31-5.24-1.8-7.74Z"/><g class="cls-8"><rect class="cls-9" x="10.18" y="157.31" width="171.57" height="2.72"/><rect class="cls-9" x="10.18" y="166.04" width="171.57" height="2.72"/><rect class="cls-9" x="10.18" y="174.77" width="171.57" height="2.72"/><rect class="cls-9" x="10.18" y="183.51" width="171.57" height="2.72"/><rect class="cls-9" x="10.18" y="200.97" width="171.57" height="2.72"/><rect class="cls-9" x="10.18" y="192.24" width="171.57" height="2.72"/></g><path class="cls-6" d="M140.69,101.9c-1.79,6.58-6.85,12.4-10.82,11.32S124.5,104.54,126.3,98s6.1-9.64,10.07-8.55S142.49,95.33,140.69,101.9Z"/><path class="cls-6" d="M59.74,101.9c1.79,6.58,6.85,12.4,10.82,11.32s5.37-8.68,3.57-15.25S68,88.33,64.06,89.42,57.94,95.33,59.74,101.9Z"/><path class="cls-5" d="M133.18,90.12c0,24.06-14.87,48.62-33.21,48.62S66.75,114.18,66.75,90.12,81.62,51.61,100,51.61,133.18,66.06,133.18,90.12Z"/><path class="cls-10" d="M99.9,41.78s-41.79.74-38.07,49c0,0,2.41-2.6,4.92-.68,0,0-3.44,44.5,11.79,51.19,0,0-10.4-23.4-.37-70.56Z"/><path class="cls-10" d="M100.82,41.78s43.08.74,38.43,49c0,0-2.41-2.6-4.92-.68,0,0,3.43,44.5-11.79,51.19,0,0,10.4-23.4.37-70.56Z"/><path class="cls-10" d="M100.82,41.78s-27.3,5.39-24.33,40.67c0,0,1.63.28,4.57.62-.45-3.8-1-13,2.86-21,0,0-3.24,10.48-.52,21.3,3.54.35,8.32.68,14.08.78V64.81l1,19.31c2.3,0,4.76,0,7.34-.06V74.65L107,84c3.61-.12,7.45-.34,11.5-.7.2-3.85,0-9.69-2.26-14.44,0,0,3.07,4.52,4,14.27l3.21-.34S126.81,46.24,100.82,41.78Z"/><path class="cls-11" d="M139.94,99.11c-.18-.83-.39-1.65-.64-2.43a8.61,8.61,0,0,0-.47-1.11,1.78,1.78,0,0,0-.64-.74c-.2-.09-.36,0-.64.13a1.43,1.43,0,0,0-.16.13,2.08,2.08,0,0,0-.21.22c-.07.1-.17.24-.27.4a9.55,9.55,0,0,0-.87,2.17c-.24.78-.43,1.58-.6,2.39s-.34,1.62-.48,2.44c-.29,1.63-.55,3.29-.79,4.94l-.21-.44a4.46,4.46,0,0,1,.7.67,4,4,0,0,1,.54.83,1.89,1.89,0,0,1,.15,1.06,1.67,1.67,0,0,1-.53.91,4,4,0,0,1-1.65.81,10.59,10.59,0,0,1-1.73.29,14.93,14.93,0,0,0,1.62-.6,4,4,0,0,0,1.34-.9,1,1,0,0,0,.08-1.21,2.85,2.85,0,0,0-.47-.58,4.33,4.33,0,0,0-.61-.47l-.22-.14v-.3a45.53,45.53,0,0,1,.4-5.09,28.69,28.69,0,0,1,1.12-5A10.06,10.06,0,0,1,135.87,95a3.2,3.2,0,0,1,.5-.59c.1-.1.17-.14.25-.21s.24-.15.35-.23a2,2,0,0,1,.84-.25,1.38,1.38,0,0,1,.91.25,2.62,2.62,0,0,1,.85,1.26,6.69,6.69,0,0,1,.3,1.29A11.65,11.65,0,0,1,139.94,99.11Z"/><path class="cls-11" d="M60.51,99.11a12.3,12.3,0,0,1,.07-2.57,6.05,6.05,0,0,1,.31-1.29A2.53,2.53,0,0,1,61.73,94a1.41,1.41,0,0,1,.92-.25,1.93,1.93,0,0,1,.83.25,3.43,3.43,0,0,1,.35.23c.08.07.15.11.26.21a4.25,4.25,0,0,1,.5.59,10.4,10.4,0,0,1,1.15,2.44,28.69,28.69,0,0,1,1.12,5,43.28,43.28,0,0,1,.4,5.09v.3l-.22.14a3.75,3.75,0,0,0-.6.47,2.6,2.6,0,0,0-.48.58,1,1,0,0,0,.09,1.21,4,4,0,0,0,1.34.9,14.19,14.19,0,0,0,1.62.6,10.25,10.25,0,0,1-1.73-.29,3.86,3.86,0,0,1-1.65-.81,1.62,1.62,0,0,1-.54-.91,1.81,1.81,0,0,1,.16-1.06,3.92,3.92,0,0,1,.53-.83,4.94,4.94,0,0,1,.7-.67l-.21.44c-.24-1.65-.5-3.31-.79-4.94-.14-.82-.3-1.64-.48-2.44s-.36-1.61-.59-2.39a10.05,10.05,0,0,0-.88-2.17,4.53,4.53,0,0,0-.27-.4,1.39,1.39,0,0,0-.21-.22A1.43,1.43,0,0,0,62.9,95c-.28-.18-.44-.22-.64-.13a1.78,1.78,0,0,0-.64.74,8.59,8.59,0,0,0-.46,1.11A23.4,23.4,0,0,0,60.51,99.11Z"/><path class="cls-11" d="M96.64,100.09c0,.45,0,.9,0,1.35s-.06.9-.13,1.35-.16.89-.27,1.34l-.4,1.31-.55,1.27c-.22.41-.46.81-.69,1.21l-.83,1.13c-.33.34-.64.69-1,1l-.14-1.46c.52.36,1,.75,1.53,1.13s1,.79,1.5,1.19a26.94,26.94,0,0,1,2.79,2.67A28,28,0,0,1,95,112.06c-.56-.3-1.14-.58-1.68-.91s-1.11-.63-1.64-1l-.89-.56.75-.89c.26-.32.54-.61.81-.91l.74-1c.23-.34.45-.68.69-1l.63-1.07.6-1.11c.16-.39.37-.77.56-1.16s.36-.78.54-1.18S96.43,100.49,96.64,100.09Z"/><path class="cls-11" d="M110.65,118.7a6.07,6.07,0,0,1-.61.87,11,11,0,0,1-.8.93,10.76,10.76,0,0,1-1.19,1.08l-.72.57-.84.53a12.56,12.56,0,0,1-4.17,1.63,9.22,9.22,0,0,1-1.19.19l-1.21,0a16,16,0,0,1-2.41-.21c-.78-.17-1.52-.42-2.24-.63s-1.33-.63-1.94-.93a16,16,0,0,1-1.58-1.06l-.68-.5a6.89,6.89,0,0,1-.55-.51c-.35-.33-.63-.63-.87-.87-.47-.49-.72-.78-.72-.78s.36.17.95.48c.3.15.66.33,1.06.56a10.34,10.34,0,0,0,1.37.66c.52.22,1,.49,1.63.72s1.23.38,1.86.61l2,.41,1,.09a5.27,5.27,0,0,0,1,0,13.19,13.19,0,0,0,2.09-.16,14.62,14.62,0,0,0,2-.42c.63-.22,1.26-.39,1.83-.64s1.12-.48,1.61-.75.92-.51,1.33-.73.74-.44,1-.64C110.34,118.93,110.65,118.7,110.65,118.7Z"/><path class="cls-12" d="M125.89,93l-.92-.67c-.58-.4-1.39-1-2.38-1.56a21.17,21.17,0,0,0-3.37-1.68,12.24,12.24,0,0,0-3.92-.81,11.27,11.27,0,0,0-2,.08l-1,.17-1,.25-1,.29-.91.33c-.58.25-1.17.46-1.68.73s-1,.46-1.45.69-.82.4-1.13.57c-.63.33-1,.5-1,.5s.19-.38.58-1a7.35,7.35,0,0,1,.77-1.07l.52-.64.63-.65a13.67,13.67,0,0,1,1.57-1.34l1-.63c.33-.2.7-.37,1.07-.57a12.38,12.38,0,0,1,2.45-.83,11.2,11.2,0,0,1,2.72-.23,10.18,10.18,0,0,1,2.7.46,11.33,11.33,0,0,1,2.38,1,12.55,12.55,0,0,1,3.36,2.89,12.35,12.35,0,0,1,1.62,2.6A6.62,6.62,0,0,1,125.89,93Z"/><path class="cls-12" d="M95.53,93l-.92-.67c-.58-.4-1.39-1-2.38-1.56a21.17,21.17,0,0,0-3.37-1.68,12.24,12.24,0,0,0-3.92-.81,11.27,11.27,0,0,0-2,.08l-1,.17-1,.25L80,89.1l-.92.33c-.58.25-1.17.46-1.68.73s-1,.46-1.45.69-.82.4-1.13.57c-.63.33-1,.5-1,.5s.19-.38.58-1a8.19,8.19,0,0,1,.77-1.07l.52-.64.63-.65a14.58,14.58,0,0,1,1.57-1.34l1-.63c.33-.2.71-.37,1.07-.57a12.61,12.61,0,0,1,2.45-.83A11.2,11.2,0,0,1,85.07,85a10.18,10.18,0,0,1,2.7.46,11.33,11.33,0,0,1,2.38,1,12.55,12.55,0,0,1,3.36,2.89A12.35,12.35,0,0,1,95.13,92,6.62,6.62,0,0,1,95.53,93Z"/><ellipse class="cls-12" cx="114.41" cy="101.7" rx="1.62" ry="4.73"/><ellipse class="cls-12" cx="86.2" cy="101.06" rx="1.62" ry="4.73"/></g></g></g></svg>