<svg xmlns="http://www.w3.org/2000/svg" viewBox="0 0 2502.94 1335.57"><defs><style>.cls-1{fill:#deebe9;}.cls-2{opacity:0.5;}.cls-3{fill:#b2c9c6;}.cls-4{fill:#9bbcb6;}.cls-5{fill:#74a1bd;}.cls-6{fill:#cfd3a3;}.cls-7{fill:#c4c695;}.cls-8{fill:#436e8e;}.cls-9{fill:#f7b686;}.cls-10{fill:#96a7e2;}.cls-11{fill:#2f1a31;}.cls-12{fill:#020202;}.cls-13{fill:#060633;}.cls-14{fill:#fff;}.cls-15{fill:#e08b65;}.cls-16{opacity:0.6;}.cls-17{opacity:0.4;}.cls-18{fill:#6f4975;}.cls-19{fill:#e28569;}.cls-20{fill:#56335b;}.cls-21{opacity:0.3;}.cls-22{fill:#dd9666;}</style></defs><g id="Layer_2" data-name="Layer 2"><g id="_Layer_" data-name="&lt;Layer&gt;"><path class="cls-1" d="M2502.94,250.42V1082c0,107.93-96.81,187.44-228.39,223.45a584.77,584.77,0,0,1-60.66,13.1q-18.36,3-37.26,4.9c-27.32,2.78-54.74,5-82.77,6.82h0c-21.46,1.36-43.27,2.45-65.65,3.28l-6.23.22c-61.7,2.12-127.86,2.27-203,.78-25.84-.51-52.75-1.2-80.9-2.08-42.84-1.33-88.57-3.07-137.85-5.2q-11.45-.48-23.18-1c-43.42-1.91-89.56-4.09-138.81-6.49q-58.56-2.86-123.21-6.14c-38.28-1.93-82.57-3.07-131-3.6-51.31-.57-107.28-.45-165.68.1-.78,0-1.57,0-2.35,0-59.94.59-122.4,1.63-185,2.89-23.5.48-47,1-70.43,1.5-49.18,1.1-97.88,2.26-144.95,3.39L538,1319.79c-29.61.68-58.23,1.32-85.49,1.85l-23.31.45-5,.09q-25.31.46-48.7.78c-17.28.25-33.72.41-49.17.52a425.7,425.7,0,0,1-90.2-8.92C99.77,1286,0,1192.23,0,1082V250.42C0,117.07,146.4,1.13,326.32,9c167.05,7.28,412.8,36.12,669,18.46C1300,6.44,1878.24-11.4,2176.63,9,2356.09,21.23,2502.94,117.07,2502.94,250.42Z"/><g class="cls-2"><path class="cls-3" d="M609,1138.85S537.32,281.65,307.7,309.7s174.06,563.84,187.1,814Z"/></g><path class="cls-4" d="M526.35,1192.61S284.48,641.33,111,711.26s258.37,334.22,322.8,496.88Z"/><path class="cls-5" d="M474.63,1201.76c-42.48-113.15-126.77-220.54-190-290.7C216.08,835,156.86,785.11,156.27,784.62l3-3.71c.59.5,60.07,50.6,128.85,126.91,63.51,70.47,148.19,178.38,190.93,292.24Z"/><path class="cls-6" d="M537.4,1308.72c-24.67,4.77-51.79,9-80.29,12.31-1.56.18-3.1.38-4.62.61l-23.31.45-5,.09q-25.31.46-48.7.78c-17.28.25-33.72.41-49.17.52a425.7,425.7,0,0,1-90.2-8.92,68.62,68.62,0,0,1,1.09-7.07c-12.59-49-10-41.22-85-68-53.85-19.2-35.15-66-38.22-109.4h0c0-.79-.11-1.59-.19-2.38-1.45-16.25-6.24-31.93-19.33-45.41a231.09,231.09,0,0,1-36.43-49q-1.23-2.19-2.35-4.4C37,992.88,32,955.06,58.12,933.75h0c.62-.49,1.23-1,1.88-1.46a66.38,66.38,0,0,1,16.31-8.7c66.1-24.78,96.71,15,138.85,48.66,6.43,5.15,15.28,8,25.65,9.42h0c27.16,3.86,64.82-1.49,97.08,2H338c.65.06,1.28.14,1.92.21q3.43.42,6.76,1h0q3.66.63,7.19,1.45c17.45,4.09,32.16,12.2,41,27.91,5.54,9.86,8.76,22.73,8.88,39.46h0c0,.76,0,1.52,0,2.27h0c0,.26,0,.5,0,.75,0,2.87.11,5.63.19,8.34h0c2.5,74.92,24.9,87.1,59.56,109.32h0q3.53,2.25,7.2,4.68h0a287.61,287.61,0,0,1,25.4,18.6q4.53,3.73,9.23,8a114.28,114.28,0,0,1,24.34,30.9C544.58,1264.75,541.76,1291.93,537.4,1308.72Z"/><path class="cls-7" d="M429.18,1322.09l-5,.09c-4.1-8.83-17.33-35.54-44-74.47-31.7-46.2-82.39-109.6-159.27-180.72h0c-1.41-1.31-2.85-2.63-4.28-3.94-44.29-40.61-97.11-83.66-159.78-127.39l1.31-1.91h0l1.29-1.87.59.41c95.59,66.75,168.33,132,222.89,189.43q1.65,1.72,3.26,3.43c41.51,44,72.28,83.42,94.44,115.23h0C411.91,1285.32,426.1,1315.23,429.18,1322.09Z"/><path class="cls-7" d="M317.48,1089.37c61.74-9.54,86.8-33,87.83-34l-3.14-3.34c-.24.24-25.21,23.49-85.37,32.78Z"/><path class="cls-7" d="M283.68,1126.5c23.53-12.18,40.71-40.81,49.68-82.82a311,311,0,0,0,6.55-60l-4.57,0c0,1.11.36,110.69-53.74,138.69Z"/><path class="cls-7" d="M210.7,1068.49c7.15-.85,11.3-1.73,11.49-1.77l-1-4.5c-.88.19-88.21,18.67-164.26-35.17l-2.62,3.78C115.62,1074.21,184,1071.62,210.7,1068.49Z"/><path class="cls-7" d="M114.52,1132.32c30.72-8.22,48.77-24.81,58.5-37.29,10.59-13.58,13.85-25.12,14-25.61l-4.4-1.23c-.13.45-13,44.63-69.25,59.68Z"/><g class="cls-2"><path class="cls-3" d="M1902.26,1138.85s71.67-857.2,301.29-829.15-174.06,563.84-187.1,814Z"/></g><path class="cls-4" d="M1984.91,1192.61s241.86-551.28,415.39-481.35-258.37,334.22-322.8,496.88Z"/><path class="cls-5" d="M2036.62,1201.76c42.48-113.15,126.77-220.54,190-290.7C2295.17,835,2354.39,785.11,2355,784.62l-3.05-3.71c-.59.5-60.07,50.6-128.85,126.91-63.51,70.47-148.19,178.38-190.93,292.24Z"/><path class="cls-6" d="M2455.6,1028.94q-1.14,2.2-2.34,4.4a231.78,231.78,0,0,1-36.43,49c-13.1,13.48-17.88,29.16-19.35,45.41-.07.8-.14,1.61-.19,2.42h0c-3.05,43.38,15.62,90.17-38.21,109.36-74,26.36-72.52,19.21-84.53,65.94a584.77,584.77,0,0,1-60.66,13.1q-18.36,3-37.26,4.9c-27.32,2.78-54.74,5-82.77,6.82h0a178.38,178.38,0,0,0-39.72-9.27c-10.29-1.21-20.41-2.53-30.29-4l-3.4-.5c-16.26-2.37-31.85-5-46.58-7.86-4.37-16.79-7.19-44,7.68-72.12a108,108,0,0,1,15.27-21.73c.66-.73,1.32-1.46,2-2.17q3.29-3.53,7.07-7c1.45-1.34,2.91-2.63,4.35-3.88,1.63-1.43,3.26-2.81,4.87-4.14a286.1,286.1,0,0,1,25.39-18.6h0c2.46-1.61,4.86-3.18,7.21-4.68,34.67-22.23,57.07-34.4,59.57-109.34.09-2.7.15-5.47.19-8.33,0-.25,0-.49,0-.75h0c0-.75,0-1.51,0-2.27v0c.24-35.57,14.51-53.63,35.31-62.64a84.83,84.83,0,0,1,14.55-4.72c2.34-.55,4.74-1,7.18-1.45h0c2.23-.37,4.48-.69,6.77-1,.63-.07,1.27-.15,1.91-.21h.07c32.25-3.52,69.92,1.83,97.09-2,10.38-1.47,19.23-4.27,25.66-9.42,42.14-33.7,72.75-73.44,138.85-48.66a66.2,66.2,0,0,1,16.31,8.7c.66.5,1.27,1,1.88,1.47h0C2479.21,955.07,2474.23,992.88,2455.6,1028.94Z"/><path class="cls-7" d="M2085.63,1325.36l-4.21-1.78c.78-1.88,81-189.81,370.41-391.71l2.6,3.79C2166.14,1136.81,2086.41,1323.5,2085.63,1325.36Z"/><path class="cls-7" d="M2193.77,1089.37c-61.74-9.54-86.8-33-87.83-34l3.14-3.34c.24.24,25.21,23.49,85.37,32.78Z"/><path class="cls-7" d="M2227.57,1126.5c-23.53-12.18-40.71-40.81-49.68-82.82a311,311,0,0,1-6.55-60l4.57,0c0,1.11-.36,110.69,53.74,138.69Z"/><path class="cls-7" d="M2300.55,1068.49c-7.15-.85-11.3-1.73-11.49-1.77l1-4.5c.88.19,88.21,18.67,164.26-35.17l2.62,3.78C2395.63,1074.21,2327.21,1071.62,2300.55,1068.49Z"/><path class="cls-7" d="M2396.73,1132.32c-30.72-8.22-48.77-24.81-58.5-37.29-10.59-13.58-13.85-25.12-14-25.61l4.4-1.23c.12.45,13,44.63,69.24,59.68Z"/><path class="cls-8" d="M1923.44,462.49s22.17-8.87,25.65-21.22,11.72-8.55,16.47-11.72-8.55-36.73-8.55-36.73L1911.09,376l4.75,58.91Z"/><path class="cls-9" d="M1767,981.79h0a8.62,8.62,0,0,0-6.38,10.34l16.87,71.37a8.6,8.6,0,0,0,10.33,6.38h0a8.62,8.62,0,0,0,6.39-10.33l-16.87-71.37A8.63,8.63,0,0,0,1767,981.79Z"/><path class="cls-9" d="M1790.73,976.19l-1.58.37a9.38,9.38,0,0,0-7,11.26l18.51,78.32a9.39,9.39,0,0,0,11.26,7l1.57-.38a9.39,9.39,0,0,0,7-11.26L1802,983.14A9.38,9.38,0,0,0,1790.73,976.19Z"/><path class="cls-9" d="M1784.34,933.84l-1.89,2.4a10.41,10.41,0,0,0,1.74,14.58l43.74,34.41a10.41,10.41,0,0,0,14.58-1.74l1.89-2.4a10.43,10.43,0,0,0-1.74-14.59l-43.73-34.41A10.43,10.43,0,0,0,1784.34,933.84Z"/><path class="cls-9" d="M1809.81,971.68h0a8.62,8.62,0,0,0-6.39,10.33l15.12,64a8.63,8.63,0,0,0,10.34,6.39h0a8.61,8.61,0,0,0,6.38-10.34l-15.12-64A8.6,8.6,0,0,0,1809.81,971.68Z"/><path class="cls-9" d="M1742.88,944.58s-14.46,46.92,5.43,75.57c6.89,9.91,69.48-6.71,72.46-19.9s-11.45-55.41-11.45-55.41Z"/><path class="cls-9" d="M1745.73,986.75h0a8.61,8.61,0,0,0-6.37,10.32l15.09,63.85a8.61,8.61,0,0,0,10.32,6.37h0a8.61,8.61,0,0,0,6.37-10.32l-15.09-63.85A8.61,8.61,0,0,0,1745.73,986.75Z"/><path class="cls-9" d="M1822.89,954.51c8.66-95.41,28.55-231.84,74.06-339.88,10.54-25,14.93-34.43,23.16-48.1,6.62-11-5.23-35.17-23.93-46.7-17.54-10.82-44.86-9.05-49.18-3.69-7.35,9.11-15.19,26.55-27.4,54.26-42.4,96.27-67.81,220.63-78.1,381Z"/><path class="cls-10" d="M2028.2,1333.58c-61.7,2.12-134.09,2.49-209.25,1-1.48-51.7-3.06-107.18-5.65-164q-2.37-52.17-4.15-97.26-1.29-32.91-2.32-61.86h0c-.11-3.08-.21-6.12-.32-9.13h0q-.13-4.26-.29-8.43v0q-.35-10.14-.65-19.73c-.07-2.24-.15-4.45-.22-6.65-.15-4.66-.3-9.21-.42-13.65q-.15-4.58-.28-9c-.09-2.85-.18-5.65-.25-8.42h0c-.58-19.52-1-36.76-1.39-51.6q-.19-7.85-.35-14.78c0-1.91-.09-3.77-.13-5.57-.66-30.52-.83-46.44-.83-46.44l37.8,7.3,101.64,19.62,44.24,8.53,1,18.1.13,2.34,1,18.59,0,.37,1.64,30.46.06,1.18,5.44,101.54,8.83,99.42,2,22.74v0l4.31,48.57.46,5,8.51,95.81h0l0,.29v0l4.44,16.81Z"/><path class="cls-11" d="M2139.89,919.94c-1.71,14.1-81.42,12.38-179,0s-173.58-33.5-171.87-47.6,80.44-15.81,178-3.45S2141.59,905.84,2139.89,919.94Z"/><path class="cls-10" d="M2213.89,1318.58q-18.36,3-37.26,4.9c-27.32,2.78-54.74,5-82.77,6.82h0c-21.46,1.36-43.27,2.45-65.65,3.28l-4.36-16.5-4.63-17.51-.42-1.6v0l-22-83.06-5.6-21.2-2.52-9.52-14.5-54.83-25.94-98.13h0l-22.9-86.59-2.55-9.67-5.63-21.27-3.41-12.92c-.87-6.22,6.87-9.39,19.84-10.44,13.55-1.11,32.79.1,53.89,2.56,5.78.67,11.7,1.44,17.69,2.28a.52.52,0,0,0,.18,0c18.79,2.65,38.18,6,55.68,9.43l.35.06c5.79,1.12,11.36,2.25,16.64,3.37,16.24,3.41,29.68,6.64,37.72,9a20.52,20.52,0,0,1,11.69,8.88c.23.38.46.76.66,1.16a20.61,20.61,0,0,1,2,5.47L2142.84,991l2.43,11.22h0l1.35,6.19,15,69.14,1.12,5.14,1.19,5.47,18.42,84.93,1.22,5.63Z"/><path class="cls-6" d="M2136,538s-56.4-81.48-155.17-77.93S1807.47,593.43,1789,872.37c0,0,161.72-35.46,351.18,47.27C2140.18,919.64,2179.36,651.72,2136,538Z"/><path class="cls-6" d="M2192.1,502.74l-85.41,71.9s-179.85,18-227.6,9.33-55.17-43.76-55.17-43.76,45.42-62.3,131.85-77.77c8.12-1.47,16.3-1.71,25-2.34,14.65-1,24.51.42,39,.3C2154.13,459.32,2192.1,502.74,2192.1,502.74Z"/><path class="cls-12" d="M2026.49,1334l-64.44-270.36a129.15,129.15,0,0,0-58.34-71.92l1.75-3a132.69,132.69,0,0,1,60,73.93l0,.14,64.45,270.44Z"/><path class="cls-9" d="M2019.61,460.39a27.35,27.35,0,0,1-22.26-16.29l-12.24-28.42-3.55-8.26-20.88-48.51,3.62,50.28,2.18,30.17.62,8.6a13.74,13.74,0,0,1-11.33,14.48l-.12,0c-3.72,6-8.85,18.33,6.49,23.21,18,5.73,47.17-8.45,57.63-25.27Z"/><path class="cls-11" d="M1985.16,414.84a7.89,7.89,0,0,1-.05.84c-1.2,16.2-18.53,23.77-18.53,23.77l-.1-.09-2.18-30.17c5.3-1.94,12.84-3.94,17.26-1.77C1983.87,408.56,1985.32,410.83,1985.16,414.84Z"/><path class="cls-9" d="M1911.16,367c0-32.18,21.15-58.27,47.23-58.27s47.24,26.09,47.24,58.27-21.15,58.28-47.24,58.28S1911.16,399.14,1911.16,367Z"/><path class="cls-13" d="M1953.83,367.52a1.08,1.08,0,0,1-.13-2c.33-.13,7.56-3.85,13.91,3.1a1.09,1.09,0,0,1,0,1.52,1.18,1.18,0,0,1-1.52,0,18.39,18.39,0,0,0-11.56-2.59A1,1,0,0,1,1953.83,367.52Z"/><path class="cls-13" d="M1966.9,377.56a1.08,1.08,0,0,1,.88,1.84c-.25.24-5.52,6.43-14,2.42a1.08,1.08,0,0,1-.54-1.42,1.17,1.17,0,0,1,1.42-.55,18.4,18.4,0,0,0,11.66-2A1.1,1.1,0,0,1,1966.9,377.56Z"/><path class="cls-13" d="M1954.5,407a1.07,1.07,0,0,1-.9-.34,1.05,1.05,0,0,1,.05-1.51c.25-.24,5.65-6.32,14.09-2.14a1.09,1.09,0,0,1,.51,1.43,1.18,1.18,0,0,1-1.43.52,18.41,18.41,0,0,0-11.71,1.76A1.11,1.11,0,0,1,1954.5,407Z"/><path class="cls-13" d="M1932.93,380.37a1.07,1.07,0,0,1,.89,1.83c-.25.25-5.53,6.43-14,2.42a1.09,1.09,0,0,1-.54-1.42,1.18,1.18,0,0,1,1.42-.54,18.44,18.44,0,0,0,11.67-2A1.06,1.06,0,0,1,1932.93,380.37Z"/><path class="cls-11" d="M2192.1,502.74c7.16,10.27-7.41,24.13-37.24,45.7s-42.83,29.23-50,19,1.37-27.73,31-49.56C2157.65,501.84,2184.94,492.48,2192.1,502.74Z"/><path class="cls-9" d="M1988.44,701.59c45.77,24.26,135.22,7.76,151.48-16.93,18.9-28.71,2.76-72.4-17.26-102.54-10.25-15.43-11.35-30.41,4.84-49.27,6.72-7.84,13.31-13.29,34.78-22.25,10.38-4.33,20.7-5.72,26.51,1.74,9.09,11.67,15.58,21.26,28.18,44.56,29.94,55.33,36.36,109.21,22.81,150.73-19,58.27-95.75,135.08-277.3,71.19C1953.86,775.79,1981,697.63,1988.44,701.59Z"/><path class="cls-10" d="M2061.41,904.66S1866.62,867.45,1803.46,885l30.29,44.88,112.59,6.37Z"/><path class="cls-8" d="M1981.31,329.64c-36.13,8.63-61.76,41-62.91,78.13-.07,2.16-.1,4.37-.1,6.65,0,0,24.42,5.42,25.73,29.38.41,7.52-21.29,20.31-22.8,19.64-11.38-5.07-41.07-32.76-34.34-87.71s28-95.34,78.51-97,43.74,32,43.74,32A47.3,47.3,0,0,1,1981.31,329.64Z"/><path class="cls-8" d="M1974.23,329.74s.86.55,2.25,1.63c5.34,4.13,18.55,16,20.89,33.7,2.94,22.29-18.51,36.17-12.62,53.41s21.45-2.1,34.07.84,21.87-2.94,22.71-28.17-5-84.12-34.91-84.12Z"/><path class="cls-9" d="M2004.74,375.74c-5.35,5.11-12.83,5.64-16.71,1.17s-2.68-12.22,2.67-17.33,12.83-5.63,16.71-1.17S2010.09,370.64,2004.74,375.74Z"/><path class="cls-11" d="M1906,435.29c-3.48-36.39,9.62-71.67,24.14-90.5,11.83-15.35,24-21.45,32.16-23.88,8.85-2.63,14.8-1.63,15-1.59l-.12.69c-.24,0-24.15-3.83-46.53,25.2-14.44,18.73-27.46,53.82-24,90Z"/><path class="cls-11" d="M2019.55,399.43l-.63-.3c11.21-23.54,5.51-64.31-3.89-76.47-9.25-12-24.1-5.56-24.25-5.5l-.28-.64c.15-.07,15.5-6.69,25.09,5.72S2030.86,375.68,2019.55,399.43Z"/><path class="cls-11" d="M1903.5,390.32l-.69,0c0-.69,4.25-68.77,31.61-80.5a51.77,51.77,0,0,1,34.37-2.75,44.19,44.19,0,0,1,13.64,6.16l-.42.56c-.19-.15-20.35-14.88-47.31-3.32S1903.54,389.64,1903.5,390.32Z"/><path class="cls-11" d="M1926.13,727.76h0a3.67,3.67,0,0,1-2.57-4.49L1966,567.33a3.68,3.68,0,0,1,4.5-2.57h0a3.67,3.67,0,0,1,2.57,4.49l-42.41,155.94A3.68,3.68,0,0,1,1926.13,727.76Z"/><path class="cls-14" d="M2047.89,539.77c-10.89,40-49.12,64.47-85.4,54.6s-56.86-50.31-46-90.34,25.09-71,85.39-54.6C2064.29,466.4,2058.77,499.74,2047.89,539.77Z"/><path class="cls-13" d="M1964,506.69c-1.18,4.3-4.44,7.17-7.31,6.39s-4.22-4.9-3-9.21,4.44-7.17,7.3-6.4S1965.16,502.38,1964,506.69Z"/><path class="cls-13" d="M2014.24,520.35c-1.17,4.31-4.44,7.18-7.3,6.4s-4.23-4.9-3.06-9.21,4.44-7.17,7.3-6.4S2015.41,516.05,2014.24,520.35Z"/><path class="cls-13" d="M1944.75,535s23.6,23.57,61.51,16.2c0,0-7.68,26.73-38.6,18.32C1941.48,562.42,1944.75,535,1944.75,535Z"/><path class="cls-9" d="M1988.44,701.59s-7.19-39-27-51.06-54.33-12.43-43.61-2.35,28,19.18,28,19.18-37.78-17.7-38.1-7.07,32.7,25.71,32.7,25.71-46.64-17.48-43.68-7.35,38.48,23.17,38.48,23.17-44.05-14.53-40.34-2.84,36.48,11.78,36.17,22.41,2,53,31.48,57.43Z"/><path class="cls-15" d="M1959.47,679.36a1.65,1.65,0,0,1-1.57-1.15c-1.91-6-12.49-9.24-12.6-9.27a1.65,1.65,0,1,1,.94-3.16c.51.15,12.37,3.76,14.8,11.44a1.66,1.66,0,0,1-1.07,2.07A1.77,1.77,0,0,1,1959.47,679.36Z"/><path class="cls-15" d="M1956.73,700a1.66,1.66,0,0,1-1.45-.85c-4.72-8.54-15.24-11.54-15.35-11.57a1.65,1.65,0,0,1,.88-3.18c.49.14,12,3.41,17.36,13.15a1.65,1.65,0,0,1-.65,2.24A1.61,1.61,0,0,1,1956.73,700Z"/><path class="cls-15" d="M1950.53,715.08a1.65,1.65,0,0,1-1.61-1.28c-1.23-5.43-10.68-9.35-14.22-10.4a1.65,1.65,0,0,1,.94-3.16c.59.18,14.59,4.41,16.49,12.83a1.64,1.64,0,0,1-1.24,2A1.47,1.47,0,0,1,1950.53,715.08Z"/><path class="cls-13" d="M2005.51,498.8a1.47,1.47,0,0,1-.16-2.77c.44-.18,10.27-5.23,18.91,4.22a1.47,1.47,0,0,1,0,2.06,1.61,1.61,0,0,1-2.07-.05c-6.71-4.51-15.34-3.66-15.71-3.52A1.39,1.39,0,0,1,2005.51,498.8Z"/><path class="cls-13" d="M1957.74,484.14a1.48,1.48,0,0,1-.83-1,1.46,1.46,0,0,1,1.09-1.75c.47-.11,11-3.6,18,7.07a1.46,1.46,0,0,1-.37,2,1.6,1.6,0,0,1-2-.37c-5.94-5.48-14.59-6-15-5.89A1.38,1.38,0,0,1,1957.74,484.14Z"/><g class="cls-16"><path class="cls-14" d="M681.39,140.57s-23.82-45.8-84.07-40.06-53.08,51.65-81.78,47.34-68.86,0-77.47,28.7-47.34,12.91-48.78,37.3,44.48,41.6,97.56,20.08,78.91,16.72,153.51,9.8,83.84-15.54,128-11.23,43.11-25.93,23-46S690,168.31,681.39,140.57Z"/></g><g class="cls-16"><path class="cls-14" d="M1957,140.13s-20-38.54-70.75-33.71-44.67,43.46-68.81,39.84-58,0-65.19,24.15-39.84,10.86-41,31.39,37.42,35,82.09,16.9,66.4,14.07,129.18,8.24,70.56-13.07,107.71-9.45,36.28-21.82,19.38-38.72S1964.19,163.48,1957,140.13Z"/></g><g class="cls-17"><path class="cls-14" d="M1106.29,123.41s-29.61-51.27-83.78-42.85-1.2,31.54-72.21,42.85-86.67,35.39-54.17,54.65,85.46-34.91,143.24-8.43S1174.41,173.49,1106.29,123.41Z"/></g><path class="cls-9" d="M1340.45,918.65h0a8,8,0,0,0-5.3,9.89l19.56,64.83a8,8,0,0,0,9.89,5.31h0a8,8,0,0,0,5.3-9.89L1350.33,924A8,8,0,0,0,1340.45,918.65Z"/><path class="cls-9" d="M1359.89,912.78h0a8,8,0,0,0-5.3,9.89l21.88,72.51a8,8,0,0,0,9.89,5.3h0a8,8,0,0,0,5.3-9.88l-21.88-72.51A8,8,0,0,0,1359.89,912.78Z"/><path class="cls-9" d="M1353.73,873.47l-1.61,2.32a9.63,9.63,0,0,0,2.43,13.35l42.25,29.25a9.63,9.63,0,0,0,13.35-2.43l1.6-2.32a9.61,9.61,0,0,0-2.42-13.34L1367.08,871A9.62,9.62,0,0,0,1353.73,873.47Z"/><path class="cls-9" d="M1379.33,906.92h0a8,8,0,0,0-5.3,9.88l17.54,58.13a8,8,0,0,0,9.89,5.3h0a8,8,0,0,0,5.3-9.89l-17.54-58.12A8,8,0,0,0,1379.33,906.92Z"/><path class="cls-9" d="M1316.11,885.71s-10.68,44.06,9.27,69.35c6.91,8.75,63.67-10.1,65.67-22.43s-13.68-50.43-13.68-50.43Z"/><path class="cls-9" d="M1321.12,924.42h0a7.94,7.94,0,0,0-5.29,9.87l17.5,58a7.94,7.94,0,0,0,9.87,5.29h0a7.93,7.93,0,0,0,5.29-9.86l-17.5-58A7.94,7.94,0,0,0,1321.12,924.42Z"/><path class="cls-9" d="M1389.94,886.54c-1.79-88.46,2.52-215.7,33.26-319.52,7.12-24,10.19-33.12,16.34-46.51,5-10.77-8.39-31.75-26.73-40.42-17.2-8.14-42.09-3.72-45.51,1.63-5.82,9.11-11.23,25.93-19.6,52.61C1318.61,627,1308,743.75,1314.91,892Z"/><path class="cls-18" d="M1577,1326.3c-43.42-1.91-89.56-4.09-138.81-6.49-13.81-73.09-29.6-159.78-44-246.1q-6.43-38.68-11.28-73-4.15-29.29-7.31-55.34c-.53-4.36-1-8.66-1.53-12.88v0q-.7-6.09-1.36-12v-.1c-.78-6.93-1.49-13.66-2.17-20.18-.43-4.15-.83-8.23-1.23-12.22-.17-1.8-.34-3.58-.51-5.35-.36-3.78-.69-7.48-1-11.12q-.37-4-.7-7.95a2,2,0,0,1,0-.23q-.55-6.5-1-12.62c-.19-2.45-.38-4.86-.55-7.22-5-66.06-4-99.84-4-99.84l31.5,6.09,129.35,25,18.47,3.57,3,56.08.53,9.77.53,10,1.59,29.72,1.63,30.46,1.74,32.46L1562,1116h0Z"/><path class="cls-18" d="M1738.05,1332.5c-42.84-1.33-88.57-3.07-137.85-5.2-11.9-62.81-25.39-136.29-38.22-211.25h0q-3.6-21.12-7.15-42.33c-10.2-61.31-17.25-114.32-22.11-158.83q-1.8-16.54-3.23-31.52-1.5-16-2.65-30.2-.39-4.81-.74-9.44-.37-5.07-.72-9.89c-1.72-24.75-2.57-44.47-3-59.08-.58-20.61-.26-31-.26-31l179.31,34.62,4.23,79,.23,4.17.76,14.21,1.76,32.93,2,38.12Z"/><path class="cls-11" d="M1719.17,867.64c-.35,13.64-82.85,19.06-184.88,15.87s-183.58-17.29-183.23-30.93,82.45-21.66,184.49-18.47S1719.52,854,1719.17,867.64Z"/><path class="cls-19" d="M1694.19,481.38s-18-71.51-151.16-72.23c-192-1-174.2,175.35-192,443.43,0,0,189.1-26.74,368.21,11.7C1719.27,864.28,1735.88,590.65,1694.19,481.38Z"/><path class="cls-19" d="M1743.33,471.13l-86.95,48.1s-190.37,17.29-240.91,9-64.41-45.44-64.41-45.44,53.83-55.69,145.32-70.56c8.6-1.41,17.51-2.45,26.75-3.05a263.13,263.13,0,0,1,46.25.92C1685.34,423.14,1743.33,471.13,1743.33,471.13Z"/><path class="cls-9" d="M1561.33,392.78l-10-32.43-2.93-9.44-17.19-55.52-2.27,55.22-1.35,33.15-.43,10.49c-.29,7.12-4.63,8.62-9.91,14.81-2.15,2.51-15.84,17.71-.3,24.58,19.37,8.56,55.58-4.4,69.34-21.37C1586.13,412.25,1564.58,403.26,1561.33,392.78Z"/><path class="cls-18" d="M1367.13,863.61s110.56-32.52,339.53,12.12l1.76,32.94-335.65,11.87Z"/><path class="cls-11" d="M1745.14,473.13c7.34,10.46-8.25,34.5-34.81,53.7s-54,26.28-61.38,15.82,8.26-34.49,34.82-53.69S1737.81,462.68,1745.14,473.13Z"/><path class="cls-20" d="M1486.9,274.55a72.84,72.84,0,0,0,0,30.28c3.51,16.85,20.64-24.56,20.64-24.56Z"/><path class="cls-9" d="M1484.86,309.69c4.28-32.58,29.65-56.11,56.66-52.56S1587,290,1582.7,322.53s-29.65,56.11-56.66,52.57S1480.59,342.27,1484.86,309.69Z"/><path class="cls-11" d="M1583.93,305.5,1560.05,303a17.41,17.41,0,0,1-12.9-7.82c-4.89-7.66-10.78-11.59-33.06-10.75-28.21,1.06-46.83-15.76-49.88-30.52-3.11-15.07,11.33-25.28,25.5-18.09s8.08-10.44,21.7-12.31c25.47-3.49,30.24,16.14,51.08,15.5,27.33-.84,76.29,19.93,53.07,68Z"/><path class="cls-13" d="M1528.32,318.09a1,1,0,0,1-.88-.16,1,1,0,0,1-.21-1.4,10.84,10.84,0,0,1,12.55-4.3,1,1,0,0,1,.71,1.22,1.09,1.09,0,0,1-1.23.71,17.1,17.1,0,0,0-10.42,3.57A1,1,0,0,1,1528.32,318.09Z"/><path class="cls-13" d="M1535.52,326.45c-.63,2.3-2.49,3.8-4.16,3.34s-2.52-2.69-1.89-5,2.49-3.8,4.16-3.34S1536.15,324.15,1535.52,326.45Z"/><path class="cls-13" d="M1494.34,307.47a.74.74,0,0,1-.15-.72,1.2,1.2,0,0,1,1.11-.87,7,7,0,0,1,7.58,6.91,1.19,1.19,0,0,1-.8,1.15.74.74,0,0,1-1-.53,10.52,10.52,0,0,0-6.29-5.75A.7.7,0,0,1,1494.34,307.47Z"/><path class="cls-13" d="M1503.3,320.9c.3,2.37-.85,4.46-2.57,4.68s-3.35-1.53-3.65-3.9.86-4.46,2.58-4.68S1503,318.53,1503.3,320.9Z"/><path class="cls-20" d="M1615.56,307.08s-18.17,37.19-39.88,38.2c0,0,15.94-29.17-20.94-43.65C1554.74,301.63,1591.33,295.87,1615.56,307.08Z"/><path class="cls-9" d="M1582.59,326.72c-5,3.18-11.36,2.14-14.21-2.33s-1.09-10.67,3.91-13.85,11.36-2.14,14.21,2.33S1587.59,323.54,1582.59,326.72Z"/><path class="cls-20" d="M1554.74,301.63s3.19,29.87-2.89,35.51-46.22,8.08-64.95.84h0c-.31,19.18,13.21,36.12,32.13,39.29a56.81,56.81,0,0,0,19.16-.06h0c13.11-2.3,25.86-7.72,31.27-19.88,1.64-3.71-3.14-26.48-3.14-26.48s-1.8-13.36,6-20.31C1572.29,310.54,1563.32,302.47,1554.74,301.63Z"/><path class="cls-11" d="M1492.74,233.5h-.41l0-1.35c6.51.18,7.08-5,7.1-5.22l1.34.13C1500.8,227.11,1500.13,233.5,1492.74,233.5Z"/><path class="cls-14" d="M1506.1,276.55a90.26,90.26,0,0,1-15.49-6.44c-10.3-5.56-16-12-16.55-18.59-.37-4.6.43-7.68,2.46-9.43,3.24-2.78,8.83-1.48,13.77-.33l2.13.49-.14.65c-.7-.14-1.41-.31-2.15-.48-4.78-1.12-10.19-2.38-13.17.18-1.85,1.6-2.58,4.5-2.23,8.87,1.24,15.45,31.25,24.35,31.56,24.43Z"/><path class="cls-14" d="M1565.2,245.21a53,53,0,0,1-24.3-5.53,36.44,36.44,0,0,1-10.84-8l.51-.43c.14.16,14.26,16.63,43.55,12.67l.09.66A67.26,67.26,0,0,1,1565.2,245.21Z"/><path class="cls-14" d="M1502.81,355.79c-.42-1.86-1.79-5.92,5-5.79s11.15-4.13,16-1.65,5,10.19-2.84,10.24c-5.4,0-9.15,3-12,2.79C1503.56,361,1503.25,357.81,1502.81,355.79Z"/><path class="cls-9" d="M1497.57,618.87c36.81,36.44,127.22,46.49,149.9,27.55,26.4-22,22.94-68.33,13.11-103.15-3.62-12.8.07-21.64,17.86-39,7.56-7.39,19.89-16.37,40.73-18,11.21-.89,21.48.51,24.88,9.33,5.33,13.8,8.77,24.84,14.11,50.79,12.67,61.63,3.25,115.06-21.71,150.89-35,50.3-130.69,101.67-286-12C1443,679.91,1491.55,612.91,1497.57,618.87Z"/><path class="cls-11" d="M1430.36,625.92h0a3.67,3.67,0,0,1-1.17-5l85.66-137a3.66,3.66,0,0,1,5-1.16h0a3.67,3.67,0,0,1,1.17,5l-85.66,137A3.67,3.67,0,0,1,1430.36,625.92Z"/><path class="cls-14" d="M1601.23,481.12c-22,35.17-65.65,47.53-97.53,27.6s-39.9-64.59-17.91-99.76,44.53-60.73,97.52-27.61C1638.13,415.62,1623.22,446,1601.23,481.12Z"/><path class="cls-13" d="M1573.34,427.61a1.47,1.47,0,0,1,.92-2.63c.48,0,11.56-.9,15.94,11.21a1.47,1.47,0,0,1-.84,1.9,1.61,1.61,0,0,1-1.9-.84c-4.5-6.78-12.84-9.32-13.24-9.33A1.45,1.45,0,0,1,1573.34,427.61Z"/><path class="cls-13" d="M1529.63,394.92a1.47,1.47,0,0,1,1.45-2.38c.46.1,11.49,1.55,13.22,14.32a1.47,1.47,0,0,1-1.22,1.67,1.59,1.59,0,0,1-1.68-1.22c-3-7.57-10.59-11.82-11-11.91A1.47,1.47,0,0,1,1529.63,394.92Z"/><path class="cls-13" d="M1539.93,486.56c-10.34,0-18.88-2.72-25.46-8.11-11.22-9.2-12.51-22.76-12.56-23.34a1.59,1.59,0,0,1,1.45-1.71,1.56,1.56,0,0,1,1.71,1.44c0,.17,1.26,12.86,11.44,21.19,7.4,6.05,17.67,8.39,30.51,6.94a1.58,1.58,0,0,1,.35,3.15A66.42,66.42,0,0,1,1539.93,486.56Z"/><path class="cls-13" d="M1532,430c-2.37,3.79-6.32,5.58-8.84,4s-2.63-5.91-.26-9.7,6.32-5.58,8.84-4S1534.35,426.24,1532,430Z"/><path class="cls-13" d="M1565.74,451.13c-2.37,3.79-6.33,5.58-8.84,4s-2.63-5.91-.26-9.7,6.32-5.58,8.83-4S1568.11,447.34,1565.74,451.13Z"/><path class="cls-9" d="M1497.57,618.87s4.39-39.43-11.14-56.7-48.42-27.59-41.07-14.84,21.25,26.44,21.25,26.44-31.06-27.86-34.43-17.78,23.87,34.06,23.87,34.06-39.6-30.21-39.7-19.65,30.15,33.29,30.15,33.29-38-26.63-37.79-14.36,31.52,21.81,28.15,31.89-13.35,51.29,13.54,64.08Z"/><path class="cls-15" d="M1476.73,589.29a1.65,1.65,0,0,1-1.65-1.63c-.08-6.3-9.28-12.45-9.38-12.52a1.65,1.65,0,1,1,1.82-2.75c.43.29,10.75,7.17,10.86,15.23a1.66,1.66,0,0,1-1.63,1.67Z"/><path class="cls-15" d="M1468.14,608.26a1.65,1.65,0,0,1-1.61-1.3c-2-9.51-11.26-15.46-11.36-15.52a1.65,1.65,0,1,1,1.77-2.78c.42.27,10.47,6.73,12.81,17.6a1.66,1.66,0,0,1-1.26,2A1.45,1.45,0,0,1,1468.14,608.26Z"/><path class="cls-15" d="M1457.85,620.9h-.11a1.64,1.64,0,0,1-1.53-1.76c.39-5.55-7.53-12-10.61-14.06a1.65,1.65,0,1,1,1.81-2.75c.51.34,12.69,8.44,12.09,17A1.66,1.66,0,0,1,1457.85,620.9Z"/><path class="cls-12" d="M1561.19,1129.78a1.76,1.76,0,0,1-1.74-1.52c-.11-.82-11-82-31.82-141.12-5.94-16.83-17-40.41-36.06-57.18-11.37-10-20.33-12.88-20.42-12.9a1.76,1.76,0,0,1,1-3.36c1.52.47,37.55,12.18,58.74,72.27,21,59.43,31.89,141,32,141.83a1.73,1.73,0,0,1-1.5,2Z"/><path class="cls-18" d="M760.52,1314.59c-49.18,1.1-97.88,2.26-144.95,3.39l-21.48-181.11-5-41.85V1095h0l-4.31-36.43L570.7,955.65l-2.08-15.3c22.89,2.78-52.2-16.15-34.66-4.23l-37-21.71s2.45-.77,6.89-2.06c3.34-1,7.82-2.25,13.21-3.71,14.83-4,36.63-9.41,61.23-14,3.65-.69,7.36-1.34,11.13-2l2.32-.39c7.86-1.3,15.9-2.48,24-3.47,48.46-5.95,99.49-5.37,127,15.76,1.3,13,2.8,30.45,4.33,50.47,4.45,57.57,9.25,136.87,10.73,196.85C759.24,1207.12,760.06,1262.61,760.52,1314.59Z"/><path class="cls-18" d="M626.7,929.84,619.85,960l-12.94,56.83h0L599.59,1049v0l-10.47,46-9.1,40-42,184.77c-29.61.68-58.23,1.32-85.49,1.85l-23.31.45-5,.09q-25.31.46-48.7.78c1.52-24.75,3.09-50,4.66-75.25.15-2.45.31-4.88.45-7.33h0c2.24-36.16,4.49-72.15,6.64-106.35h0c1.51-24,3-47.2,4.35-68.9q.18-2.86.37-5.69.36-5.79.71-11.41.25-3.93.5-7.78.87-13.51,1.68-26c1.63-25.14,3.06-46.89,4.21-63.91,1.09-15.9,1.94-27.69,2.48-34.28.23-2.65.39-4.46.51-5.36,0,0,12.78-.27,32.2-.17,18.84.1,43.93.52,69.65,1.84,18.41.94,37.14,2.33,54.13,4.39,7.62.93,15.83,1.37,24,2C598.53,920,615,921.88,626.7,929.84Z"/><path class="cls-12" d="M590.76,1095.3l-3.29-.68,10.44-50.13c6.68-31.68,12.54-48.57,37.28-66.62l2,2.71c-23.91,17.44-29.32,33.07-36,64.59Z"/><path class="cls-8" d="M438.27,519.33s21.65-70.76,155.09-64.85c117.8,5.22,150.1,66.94,159.26,187.3,5.8,76.25,14,200.26,15.21,309.52,0,0-160.38,38.42-371.4-37.06C396.43,914.24,407.23,589.81,438.27,519.33Z"/><path class="cls-9" d="M617.58,734.31c47,21.68,135.45.24,150.3-25.31,17.28-29.71-1.78-72-22.92-101.43-7.77-10.79-7.32-20.36,3.46-42.76,4.59-9.53,13.1-22.17,32.13-30.85,10.23-4.66,20.36-6.85,26.57.27,9.72,11.15,16.73,20.36,30.61,42.92,33,53.59,42.36,107,31.14,149.23-15.76,59.24-88.1,140.2-272.92,86.48C587.17,810.31,609.89,730.77,617.58,734.31Z"/><path class="cls-8" d="M371.84,533s9.82,8.63,49.43,56.06c44.37,53.12,250.57,59.06,301.63,53.24s102.43-95.57,102.43-95.57S781.51,478.64,640,459.86c-8.66-1.14-17.43-3.32-26.66-4.38a282.76,282.76,0,0,0-46.39-1.39C420.81,461.48,371.84,533,371.84,533Z"/><path class="cls-9" d="M585.46,462.25c-3.72-10.65,5.06-9.35,10-18L611,417.57l4.5-7.77,26.45-45.7-9.15,49.37-5.5,29.64-1.73,9.38c-1.18,6.36.33,7.65,3.76,14.2,1.39,2.65,6.41,13.24-3.86,15.42C616.21,484.07,590.21,475.84,585.46,462.25Z"/><path class="cls-11" d="M602.71,403.82s-43.84-28.47-28-62.39,35.81,43,35.81,43l-2.64,19.12Z"/><path class="cls-11" d="M611,416.74c0,.28,0,.56,0,.83-.55,16.18,16.19,25.61,16.19,25.61l.11-.07,5.5-29.64c-5.16-2.51-12.59-5.33-17.3-3.67C613,410.67,611.28,412.76,611,416.74Z"/><path class="cls-9" d="M686.21,382.77c3.22-29.26-13.84-55.14-38.11-57.81s-46.54,18.88-49.76,48.14,13.84,55.14,38.11,57.81S683,412,686.21,382.77Z"/><path class="cls-9" d="M686.2,382.86c3.22-29.26-13.84-55.14-38.1-57.81s-46.55,18.88-49.77,48.14,13.84,55.14,38.11,57.81S683,412.11,686.2,382.86Z"/><path class="cls-11" d="M605.46,367.63s13.45,6.32,22-2.75,14.34-17.23,38.66-10.29,47.74-2.6,49.9-15.93S705.83,317.75,692,321s1.65-7.52-10.52-18.83-34.31,6.83-47.75,2.6-58-1.73-59,36.68Z"/><path class="cls-9" d="M597.54,376.77c3.68,3.83,9.43,4.28,12.86,1s3.22-9.06-.45-12.89-9.43-4.28-12.86-1S593.87,372.93,597.54,376.77Z"/><path class="cls-14" d="M688,338.65c-3.22,0-7.21-.95-11.92-2.83a76,76,0,0,1-10-4.93l.32-.51c.17.11,17.67,10.67,26.09,6.8,4.07-1.87,4.93-4.11,4.38-5.58-.67-1.78-3.51-3-7.09-2-6.92,2-11.14.4-11.32.33l.22-.56s4.22,1.62,10.93-.35c3.93-1.15,7.06.28,7.82,2.32.65,1.73-.25,4.3-4.69,6.34A11.31,11.31,0,0,1,688,338.65Z"/><path class="cls-14" d="M641.12,315.16a22.73,22.73,0,0,1-4.18-.38,104,104,0,0,1-11.36-3c-7-2.16-13.08-4-19-1.7l-.22-.56c6.09-2.4,12.25-.51,19.38,1.68a101,101,0,0,0,11.29,3c12.44,2.33,25-6.93,25.41-7.59l.52.3C662.41,307.87,652.1,315.16,641.12,315.16Z"/><path class="cls-14" d="M585.28,336.92h-.19c-.5-.09-1.07-.53-1-2.11l0-.1c.15-.34,3.84-8.3,7.16-7,.41.16,1,.64.65,2.05C591.23,332.4,587.24,336.92,585.28,336.92Zm-.54-2c0,.61,0,1.33.45,1.41,1.41.24,5.48-4.15,6.21-6.73.3-1.09-.14-1.26-.29-1.32C588.81,327.37,585.75,332.7,584.74,334.9Z"/><path class="cls-13" d="M650.66,376a.87.87,0,0,0,.37-.7.89.89,0,0,0-.87-.92,9.69,9.69,0,0,0-10,6.46.9.9,0,0,0,.47,1.18,1,1,0,0,0,1.18-.47,15.32,15.32,0,0,1,8.28-5.38A.94.94,0,0,0,650.66,376Z"/><path class="cls-13" d="M644.37,388c0,2.14,1.35,3.84,2.9,3.8S650,390,650,387.83s-1.36-3.83-2.91-3.79S644.31,385.84,644.37,388Z"/><path class="cls-13" d="M681.75,384.93a.66.66,0,0,0,.66.06,1.1,1.1,0,0,0,.66-1.08,6.29,6.29,0,0,0-6.91-6.06,1.08,1.08,0,0,0-.94.82.67.67,0,0,0,.57.83,9.36,9.36,0,0,1,5.74,5A.57.57,0,0,0,681.75,384.93Z"/><path class="cls-13" d="M673.58,390c-.76,2-.21,4.06,1.24,4.62s3.25-.62,4-2.62.2-4.07-1.25-4.62S674.34,388,673.58,390Z"/><path class="cls-14" d="M681.8,419a11.93,11.93,0,0,1-6.73-2.1c-8.79-5.9-11.6-22.86-6.26-37.81h0c3.29-9.18,9-15.91,15.4-18A12,12,0,0,1,695,362.49c8.79,5.9,11.6,22.86,6.26,37.81-3.29,9.18-9,15.92-15.4,18A13,13,0,0,1,681.8,419Zm6.46-56.73a10.93,10.93,0,0,0-3.47.58c-5.82,1.91-11.13,8.22-14.23,16.87h0c-5.07,14.19-2.58,30.18,5.55,35.64a10.19,10.19,0,0,0,9.17,1.2c5.82-1.91,11.13-8.22,14.22-16.87,5.08-14.19,2.59-30.18-5.54-35.64A10.14,10.14,0,0,0,688.26,362.25Z"/><g class="cls-21"><path class="cls-14" d="M620.86,367.55c-3.86,14.59.95,30.57,10.74,35.68s20.85-2.56,24.71-17.15-.95-30.57-10.74-35.68S624.72,353,620.86,367.55Z"/></g><g class="cls-21"><path class="cls-14" d="M668.38,380.27c-3.87,14.66,0,30.84,8.74,36.13s18.9-2.29,22.77-16.95,0-30.83-8.75-36.13S672.25,365.62,668.38,380.27Z"/></g><path class="cls-14" d="M639.07,405.31a15.49,15.49,0,0,1-7.11-1.77c-10.79-5.53-16.15-22.71-12-38.3,2.45-9.07,7.58-15.93,14.1-18.82a15.28,15.28,0,0,1,13.54.36c10.79,5.53,16.15,22.71,12,38.31-2.44,9.06-7.58,15.92-14.1,18.81A15.78,15.78,0,0,1,639.07,405.31Zm1.46-58.43a13.89,13.89,0,0,0-5.67,1.24c-5.92,2.62-10.8,9.2-13.06,17.6h0c-4,14.79,1,31,11,36.16a13.44,13.44,0,0,0,11.94.32c5.92-2.62,10.8-9.2,13.06-17.6,4-14.79-1-31-11-36.16A13.65,13.65,0,0,0,640.53,346.88Z"/><path class="cls-14" d="M670.22,385.84a1.73,1.73,0,0,1-1.15-.43c-.19-.17-4.58-3.88-12.36-2.62a1.74,1.74,0,0,1-.56-3.43c9.51-1.54,15,3.25,15.23,3.45a1.74,1.74,0,0,1-1.16,3Z"/><path class="cls-11" d="M574.43,341.8c-6.65-5.68-2.67-13.56-2.63-13.64l.87.45c-.15.29-3.66,7.28,2.4,12.45Z"/><path class="cls-11" d="M566.94,350.73l-.68-.71c.22-.2,5.49-5.08,10.11-5l0,1h-.12C572,346,567,350.69,566.94,350.73Z"/><path class="cls-14" d="M658.28,416.13c-1.08,3.18-5,4.2-7.24,3.43s-3.89-3.38-2.33-6.53,4.93-5.78,7.21-5S659.36,413,658.28,416.13Z"/><path class="cls-11" d="M370.93,534.34c-5.12,9.31,14.08,30.27,42.89,46.82s56.31,22.42,61.43,13.12S461.17,564,432.37,547.46,376.06,525,370.93,534.34Z"/><path class="cls-11" d="M550.71,720.32h0a3.82,3.82,0,0,1-1.55-5.15l79.61-147.92a3.82,3.82,0,0,1,5.15-1.55h0a3.83,3.83,0,0,1,1.55,5.16l-79.6,147.91A3.81,3.81,0,0,1,550.71,720.32Z"/><path class="cls-14" d="M718.18,558.6c-20.43,38-64.88,53.73-99.3,35.21s-45.74-64.31-25.31-102.27,42.1-66,99.3-35.21C752,488.17,738.61,520.63,718.18,558.6Z"/><path class="cls-13" d="M685.65,505a1.48,1.48,0,0,1-.67-1.18,1.52,1.52,0,0,1,1.44-1.61c.49,0,11.93-1.71,17.29,10.56a1.53,1.53,0,0,1-.75,2,1.66,1.66,0,0,1-2-.74c-5.12-6.73-14-8.81-14.36-8.79A1.49,1.49,0,0,1,685.65,505Z"/><path class="cls-13" d="M638.1,474a1.52,1.52,0,0,1-.41-1.3,1.54,1.54,0,0,1,1.75-1.27c.49.08,12,.84,14.68,14a1.54,1.54,0,0,1-1.15,1.83,1.69,1.69,0,0,1-1.83-1.16c-3.59-7.66-11.78-11.54-12.19-11.61A1.5,1.5,0,0,1,638.1,474Z"/><path class="cls-13" d="M651.22,568.5c-9.1,0-16.88-2.28-23.21-6.81-12.26-8.79-14.51-22.77-14.6-23.36a1.65,1.65,0,1,1,3.26-.5c0,.17,2.17,13.26,13.3,21.2,8.08,5.78,18.89,7.51,32.11,5.15a1.65,1.65,0,0,1,.58,3.24A65,65,0,0,1,651.22,568.5Z"/><path class="cls-13" d="M642.91,510.28c-2.2,4.09-6.18,6.22-8.9,4.76s-3.13-6-.93-10,6.18-6.21,8.9-4.75S645.11,506.19,642.91,510.28Z"/><path class="cls-13" d="M679.35,529.89c-2.2,4.09-6.19,6.22-8.9,4.76s-3.13-6-.93-10,6.18-6.21,8.89-4.75S681.54,525.8,679.35,529.89Z"/><path class="cls-9" d="M617.58,734.31s-9.34-38.56-29.84-49.48-54.93-9.39-43.66.08,29,17.59,29,17.59-38.71-15.57-38.43-4.94,34.07,23.85,34.07,23.85-47.54-14.86-44-4.91,39.71,21,39.71,21-44.79-12.06-40.44-.59,37.08,9.72,37.36,20.36,5,52.76,34.62,55.59Z"/><path class="cls-15" d="M587.33,713.73a1.65,1.65,0,0,1-1.54-1.07c-1.86-4.9-10.08-7.84-13.09-8.55a1.65,1.65,0,0,1,.76-3.21C574,701,586,704,588.87,711.5a1.65,1.65,0,0,1-1,2.12A1.7,1.7,0,0,1,587.33,713.73Z"/><path class="cls-15" d="M585.74,734.49a1.64,1.64,0,0,1-1.4-.77c-5.17-8.23-15.86-10.68-16-10.7a1.65,1.65,0,0,1,.7-3.22c.5.11,12.14,2.75,18.06,12.17a1.64,1.64,0,0,1-.52,2.27A1.62,1.62,0,0,1,585.74,734.49Z"/><path class="cls-15" d="M580.38,749.89a1.66,1.66,0,0,1-1.58-1.2c-1.53-5.35-11.18-8.74-14.78-9.59a1.65,1.65,0,0,1,.76-3.21c.61.15,14.82,3.6,17.19,11.9a1.65,1.65,0,0,1-1.13,2A1.47,1.47,0,0,1,580.38,749.89Z"/><path class="cls-9" d="M528,834.37c-51.74,2.35-120.7-34.87-117.18-101.52,1.81-34.33,18.31-71,45.76-136,5.18-12.25-32.82-55.23-76.38-57.07-11.23-.48-82.93,122.09-82,192.57.82,61.29,28.79,149.89,220.23,169.77C527.57,903.06,536.49,834,528,834.37Z"/><path class="cls-9" d="M523.68,834.47s52.78-8.69,75.1-2.25,45.93,31.55,31.25,30.49S597,855.12,597,855.12s38.62,15.81,31,23.24-41.06-6.64-41.06-6.64,44.45,22.47,35,27.16-43.11-12.62-43.11-12.62,40.53,22.56,29.41,27.75-33.37-18.86-41-11.43-51.84,15.2-76.84-6.27Z"/><path class="cls-15" d="M597,856.77a1.69,1.69,0,0,1-.84-.23c-.09-.06-9.64-5.66-15.35-3a1.65,1.65,0,0,1-1.4-3c7.3-3.4,18,2.88,18.44,3.14a1.65,1.65,0,0,1-.85,3.07Z"/><path class="cls-15" d="M586.92,873.36a1.7,1.7,0,0,1-.87-.24h0c-.09-.06-9.46-5.76-18.91-3.46a1.65,1.65,0,0,1-.78-3.2c10.81-2.63,21,3.59,21.43,3.86a1.64,1.64,0,0,1-.87,3Z"/><path class="cls-15" d="M578.8,887.91a1.71,1.71,0,0,1-.84-.23c-3.17-1.9-12.46-6.2-17.28-3.42A1.65,1.65,0,1,1,559,881.4c7.48-4.31,20.08,3.13,20.61,3.45a1.64,1.64,0,0,1,.57,2.26A1.67,1.67,0,0,1,578.8,887.91Z"/><path class="cls-9" d="M1275.77,1018.35h0a9,9,0,0,1,7.22,10.48l-13.93,75.57a9,9,0,0,1-10.48,7.22h0a9,9,0,0,1-7.22-10.48l13.93-75.57A9,9,0,0,1,1275.77,1018.35Z"/><path class="cls-9" d="M1253.11,1014.17h0a9,9,0,0,1,7.22,10.49l-15.58,84.51a9,9,0,0,1-10.48,7.22h0a9,9,0,0,1-7.22-10.48l15.57-84.52A9,9,0,0,1,1253.11,1014.17Z"/><path class="cls-9" d="M1255.12,969.06l2.11,2.42a10.91,10.91,0,0,1-1.07,15.35l-44,38.3a10.92,10.92,0,0,1-15.36-1.07l-2.1-2.41a10.93,10.93,0,0,1,1.06-15.36l44-38.29A10.91,10.91,0,0,1,1255.12,969.06Z"/><path class="cls-9" d="M1230.45,1010h0a9,9,0,0,1,7.22,10.49l-12.49,67.74a9,9,0,0,1-10.48,7.22h0a9,9,0,0,1-7.22-10.48l12.48-67.74A9,9,0,0,1,1230.45,1010Z"/><path class="cls-9" d="M1299.08,978.14s17.58,48.35-1.75,79.37c-6.69,10.74-73.06-3.39-76.86-17s9.09-58.59,9.09-58.59Z"/><path class="cls-9" d="M1298.29,1022.43h0a9,9,0,0,1,7.2,10.46L1293,1100.5a9,9,0,0,1-10.46,7.2h0a9,9,0,0,1-7.21-10.46l12.46-67.61A9,9,0,0,1,1298.29,1022.43Z"/><path class="cls-9" d="M1215.93,988.35c-9.08-100-29.91-242.93-77.6-356.14-11-26.23-15.65-36.08-24.27-50.4-6.94-11.53,5.48-36.86,25.07-48.94,18.38-11.33-2.86-40.2,3.75-37.31,24.41,10.64,59.18,29.63,72,58.67,44.43,100.87,75.58,262.82,86.36,430.82Z"/><path class="cls-8" d="M1237.33,894c-.09,1.89-.17,3.84-.26,5.83-.22,4.91-.47,10.15-.78,15.72-.93,16.76-2.27,36.51-4.22,59.19-.19,2.33-.4,4.69-.61,7.08q-.27,3-.55,6-1,10.63-2.15,22.08c0,.3,0,.61-.08.93q-1.71,16.66-3.82,35-2.7,23.43-6.17,49.52c-4.25,31.79-9.4,66.55-15.67,104.23-6.18,37.11-12.6,74.29-19,110.56-51.31-.57-109.64-.43-168,.13l3.17-11.42v0h0L1036,1063.27l5.7-106.38.07-1.26,1.7-31.89,0-.39,1-19.48.14-2.45,1-19L1198.52,853l39.61-7.65S1238.62,861.68,1237.33,894Z"/><path class="cls-11" d="M883.77,952.12c1.78,14.77,85.31,13,187.58,0s181.88-35.1,180.09-49.87-84.28-16.57-186.56-3.63S882,937.34,883.77,952.12Z"/><path class="cls-8" d="M1120.71,932,1117,945.54l-6.17,22.3-14.62,52.78v0l-76.89,277.58-.07.26q0,.23-.06.27h0L1016,1310.2c-59.94.59-122.4,1.63-185,2.89l63-347.84a21.88,21.88,0,0,1,2.13-5.73A21.52,21.52,0,0,1,909.06,949c11.15-3.21,32.24-8.09,56.94-12.9l.09,0,.53-.1.55-.1c18-3.5,37.82-6.93,57.08-9.66,6.49-.93,12.92-1.76,19.2-2.49C1086.72,918.69,1122.56,918.68,1120.71,932Z"/><path class="cls-10" d="M917.91,548.3s29.05-81.73,132.54-78,181.63,139.71,201,432c0,0-169.46-37.16-368,49.53C883.46,951.81,802.2,675.08,917.91,548.3Z"/><path class="cls-10" d="M855.74,527.07l62.81,63.24S1107,609.16,1157,600.09s57.81-45.86,57.81-45.86-11.63-67.82-138.16-81.5c-8.6-.93-17.08-1.78-26.23-2.44-15.36-1.09-25.68.42-40.83.31C909.13,469.9,855.74,527.07,855.74,527.07Z"/><path class="cls-11" d="M1117.53,466l-.28-2.4c.14,0,13.32-1.62,17.93-9.84,2.37-4.22,2.09-9.57-.83-15.88-1.41-3.05-2.72-5.82-3.92-8.36-8.34-17.64-11.46-24.24-7-37.45l2.29.77c-4.15,12.29-1.37,18.18,6.89,35.65,1.2,2.54,2.51,5.32,3.93,8.38,3.26,7.06,3.51,13.14.73,18.08C1132.05,464.27,1118.12,466,1117.53,466Z"/><path class="cls-11" d="M1124.58,392.49s-7,20.07,4.07,43.26-5.66,37.2-23.16,26.7-27.38,12.24-49.47-3.62S1124.58,392.49,1124.58,392.49Z"/><path class="cls-9" d="M1004.43,470.59a28.6,28.6,0,0,0,25.17-14.18l16.27-28.06,4.71-8.14,27.75-47.89-10,51.86-6,31.13-1.71,8.87a14.37,14.37,0,0,0,10,16.46l.12,0c3.12,6.75,6.93,20.17-9.63,23.34-19.46,3.74-48.16-14.61-57-33.4Z"/><path class="cls-22" d="M1045.91,427.48c0,.29,0,.58,0,.87-.77,17,16.33,27,16.33,27l.12-.08,6-31.13c-5.28-2.68-12.88-5.69-17.75-4C1048,421.1,1046.25,423.29,1045.91,427.48Z"/><path class="cls-9" d="M1128.85,386.83c4-33.49-14.78-63.25-41.92-66.49s-52.38,21.29-56.37,54.78,14.78,63.25,41.92,66.48S1124.86,420.32,1128.85,386.83Z"/><path class="cls-13" d="M1079.46,381.1a1.12,1.12,0,0,0,.38-2.1c-.32-.18-7.38-4.94-14.85,1.5a1.14,1.14,0,0,0-.15,1.59,1.25,1.25,0,0,0,1.58.15,19.23,19.23,0,0,1,12.34-1.26A1.16,1.16,0,0,0,1079.46,381.1Z"/><path class="cls-13" d="M1123.41,392.13a1.14,1.14,0,0,0,1-.15,1.12,1.12,0,0,0,.28-1.57c-.21-.3-4.39-7.72-14-5.29a1.14,1.14,0,0,0-.84,1.35,1.23,1.23,0,0,0,1.35.84,19.25,19.25,0,0,1,11.6,4.39A1.17,1.17,0,0,0,1123.41,392.13Z"/><path class="cls-11" d="M1106.49,333.82s-3.57,20.91-30.27,21.37-46.14,9.41-44.86,28.75,38.93,63.66,6,75.16S1014.43,443,979.9,445.58,944.66,402.35,971,379,996.2,285.28,1083,298.73s46.55,79.16,46.55,79.16S1103.67,357,1106.49,333.82Z"/><path class="cls-14" d="M1027.94,461.92l-.19-.69c6.74-1.83,11-5.05,12.9-9.86,5.37-13.33-8.43-36.44-20.61-56.82-3.23-5.41-6.28-10.53-8.95-15.38-7.43-13.5-6.45-28.45,2.56-39,10-11.72,26.8-15.18,43.81-9,16.44,5.93,28.47,3.8,35.66,1a32.39,32.39,0,0,0,11.81-7.65l.54.46c-.16.19-16.33,18.42-48.25,6.9-16.73-6-33.22-2.66-43,8.82-8.94,10.47-9.87,24.75-2.48,38.19,2.67,4.84,5.72,9.94,8.94,15.35,12.27,20.53,26.17,43.8,20.66,57.45C1039.31,456.6,1034.81,460.06,1027.94,461.92Z"/><path class="cls-8" d="M966,936.11s204.11-39,270.29-20.6l-31.74,47-118,6.67Z"/><path class="cls-11" d="M1130.43,738.2h0a3.68,3.68,0,0,0,2.57-4.5l-42.41-155.93a3.67,3.67,0,0,0-4.5-2.58h0a3.68,3.68,0,0,0-2.57,4.5l42.41,155.94A3.68,3.68,0,0,0,1130.43,738.2Z"/><path class="cls-14" d="M1008.67,550.2c10.89,40,49.12,64.47,85.4,54.6s56.86-50.31,46-90.33-25.09-71-85.39-54.6C992.27,476.84,997.79,510.18,1008.67,550.2Z"/><path class="cls-13" d="M1111.81,545.45s-23.6,23.58-61.51,16.2c0,0,7.69,26.73,38.6,18.33C1115.08,572.85,1111.81,545.45,1111.81,545.45Z"/><path class="cls-13" d="M1049.31,502.08a1.47,1.47,0,0,0-1.56-2.31c-.46.13-11.4,2.12-12.5,15a1.49,1.49,0,0,0,1.3,1.62,1.62,1.62,0,0,0,1.62-1.31c2.59-7.71,10-12.32,10.37-12.43A1.46,1.46,0,0,0,1049.31,502.08Z"/><path class="cls-13" d="M1096.82,495.49a1.47,1.47,0,0,0,1.1-2.56c-.36-.31-7.93-8.46-19.33-2.48a1.48,1.48,0,0,0-.66,2,1.6,1.6,0,0,0,2,.66c7.89-2,15.76,1.79,16.06,2.05A1.43,1.43,0,0,0,1096.82,495.49Z"/><path class="cls-13" d="M1104.65,514.72a1.48,1.48,0,0,0-.27-2.78c-.47-.1-11-3.59-18.13,7.16a1.47,1.47,0,0,0,.37,2,1.62,1.62,0,0,0,2.05-.37c6-5.54,14.67-6,15-6A1.54,1.54,0,0,0,1104.65,514.72Z"/><path class="cls-13" d="M1058.51,529.09a1.47,1.47,0,0,0-.27-2.77c-.47-.11-11-3.59-18.13,7.15a1.47,1.47,0,0,0,.37,2,1.61,1.61,0,0,0,2-.37c6-5.53,14.67-6,15-6A1.4,1.4,0,0,0,1058.51,529.09Z"/><path class="cls-9" d="M1028,385.86c4.93,6,12.65,7.45,17.24,3.29s4.31-12.38-.62-18.36-12.66-7.45-17.25-3.29S1023,379.88,1028,385.86Z"/><path class="cls-13" d="M1077.23,394c0,2.38-1.38,4.33-3.11,4.34s-3.15-1.92-3.16-4.31,1.38-4.32,3.11-4.34S1077.21,391.63,1077.23,394Z"/><path class="cls-13" d="M1112.56,401.78c-.94,2.19-3,3.41-4.59,2.73s-2.11-3-1.17-5.21,3-3.42,4.59-2.73S1113.5,399.58,1112.56,401.78Z"/><path class="cls-18" d="M1118.48,366.53a28.14,28.14,0,0,0-5,4,44.11,44.11,0,0,0-8.88,13.09c-.27.58-.52,1.17-.76,1.76a1.82,1.82,0,0,0-.11.3,20,20,0,0,1,1.88,1.22q.47-1.19,1-2.34c3.39-7.48,8.16-13.24,13.32-16.35Q1119.19,367.42,1118.48,366.53Zm0,0a28.14,28.14,0,0,0-5,4,44.11,44.11,0,0,0-8.88,13.09c-.27.58-.52,1.17-.76,1.76a1.82,1.82,0,0,0-.11.3,20,20,0,0,1,1.88,1.22q.47-1.19,1-2.34c3.39-7.48,8.16-13.24,13.32-16.35Q1119.19,367.42,1118.48,366.53Zm0,0a28.14,28.14,0,0,0-5,4,44.11,44.11,0,0,0-8.88,13.09c-.27.58-.52,1.17-.76,1.76a1.82,1.82,0,0,0-.11.3,20,20,0,0,1,1.88,1.22q.47-1.19,1-2.34c3.39-7.48,8.16-13.24,13.32-16.35Q1119.19,367.42,1118.48,366.53Zm0,0a28.14,28.14,0,0,0-5,4,44.11,44.11,0,0,0-8.88,13.09c-.27.58-.52,1.17-.76,1.76a1.82,1.82,0,0,0-.11.3,20,20,0,0,1,1.88,1.22q.47-1.19,1-2.34c3.39-7.48,8.16-13.24,13.32-16.35Q1119.19,367.42,1118.48,366.53Zm0,0a28.14,28.14,0,0,0-5,4,44.11,44.11,0,0,0-8.88,13.09c-.27.58-.52,1.17-.76,1.76a1.82,1.82,0,0,0-.11.3,20,20,0,0,1,1.88,1.22q.47-1.19,1-2.34c3.39-7.48,8.16-13.24,13.32-16.35Q1119.19,367.42,1118.48,366.53Zm0,0a28.14,28.14,0,0,0-5,4,44.11,44.11,0,0,0-8.88,13.09c-.27.58-.52,1.17-.76,1.76a1.82,1.82,0,0,0-.11.3,20,20,0,0,1,1.88,1.22q.47-1.19,1-2.34c3.39-7.48,8.16-13.24,13.32-16.35Q1119.19,367.42,1118.48,366.53Zm0,0a28.14,28.14,0,0,0-5,4,44.11,44.11,0,0,0-8.88,13.09c-.27.58-.52,1.17-.76,1.76a1.82,1.82,0,0,0-.11.3,20,20,0,0,1,1.88,1.22q.47-1.19,1-2.34c3.39-7.48,8.16-13.24,13.32-16.35Q1119.19,367.42,1118.48,366.53Zm0,0a28.14,28.14,0,0,0-5,4,44.11,44.11,0,0,0-8.88,13.09c-.27.58-.52,1.17-.76,1.76a1.82,1.82,0,0,0-.11.3,20,20,0,0,1,1.88,1.22q.47-1.19,1-2.34c3.39-7.48,8.16-13.24,13.32-16.35Q1119.19,367.42,1118.48,366.53Zm0,0a28.14,28.14,0,0,0-5,4,44.11,44.11,0,0,0-8.88,13.09c-.27.58-.52,1.17-.76,1.76a1.82,1.82,0,0,0-.11.3,20,20,0,0,1,1.88,1.22q.47-1.19,1-2.34c3.39-7.48,8.16-13.24,13.32-16.35Q1119.19,367.42,1118.48,366.53Zm0,0a28.14,28.14,0,0,0-5,4,44.11,44.11,0,0,0-8.88,13.09c-.27.58-.52,1.17-.76,1.76a1.82,1.82,0,0,0-.11.3,20,20,0,0,1,1.88,1.22q.47-1.19,1-2.34c3.39-7.48,8.16-13.24,13.32-16.35Q1119.19,367.42,1118.48,366.53Zm0,0a28.14,28.14,0,0,0-5,4,44.11,44.11,0,0,0-8.88,13.09c-.27.58-.52,1.17-.76,1.76a1.82,1.82,0,0,0-.11.3,20,20,0,0,1,1.88,1.22q.47-1.19,1-2.34c3.39-7.48,8.16-13.24,13.32-16.35Q1119.19,367.42,1118.48,366.53Zm0,0a28.14,28.14,0,0,0-5,4,44.11,44.11,0,0,0-8.88,13.09c-.27.58-.52,1.17-.76,1.76a1.82,1.82,0,0,0-.11.3,20,20,0,0,1,1.88,1.22q.47-1.19,1-2.34c3.39-7.48,8.16-13.24,13.32-16.35Q1119.19,367.42,1118.48,366.53Zm0,0a28.14,28.14,0,0,0-5,4,44.11,44.11,0,0,0-8.88,13.09c-.27.58-.52,1.17-.76,1.76a1.82,1.82,0,0,0-.11.3,20,20,0,0,1,1.88,1.22q.47-1.19,1-2.34c3.39-7.48,8.16-13.24,13.32-16.35Q1119.19,367.42,1118.48,366.53Zm0,0a28.14,28.14,0,0,0-5,4,44.11,44.11,0,0,0-8.88,13.09c-.27.58-.52,1.17-.76,1.76a1.82,1.82,0,0,0-.11.3,20,20,0,0,1,1.88,1.22q.47-1.19,1-2.34c3.39-7.48,8.16-13.24,13.32-16.35Q1119.19,367.42,1118.48,366.53Zm0,0a28.14,28.14,0,0,0-5,4,44.11,44.11,0,0,0-8.88,13.09c-.27.58-.52,1.17-.76,1.76a1.82,1.82,0,0,0-.11.3,20,20,0,0,1,1.88,1.22q.47-1.19,1-2.34c3.39-7.48,8.16-13.24,13.32-16.35Q1119.19,367.42,1118.48,366.53Zm0,0a28.14,28.14,0,0,0-5,4,44.11,44.11,0,0,0-8.88,13.09c-.27.58-.52,1.17-.76,1.76a1.82,1.82,0,0,0-.11.3,20,20,0,0,1,1.88,1.22q.47-1.19,1-2.34c3.39-7.48,8.16-13.24,13.32-16.35Q1119.19,367.42,1118.48,366.53Zm0,0a28.14,28.14,0,0,0-5,4,44.11,44.11,0,0,0-8.88,13.09c-.27.58-.52,1.17-.76,1.76a1.82,1.82,0,0,0-.11.3,20,20,0,0,1,1.88,1.22q.47-1.19,1-2.34c3.39-7.48,8.16-13.24,13.32-16.35Q1119.19,367.42,1118.48,366.53Zm18.65.2a13.09,13.09,0,0,0-2-1.35,13.6,13.6,0,0,0-7.22-1.87h0a16,16,0,0,0-3.44.43,20,20,0,0,0-4,1.48l-.1,0a21.39,21.39,0,0,0-1.9,1.08,28.14,28.14,0,0,0-5,4,44.11,44.11,0,0,0-8.88,13.09c-.27.58-.52,1.17-.76,1.76a1.78,1.78,0,0,0-.12.29c-.54,1.31-1,2.62-1.42,3.95a53.53,53.53,0,0,0-2.61,18c.29,9.11,3.2,17.07,8.52,21.31l.09.07a14.17,14.17,0,0,0,7.17,3.05,15.78,15.78,0,0,0,5.36-.33,19.93,19.93,0,0,0,5.29-2.14,26.25,26.25,0,0,0,4.24-3.05A42.42,42.42,0,0,0,1140.75,412C1148.55,394.82,1146.92,374.53,1137.13,366.73Zm3.4,39.86s0,0,0,0c-.52,1.5-1.12,3-1.78,4.44a40.74,40.74,0,0,1-9.38,13.38,23.45,23.45,0,0,1-4,3,18.2,18.2,0,0,1-5.08,2.14,12.38,12.38,0,0,1-10.42-2.11l-.3-.23c-5.11-4.1-7.77-12-7.78-21a52,52,0,0,1,2.33-15.17c.43-1.39.91-2.77,1.46-4.14q.47-1.19,1-2.34c3.39-7.48,8.16-13.24,13.32-16.35a18.16,18.16,0,0,1,5.14-2.15,13.85,13.85,0,0,1,3.34-.37,11.93,11.93,0,0,1,1.7.15h0a11.83,11.83,0,0,1,4.33,1.6,15,15,0,0,1,1.35.95C1144,375,1145.85,391.42,1140.53,406.59Zm-22-40.06a28.14,28.14,0,0,0-5,4,44.11,44.11,0,0,0-8.88,13.09c-.27.58-.52,1.17-.76,1.76a1.82,1.82,0,0,0-.11.3,20,20,0,0,1,1.88,1.22q.47-1.19,1-2.34c3.39-7.48,8.16-13.24,13.32-16.35Q1119.19,367.42,1118.48,366.53Zm0,0a28.14,28.14,0,0,0-5,4,44.11,44.11,0,0,0-8.88,13.09c-.27.58-.52,1.17-.76,1.76a1.82,1.82,0,0,0-.11.3,20,20,0,0,1,1.88,1.22q.47-1.19,1-2.34c3.39-7.48,8.16-13.24,13.32-16.35Q1119.19,367.42,1118.48,366.53Zm0,0a28.14,28.14,0,0,0-5,4,44.11,44.11,0,0,0-8.88,13.09c-.27.58-.52,1.17-.76,1.76a1.82,1.82,0,0,0-.11.3,20,20,0,0,1,1.88,1.22q.47-1.19,1-2.34c3.39-7.48,8.16-13.24,13.32-16.35Q1119.19,367.42,1118.48,366.53Zm0,0a28.14,28.14,0,0,0-5,4,44.11,44.11,0,0,0-8.88,13.09c-.27.58-.52,1.17-.76,1.76a1.82,1.82,0,0,0-.11.3,20,20,0,0,1,1.88,1.22q.47-1.19,1-2.34c3.39-7.48,8.16-13.24,13.32-16.35Q1119.19,367.42,1118.48,366.53Zm0,0a28.14,28.14,0,0,0-5,4,44.11,44.11,0,0,0-8.88,13.09c-.27.58-.52,1.17-.76,1.76a1.82,1.82,0,0,0-.11.3,20,20,0,0,1,1.88,1.22q.47-1.19,1-2.34c3.39-7.48,8.16-13.24,13.32-16.35Q1119.19,367.42,1118.48,366.53Zm0,0a28.14,28.14,0,0,0-5,4,44.11,44.11,0,0,0-8.88,13.09c-.27.58-.52,1.17-.76,1.76a1.82,1.82,0,0,0-.11.3,20,20,0,0,1,1.88,1.22q.47-1.19,1-2.34c3.39-7.48,8.16-13.24,13.32-16.35Q1119.19,367.42,1118.48,366.53Zm0,0a28.14,28.14,0,0,0-5,4,44.11,44.11,0,0,0-8.88,13.09c-.27.58-.52,1.17-.76,1.76a1.82,1.82,0,0,0-.11.3,20,20,0,0,1,1.88,1.22q.47-1.19,1-2.34c3.39-7.48,8.16-13.24,13.32-16.35Q1119.19,367.42,1118.48,366.53Zm0,0a28.14,28.14,0,0,0-5,4,44.11,44.11,0,0,0-8.88,13.09c-.27.58-.52,1.17-.76,1.76a1.82,1.82,0,0,0-.11.3,20,20,0,0,1,1.88,1.22q.47-1.19,1-2.34c3.39-7.48,8.16-13.24,13.32-16.35Q1119.19,367.42,1118.48,366.53Zm0,0a28.14,28.14,0,0,0-5,4,44.11,44.11,0,0,0-8.88,13.09c-.27.58-.52,1.17-.76,1.76a1.82,1.82,0,0,0-.11.3,20,20,0,0,1,1.88,1.22q.47-1.19,1-2.34c3.39-7.48,8.16-13.24,13.32-16.35Q1119.19,367.42,1118.48,366.53Zm0,0a28.14,28.14,0,0,0-5,4,44.11,44.11,0,0,0-8.88,13.09c-.27.58-.52,1.17-.76,1.76a1.82,1.82,0,0,0-.11.3,20,20,0,0,1,1.88,1.22q.47-1.19,1-2.34c3.39-7.48,8.16-13.24,13.32-16.35Q1119.19,367.42,1118.48,366.53Zm0,0a28.14,28.14,0,0,0-5,4,44.11,44.11,0,0,0-8.88,13.09c-.27.58-.52,1.17-.76,1.76a1.82,1.82,0,0,0-.11.3,20,20,0,0,1,1.88,1.22q.47-1.19,1-2.34c3.39-7.48,8.16-13.24,13.32-16.35Q1119.19,367.42,1118.48,366.53Zm0,0a28.14,28.14,0,0,0-5,4,44.11,44.11,0,0,0-8.88,13.09c-.27.58-.52,1.17-.76,1.76a1.82,1.82,0,0,0-.11.3,20,20,0,0,1,1.88,1.22q.47-1.19,1-2.34c3.39-7.48,8.16-13.24,13.32-16.35Q1119.19,367.42,1118.48,366.53Zm0,0a28.14,28.14,0,0,0-5,4,44.11,44.11,0,0,0-8.88,13.09c-.27.58-.52,1.17-.76,1.76a1.82,1.82,0,0,0-.11.3,20,20,0,0,1,1.88,1.22q.47-1.19,1-2.34c3.39-7.48,8.16-13.24,13.32-16.35Q1119.19,367.42,1118.48,366.53Zm0,0a28.14,28.14,0,0,0-5,4,44.11,44.11,0,0,0-8.88,13.09c-.27.58-.52,1.17-.76,1.76a1.82,1.82,0,0,0-.11.3,20,20,0,0,1,1.88,1.22q.47-1.19,1-2.34c3.39-7.48,8.16-13.24,13.32-16.35Q1119.19,367.42,1118.48,366.53Zm0,0a28.14,28.14,0,0,0-5,4,44.11,44.11,0,0,0-8.88,13.09c-.27.58-.52,1.17-.76,1.76a1.82,1.82,0,0,0-.11.3,20,20,0,0,1,1.88,1.22q.47-1.19,1-2.34c3.39-7.48,8.16-13.24,13.32-16.35Q1119.19,367.42,1118.48,366.53Zm0,0a28.14,28.14,0,0,0-5,4,44.11,44.11,0,0,0-8.88,13.09c-.27.58-.52,1.17-.76,1.76a1.82,1.82,0,0,0-.11.3,20,20,0,0,1,1.88,1.22q.47-1.19,1-2.34c3.39-7.48,8.16-13.24,13.32-16.35Q1119.19,367.42,1118.48,366.53Z"/><g class="cls-21"><path class="cls-14" d="M1049.1,365.31c-6,16.84-1.92,36.18,9.12,43.19s24.88-1,30.88-17.8,1.92-36.18-9.13-43.19S1055.1,348.46,1049.1,365.31Z"/></g><g class="cls-21"><path class="cls-14" d="M1103.93,385.05c-6,16.92-3,36.4,6.73,43.52s22.54-.83,28.56-17.75,3-36.4-6.73-43.52S1110,368.13,1103.93,385.05Z"/></g><path class="cls-18" d="M1091,352.24a24.69,24.69,0,0,0-8.18-8.79,18.2,18.2,0,0,0-16-1.78A26.08,26.08,0,0,0,1056,349.2a39.35,39.35,0,0,0-6.49,10.36c-.42.95-.81,1.92-1.17,2.93a49.49,49.49,0,0,0-2.47,10,48.52,48.52,0,0,0,.31,15.62h0c1.58,8.52,5.53,15.85,11.39,20q.53.38,1.08.72a17.57,17.57,0,0,0,12.12,2.7,19.7,19.7,0,0,0,3.81-.91c8-2.76,14.74-10.36,18.52-20.83.35-1,.67-2,1-3q.59-2,1-4C1097.27,371.77,1095.65,360.41,1091,352.24Zm.83,34.54c-.23.77-.49,1.54-.76,2.31a36.1,36.1,0,0,1-10.71,15.85l0,0h0a21.67,21.67,0,0,1-6.4,3.6,18.27,18.27,0,0,1-2.62.66,16.41,16.41,0,0,1-11.43-2.24c-.38-.23-.75-.49-1.11-.76-5.92-4.3-9.7-12.19-10.8-21.22a47.75,47.75,0,0,1-.33-5.53c0-1.09,0-2.17.12-3.27h0a47.88,47.88,0,0,1,2.72-13,42.17,42.17,0,0,1,2-4.69c.49-1,1-1.92,1.56-2.82v0l0,0h0c3.55-5.84,8.33-10.11,13.52-11.93a16,16,0,0,1,14.1,1.56,22.54,22.54,0,0,1,7.3,7.73c4.6,7.76,6.16,18.83,3.91,29.63C1092.55,384.05,1092.2,385.41,1091.78,386.78Z"/><path class="cls-18" d="M1105.47,391.8a2,2,0,0,1-1.24-.62h0c-.19-.22-5-5-14.34-4.34a2.14,2.14,0,0,1-2.21-1.9,2,2,0,0,1,1.9-2.18c11.3-1,17.36,5.31,17.64,5.57a2.06,2.06,0,0,1-.09,2.9A2,2,0,0,1,1105.47,391.8Z"/><path class="cls-11" d="M1095.47,426.68a1.05,1.05,0,0,1-.74-.31c-9.3-9.24-21.82-4.86-22-4.82a1.05,1.05,0,0,1-.72-2c.14-.05,13.89-4.9,24.16,5.3a1.06,1.06,0,0,1,0,1.49A1,1,0,0,1,1095.47,426.68Z"/><path class="cls-13" d="M949.74,582.8c-4.2,6.64-28.29-1.06-53.79-17.2S853.19,531,857.4,524.34s28.28,1.06,53.78,17.2S954,576.16,949.74,582.8Z"/><path class="cls-9" d="M1058.25,723.71C1012.48,748,923,731.47,906.78,706.78,887.88,678.07,904,634.39,924,604.24c10.25-15.42,11.35-30.41-4.83-49.27-6.72-7.84-13.31-13.28-34.79-22.25-10.37-4.33-20.7-5.72-26.51,1.74-9.08,11.68-15.57,21.26-28.18,44.56-29.94,55.33-36.36,109.21-22.8,150.73,19,58.27,95.74,135.08,277.3,71.19C1092.83,797.91,1065.74,719.75,1058.25,723.71Z"/><path class="cls-9" d="M1058.25,723.71s7.19-39,27-51.06,54.32-12.43,43.6-2.35-28,19.18-28,19.18,37.79-17.7,38.1-7.07-32.7,25.71-32.7,25.71,46.64-17.48,43.69-7.35-38.48,23.17-38.48,23.17,44-14.53,40.33-2.83-36.48,11.77-36.16,22.4-2,53-31.48,57.43Z"/><path class="cls-15" d="M1087.23,701.48a1.68,1.68,0,0,1-.5-.07,1.64,1.64,0,0,1-1.07-2.07c2.43-7.68,14.29-11.29,14.79-11.44a1.65,1.65,0,0,1,.94,3.16c-.1,0-10.69,3.26-12.59,9.27A1.63,1.63,0,0,1,1087.23,701.48Z"/><path class="cls-15" d="M1090,722.13a1.65,1.65,0,0,1-1.44-2.44c5.38-9.75,16.87-13,17.35-13.16a1.64,1.64,0,0,1,2,1.15,1.66,1.66,0,0,1-1.15,2c-.14,0-10.65,3.07-15.35,11.57A1.65,1.65,0,0,1,1090,722.13Z"/><path class="cls-15" d="M1096.17,737.2a1.61,1.61,0,0,1-.37,0,1.65,1.65,0,0,1-1.24-2c1.9-8.42,15.9-12.65,16.5-12.83a1.65,1.65,0,0,1,.93,3.16c-3.54,1.05-13,5-14.22,10.4A1.64,1.64,0,0,1,1096.17,737.2Z"/><path class="cls-12" d="M1016,1311.87a1.48,1.48,0,0,1-.41,0,1.68,1.68,0,0,1-1.22-2c2.58-10.36,63.42-254.12,80.32-289.88,17-36.09,49.65-55.29,50-55.48a1.68,1.68,0,0,1,1.69,2.9c-.32.19-32,18.9-48.63,54-16.76,35.47-79.46,286.73-80.1,289.26A1.67,1.67,0,0,1,1016,1311.87Z"/><path class="cls-15" d="M838.57,782.27a1.66,1.66,0,0,1-1.42-.79,199.22,199.22,0,0,1-28.32-87c-2-24.56.41-50.09,7.21-75.89,11.58-43.88,32.16-73.75,32.36-74a1.65,1.65,0,0,1,2.71,1.88c-.2.3-20.49,29.77-31.91,73.13-6.69,25.41-9.08,50.56-7.08,74.73A195.81,195.81,0,0,0,840,779.78a1.66,1.66,0,0,1-.57,2.26A1.61,1.61,0,0,1,838.57,782.27Z"/></g></g></svg>