<svg xmlns="http://www.w3.org/2000/svg" viewBox="0 0 75.01 104.95"><defs><style>.cls-1,.cls-9{fill:#ff9600;}.cls-12,.cls-2,.cls-8{fill:#32bec8;}.cls-3{fill:#00788c;}.cls-4{fill:#ffdc00;}.cls-5{fill:#ff6400;}.cls-6{fill:#783200;}.cls-7{fill:#c87800;}.cls-8{font-size:35.15px;letter-spacing:0.1em;}.cls-12,.cls-8,.cls-9{font-family:CooperBlack, Cooper Black;}.cls-9{font-size:18.5px;letter-spacing:0.09em;}.cls-10{letter-spacing:0.08em;}.cls-11{letter-spacing:0.09em;}.cls-12{font-size:11px;letter-spacing:0.1em;}</style></defs><g id="Layer_2" data-name="Layer 2"><g id="Layer_2-2" data-name="Layer 2"><path class="cls-1" d="M73.56,60.32l-.21-.2.12-.27a4.57,4.57,0,0,0,.08-4.45,3.32,3.32,0,0,0-2.92-1.53,4.55,4.55,0,0,1-2.77,3.61c2.35,1.07,2.44,3.78,2.4,4.67l-.81,0c0-1.17-.14-3.79-2.9-4.26l-1.93-.33,1.9-.46c.13,0,3-.76,3.3-3.2h0l.08-.52a6.14,6.14,0,0,0-1.43-4.94,5.33,5.33,0,0,0-4-2l-.68,0,.09-.5a4.25,4.25,0,0,0-4.16-5.22,3.39,3.39,0,0,0-1.72.44l-.55.33L57.37,41a3.38,3.38,0,0,0-3.08-3.2,3.13,3.13,0,0,0-2.64,1.85l-.4.7-.33-.74c-1.08-2.48-3-3.84-5.25-3.84a7.37,7.37,0,0,0-6.36,4A4.1,4.1,0,0,0,40,44.34l.36.42L39.8,45s-1.67.84-1.67,6v9a8.48,8.48,0,0,1,1.6-3,6.29,6.29,0,0,1,4.83-2.24h.19C45.07,52,46.6,51,47.53,50.66a4.62,4.62,0,0,1,2.53-.19c1.83-2.56.67-4.41.08-5.1A3.59,3.59,0,0,0,46,44.25l-.4-.71a4.42,4.42,0,0,1,5.19,1.3,4.61,4.61,0,0,1,.13,5.84,5,5,0,0,1,1.82,1.15,3.69,3.69,0,0,1,1.12,3.11,5.79,5.79,0,0,1,5.53-.31,6.16,6.16,0,0,1,3.28,5.53,4.68,4.68,0,0,1-4,4.63,3.88,3.88,0,0,1-.67.06,3.51,3.51,0,0,1-3.43-2.54l.77-.25A2.74,2.74,0,0,0,58.53,64a3.86,3.86,0,0,0,3.29-3.83A5.35,5.35,0,0,0,59,55.36a5.15,5.15,0,0,0-5.56.81L52.3,57l.51-1.31a3,3,0,0,0-.68-3.29,4.25,4.25,0,0,0-4.32-1,3.88,3.88,0,0,0-2.27,3.4c2.69.39,4.74,2.37,4.74,4.75h-.81c0-2.22-2.2-4-4.91-4a5.47,5.47,0,0,0-4.21,2c-1.33,1.55-2,3.94-2,6.92a5.16,5.16,0,0,0,5.3,4.31c1.72,0,3.48-.68,4.1-1.57l.74-1.07v1.3C48.46,68.5,51.05,69,52,69c.38,0,6-.12,10-.12,3.82,0,5-.68,5.42-1.08.19-.19.18-.32.18-.33l-.15-.83.75.43a5.72,5.72,0,0,0,2.69.74,4.09,4.09,0,0,0,3.85-2.61A4.45,4.45,0,0,0,73.56,60.32ZM61.87,50.89a4.32,4.32,0,0,0-4.27.29l-.46-.66a5.11,5.11,0,0,1,5.07-.36,4.17,4.17,0,0,1,2.58,3.28l-.8.08A3.41,3.41,0,0,0,61.87,50.89Z"/><path class="cls-2" d="M70.64,22.11C70.64,16,62.93,11,53.42,11S36.21,16,36.21,22.11s7.71,11.14,17.21,11.14a25.2,25.2,0,0,0,5.67-.62h0c2.75,2.9,2.25,5.91-.32,9.89,0,0,8.56-5.67,5.61-11.82h0C68.2,28.66,70.64,25.57,70.64,22.11Z"/><path class="cls-1" d="M.32,65.23a4.08,4.08,0,0,0,3.84,2.61,5.76,5.76,0,0,0,2.7-.74l.74-.43-.15.83a.52.52,0,0,0,.18.33c.39.4,1.61,1.08,5.43,1.08,4,0,9.59.11,10,.12.94-.07,3.52-.53,3.52-1.64v-1.3l.74,1.07c.62.89,2.39,1.57,4.1,1.57a5.15,5.15,0,0,0,5.3-4.31c0-3-.7-5.37-2-6.92a5.49,5.49,0,0,0-4.21-2c-2.71,0-4.92,1.8-4.92,4h-.81c0-2.38,2.06-4.36,4.74-4.75a3.85,3.85,0,0,0-2.27-3.4,4.25,4.25,0,0,0-4.32,1,3,3,0,0,0-.67,3.29L22.72,57l-1.13-.84A5.16,5.16,0,0,0,16,55.36a5.35,5.35,0,0,0-2.83,4.8A3.87,3.87,0,0,0,16.49,64a2.74,2.74,0,0,0,3.2-1.93l.77.25A3.5,3.5,0,0,1,17,64.85a4,4,0,0,1-.68-.06,4.68,4.68,0,0,1-4-4.63,6.18,6.18,0,0,1,3.28-5.53,5.79,5.79,0,0,1,5.53.31,3.72,3.72,0,0,1,1.12-3.11,5.16,5.16,0,0,1,1.83-1.15,4.62,4.62,0,0,1,.12-5.84,4.42,4.42,0,0,1,5.19-1.3l-.39.71a3.59,3.59,0,0,0-4.18,1.12c-.6.69-1.75,2.54.08,5.1a4.62,4.62,0,0,1,2.53.19c.93.35,2.45,1.37,2.78,4.08h.19A6.27,6.27,0,0,1,35.28,57a8.48,8.48,0,0,1,1.6,3V51c0-5.16-1.66-6-1.67-6l-.52-.22.37-.42a4.1,4.1,0,0,0,.65-4.59,7.38,7.38,0,0,0-6.36-4c-2.31,0-4.18,1.36-5.26,3.84l-.32.74-.4-.7a3.16,3.16,0,0,0-2.65-1.85A3.39,3.39,0,0,0,17.64,41l-.05.64L17,41.27a3.41,3.41,0,0,0-1.72-.44,4.25,4.25,0,0,0-4.16,5.22l.09.5-.68,0a5.35,5.35,0,0,0-4,2,6.14,6.14,0,0,0-1.43,4.94l.08.52h0c.32,2.44,3.17,3.17,3.3,3.2l1.91.46-1.94.33c-2.76.47-3,3.09-2.9,4.26l-.81,0c0-.89.06-3.6,2.4-4.67a4.57,4.57,0,0,1-2.77-3.61A3.29,3.29,0,0,0,1.47,55.4a4.57,4.57,0,0,0,.07,4.45l.13.27-.21.2A4.42,4.42,0,0,0,.32,65.23ZM11,53.52l-.81-.08a4.19,4.19,0,0,1,2.58-3.28,5.13,5.13,0,0,1,5.08.36l-.47.66a4.32,4.32,0,0,0-4.27-.29A3.37,3.37,0,0,0,11,53.52Z"/><path class="cls-3" d="M46.94,21h3.79v4H46.94Z"/><path class="cls-3" d="M52.87,21h3.79v4H52.87Z"/><path class="cls-3" d="M58.8,21h3.79v4H58.8Z"/><path class="cls-4" d="M28.94,9.18H8A4.06,4.06,0,0,0,3.9,13.23V27A4.06,4.06,0,0,0,8,31.05H23.27c2.43,1.62,3.64,4.08,2.29,8.17,0,0,5.81-4.09,3.31-8.17h.07A4.07,4.07,0,0,0,33,27V13.23A4.07,4.07,0,0,0,28.94,9.18Z"/><path class="cls-5" d="M53.28,15.12A15.12,15.12,0,1,0,38.16,30.24c.2,0,.3,0,.5,0h0L36.23,40l10.66-12.5h0A15,15,0,0,0,53.28,15.12Z"/><path class="cls-6" d="M34.8,19.88V18.57a4.41,4.41,0,0,1,.32-1.75A4.34,4.34,0,0,1,36,15.56,7.27,7.27,0,0,1,37,14.62l1.09-.78a4.48,4.48,0,0,0,.83-.78,1.39,1.39,0,0,0,.33-.93.86.86,0,0,0-.31-.69,1.78,1.78,0,0,0-1.15-.28,7.47,7.47,0,0,0-1.41.13,11.75,11.75,0,0,0-1.36.34c-.43.14-.85.29-1.25.46s-.76.34-1.1.5l-1.29-5c.44-.21.93-.42,1.47-.64a16.63,16.63,0,0,1,1.77-.6c.64-.17,1.33-.32,2.08-.45a14.87,14.87,0,0,1,2.36-.18,10.35,10.35,0,0,1,2.94.4,6.81,6.81,0,0,1,2.22,1.12A5.08,5.08,0,0,1,45.66,9,4.58,4.58,0,0,1,46.14,11a5.56,5.56,0,0,1-.41,2.33,5.19,5.19,0,0,1-1,1.52A6.92,6.92,0,0,1,43.37,16,12.52,12.52,0,0,0,42,16.9a4.48,4.48,0,0,0-1,1.19,3.44,3.44,0,0,0-.42,1.79Zm0,1.14h5.78v4H34.8Z"/><path class="cls-7" d="M14.16,13.53v-1h6.05v1l-.95,11H15.09Zm.67,11.64H19.5v3.08H14.83Z"/><text class="cls-8" transform="translate(3.43 96.13) scale(0.57 1)">Sh</text><text class="cls-9" transform="translate(33.9 95.06) scale(0.81 1)">o<tspan class="cls-10" x="12.75" y="0">c</tspan><tspan class="cls-11" x="23.98" y="0">k!</tspan></text><text class="cls-12" transform="translate(31.9 82.86) scale(0.78 1)">h...</text></g></g></svg>