<svg xmlns="http://www.w3.org/2000/svg" viewBox="0 0 172.45 201.52"><defs><style>.cls-1{fill:#d68119;}.cls-2{fill:#58556c;}.cls-10,.cls-11,.cls-12,.cls-13,.cls-2,.cls-3,.cls-4,.cls-5,.cls-6,.cls-7,.cls-8,.cls-9{fill-rule:evenodd;}.cls-3{fill:#e4ae7c;}.cls-4{fill:#d67f54;}.cls-5{fill:#20201e;}.cls-6{fill:#da9077;}.cls-7{fill:#3f2716;}.cls-8{fill:#35253d;}.cls-9{fill:#2e1e11;}.cls-10{fill:#fff;}.cls-11{fill:#67627e;}.cls-12{fill:#383546;}.cls-13{fill:#432d4c;}</style></defs><g id="Layer_2" data-name="Layer 2"><g id="OBJECTS"><rect class="cls-1" y="21.11" width="172.45" height="172.45" rx="29.34"/><path class="cls-2" d="M86.22,200.78h-71c-.82-36.3,27.11-57.37,51.09-65.23,1.94-10.13,1.44-23.26,1.44-23.26h36.9s-.49,13.13,1.45,23.26c24,7.86,51.91,28.93,51.09,65.23Z"/><path class="cls-3" d="M47.15,83.17C47,81.28,39.21,79,36.63,85.24s2.07,15,10.86,15.7,6.21-.86,6.21-.86Z"/><path class="cls-3" d="M125.49,83.17c.17-1.89,7.93-4.14,10.52,2.07s-2.07,15-10.87,15.7-6.21-.86-6.21-.86Z"/><path class="cls-4" d="M104.9,125.31c-8,15.28-28.56,16.87-37.39.59.23-3.33.3-6.47.32-8.89h36.79C104.63,119.29,104.7,122.2,104.9,125.31Z"/><path class="cls-3" d="M86.22,125c-45.77,1.1-68.88-111.78,0-108.88C155.11,13.22,132,126.1,86.22,125Z"/><path class="cls-5" d="M70.85,72.61a4.1,4.1,0,1,1-5.74.92A4.1,4.1,0,0,1,70.85,72.61Z"/><path class="cls-5" d="M101.86,72.61a4.1,4.1,0,1,0,5.73.92A4.09,4.09,0,0,0,101.86,72.61Z"/><path class="cls-6" d="M65.79,87.49c2.34,1.79,2.44,4.42.23,5.87s-5.9,1.16-8.24-.63-2.43-4.42-.22-5.87S63.45,85.7,65.79,87.49Z"/><path class="cls-6" d="M106.91,87.49c-2.33,1.79-2.43,4.42-.22,5.87s5.89,1.16,8.23-.63,2.44-4.42.23-5.87S109.25,85.7,106.91,87.49Z"/><path class="cls-7" d="M72.64,61.48l-.46-.19a12.13,12.13,0,0,0-10.13.85c-.74.48-3.63,2.82-2.81,3.68.33.09,3.21-1.38,4.06-1.65a11.38,11.38,0,0,1,3.77-.51,10.31,10.31,0,0,1,3.46.7l.29.13c2.42,1.17,2.2,1.92,3.85.79C77.2,63.94,74.59,62.49,72.64,61.48Z"/><path class="cls-7" d="M99.81,61.48l.46-.19a12.13,12.13,0,0,1,10.13.85c.74.48,3.63,2.82,2.81,3.68-.33.09-3.21-1.38-4.06-1.65a11.38,11.38,0,0,0-3.77-.51,10.31,10.31,0,0,0-3.46.7l-.3.13c-2.41,1.17-2.19,1.92-3.84.79C95.25,63.94,97.86,62.49,99.81,61.48Z"/><path class="cls-4" d="M84.07,110a.49.49,0,0,1-.17-.67.48.48,0,0,1,.67-.18,4.85,4.85,0,0,0,2.42.6,4.72,4.72,0,0,0,2.38-.59.49.49,0,1,1,.51.84,5.58,5.58,0,0,1-2.89.74A5.79,5.79,0,0,1,84.07,110Z"/><path class="cls-4" d="M85.85,92a.5.5,0,0,1,0-1,25,25,0,0,0,3.71-.19c.91-.16,1.57-.4,1.57-.81,0-1.43-1.44-10.31-1.45-10.33a.5.5,0,0,1,1-.16s1.46,9,1.46,10.49c0,1-1,1.55-2.39,1.78A25,25,0,0,1,85.85,92Z"/><path class="cls-4" d="M133.19,90.15a.5.5,0,0,1-1,0,4.79,4.79,0,0,0-.68-3,1.15,1.15,0,0,0-.92-.46,2.71,2.71,0,0,0-1.35.41,8.91,8.91,0,0,0-3.4,4,17.06,17.06,0,0,0-.84,2.3,3.52,3.52,0,0,1,2.31-.67,2.25,2.25,0,0,1,1.07.38,1.77,1.77,0,0,1,.66.94,3.24,3.24,0,0,1-.68,2.69.51.51,0,0,1-.69.13.5.5,0,0,1-.13-.69,2.33,2.33,0,0,0,.55-1.85.76.76,0,0,0-.29-.41,1.34,1.34,0,0,0-.59-.21,2.78,2.78,0,0,0-2.12.89,1.07,1.07,0,0,1-.5.32.54.54,0,0,1-.72-.48v0a1.84,1.84,0,0,1,0-.57,15.64,15.64,0,0,1,1-3.14,10,10,0,0,1,3.82-4.47,3.59,3.59,0,0,1,1.86-.54,2.13,2.13,0,0,1,1.67.82A5.69,5.69,0,0,1,133.19,90.15Z"/><path class="cls-4" d="M40.25,90.15a.5.5,0,0,1-1,0,5.69,5.69,0,0,1,.9-3.6,2.13,2.13,0,0,1,1.67-.82,3.59,3.59,0,0,1,1.86.54,9.93,9.93,0,0,1,3.81,4.47,15.79,15.79,0,0,1,1.06,3.14,1.84,1.84,0,0,1,0,.57v0a.53.53,0,0,1-.71.48,1,1,0,0,1-.51-.32,2.74,2.74,0,0,0-2.11-.89,1.29,1.29,0,0,0-.59.21.83.83,0,0,0-.3.41,2.39,2.39,0,0,0,.56,1.85.5.5,0,0,1-.82.56,3.24,3.24,0,0,1-.68-2.69,1.77,1.77,0,0,1,.66-.94,2.25,2.25,0,0,1,1.07-.38,3.52,3.52,0,0,1,2.31.67,17.06,17.06,0,0,0-.84-2.3,9,9,0,0,0-3.4-4,2.71,2.71,0,0,0-1.35-.41,1.15,1.15,0,0,0-.92.46A4.79,4.79,0,0,0,40.25,90.15Z"/><path class="cls-8" d="M136.88,25.51c1.9.36,1.65,1.93-3.91,5.86,5.14,6.48,5.93,16.77,4.18,26.43-.38,2.06-6.18,16.67-11.65,26.25-.51.89-.17-19-5.91-26.92-2.91-4-5.31-8.8-11.24-12.78-.06,1.13,3.46,4.21,2.15,4.83-5,2.37-19.2-.08-25.75-1.74,1.89,1.94,3.81,3.35,3.09,4.06-2.26,2.21-16.5-1.24-25.3-7.15-2.13,7-5.14,14.51-8.52,16.5C45,66.17,48.91,88.67,46.54,85.36c-10.9-15.16-8.15-34.79-8.15-34.79a50,50,0,0,0-3.09,4.85c-1.51,3.13-2.53-25.64,11.14-29.37,0,0-2.16-.75-7.71.29-2,.39,4-5.23,10.52-6C49.44,17.55,50.7,6.18,59,2.51,62.87.81,69.19-.35,68.39.14a12.07,12.07,0,0,0-5.1,5.74c30.43-14.36,44.27.9,56.19,10.47C123.09,19.24,130.72,25,136.88,25.51Z"/><path class="cls-9" d="M67.41,63.12A14.68,14.68,0,1,1,57,67.42a14.59,14.59,0,0,1,10.37-4.3ZM76,69.17a12.19,12.19,0,1,0,3.57,8.62A12.18,12.18,0,0,0,76,69.17Z"/><path class="cls-9" d="M105,63.12a14.66,14.66,0,1,1-10.38,4.3A14.59,14.59,0,0,1,105,63.12Zm8.62,6.05a12.19,12.19,0,1,0,3.57,8.62A12.2,12.2,0,0,0,113.66,69.17Z"/><path class="cls-9" d="M53.54,76.59a1,1,0,1,1,.67,1.86L45.47,81.6a1,1,0,1,1-.66-1.86Z"/><path class="cls-9" d="M118.28,78.45a1,1,0,1,1,.66-1.86l8.74,3.15A1,1,0,1,1,127,81.6Z"/><path class="cls-9" d="M81.05,76.65a1,1,0,0,1-1.36.33,1,1,0,0,1-.33-1.36s1.69-2.86,6.86-2.86,6.86,2.85,6.86,2.86a1,1,0,1,1-1.69,1s-1.11-1.9-5.17-1.9S81.06,76.64,81.05,76.65Z"/><path class="cls-10" d="M101.75,96.73C95.52,99.05,76.58,99,70.7,97,74,108.85,98.59,108.66,101.75,96.73Z"/><path class="cls-11" d="M67.11,123.23c-.5-.22-1.81-.2-1.8.72s.93,4.4.26,6.93-1.88,4.85-.52,5.38a59.86,59.86,0,0,0,42.31,0c1.36-.53.18-2.72-.52-5.38s.26-5.94.26-6.93-1.3-.94-1.81-.72A48.41,48.41,0,0,1,67.11,123.23Z"/><path class="cls-12" d="M34.46,180.24a.75.75,0,0,1,.75-.74.73.73,0,0,1,.73.75l-.18,20.54a.74.74,0,0,1-1.48,0Z"/><path class="cls-12" d="M136.69,180.24a.74.74,0,0,1,.74-.74.75.75,0,0,1,.74.75L138,200.79a.75.75,0,0,1-1.49,0Z"/><path class="cls-2" d="M68.68,125.55a.49.49,0,0,1,.51-.48.51.51,0,0,1,.48.51c0,.68,0,1.31,0,2,0,1.32,0,2.65-.16,4.21a11,11,0,0,1-1.55,4.56.49.49,0,0,1-.83-.53,10.07,10.07,0,0,0,1.39-4.11c.13-1.58.15-2.86.16-4.13C68.65,126.87,68.66,126.21,68.68,125.55Z"/><path class="cls-2" d="M72.75,127a.49.49,0,0,1,.51-.48.5.5,0,0,1,.48.51c0,.67,0,1.31,0,1.95,0,1.31,0,2.64-.16,4.21A11.13,11.13,0,0,1,72,137.75a.49.49,0,1,1-.83-.53,10.22,10.22,0,0,0,1.39-4.11c.13-1.58.15-2.87.16-4.14C72.72,128.31,72.73,127.66,72.75,127Z"/><path class="cls-2" d="M77,127.78a.49.49,0,0,1,1,0c0,.68,0,1.32,0,2,0,1.31,0,2.64-.16,4.21a11,11,0,0,1-1.55,4.55.49.49,0,1,1-.83-.53,10.07,10.07,0,0,0,1.39-4.11c.13-1.57.14-2.86.16-4.13C77,129.1,77,128.45,77,127.78Z"/><path class="cls-2" d="M81.41,128.57a.5.5,0,0,1,.51-.48.49.49,0,0,1,.48.51c0,.68,0,1.31,0,2,0,1.31,0,2.65-.17,4.21a11.05,11.05,0,0,1-1.54,4.56.49.49,0,1,1-.83-.53,10.07,10.07,0,0,0,1.39-4.11c.13-1.58.14-2.87.16-4.13Q81.38,129.56,81.41,128.57Z"/><path class="cls-2" d="M102.27,125.58a.49.49,0,0,1,.48-.51.5.5,0,0,1,.51.48q0,1,0,2c0,1.27,0,2.55.16,4.13a10.07,10.07,0,0,0,1.39,4.11.49.49,0,0,1-.83.53,11.15,11.15,0,0,1-1.55-4.56c-.12-1.56-.14-2.89-.15-4.21C102.3,126.89,102.29,126.26,102.27,125.58Z"/><path class="cls-2" d="M98.2,127a.49.49,0,0,1,.48-.51.49.49,0,0,1,.51.48c0,.66,0,1.31,0,2,0,1.27,0,2.56.16,4.14a10.22,10.22,0,0,0,1.39,4.11.49.49,0,1,1-.83.53,11.3,11.3,0,0,1-1.55-4.56c-.13-1.57-.14-2.9-.16-4.21C98.23,128.34,98.22,127.7,98.2,127Z"/><path class="cls-2" d="M93.93,127.81a.48.48,0,0,1,.48-.5.49.49,0,0,1,.51.47c0,.67,0,1.32,0,2,0,1.27,0,2.56.16,4.13A9.75,9.75,0,0,0,96.51,138a.51.51,0,0,1-.16.69.5.5,0,0,1-.68-.16A11,11,0,0,1,94.13,134c-.13-1.57-.15-2.9-.16-4.21C94,129.13,94,128.49,93.93,127.81Z"/><path class="cls-2" d="M89.53,128.6a.5.5,0,0,1,1,0c0,.66,0,1.32,0,2,0,1.26,0,2.55.16,4.13a9.75,9.75,0,0,0,1.39,4.11.5.5,0,0,1-.84.53,11.22,11.22,0,0,1-1.54-4.56c-.13-1.56-.15-2.9-.16-4.21C89.56,129.91,89.55,129.28,89.53,128.6Z"/><path class="cls-2" d="M85.53,128.59a.49.49,0,0,1,.49-.5.5.5,0,0,1,.5.5l0,10.47a.5.5,0,0,1-1,0Z"/><path class="cls-13" d="M59.12,21.68a.49.49,0,1,1,.87-.47c2.73,5.05,8.39,9.5,14.92,13a79.64,79.64,0,0,0,24.89,8.5.5.5,0,0,1,.42.56.49.49,0,0,1-.56.42,80.66,80.66,0,0,1-25.22-8.6C67.76,31.5,62,26.92,59.12,21.68Z"/><path class="cls-13" d="M64.67,17.34a.5.5,0,0,1,0-1A70.1,70.1,0,0,1,86.85,20a80.32,80.32,0,0,1,21,10.71,51.69,51.69,0,0,1,15,15.49A47.72,47.72,0,0,1,129.24,68a.49.49,0,0,1-.46.53.5.5,0,0,1-.53-.46,46.73,46.73,0,0,0-6.3-21.4A50.69,50.69,0,0,0,107.26,31.5,79.74,79.74,0,0,0,86.54,20.92,69.28,69.28,0,0,0,64.67,17.34Z"/><path class="cls-13" d="M68.29,12.83a.48.48,0,0,1-.65-.24.49.49,0,0,1,.24-.66c20.36-9.37,33.61,0,45,8,2.82,2,5.53,3.89,8.2,5.41a.49.49,0,0,1-.49.86c-2.72-1.54-5.44-3.46-8.28-5.46C101.13,12.85,88.13,3.7,68.29,12.83Z"/><path class="cls-13" d="M55,30A.49.49,0,1,1,56,30a29.18,29.18,0,0,1-1.91,10.19,34.91,34.91,0,0,1-5,9.71,19.72,19.72,0,0,0-3.89,10.86.5.5,0,0,1-.5.49.51.51,0,0,1-.49-.51,20.8,20.8,0,0,1,4.1-11.46,34,34,0,0,0,4.85-9.42A28.29,28.29,0,0,0,55,30Z"/></g></g></svg>