<svg xmlns="http://www.w3.org/2000/svg" viewBox="0 0 172.45 213.14"><defs><style>.cls-1{fill:#9976ae;}.cls-2{fill:#3a2100;}.cls-10,.cls-11,.cls-12,.cls-13,.cls-14,.cls-2,.cls-3,.cls-4,.cls-5,.cls-6,.cls-7,.cls-8,.cls-9{fill-rule:evenodd;}.cls-3{fill:#bb495c;}.cls-4{fill:#e4ae7c;}.cls-5{fill:#d67f54;}.cls-6{fill:#20201e;}.cls-7{fill:#da9077;}.cls-8{fill:#3f2716;}.cls-9{fill:#fff;}.cls-10{fill:#88342a;}.cls-11{fill:#4e2c0b;}.cls-12{fill:#623a1c;}.cls-13{fill:#b4283f;}.cls-14{fill:#7c5032;}</style></defs><g id="Layer_2" data-name="Layer 2"><g id="OBJECTS"><rect class="cls-1" y="32.73" width="172.45" height="172.45" rx="29.34"/><path class="cls-2" d="M82.29,27s17.42-.1,12.86-15.23C89.38-7.39,53.93-2.66,52.87,22.29S46.84,58,40.8,66.14s-19.7,24.69-8.15,54.62-5.25,34.67-5.25,34.67c2.75-.25,10,2.3,14.5,1.39,12.3-2.48,31.93-11.2,31.72-17.41C72.74,112.64,96.2,97.92,82.29,27Z"/><path class="cls-3" d="M85.79,34.42c8.13,0,14.76-5.8,14.76-12.92S93.92,8.58,85.79,8.58,71,14.38,71,21.5,77.66,34.42,85.79,34.42Z"/><path class="cls-4" d="M47.15,91.43c-.17-1.9-7.94-4.14-10.52,2.07s2.07,15,10.86,15.7,6.21-.86,6.21-.86Z"/><path class="cls-4" d="M125.49,91.43c.17-1.9,7.93-4.14,10.52,2.07s-2.07,15-10.87,15.7-6.21-.86-6.21-.86Z"/><path class="cls-4" d="M86.22,212.4h-71c-.82-36.3,27.11-57.37,51.09-65.23,1.94-10.13,1.44-23.27,1.44-23.27h36.9s-.49,13.14,1.45,23.27c24,7.86,51.91,28.93,51.09,65.23Z"/><path class="cls-5" d="M104.67,123.9s-.09,2.61,0,6.39c-7,17.61-28.77,19.59-36.84.73.09-4.17,0-7.12,0-7.12Z"/><path class="cls-3" d="M159.63,212.4c.84-35.85-27.32-56.84-51.9-64.93-10.36,23-32.8,22.43-42.81-.07-24.63,8-52.94,29.06-52.1,65Z"/><path class="cls-4" d="M86.22,133.26c-45.77,1.1-68.88-111.78,0-108.89C155.11,21.48,132,134.36,86.22,133.26Z"/><path class="cls-6" d="M70.85,78.78a4.1,4.1,0,1,1-5.74.92A4.1,4.1,0,0,1,70.85,78.78Z"/><path class="cls-6" d="M101.86,78.78a4.1,4.1,0,1,0,5.73.92A4.09,4.09,0,0,0,101.86,78.78Z"/><path class="cls-7" d="M65.79,93.66c2.34,1.79,2.44,4.42.23,5.87s-5.9,1.16-8.24-.63-2.43-4.42-.22-5.87S63.45,91.87,65.79,93.66Z"/><path class="cls-7" d="M106.91,93.66c-2.33,1.79-2.44,4.42-.22,5.87s5.89,1.16,8.23-.63,2.44-4.42.23-5.87S109.25,91.87,106.91,93.66Z"/><path class="cls-8" d="M72.64,67.65l-.46-.19a11.76,11.76,0,0,0-5.24-.68,11.51,11.51,0,0,0-4.89,1.53c-.74.48-3.63,2.82-2.81,3.68.33.09,3.21-1.38,4-1.65a11.47,11.47,0,0,1,3.78-.51,10.31,10.31,0,0,1,3.46.7l.29.13c2.42,1.17,2.2,1.92,3.84.79C77.2,70.1,74.59,68.66,72.64,67.65Z"/><path class="cls-8" d="M99.81,67.65l.46-.19a11.76,11.76,0,0,1,5.24-.68,11.55,11.55,0,0,1,4.89,1.53c.74.48,3.63,2.82,2.81,3.68-.33.09-3.21-1.38-4.06-1.65a11.38,11.38,0,0,0-3.77-.51,10.41,10.41,0,0,0-3.47.7l-.29.13c-2.41,1.17-2.19,1.92-3.84.79C95.25,70.1,97.86,68.66,99.81,67.65Z"/><path class="cls-9" d="M77.9,103.24c3-.06,6-.08,9.07-.08s6,0,9.08.08c0,6.62-4.69,9-9.06,9h0C82.59,112.22,77.9,109.86,77.9,103.24Z"/><path class="cls-10" d="M95.44,107c-1.42,3.8-5,5.25-8.45,5.25h0c-3.42,0-7-1.45-8.45-5.25q4.24-.07,8.46-.07T95.44,107Z"/><path class="cls-5" d="M84.07,116.16a.49.49,0,0,1-.17-.67.48.48,0,0,1,.67-.18,4.85,4.85,0,0,0,2.42.6,4.62,4.62,0,0,0,2.38-.6.5.5,0,0,1,.68.17.49.49,0,0,1-.17.68,5.58,5.58,0,0,1-2.89.74A5.79,5.79,0,0,1,84.07,116.16Z"/><path class="cls-5" d="M85.85,94.15a.5.5,0,1,1,0-1,23.68,23.68,0,0,0,3.71-.2c.91-.15,1.57-.39,1.57-.81,0-1.42-1.45-10.3-1.45-10.32a.5.5,0,0,1,1-.16s1.46,9,1.46,10.48c0,1-1,1.56-2.39,1.79A25,25,0,0,1,85.85,94.15Z"/><path class="cls-5" d="M133.19,98.4a.5.5,0,1,1-1,0,4.83,4.83,0,0,0-.68-3,1.18,1.18,0,0,0-.92-.46,2.73,2.73,0,0,0-1.35.42,8.94,8.94,0,0,0-3.4,4,19.46,19.46,0,0,0-.85,2.31,3.56,3.56,0,0,1,2.32-.67,2.25,2.25,0,0,1,1.07.38,1.78,1.78,0,0,1,.66.94,3.21,3.21,0,0,1-.68,2.68.5.5,0,0,1-.69.14.49.49,0,0,1-.13-.69,2.33,2.33,0,0,0,.55-1.85.69.69,0,0,0-.29-.41,1.13,1.13,0,0,0-.59-.21,2.78,2.78,0,0,0-2.12.89,1.16,1.16,0,0,1-.5.32.55.55,0,0,1-.72-.48v0a1.9,1.9,0,0,1,0-.58,15.8,15.8,0,0,1,1-3.13,10,10,0,0,1,3.82-4.47,3.7,3.7,0,0,1,1.86-.55,2.15,2.15,0,0,1,1.67.83A5.65,5.65,0,0,1,133.19,98.4Z"/><path class="cls-5" d="M40.25,98.4a.5.5,0,0,1-1,0,5.65,5.65,0,0,1,.91-3.59A2.15,2.15,0,0,1,41.83,94a3.7,3.7,0,0,1,1.86.55A9.93,9.93,0,0,1,47.5,99a16,16,0,0,1,1.06,3.13,1.9,1.9,0,0,1,0,.58v0a.54.54,0,0,1-.71.48,1.13,1.13,0,0,1-.51-.32,2.76,2.76,0,0,0-2.11-.89,1.1,1.1,0,0,0-.59.21.75.75,0,0,0-.3.41,2.39,2.39,0,0,0,.56,1.85.51.51,0,0,1-.13.69.5.5,0,0,1-.69-.14,3.26,3.26,0,0,1-.69-2.68,1.8,1.8,0,0,1,.67-.94,2.25,2.25,0,0,1,1.07-.38,3.52,3.52,0,0,1,2.31.67,19.24,19.24,0,0,0-.84-2.31,9,9,0,0,0-3.4-4A2.73,2.73,0,0,0,41.85,95a1.18,1.18,0,0,0-.92.46A4.83,4.83,0,0,0,40.25,98.4Z"/><path class="cls-11" d="M44.92,90.56C14-4.3,156.21-7,127.13,90c-2.7,8-8.32-28.27-8.32-28.51-.06-2.36-4.7-14.12-10.49-15.34-18.12-3.8-54.5,8-54.68,15.34,0,.26-2.51,13-5,21.66C46.85,89.19,45.88,94,44.92,90.56Z"/><path class="cls-11" d="M127.22,89.51c-.18,1.75-5.55,31.33-5.6,31.49-2.54-6.55,1.25-24.56,1.93-31.94.22-4-.63-10.26,1.28-10.11C127.46,77.88,127.31,87.56,127.22,89.51Z"/><path class="cls-11" d="M44.84,89.25c.17,1.75,5.94,31.59,6,31.75,2.53-6.55-1.25-24.56-1.93-31.94-.23-4,.63-10.26-1.29-10.11C45,77.88,44.75,87.3,44.84,89.25Z"/><path class="cls-12" d="M89.4,52.25c.81,3.18-7.47,11.82-5.64,12.82,3.1,1.69,15.83-1.12,24.73-11.18,1.11-1.26,1.28,3.3,4.47,7.09,3.6,4.28,10.28,8,12.32,9.34s2,.66,2.48-2c2-10.71-4.32-42.91-41.54-42.91-41.79,0-44.68,40.62-40.44,45.79,10.76-2,28.75-19.52,26.8-16.64s-11.67,11-9.15,11C77.64,65.64,89.34,52,89.4,52.25Z"/><path class="cls-4" d="M86.22,190.58c1.38,0,2.5-5.25,2.5-11.69s-1.12-11.69-2.5-11.69-2.49,5.25-2.49,11.69S84.85,190.58,86.22,190.58Z"/><path class="cls-13" d="M34.46,191.85a.74.74,0,0,1,1.48,0l-.18,20.53a.75.75,0,0,1-.75.74.73.73,0,0,1-.73-.75Z"/><path class="cls-13" d="M136.69,191.85a.73.73,0,0,1,.74-.73.75.75,0,0,1,.74.75L138,212.4a.75.75,0,1,1-1.49,0Z"/><path class="cls-14" d="M53.29,60.9a.48.48,0,0,1-.69-.07.49.49,0,0,1,.07-.7l3.8-3c10-8,25-20,28.26-25.2a.49.49,0,0,1,.68-.15.5.5,0,0,1,.16.68C82.18,37.8,67.12,49.84,57.09,57.86Z"/><path class="cls-14" d="M69.18,63.66a.49.49,0,1,1-.62-.77,173.62,173.62,0,0,0,19-18.64c4-4.77,7.18-9.37,7.52-12.41A.5.5,0,1,1,96,32c-.37,3.27-3.6,8-7.76,12.94A174.2,174.2,0,0,1,69.18,63.66Z"/><path class="cls-14" d="M92.31,61.54a.5.5,0,1,1-.67-.73,48.22,48.22,0,0,0,8.51-10.08,23.17,23.17,0,0,0,3.55-9.56c.65-6.51.52-7.37.52-7.37a.51.51,0,0,1,.43-.56.49.49,0,0,1,.55.43s.14,1-.52,7.6a24.06,24.06,0,0,1-3.69,10A49.36,49.36,0,0,1,92.31,61.54Z"/><path class="cls-14" d="M122,56.78a.49.49,0,0,1-1,.12,32.56,32.56,0,0,0-3.86-11.15c-3-5.45-6.53-9.41-7.37-9.71a.5.5,0,0,1-.3-.64.49.49,0,0,1,.64-.29c1,.34,4.83,4.51,7.9,10.16A33.42,33.42,0,0,1,122,56.78Z"/><path class="cls-13" d="M95.47,18.35a.5.5,0,0,1-.32.62.48.48,0,0,1-.62-.31,44.44,44.44,0,0,0-2.11-5.27A6,6,0,0,0,91,11.21a.51.51,0,0,1-.27-.65.5.5,0,0,1,.65-.26A6,6,0,0,1,93.31,13,45.77,45.77,0,0,1,95.47,18.35Z"/><path class="cls-13" d="M77.62,18.51a.51.51,0,0,1-.62.34.5.5,0,0,1-.33-.62,15.94,15.94,0,0,1,2.11-4.44A13,13,0,0,1,82,10.32a.5.5,0,0,1,.48.87,11.77,11.77,0,0,0-2.9,3.15A15.11,15.11,0,0,0,77.62,18.51Z"/><path class="cls-13" d="M86.7,17.71a.5.5,0,0,1-.5.5.5.5,0,0,1-.5-.5c0-1.64.53-7.12.53-7.13a.49.49,0,0,1,.54-.45.51.51,0,0,1,.45.54S86.7,16.08,86.7,17.71Z"/><path class="cls-13" d="M59.34,149.23a.49.49,0,0,1,1-.12,21.51,21.51,0,0,0,7.95,13.41,21.91,21.91,0,0,0,14.78,4.8.5.5,0,1,1,0,1,22.89,22.89,0,0,1-15.44-5A22.48,22.48,0,0,1,59.34,149.23Z"/><path class="cls-13" d="M112.12,149.11a.5.5,0,0,1,.55-.43.5.5,0,0,1,.44.55,22.48,22.48,0,0,1-8.31,14.06,22.89,22.89,0,0,1-15.44,5,.49.49,0,0,1-.48-.51.5.5,0,0,1,.51-.48,21.94,21.94,0,0,0,14.79-4.8A21.44,21.44,0,0,0,112.12,149.11Z"/></g></g></svg>