<svg xmlns="http://www.w3.org/2000/svg" viewBox="0 0 172.45 202.76"><defs><style>.cls-1{fill:#9976ae;}.cls-2{fill:#39271f;}.cls-10,.cls-11,.cls-2,.cls-3,.cls-4,.cls-5,.cls-6,.cls-7,.cls-8,.cls-9{fill-rule:evenodd;}.cls-3{fill:#e4ae7c;}.cls-4{fill:#d67f54;}.cls-5{fill:#da9077;}.cls-6{fill:#3f2716;}.cls-7{fill:#fff;}.cls-8{fill:#462917;}.cls-9{fill:#2e1e11;}.cls-10{fill:#623a1c;}.cls-11{fill:#774d30;}</style></defs><g id="Layer_2" data-name="Layer 2"><g id="OBJECTS"><rect class="cls-1" y="23.1" width="172.45" height="172.45" rx="29.34"/><path class="cls-2" d="M87.1,144.24c6.5,20.8,19.14,32.5,41.37,38.11-5.69-8.34-3.68-20.7,5.92-26s20.15-10.51,20.13-21.18c0-16.65-12.68-14.75-5.37-25.53s7.84-29-5.4-37.83l-.55-.37c-2.49-2.4-4.26-3-1.43-7.78,18.65-31.45-37.84-62.18-54.25-36.73-3.6-5.07-10.12-10.39-21.37-9.11-7,.8-24.89,8.09-32.84,21.16C20.1,60.7,39.77,60.32,30.25,71.58a15.61,15.61,0,0,0-2.76,2.75l-.34.29c-12.46,9.79-9.41,24.25-2.1,35s-6.87,10.94-7.12,25c-.26,14.41,14.8,17.18,24.4,22.48s9.09,16.91,3.4,25.25C68,176.74,80.6,165,87.1,144.24Z"/><path class="cls-3" d="M86.22,202.76h71.45c0-67.19-53.29-30.94-53.29-86.92H67.81c0,56-53,19.73-53,86.92Z"/><path class="cls-3" d="M47.15,81.79c-.17-1.89-7.94-4.14-10.52,2.07s2.07,15,10.86,15.7,6.21-.86,6.21-.86Z"/><path class="cls-3" d="M125.49,81.79c.17-1.89,7.93-4.14,10.52,2.07s-2.07,15-10.87,15.7-6.21-.86-6.21-.86Z"/><path class="cls-4" d="M104.67,114.27s-.09,2.6,0,6.38c-7,17.61-28.77,19.59-36.84.74.09-4.18,0-7.12,0-7.12Z"/><path class="cls-3" d="M86.22,123.62c-45.77,1.1-68.88-111.78,0-108.88C155.11,11.84,132,124.72,86.22,123.62Z"/><path class="cls-2" d="M65.59,74.06a1.24,1.24,0,0,1-2.47.24,5.35,5.35,0,0,1,.16-1.91,5.25,5.25,0,0,1,.83-1.74,5.35,5.35,0,0,1,7.46-1.2,5.32,5.32,0,0,1,2.2,4.69A1.24,1.24,0,1,1,71.3,74,3,3,0,0,0,71,72.56a2.78,2.78,0,0,0-.92-1.1A2.82,2.82,0,0,0,68,71,2.9,2.9,0,0,0,65.67,73,2.77,2.77,0,0,0,65.59,74.06Z"/><path class="cls-5" d="M65.79,84c2.34,1.8,2.44,4.42.23,5.87s-5.9,1.17-8.24-.63-2.43-4.42-.22-5.86S63.45,82.23,65.79,84Z"/><path class="cls-5" d="M106.91,84c-2.33,1.8-2.43,4.42-.22,5.87s5.89,1.17,8.23-.63,2.44-4.42.23-5.86S109.25,82.23,106.91,84Z"/><path class="cls-6" d="M72.64,58l-.46-.19a11.91,11.91,0,0,0-5.24-.68,11.65,11.65,0,0,0-4.89,1.53c-.74.48-3.63,2.82-2.81,3.68.33.1,3.21-1.38,4.06-1.65a11.38,11.38,0,0,1,3.77-.51,10.07,10.07,0,0,1,3.46.71,2.24,2.24,0,0,1,.29.12c2.42,1.17,2.2,1.93,3.85.8C77.2,60.47,74.59,59,72.64,58Z"/><path class="cls-6" d="M99.81,58l.46-.19a11.91,11.91,0,0,1,5.24-.68,11.69,11.69,0,0,1,4.89,1.53c.74.48,3.63,2.82,2.81,3.68-.33.1-3.21-1.38-4.06-1.65a11.38,11.38,0,0,0-3.77-.51,10.07,10.07,0,0,0-3.46.71,2.34,2.34,0,0,0-.3.12c-2.41,1.17-2.19,1.93-3.84.8C95.25,60.47,97.86,59,99.81,58Z"/><path class="cls-7" d="M74.35,93.6q6.33-.07,12.62-.08c4.21,0,8.41,0,12.63.08,0,6.62-6.53,9-12.6,9h0C80.88,102.58,74.35,100.22,74.35,93.6Z"/><path class="cls-4" d="M84.07,106.53a.5.5,0,0,1-.17-.68.49.49,0,0,1,.67-.18,4.85,4.85,0,0,0,2.42.6,4.62,4.62,0,0,0,2.38-.59.5.5,0,0,1,.68.16.49.49,0,0,1-.17.68,5.58,5.58,0,0,1-2.89.75A5.89,5.89,0,0,1,84.07,106.53Z"/><path class="cls-4" d="M85.85,84.52a.5.5,0,0,1,0-1,25,25,0,0,0,3.71-.19c.91-.16,1.57-.4,1.57-.81,0-1.43-1.44-10.31-1.45-10.33a.5.5,0,0,1,.41-.57.5.5,0,0,1,.57.41s1.46,9,1.46,10.49c0,1-1,1.55-2.39,1.78A23.79,23.79,0,0,1,85.85,84.52Z"/><path class="cls-4" d="M133.19,88.77a.5.5,0,0,1-1,0,4.79,4.79,0,0,0-.68-3,1.15,1.15,0,0,0-.92-.46,2.71,2.71,0,0,0-1.35.41,8.91,8.91,0,0,0-3.4,4,17.06,17.06,0,0,0-.84,2.3,3.52,3.52,0,0,1,2.31-.67,2.16,2.16,0,0,1,1.07.39,1.71,1.71,0,0,1,.66.93,3.24,3.24,0,0,1-.68,2.69.51.51,0,0,1-.69.13.49.49,0,0,1-.13-.68A2.36,2.36,0,0,0,128.1,93a.76.76,0,0,0-.29-.41,1.34,1.34,0,0,0-.59-.21,2.78,2.78,0,0,0-2.12.89,1,1,0,0,1-.5.32.54.54,0,0,1-.72-.48v0a1.9,1.9,0,0,1,0-.58,15.64,15.64,0,0,1,1-3.14,10.06,10.06,0,0,1,3.82-4.47,3.59,3.59,0,0,1,1.86-.54,2.13,2.13,0,0,1,1.67.82A5.69,5.69,0,0,1,133.19,88.77Z"/><path class="cls-4" d="M40.25,88.77a.5.5,0,0,1-1,0,5.69,5.69,0,0,1,.9-3.6,2.13,2.13,0,0,1,1.67-.82,3.59,3.59,0,0,1,1.86.54,10,10,0,0,1,3.81,4.47,15.79,15.79,0,0,1,1.06,3.14,1.9,1.9,0,0,1,0,.58v0a.53.53,0,0,1-.71.48,1,1,0,0,1-.51-.32,2.74,2.74,0,0,0-2.11-.89,1.29,1.29,0,0,0-.59.21.83.83,0,0,0-.3.41,2.42,2.42,0,0,0,.56,1.86.49.49,0,0,1-.13.68.51.51,0,0,1-.69-.13,3.24,3.24,0,0,1-.68-2.69,1.71,1.71,0,0,1,.66-.93,2.16,2.16,0,0,1,1.07-.39,3.52,3.52,0,0,1,2.31.67,17.06,17.06,0,0,0-.84-2.3,9,9,0,0,0-3.4-4,2.71,2.71,0,0,0-1.35-.41,1.15,1.15,0,0,0-.92.46A4.79,4.79,0,0,0,40.25,88.77Z"/><path class="cls-8" d="M47.8,88.83c-4.62-9-4.55-19.07-5-22.93C38.56,28,62.17,10,85.49,10.65h.73V25.49c-4.27-1.4-7.92-2.25-9.85-2.25H75c-5.37,0-8,9-14.23,11.39-3.55,1.39-.15,17.78-3.82,26-.9,2-5.59,6.75-6.67,7.23C47.06,71.12,46.73,74.74,47.8,88.83Z"/><path class="cls-8" d="M124.65,88.83c4.61-9,4.54-19.07,5-22.93C133.88,28,110.28,10,87,10.65h-.74V25.49c4.28-1.4,7.93-2.25,9.86-2.25H97.5c5.37,0,8,11.46,14.23,13.88,3.54,1.39.15,15.29,3.82,23.54.9,2,5.58,6.75,6.67,7.23C125.39,71.12,125.72,74.74,124.65,88.83Z"/><polygon class="cls-9" points="86.22 202.76 140.69 202.76 137.67 184.09 34.78 184.09 31.75 202.76 86.22 202.76"/><path class="cls-9" d="M38.75,185.69a2.11,2.11,0,0,1-4.22-.13l4.2-30.64a2.11,2.11,0,1,1,4.21.14Z"/><path class="cls-9" d="M133.7,185.69a2.11,2.11,0,0,0,4.22-.13l-4.2-30.64a2.11,2.11,0,1,0-4.21.14Z"/><path class="cls-2" d="M101.41,74.06A1.24,1.24,0,0,1,99,74.3a5.13,5.13,0,0,1,.15-1.91,5.46,5.46,0,0,1,.83-1.74,5.36,5.36,0,0,1,3.49-2.14,5.35,5.35,0,0,1,6.18,5.63,1.24,1.24,0,1,1-2.48-.16A2.85,2.85,0,0,0,106,71.46a2.87,2.87,0,0,0-4,.64,2.65,2.65,0,0,0-.44.93A2.78,2.78,0,0,0,101.41,74.06Z"/><path class="cls-10" d="M59,37C79.73,22.56,70.82,48.14,88.3,48.21c8.7,0,16.67,3.55,16.53,10.93s-.19,10.65,7.79,14.49c15.47,7.42-14.06,33,24.7,34.45-4-18.71,15.17-24.75,8.67-41s-19.08-11.5-16.34-21.58C131.8,37.58,132.71,29,127,22.9c-8.23-8.82-16.37.16-21.64-8.32C101,7.46,98.37-3.1,79.68.86,55.9,5.9,54.89,24.91,59,37Z"/><path class="cls-11" d="M61.7,28.12a.5.5,0,0,1-.69.12.51.51,0,0,1-.12-.69,10.7,10.7,0,0,1,4.92-3.12A15.13,15.13,0,0,1,71,23.57a9.06,9.06,0,0,1,5,1.55,8.42,8.42,0,0,1,3.06,4.26c1.54,4.43,3,6.88,4.94,8.26s4.56,1.72,8.41,1.91,8.76.84,12.61,3,6.83,5.84,7,12.09c.19,5.94.89,9.24,2.17,11.25s3.1,2.7,5.63,3.52l.51.18a8.47,8.47,0,0,1,5.23,4.77c.9,2.26.88,5.21-.33,8.94-.12.36-.24.72-.37,1.07a19.19,19.19,0,0,0-1.24,10.18,7.59,7.59,0,0,0,4.25,5.86.5.5,0,0,1-.39.92,8.56,8.56,0,0,1-4.83-6.59A20.18,20.18,0,0,1,124,84c.13-.36.25-.71.36-1,1.13-3.5,1.16-6.22.35-8.27a7.49,7.49,0,0,0-4.66-4.2l-.47-.17c-2.72-.88-4.74-1.71-6.15-3.93s-2.13-5.61-2.33-11.75c-.19-5.83-2.91-9.25-6.52-11.26s-8.3-2.64-12.18-2.84c-4-.2-6.76-.58-8.92-2.09s-3.7-4.11-5.31-8.74a7.5,7.5,0,0,0-2.7-3.78A8,8,0,0,0,71,24.56a13.9,13.9,0,0,0-4.82.81A9.7,9.7,0,0,0,61.7,28.12Z"/><path class="cls-11" d="M66.77,13.84a.5.5,0,0,1-.67-.23.49.49,0,0,1,.23-.66,18.5,18.5,0,0,1,3.27-1.21,20.34,20.34,0,0,1,8.9-.55,9.32,9.32,0,0,1,7.06,5,10,10,0,0,1,.63,1.7,13.3,13.3,0,0,0,5.74,8.07,15.15,15.15,0,0,0,10.26,1.81,16,16,0,0,1,2.45-.18,21.06,21.06,0,0,1,10.14,2.65c3.12,1.81,5.55,4.53,6.11,8.22a10.64,10.64,0,0,1,.12,1.62c0,1.64,0,3.23-.08,4.69-.16,5.95-.26,9.44,3.12,11.42l.79.47h0c5.26,3,18.21,10.52,13.59,22.59C133.69,91.63,132.6,93,132.59,93a.49.49,0,1,1-.78-.6s1-1.26,5.7-13.53c4.33-11.29-8.11-18.47-13.16-21.39h0l-.8-.46c-3.88-2.28-3.78-6-3.61-12.3,0-1.39.08-2.91.08-4.67a10,10,0,0,0-.11-1.47,10.62,10.62,0,0,0-5.62-7.51,20.05,20.05,0,0,0-9.65-2.51,15.29,15.29,0,0,0-2.3.16,16.15,16.15,0,0,1-10.93-1.94,14.24,14.24,0,0,1-6.17-8.66,8.26,8.26,0,0,0-.57-1.52,8.38,8.38,0,0,0-6.35-4.44,19.43,19.43,0,0,0-8.46.53A18.36,18.36,0,0,0,66.77,13.84Z"/></g></g></svg>