<svg xmlns="http://www.w3.org/2000/svg" viewBox="0 0 172.45 199.59"><defs><style>.cls-1{fill:#e1a21f;}.cls-2{fill:#2e1e11;}.cls-10,.cls-11,.cls-12,.cls-13,.cls-14,.cls-2,.cls-3,.cls-4,.cls-5,.cls-6,.cls-7,.cls-8,.cls-9{fill-rule:evenodd;}.cls-3{fill:#e4ae7c;}.cls-4{fill:#d67f54;}.cls-5{fill:#af2a3a;}.cls-6{fill:#39271f;}.cls-7{fill:#20201e;}.cls-8{fill:#da9077;}.cls-9{fill:#3f2716;}.cls-10{fill:#fff;}.cls-11{fill:#27170c;}.cls-12{fill:#7e583e;}.cls-13{fill:#4c3124;}.cls-14{fill:#4e2c0b;}</style></defs><g id="Layer_2" data-name="Layer 2"><g id="OBJECTS"><rect class="cls-1" y="19.19" width="172.45" height="172.45" rx="29.34"/><path class="cls-2" d="M31.26,69.32c2.1,11,4.94,16.22,5.24,22.29.31,6.38-9.16,12.68-13.74,14.7,5.59,16.78,17.35,14.92,25,15.66S51.72,134.14,72,133.28l9.68-69.47L31.26,69.32ZM93.11,70.9l7.32,62.38c20.31.86,16.56-10.56,24.24-11.31s19.44,1.12,25-15.66c-4.58-2-14-8.32-13.74-14.7.3-6.07,2.78-10.81,5-20.65l-12-4.87Z"/><path class="cls-3" d="M47.15,77.89C47,76,39.21,73.75,36.63,80S38.7,95,47.49,95.65s6.21-.86,6.21-.86Z"/><path class="cls-3" d="M125.49,77.89c.17-1.9,7.93-4.14,10.52,2.07s-2.07,15-10.87,15.69-6.21-.86-6.21-.86Z"/><path class="cls-3" d="M86.22,198.85h-71c-.82-36.29,27.11-57.37,51.09-65.23,1.94-10.13,1.44-23.26,1.44-23.26h36.9s-.49,13.13,1.45,23.26c24,7.86,51.91,28.94,51.09,65.23Z"/><path class="cls-4" d="M104.67,110.36s-.09,2.6,0,6.38c-7,17.61-28.77,19.59-36.84.74.09-4.18,0-7.12,0-7.12Z"/><path class="cls-5" d="M159.63,198.85c.84-35.84-27.32-56.84-51.9-64.93-4.92,10.92-37.94,10.87-42.81-.06-24.63,8-52.94,29-52.1,65Z"/><path class="cls-6" d="M158.77,186.8a57.8,57.8,0,0,0-6.85-19.06H20.53a57.8,57.8,0,0,0-6.85,19.06Z"/><path class="cls-6" d="M135.29,148.67a89.41,89.41,0,0,0-27.56-14.75c-4.92,10.92-37.94,10.87-42.81-.06a89.43,89.43,0,0,0-27.77,14.81Z"/><path class="cls-3" d="M86.22,119.71c-45.77,1.1-68.88-111.77,0-108.88C155.11,7.94,132,120.81,86.22,119.71Z"/><path class="cls-7" d="M70.85,65.23a4.1,4.1,0,1,1-5.74.92A4.1,4.1,0,0,1,70.85,65.23Z"/><path class="cls-7" d="M101.86,65.23a4.1,4.1,0,1,0,5.73.92A4.09,4.09,0,0,0,101.86,65.23Z"/><path class="cls-8" d="M65.79,80.11c2.34,1.8,2.44,4.42.23,5.87s-5.9,1.17-8.24-.63-2.43-4.42-.22-5.86S63.45,78.32,65.79,80.11Z"/><path class="cls-8" d="M106.91,80.11c-2.33,1.8-2.44,4.42-.22,5.87s5.89,1.17,8.23-.63,2.44-4.42.23-5.86S109.25,78.32,106.91,80.11Z"/><path class="cls-9" d="M72.64,54.1l-.46-.19a11.91,11.91,0,0,0-5.24-.68,11.65,11.65,0,0,0-4.89,1.53c-.74.48-3.63,2.82-2.81,3.68.33.1,3.21-1.37,4-1.65a11.47,11.47,0,0,1,3.78-.51,10.07,10.07,0,0,1,3.46.71,2.24,2.24,0,0,1,.29.12c2.42,1.17,2.2,1.93,3.84.8C77.2,56.56,74.59,55.12,72.64,54.1Z"/><path class="cls-9" d="M99.81,54.1l.46-.19a11.91,11.91,0,0,1,5.24-.68,11.69,11.69,0,0,1,4.89,1.53c.74.48,3.63,2.82,2.81,3.68-.33.1-3.21-1.37-4.06-1.65a11.38,11.38,0,0,0-3.77-.51,10.18,10.18,0,0,0-3.47.71,3,3,0,0,0-.29.12c-2.41,1.17-2.19,1.93-3.84.8C95.25,56.56,97.86,55.12,99.81,54.1Z"/><path class="cls-10" d="M74.35,89.69q6.33-.07,12.62-.08c4.21,0,8.41,0,12.63.08,0,6.62-6.53,9-12.6,9h0C80.88,98.67,74.35,96.31,74.35,89.69Z"/><path class="cls-4" d="M84.07,102.62a.5.5,0,0,1-.17-.68.49.49,0,0,1,.67-.17,5,5,0,0,0,2.42.6,4.62,4.62,0,0,0,2.38-.6.49.49,0,0,1,.68.17.48.48,0,0,1-.17.67,5.58,5.58,0,0,1-2.89.75A5.89,5.89,0,0,1,84.07,102.62Z"/><path class="cls-4" d="M85.85,80.61a.5.5,0,1,1,0-1,25,25,0,0,0,3.71-.2c.91-.15,1.57-.4,1.57-.81,0-1.43-1.45-10.3-1.45-10.33a.5.5,0,1,1,1-.15s1.46,9,1.46,10.48c0,1-1,1.55-2.39,1.79A25,25,0,0,1,85.85,80.61Z"/><path class="cls-4" d="M133.19,84.86a.5.5,0,0,1-1,0,4.79,4.79,0,0,0-.68-3,1.15,1.15,0,0,0-.92-.46,2.71,2.71,0,0,0-1.35.41,8.91,8.91,0,0,0-3.4,4,18.75,18.75,0,0,0-.85,2.3,3.56,3.56,0,0,1,2.32-.67,2.16,2.16,0,0,1,1.07.39,1.76,1.76,0,0,1,.66.93,3.23,3.23,0,0,1-.68,2.69.51.51,0,0,1-.69.13.48.48,0,0,1-.13-.68,2.36,2.36,0,0,0,.55-1.86.76.76,0,0,0-.29-.41,1.22,1.22,0,0,0-.59-.2,2.71,2.71,0,0,0-2.12.89,1,1,0,0,1-.5.31.54.54,0,0,1-.72-.48v0a1.9,1.9,0,0,1,0-.58,15.64,15.64,0,0,1,1-3.14A10.06,10.06,0,0,1,128.76,81a3.59,3.59,0,0,1,1.86-.54,2.13,2.13,0,0,1,1.67.82A5.69,5.69,0,0,1,133.19,84.86Z"/><path class="cls-4" d="M40.25,84.86a.5.5,0,0,1-1,0,5.68,5.68,0,0,1,.91-3.6,2.13,2.13,0,0,1,1.67-.82,3.59,3.59,0,0,1,1.86.54,10,10,0,0,1,3.81,4.47,15.79,15.79,0,0,1,1.06,3.14,1.9,1.9,0,0,1,0,.58v0a.53.53,0,0,1-.71.48,1,1,0,0,1-.51-.31,2.69,2.69,0,0,0-2.11-.89,1.18,1.18,0,0,0-.59.2.83.83,0,0,0-.3.41,2.42,2.42,0,0,0,.56,1.86.49.49,0,0,1-.13.68.51.51,0,0,1-.69-.13,3.28,3.28,0,0,1-.69-2.69,1.77,1.77,0,0,1,.67-.93,2.16,2.16,0,0,1,1.07-.39,3.52,3.52,0,0,1,2.31.67,18.55,18.55,0,0,0-.84-2.3,9,9,0,0,0-3.4-4,2.71,2.71,0,0,0-1.35-.41,1.15,1.15,0,0,0-.92.46A4.79,4.79,0,0,0,40.25,84.86Z"/><path class="cls-11" d="M34.46,178.31a.75.75,0,0,1,.75-.74.74.74,0,0,1,.73.75l-.18,20.54a.73.73,0,0,1-.75.73.72.72,0,0,1-.73-.74Z"/><path class="cls-11" d="M136.69,178.31a.74.74,0,0,1,.74-.74.75.75,0,0,1,.74.75L138,198.86a.75.75,0,0,1-1.49,0Z"/><path class="cls-12" d="M42.63,67.48c.65,6.57,6.43,16.55,7.61,19.44s.13-9.33.13-25S42.63,67.48,42.63,67.48Z"/><path class="cls-12" d="M130,67.48c-.66,6.57-6.44,16.55-7.62,19.44s-.13-9.33-.13-25S130,67.48,130,67.48Z"/><path class="cls-13" d="M79.85,23.85c-5.49,0-10.71,10.31-11.18,18.93-1.66,30.57-31,20-34.29,39.05-1.19-3.55-4.18-15.5-4.49-17-2.39-11.2,12.4-24.08,15.18-36,2.83-12.22,9.85-21.7,18.53-26,7.59-3.73,16.09-3.58,20.17,1C85,4.81,86.22,6,86.22,6s1-1,2.2-2c4-5,12.79-5.25,20.68-1.2,8.52,4.36,15.5,14,18.28,26s17.56,24.85,15.18,36.05c-.32,1.5-3.31,13.45-4.5,17-3.25-19-29.57-9.54-32.79-40-1.12-10.56-6-15.73-10.62-16.6-.53-.1-4.39-1.3-8,4.31C85.77,31,85.17,23.85,79.85,23.85Z"/><path class="cls-14" d="M35.62,72.92a.5.5,0,0,1-.69.12.49.49,0,0,1-.13-.68c.37-.55.74-1.11,1.1-1.67,2.85-4.34,5.24-8,15.2-10.61,9.4-2.46,11.15-14.42,12.66-24.84.21-1.42.41-2.81.64-4.18a23,23,0,0,1,1.67-5.69A17.42,17.42,0,0,1,72,18a9.7,9.7,0,0,1,6.86-1.89,5.71,5.71,0,0,1,1.44.42L85,18.61a.5.5,0,0,1-.4.91l-4.72-2.1a4.84,4.84,0,0,0-1.21-.36,8.83,8.83,0,0,0-6.15,1.74,16.38,16.38,0,0,0-5.59,7,22.33,22.33,0,0,0-1.6,5.45c-.21,1.32-.42,2.73-.63,4.16C63.18,46.1,61.39,58.41,51.35,61c-9.58,2.52-11.89,6-14.62,10.21Z"/><path class="cls-14" d="M34.89,59.46a.5.5,0,0,1-.66.25.49.49,0,0,1-.25-.65,12.71,12.71,0,0,1,4.29-5.5h0a18.62,18.62,0,0,1,6.28-2.67c9.4-2.47,11.14-14.42,12.66-24.84.21-1.42.41-2.81.63-4.18a19.78,19.78,0,0,1,1.59-5.27,15,15,0,0,1,6.51-7.11A14.87,14.87,0,0,1,75.53,8a20.38,20.38,0,0,1,5.32,1.67.49.49,0,1,1-.42.89A19.5,19.5,0,0,0,75.37,9a13.56,13.56,0,0,0-15.05,8,19.12,19.12,0,0,0-1.51,5c-.22,1.32-.42,2.72-.63,4.16-1.56,10.72-3.36,23-13.39,25.65a17.87,17.87,0,0,0-5.95,2.52h0A11.85,11.85,0,0,0,34.89,59.46Z"/><path class="cls-14" d="M139.35,72.36a.5.5,0,0,1-.82.56c-.41-.6-.76-1.15-1.12-1.68-2.72-4.18-5-7.69-14.61-10.21-10-2.62-11.83-14.93-13.4-25.65-.2-1.43-.41-2.84-.62-4.16a22.33,22.33,0,0,0-1.6-5.45,16.32,16.32,0,0,0-5.6-7,8.81,8.81,0,0,0-6.15-1.74,4.77,4.77,0,0,0-1.2.36l-4.72,2.1a.51.51,0,0,1-.66-.26.5.5,0,0,1,.26-.65l4.72-2.1a5.9,5.9,0,0,1,1.45-.42A9.7,9.7,0,0,1,102.14,18a17.42,17.42,0,0,1,5.94,7.39,23,23,0,0,1,1.67,5.69c.23,1.37.43,2.76.63,4.18,1.52,10.42,3.26,22.38,12.66,24.84,10,2.61,12.36,6.27,15.2,10.61Z"/><path class="cls-14" d="M140.17,59.06a.5.5,0,0,1-.91.4,11.93,11.93,0,0,0-3.95-5.1l0,0a18,18,0,0,0-5.92-2.5c-10-2.62-11.83-14.93-13.39-25.65-.21-1.44-.42-2.84-.63-4.16a19.12,19.12,0,0,0-1.51-5,13.56,13.56,0,0,0-15-8,19.5,19.5,0,0,0-5.06,1.58.49.49,0,0,1-.66-.24.48.48,0,0,1,.24-.65A20.38,20.38,0,0,1,98.62,8a14.88,14.88,0,0,1,9.6,1.47,15.09,15.09,0,0,1,6.51,7.11,20.54,20.54,0,0,1,1.59,5.27c.22,1.37.42,2.76.63,4.18,1.52,10.42,3.26,22.37,12.66,24.84a18.58,18.58,0,0,1,6.24,2.65l0,0A12.8,12.8,0,0,1,140.17,59.06Z"/></g></g></svg>