<svg xmlns="http://www.w3.org/2000/svg" viewBox="0 0 472.67 258.28"><defs><style>.cls-1{fill:#e79b69;}.cls-2{fill:#ddcdbf;}.cls-3{fill:#ceb8a7;}.cls-4{fill:#edb984;}.cls-5{fill:#c1b542;}.cls-6{fill:#b7a737;}.cls-7{fill:#f4e6d9;}.cls-8{fill:#d27558;}.cls-9{fill:#703337;}.cls-10{fill:#77383b;}.cls-11{fill:#7f384d;}.cls-12{fill:#934759;}.cls-13{fill:#dd6495;}.cls-14{fill:#c14281;}.cls-15{fill:#60313a;}.cls-16{fill:#a05564;}.cls-17{fill:#fccae0;}.cls-18{fill:#e8afca;}.cls-19{fill:#5a4966;}.cls-20{fill:#4b3c59;}.cls-21{fill:#f4e4d4;}.cls-22{fill:#754651;}.cls-23{fill:#5a4949;}.cls-24{fill:#c64f6c;}.cls-25{fill:#d86a7f;}.cls-26{fill:#735691;}.cls-27{fill:#e8d1bc;}.cls-28{fill:#edb174;}.cls-29{fill:#ede3d3;}.cls-30{fill:#e0ceb6;}.cls-31{fill:#eadfce;}.cls-32{fill:#5b484a;}.cls-33{fill:#49383a;}.cls-34{fill:#936d6d;}.cls-35{fill:#7f6060;}.cls-36{fill:#db975a;}.cls-37{fill:#b5505f;}.cls-38{fill:#7c3d42;}.cls-39{fill:#8e3848;}.cls-40{fill:#8a6ba5;}</style></defs><g id="Layer_2" data-name="Layer 2"><g id="_1" data-name="1"><path class="cls-1" d="M364.67,91.09a8.67,8.67,0,0,1-1.8,7.81,5.13,5.13,0,0,1-5.93,1.49c-.95-.54-2.64-3.73.24-4.93s2-3.42,2-3.42Z"/><path class="cls-1" d="M365.68,90.92c-.11-5.89-10.9-11.49-16.22-12.62s-9.59,11.33-8.23,14.47,4.32,5.59,7.69,4.94,4.46,3.35,5.77,3.52C358,101.68,365.76,94.64,365.68,90.92Z"/><path class="cls-1" d="M360.76,97.19a8.24,8.24,0,0,1-4.37,6.54,5.29,5.29,0,0,1-6.12-.82c-.73-.85-1.23-4.42,1.9-4.46S355.24,96,355.24,96Z"/><path class="cls-2" d="M252.21,255.13V173.26c0-1.06,13.77-50,13.77-50s17.87-12.41,36.11-7.09l9.3,12.76L279,180.71Z"/><path class="cls-3" d="M302.09,116.21C283.85,110.89,266,123.3,266,123.3s-.78,2.75-2.85,10.15l26.65,3.42-22.22,48.89L253.33,252,279,180.71,311.39,129Z"/><path class="cls-4" d="M245.93,161c-6.78-27.66-27.6-68.46-17.54-102.37,6.73-22.7,30.89,14.71,30.89,33.69,0,13.4-3,35,1.12,57C262.49,160.44,248.37,170.9,245.93,161Z"/><path class="cls-1" d="M236,111c6.66-2,16.81,11.67,22.66,30.65.38,1.25.74,2.49,1.07,3.72-3.12-20.62-.48-40.51-.48-53.13,0-19-23.66-56.23-30.89-33.69-5.68,17.67-3.18,39.72,4.73,61.5C233.72,114.66,233.15,111.92,236,111Z"/><path class="cls-5" d="M260,104.92l-37.4.93s-2.05-39.9,6.94-54.31S263.56,64,260,104.92Z"/><path class="cls-6" d="M244.5,85.8A120,120,0,0,0,246,105.27l14-.35c1.86-21.49-4.15-39.09-11.58-48.89C246,63.72,244.5,74.22,244.5,85.8Z"/><path class="cls-2" d="M324.05,256.19c0-1.06-28.29-65.21-28.29-65.21L292,155.19l-10.8-5.67L283,116l42.94-4.44L327,141.37l-3.73,48.2Z"/><path class="cls-3" d="M313.68,139.22l-2.31,52.64,10.12,58c1.58,3.72,2.56,6.09,2.56,6.29l-.75-66.62,3.73-48.2-1.12-29.77L283,116l-9.73,18.8Z"/><path class="cls-7" d="M254.32,258.28H242s8.67-5.53,10.43-5.58S254.32,258.28,254.32,258.28Z"/><path class="cls-7" d="M327.4,258.28h-7.91s2.2-4.79,3.3-4.84S327.4,258.28,327.4,258.28Z"/><path class="cls-5" d="M226.11,62.53c3.27-17.66,19.15-39.25,37.76-38.75s33.06,1.25,47.7,26.06,14.7,72.71,14.7,72.71-46.85,10.41-60.95,4.58C262.13,84.58,251.65,57.57,226.11,62.53Z"/><path class="cls-6" d="M313.5,48.35c-14.64-24.82-31-24.08-49.63-24.57a23.55,23.55,0,0,0-4.37.3c22.93,2.33,27.41,25.42,33.3,44.6,4.63,15.11,8.25,47.48,5.89,58.67,9.48-1.58,27.58-4.8,27.58-4.8S328.14,73.16,313.5,48.35Z"/><path class="cls-1" d="M330.46,69.1c-6.77-10.31-18.22-16.71-25.73-13.68-8.07,3.26-8,15.71.38,27.05,7.93,10.76,19.65,15.44,26.13,11.18C337.31,89.66,336.92,78.94,330.46,69.1Z"/><path class="cls-5" d="M284,25.9c6.83-.23,32.73,10.29,43.89,36.34L296.63,74.15S261.5,26.67,284,25.9Z"/><path class="cls-6" d="M292.68,29.84c-1.15-5.44-24.12-7.78-36.56-5.15S241.33,35,242.48,40.45s14.16,7.73,26.6,5.09S293.84,35.29,292.68,29.84Z"/><path class="cls-6" d="M306.79,45c5.15,7.37,8.25,15.13,9.17,21.81l11.93-4.55C316.73,36.19,290.83,25.67,284,25.9a13.39,13.39,0,0,0-2.13.25C289.73,27.4,299.37,34.35,306.79,45Z"/><path class="cls-1" d="M310.36,80c.17-11.63,16.95-14.77,26.57-12.15s28.56,18.8,12.18,27.07S310.08,98.87,310.36,80Z"/><path class="cls-4" d="M336.93,67.81c-9.62-2.62-26.4.52-26.57,12.15a20.66,20.66,0,0,0,.3,3.85A39.65,39.65,0,0,0,321,89.11c12.7,4.36,25,2,27.52-5.28,1.37-4-.48-8.55-4.47-12.63A26.49,26.49,0,0,0,336.93,67.81Z"/><path class="cls-1" d="M275.61,29.66c-1.73-4.76-9.61-7-17.6-5s-13.07,7.45-11.34,12.21,9.62,7,17.61,5S277.34,34.41,275.61,29.66Z"/><path class="cls-4" d="M264.76,24.49c.27-2.46-.77-4.58-2.3-4.75s-3,1.69-3.27,4.15.77,4.58,2.31,4.75S264.5,27,264.76,24.49Z"/><path class="cls-8" d="M263.63,24.7c.18-1.68-.52-3.14-1.58-3.25s-2.05,1.16-2.23,2.84.52,3.14,1.58,3.25S263.45,26.38,263.63,24.7Z"/><path class="cls-4" d="M243.46,31.39c-2.21-1.08-4.56-.83-5.24.56s.56,3.39,2.77,4.47,4.56.84,5.24-.55S245.67,32.48,243.46,31.39Z"/><path class="cls-8" d="M244,31.94c-1.62-.79-3.34-.61-3.84.4s.41,2.48,2,3.27,3.33.62,3.83-.4S245.64,32.73,244,31.94Z"/><path class="cls-9" d="M259.37,13.65a20.84,20.84,0,0,0-6.55-11.51c-5.46-4.59-7.64-.36-7.64-.36s-2.36-1.73-6.91-.54-4,7.73-4,7.73c-5.64,2.66-2.36,9.62-2.36,9.62s-.72,8.55,15.47,19.54l14.37-6.56C263.85,20.45,259.37,13.65,259.37,13.65Z"/><path class="cls-4" d="M240.26,25.2c2,9.36,9.76,15.73,12.25,17.55s11.42-2.81,11.75-6.45-4.3-16.39-6.45-19.21-11.1-3.48-13.58-1.49S239.76,22.89,240.26,25.2Z"/><path class="cls-9" d="M256.34,13.82c-1.23-3.21-6.62-4.13-12.06-2.05s-8.84,6.35-7.62,9.55,6.62,4.13,12.05,2.05S257.56,17,256.34,13.82Z"/><path class="cls-8" d="M248.73,30.8a5.69,5.69,0,0,1,2.6-.24,2.18,2.18,0,0,0-2.48-1.12,1.57,1.57,0,0,0-1.24,2A3.56,3.56,0,0,1,248.73,30.8Z"/><path class="cls-8" d="M258.49,26.47a5.66,5.66,0,0,0-1.88,1.75,2.16,2.16,0,0,1,.78-2.57,1.59,1.59,0,0,1,2.28.39A3.34,3.34,0,0,0,258.49,26.47Z"/><path class="cls-10" d="M255.31,22.21l3.6-.6a.85.85,0,0,1,1,.7l.16.91a.82.82,0,0,1-.67,1l-3.62.55a.82.82,0,0,1-.92-.69l-.15-.89A.8.8,0,0,1,255.31,22.21Z"/><path class="cls-10" d="M243.87,28,247,25.58a.92.92,0,0,1,1.28.2l.65.82a.92.92,0,0,1-.1,1.3l-3.12,2.44a.91.91,0,0,1-1.27-.21l-.63-.82A.92.92,0,0,1,243.87,28Z"/><path class="cls-8" d="M254.16,28.93s-.1.22-.23.58c1.2,1.83,2.72,4.93-.25,4.35,0,.08,0,.17.07.24C258.94,35.85,255.12,30.07,254.16,28.93Z"/><path class="cls-8" d="M254.58,37.23a4.45,4.45,0,0,1-3.31-1,3.15,3.15,0,0,0,3.47,1.79,4.39,4.39,0,0,0,2.63-2.12A5.06,5.06,0,0,1,254.58,37.23Z"/><path class="cls-4" d="M347.05,86.57c6.27,2.27,10.14,3.14,11.37,2.45s3-2,1.31-3.46-9.66-4.32-12.39-6S344.26,85.57,347.05,86.57Z"/><path class="cls-4" d="M248.54,174.07a7.58,7.58,0,0,0,6.74,2.65,4.85,4.85,0,0,0,4.19-3.85c.09-1-1.4-4-3.79-2.37s-3.58-.21-3.58-.21Z"/><path class="cls-4" d="M247.89,174.77c-4.32-3.14-2.87-14.45-.95-19.19s12.46-7.45,14.08-4.76,2.86,12.12.63,14.41.16,5.22-.38,6.33C259.89,174.33,250.62,176.76,247.89,174.77Z"/><path class="cls-4" d="M255.11,174.19a7.25,7.25,0,0,0,7.12,0,5.13,5.13,0,0,0,2.58-5.2c-.26-1-2.64-3.25-4.3-.83s-3.39,1.14-3.39,1.14Z"/><path class="cls-4" d="M260.4,149.22c3.29,6.78,7,14.25,7,17.47s1.65,6.6.08,7.62-3.77.86-4.32-1.1-2.16-8.25-4-10.37C256,159.22,260.4,149.22,260.4,149.22Z"/><path class="cls-11" d="M402.86,114.58c-46.62,0-60,27.63-65.31,64.76L443,202C453,161.48,457.38,114.58,402.86,114.58Z"/><path class="cls-12" d="M394.49,114.58c-46.62,0-60,27.63-65.31,64.76L434.64,202C444.65,161.48,449,114.58,394.49,114.58Z"/><path class="cls-13" d="M340.05,97.1S321.82,122,321.53,139.61l2.69,24.92c10.59,1.61,22,.73,28.09-31.66S340.05,97.1,340.05,97.1Z"/><path class="cls-14" d="M340.05,97.1s-.63.86-1.64,2.36c3.48,5.46,3.66,17.9-.06,31.74-3.42,12.74-9.21,23.22-14.74,27.69l.61,5.64c10.59,1.61,22,.73,28.09-31.66S340.05,97.1,340.05,97.1Z"/><path class="cls-13" d="M351.46,175.05c6.89-29.65-16.51-34.91-20.89-48.21-2.58-7.82-.85-29.19,11.07-33.69,17.13-6.46,36.94-2.78,52.8,9.26,19.28,14.63,34.32,50.68,23,73.85S351.46,175.05,351.46,175.05Z"/><path class="cls-14" d="M364.49,180c6.53-2.27,5.95-14-1.82-27.87-8.54-15.27-22.56-27.36-31.31-27a7.83,7.83,0,0,0-1.22.15c.13.57.27,1.1.43,1.58,4.38,13.3,25.44,20,20.89,48.21C351.46,175.05,356.8,177.43,364.49,180Z"/><path class="cls-14" d="M394.44,102.41c-15.86-12-35.67-15.72-52.8-9.26-3.9,1.47-6.7,4.75-8.63,8.77a21.73,21.73,0,0,1,5-3c16.14-7,37.69,6.93,48.13,31.06,9.59,22.16,6.47,45.23-6.6,54.27,15.28,3.33,32.19,3.82,37.92-7.94C428.76,153.09,413.72,117,394.44,102.41Z"/><rect class="cls-15" x="318.71" y="228.24" width="120.8" height="7.44"/><path class="cls-15" d="M442.47,230.89,444,258.28h-1.57s-3.18-22.64-12.84-26.56Z"/><path class="cls-15" d="M405.49,230.89l-1.56,27.39h1.56s3.16-22.64,12.75-26.56Z"/><path class="cls-15" d="M352.52,230.89l1.59,27.39h-1.6s-3.23-22.64-13.06-26.56Z"/><path class="cls-15" d="M314.9,230.89l-1.58,27.39h1.59s3.21-22.64,13-26.56Z"/><path class="cls-12" d="M423.38,202.63H350C341.83,188.9,343.91,150,317,150c-25.22,0-30.51,13.16-30.51,43.88,0,27.09,32.54,38.91,32.54,38.91H441.28Z"/><path class="cls-16" d="M350,202.63H315.69c-7.05-11.91-1.22-47.45-12.48-50.72-13.47,4.65-16.7,17.93-16.7,42,0,27.09,32.54,38.91,32.54,38.91h99.16c45.69-29.41,11.19-32.27-17.89-30.14Z"/><path class="cls-12" d="M350.26,214.32c9-3.9,22.81-7,38.38-8.17a154.19,154.19,0,0,1,24.84,0,3.1,3.1,0,0,0,.28-1.38c-.23-5.32-15.65-8.49-34.45-7.08s-33.85,6.87-33.63,12.19C345.75,211.64,347.42,213.13,350.26,214.32Z"/><polygon class="cls-12" points="355.25 200.31 338.4 200.31 344.35 232.77 352.11 232.77 355.25 200.31"/><polygon class="cls-12" points="390.56 200.31 373.72 200.31 379.67 232.77 387.43 232.77 390.56 200.31"/><path class="cls-17" d="M342.77,149.65c-.27-10.34-7.87-18.31-17-17.82s-16.25,9.27-16,19.61,7.86,18.31,17,17.81S343,160,342.77,149.65Z"/><path class="cls-18" d="M325.81,131.83a15.44,15.44,0,0,0-3,.5c2.4,3.34,4,8.58,4,14.48,0,10.09-4.51,18.27-10.06,18.27a5.16,5.16,0,0,1-1-.1,14.94,14.94,0,0,0,11.18,4.27c9.09-.49,16.24-9.27,16-19.6S334.9,131.34,325.81,131.83Z"/><path class="cls-19" d="M340.15,255c-21.07-28.78-27.27-74.1-25.41-80.37s46.8-16.68,65.71-5,7.42,33.49-5.9,33.21-33.47.57-33.47.57Z"/><path class="cls-20" d="M380.45,169.63c-15.1-9.33-46.79-4.57-59.89.92,7.28,1.58,9.84,2.2,12.18,12.6,3.56,15.81,5.87,55.63,7.17,71.5l.24.34.93-51.58s20.14-.86,33.47-.57S399.37,181.32,380.45,169.63Z"/><path class="cls-19" d="M376.1,255c-21.08-28.78-27.27-74.1-25.41-80.37s44.23-17.25,63.15-5.56,9.05,35.77-4.27,35.49S377,203.41,377,203.41Z"/><path class="cls-20" d="M413.84,169.06c-11.58-7.15-31.93-5.82-46.41-2.27-4,1-1.5,26.85,1.73,43.08,3.19,16,4.54,30.71,4.1,41,.92,1.4,1.86,2.79,2.84,4.13l.93-51.58s19.21.85,32.54,1.14S432.75,180.75,413.84,169.06Z"/><path class="cls-12" d="M406.83,204.78c7.52-13.8,4-55.18,31.84-55.35,26.19-.16,32.38,13.22,34,44.32,1.38,27.21-31.45,39-31.45,39C423,228.38,412.86,218.85,406.83,204.78Z"/><path class="cls-16" d="M445.68,193.75c-1.17-23.13-5.86-43.47-17.52-41.7-16.51,9.31-14.93,41-21.33,52.73,4.05,9.46,9.74,17.84,18.72,23C434.85,221.77,446.5,210,445.68,193.75Z"/><path class="cls-21" d="M324.38,257.57h17.77s.74-5.33-3.42-6S324.38,257.57,324.38,257.57Z"/><path class="cls-21" d="M380.79,257.57H369.63s1.72-5.33,4.62-6S380.79,257.57,380.79,257.57Z"/><path class="cls-13" d="M361.73,165c18.75,2.29,28.46-9.92,27.53-33.41s-3.33-34-12.53-38-21.79,4.14-22.62,23.67S354.25,164.05,361.73,165Z"/><path class="cls-14" d="M330.32,111.91c3,8.6,16.09,6.63,31.71,1.22,3.47-12.76,23.59-8,25.15-15.47-14.39-8.13-30.93-10-45.54-4.51-6.71,2.53-10.19,10.4-11.49,18.19C330.2,111.53,330.25,111.72,330.32,111.91Z"/><path class="cls-14" d="M390.82,131.4c-.93-23.49-4.89-33.88-14.09-37.85a12.08,12.08,0,0,0-6.48-.85c4.83,6.42,8.12,19.12,8.12,33.75,0,21.11-6.86,38.22-15.31,38.22a7,7,0,0,1-3.82-1.2,4,4,0,0,0,2.49,1.5C380.48,167.26,391.75,154.89,390.82,131.4Z"/><ellipse class="cls-17" cx="368" cy="147.76" rx="19.23" ry="16.59" transform="translate(186.74 500.46) rotate(-84.68)"/><path class="cls-18" d="M383.94,141.87c-2.57-10.1-11.8-15.65-20.6-12.4a16.47,16.47,0,0,0-3.66,1.95c4.1,2.29,7.15,10.7,7.15,20.75a39.53,39.53,0,0,1-2.48,14.44,14.51,14.51,0,0,0,8.31-.56C381.46,162.79,386.51,152,383.94,141.87Z"/><path class="cls-17" d="M334.6,108.64c4.21,2.5,10.1,3,14.52-1.33,5.08-5,6-12.21,1.94-16.33-.16-.17-.34-.31-.51-.46-1.53.3-3.19.55-4.72.88C338.07,93,335.35,100.19,334.6,108.64Z"/><path class="cls-8" d="M346.88,91.36c4.59,1.29,5.11,14.2-3.78,16.48-5.89,1.5-19.11-15.7-19.11-15.7Z"/><path class="cls-22" d="M338.32,89.7a1.07,1.07,0,0,1-.47,0c-.34-.15-.35-.62-.33-1a11.12,11.12,0,0,0-3.43-8.6,12.16,12.16,0,0,0-7.81-3.83,4.69,4.69,0,0,0-4.93,2.44c-1.53-.35-3.08.46-4.34,1.39a5.62,5.62,0,0,0-1.67,1.73,2.35,2.35,0,0,0-.07,2.31,10.52,10.52,0,0,0-9.5,1.79c-1.11.89-3.17,3.84-2.33,6.15a14.43,14.43,0,0,0,2,4.09c.46.58,1.12,1,1.28,1.77.07.29,0,.59.1.88.24,1.09,1.55,1.51,2.64,1.72a2.64,2.64,0,0,0,3.43,3.19,4.27,4.27,0,0,0,1.25,2.89,2,2,0,0,0,2.87-.15l20.55-10.48a1.37,1.37,0,0,1,.72-1.62c.44-.2,1.06-.2,1.26-.65.12-.23.05-1.93,1.69-2.12C341,90,339.71,89.64,338.32,89.7Z"/><path class="cls-4" d="M319.68,164.7c-11-3.93-12.83-29.2-2.55-55.43l13.12-2.3s12.87,35.72,10.15,45.64C338,161.49,324.23,166.33,319.68,164.7Z"/><path class="cls-1" d="M330.25,107,317,108.13c-3.68,14.24,3.13,48.19-1.55,53.5a10,10,0,0,0,4.26,3.07c4.55,1.63,18.29-3.21,20.72-12.09C343.12,142.69,330.25,107,330.25,107Z"/><path class="cls-1" d="M330.67,98.94c1.11,2.12,1.72,12.56,1.51,18.37l-13.5,1.29c-4.09-9.32-2-14.88-1-16.76C319,99.54,329.56,96.83,330.67,98.94Z"/><path class="cls-1" d="M341.38,104.53c-.18.88-5.43,4.36-8.48,12.6L329,109.46c.84-2.25,8.11-8.29,9.72-8.33C340.54,101.08,341.63,103.25,341.38,104.53Z"/><path class="cls-1" d="M334.71,92.66a92.58,92.58,0,0,1-3.7,14l-3.93-4.41s3.34-10.62,4.6-11.36A2.18,2.18,0,0,1,334.71,92.66Z"/><path class="cls-1" d="M327.64,90c.5.79-.57,8.46-1.68,15.57l-4.42-4s1.53-11.42,2.61-12.35S327.14,89.21,327.64,90Z"/><path class="cls-1" d="M316.76,110.84c-2.91-9.46.86-21.64,1.72-22.15s3.42-1,3.4.49-1.56,8.75-1,10.47,5.07,11.81,4.88,12S316.76,110.84,316.76,110.84Z"/><ellipse class="cls-22" cx="320.69" cy="103.74" rx="6.43" ry="5.61"/><path class="cls-4" d="M318.23,106.48c8.18,3.17,18.18,7.87,20.66,7.35,1.81-.6,5.66-8.34,5.07-10.4s-5.3-6.34-9.95-8.71-10.51-3.44-13.4-1.58S314.45,105,318.23,106.48Z"/><path class="cls-22" d="M323.8,100l2-2.75a.54.54,0,0,1,.75-.11l1,.64a.52.52,0,0,1,.16.72l-2,2.74a.56.56,0,0,1-.75.12l-.95-.64A.5.5,0,0,1,323.8,100Z"/><path class="cls-22" d="M320.81,107.43l.91-3.12a.5.5,0,0,1,.66-.29l1.09.39a.57.57,0,0,1,.39.66l-.92,3.11a.49.49,0,0,1-.66.29l-1.09-.39A.55.55,0,0,1,320.81,107.43Z"/><path class="cls-8" d="M329.35,104.82c1.44,2.26,2.51,3.46,3.39,3.13a2.13,2.13,0,0,0,1-1.48h0s-.22,2.06-1.1,2.48S330.8,107.75,329.35,104.82Z"/><path class="cls-23" d="M329.13,102.89c-1-.36-1.62-1.14-1.4-1.73s1.19-.78,2.18-.43,1.62,1.13,1.4,1.73S330.12,103.24,329.13,102.89Z"/><path class="cls-23" d="M327,108.81c-1-.35-1.62-1.13-1.4-1.72s1.19-.78,2.18-.43,1.62,1.13,1.4,1.73S328,109.17,327,108.81Z"/><path class="cls-4" d="M330.92,100.83a1.86,1.86,0,0,0-2.37,1c-.2.82.53,1.71,1.64,2a1.86,1.86,0,0,0,2.37-1C332.76,102,332,101.1,330.92,100.83Z"/><path class="cls-4" d="M328.59,106.79a1.86,1.86,0,0,0-2.37,1c-.2.82.54,1.7,1.65,2a1.85,1.85,0,0,0,2.36-1C330.43,107.94,329.7,107.06,328.59,106.79Z"/><path class="cls-23" d="M336.45,109.8c-2.08-1.09-1.52-4.19.39-4.38S336.45,109.8,336.45,109.8Z"/><path class="cls-22" d="M335.18,94.33a10.43,10.43,0,0,0-1.64-3.58,9.6,9.6,0,0,0-1.29-1.26,11.05,11.05,0,0,0-3.83-2.35,11.31,11.31,0,0,0-2.53-.32,25.37,25.37,0,0,0-4.61,0A8.34,8.34,0,0,0,317,88.58a11.46,11.46,0,0,0-2.42,3.13,7.51,7.51,0,0,0-.88,1.88,4.54,4.54,0,0,0,1.1,4.17,1.11,1.11,0,0,1,.3.45.91.91,0,0,1-.25.7,6.88,6.88,0,0,0-1.17,6.31,3.4,3.4,0,0,0,1.71,2,3.53,3.53,0,0,0,1.24.26,4.1,4.1,0,0,0,3.78-2.07,3.09,3.09,0,0,0-1.07-3.94,3,3,0,0,0,.78-.84,1.08,1.08,0,0,0,0-1.11,1.94,1.94,0,0,1-.21-.29.9.9,0,0,1,0-.49l.27-2.13a2.81,2.81,0,0,0,0-.29,3.56,3.56,0,0,0,2.12.57,2.07,2.07,0,0,0,1.92-2,.27.27,0,0,0,0-.12c.38-.11.6-.56.86-.89a2.29,2.29,0,0,1,2.84-.3c.93.48,1.29,1.27,2,2.06,1.44,1.61,5,2,5.79,1.16Z"/><path class="cls-4" d="M337.8,93c-1.22-2.07-3.31-3.12-4.66-2.33s-1.44,3.11-.22,5.19,3.32,3.12,4.66,2.34S339,95.1,337.8,93Z"/><path class="cls-8" d="M336.88,93.67c-.76-1.29-2.06-2-2.92-1.47s-.93,1.91-.17,3.2,2.07,2,2.92,1.48S337.64,95,336.88,93.67Z"/><path class="cls-4" d="M336.88,95.24c-.53-.89-1.44-1.35-2-1s-.64,1.32-.11,2.21,1.43,1.35,2,1S337.4,96.14,336.88,95.24Z"/><path class="cls-4" d="M363.35,163.45c-11.87-4.2-19.09-31.17-14.44-59.15l12.63-2.46s21,36.27,20.42,46.86C381.43,158.17,368.25,165.18,363.35,163.45Z"/><path class="cls-1" d="M361.54,101.84a72,72,0,0,1,6.06,18.59c3.58,18.83,0,35.32-7.88,36.83a7.16,7.16,0,0,1-4-.49c2.21,3.33,4.79,5.67,7.65,6.68,4.9,1.73,18.08-5.28,18.61-14.75C382.55,138.11,361.54,101.84,361.54,101.84Z"/><path class="cls-4" d="M363.47,92.62c.79,2.25-.11,12.67-1.15,18.39l-13.56-.68c-2.69-9.81.17-15,1.47-16.72C351.8,91.52,362.68,90.36,363.47,92.62Z"/><path class="cls-4" d="M373.26,99.69c-.3.84-6,3.53-10.21,11.24l-2.72-8.15c1.15-2.1,9.22-7,10.82-6.84C372.93,96.16,373.7,98.46,373.26,99.69Z"/><path class="cls-4" d="M368.38,87a92.52,92.52,0,0,1-5.69,13.35l-3.25-4.93s4.83-10,6.19-10.58A2.18,2.18,0,0,1,368.38,87Z"/><path class="cls-4" d="M361.77,83.33c.37.85-1.79,8.29-3.92,15.16l-3.79-4.59s3.16-11.08,4.37-11.85S361.39,82.47,361.77,83.33Z"/><path class="cls-4" d="M348,102.38c-1.52-9.78,4-21.29,4.9-21.67s3.54-.53,3.3,1-2.81,8.43-2.5,10.21,3.31,12.42,3.09,12.57S348,102.38,348,102.38Z"/><path class="cls-24" d="M206.64,142.06h-.1a2.32,2.32,0,0,0-2.41,2.2l-1.32,23.36,4.75.19,1.3-23.29A2.33,2.33,0,0,0,206.64,142.06Z"/><path class="cls-25" d="M208.33,154l.53-9.5a2.33,2.33,0,0,0-2.22-2.46h-.1a2.31,2.31,0,0,0-1.66.61C205,147.77,206.35,152.12,208.33,154Z"/><path class="cls-26" d="M197.81,137.7a1.65,1.65,0,0,0-3.29.1l.67,22.77h3.29Z"/><polygon class="cls-21" points="211.21 157.56 189.46 157.56 191.18 185.6 209.92 185.6 211.21 157.56"/><path class="cls-27" d="M208.77,182.3c-6.94,1-14.08-8.76-15.94-21.77-.15-1-.24-2-.31-3h-3.06l1.72,28.05h18.74l.17-3.64A6.71,6.71,0,0,1,208.77,182.3Z"/><path class="cls-11" d="M46.39,111.69c45.39,1.86,59.71,30.57,66.55,68.64L11.32,199.22C-.28,157.5-6.68,109.51,46.39,111.69Z"/><polygon class="cls-15" points="214.16 187.61 212.35 257.28 211.35 257.28 208.92 187.18 214.16 187.61"/><polygon class="cls-15" points="226.09 187.61 232.81 257.28 231.81 257.28 220.79 187.18 226.09 187.61"/><polygon class="cls-15" points="193.76 187.61 187.03 257.28 188.03 257.28 199.05 187.18 193.76 187.61"/><rect class="cls-15" x="190.61" y="188.32" width="38.63" height="5.29"/><rect class="cls-28" x="176.83" y="184.7" width="66.19" height="5.15"/><path class="cls-16" d="M46,202.7h68.5c6.67-13.7,2.13-52.53,27.22-52.53,23.53,0,29.34,13.13,31.39,43.77,1.81,27-27.76,38.83-27.76,38.83h-114Z"/><rect class="cls-15" x="32.8" y="228.24" width="110.74" height="7.44"/><path class="cls-15" d="M146.25,230.89l1.44,27.39h-1.44s-2.92-22.64-11.77-26.56Z"/><path class="cls-15" d="M112.35,230.89l-1.43,27.39h1.43s2.9-22.64,11.68-26.56Z"/><path class="cls-15" d="M63.79,230.89l1.46,27.39H63.78s-3-22.64-12-26.56Z"/><path class="cls-15" d="M29.3,230.89l-1.45,27.39h1.46s2.94-22.64,11.88-26.56Z"/><path class="cls-29" d="M87,105.35c24,8.2,36.05,42.73,38.34,44.63s-1.14,25.56-10.68,22.89S87,105.35,87,105.35Z"/><path class="cls-29" d="M103.13,135s-.61-11.08-5.07-19.19-17.24-16.73-22-19-23.26-7.06-35.47,1c-8.23,5.44-4.87,50.58,19.79,95.1l52.91-16.38C113,160.18,103.13,135,103.13,135Z"/><path class="cls-30" d="M103.08,134.34c3.88,18-2.89,39-11.84,41.87-18.56,6-40.83-15.11-42-51.9-.47-14.76-12.81-13.69-10-25-6.56,10.07-3.9,56.55,19.24,98.32l54.87-21.11C113.2,171,104.64,140.62,103.08,134.34Z"/><path class="cls-29" d="M59.46,100.28c-.16-11.48-18.65-6.09-33,6.1C10.23,120.2,3.8,145.09,9.87,153.55l31.05-18.68c-3.42-3.2,2.11-5.74,4.79-7.86C51.21,122.66,59.72,118.2,59.46,100.28Z"/><path class="cls-30" d="M51.25,121.52C38.57,131.84,20.36,141,13.21,136c-1.84-1.28-.76-7.88-1.12-10-5,11.13-5.92,22.38-2.22,27.54L42,135.84c-3.42-3.2,1-6.71,3.67-8.83,3-2.34,6.79-4.72,9.66-9.21A53.72,53.72,0,0,1,51.25,121.52Z"/><path class="cls-31" d="M39.06,135.87c-4-7.14-14.44-8.9-23.24-3.93S3.16,146.73,7.2,153.87s14.43,8.9,23.23,3.93S43.09,143,39.06,135.87Z"/><path class="cls-4" d="M40.2,155.8C30.46,155.93,13,158,10.12,154S8.61,134.16,20.91,131.4c15.92-3.57,24,10.53,25,13C48.09,149.4,46.36,155.71,40.2,155.8Z"/><path class="cls-1" d="M45.26,143.07a26.41,26.41,0,0,1-12.93,6.18c-10.59,2-20.2-1.65-21.48-8.25a8.07,8.07,0,0,1-.12-1.09c-2.53,5.45-2.3,11.8-.61,14.11,2.91,4,20.34,1.91,30.08,1.78,6.16-.09,7.89-6.4,5.72-11.44C45.79,144.08,45.57,143.63,45.26,143.07Z"/><path class="cls-32" d="M85.65,173.44c-14.88-7.05-23.85,2.87-23.85,2.87L68.67,203h57.42l15.34-32.72C123.23,166.86,100.53,180.5,85.65,173.44Z"/><path class="cls-33" d="M99.05,175.38A69.89,69.89,0,0,1,86.83,181c-8.54,3-16.74,4.27-22.84,3.79L68.67,203h57.42l15.34-32.72C128.1,167.78,112.36,174.42,99.05,175.38Z"/><path class="cls-16" d="M128.38,202.63H59.51C51.88,188.9,53.84,150,28.61,150,5,150,0,163.14,0,193.86,0,221,30.52,232.77,30.52,232.77H145.16Z"/><path class="cls-12" d="M108.34,202.63c3,9.52,9,19.39,17.68,30.14h17.81c0-.81,0-1.63,0-2.46l-15.41-27.68Z"/><path class="cls-12" d="M59.51,202.63c-2.82-5.08-4.33-13.61-6.39-22.33l0,.06c-5.6,13.23-1.43,32.2,10.32,52.41H81.08c1.76-9.11,3.88-20.22,5.37-30.14Z"/><path class="cls-12" d="M15.37,192.8c-.58-24.18,2-37.76,13.91-42.78-.22,0-.44,0-.67,0C5,150,0,163.14,0,193.86,0,221,30.52,232.77,30.52,232.77H46.85S16,220.63,15.37,192.8Z"/><path class="cls-4" d="M116.07,173.17c-10.4-1.55-6.63-21.69,8.11-24,9.08-1.41,16.45,2.32,19.6,4.1s.61,13.88-6.4,16S122.14,174.08,116.07,173.17Z"/><path class="cls-32" d="M149,174.4c-7.06-8.24-31-5.91-31,9,0,20.81,16.3,41.6,46.23,68.31l1.25-.43C164.08,248.43,156,182.64,149,174.4Z"/><path class="cls-33" d="M141.77,215.82c-6.13-19.13-6.49-37-1.71-45.8-9.58-1.59-23.71,2.78-23.71,13.54,0,18.78,14.93,37.37,39.5,60.47C150.47,237,145.41,227.18,141.77,215.82Z"/><path class="cls-21" d="M176.83,257.57H161.42s0-6,3.41-6.73S176.83,257.57,176.83,257.57Z"/><path class="cls-32" d="M89.26,177.71c-6.29-8.3-31-12.28-33.86,2.65-3.33,17.31,12.32,44.44,39.79,71.34l1.28-.43C95.33,248.41,95.56,186,89.26,177.71Z"/><path class="cls-33" d="M71.84,205c-4.78-12.82-7.58-23.87-8.76-33.47a11.43,11.43,0,0,0-7.68,8.83c-3.33,17.31,12.32,44.44,39.79,71.34l1.28-.43a18.27,18.27,0,0,1-.36-3.29C88.75,241.54,79.16,224.6,71.84,205Z"/><path class="cls-21" d="M105.06,257.57H92.75s0-6,2.72-6.73S105.06,257.57,105.06,257.57Z"/><path class="cls-4" d="M139,153.15c-.88-4.72-.26-9.13.58-9.9s3.5.51,3.61,2.17.32,6.34,1.23,8.54C145.09,155.5,139.37,154.9,139,153.15Z"/><polygon class="cls-34" points="96.55 177.36 119.66 130.78 149.52 131.43 150.34 132.56 125.99 176.46 97.36 178.49 96.55 177.36"/><polygon class="cls-35" points="97.36 178.49 120.47 131.91 150.34 132.56 126.8 177.6 97.36 178.49"/><rect class="cls-36" x="176.83" y="184.7" width="8.52" height="5.15"/><rect class="cls-36" x="239.55" y="184.7" width="4.59" height="5.15"/><path class="cls-30" d="M50.81,104.59c19.12,7.64,36.76,9,40.84,3.43A72.7,72.7,0,0,0,76.09,96.84c-3.68-1.74-15.76-5.06-26.69-2.61A39.59,39.59,0,0,0,38,98.51,112.19,112.19,0,0,0,50.81,104.59Z"/><path class="cls-30" d="M77.44,102.65l-.74-1-1.13.78s-8.65,36.55-1.48,63l6.38,5.27,1.71-5.43C69.59,145.2,77.44,102.65,77.44,102.65Z"/><path class="cls-37" d="M78,103.24l-.79-1-1.08.77s-6.53,35.65,2.18,61.46l6.7,5.13,1.39-5.29C72.58,144.75,78,103.24,78,103.24Z"/><path class="cls-38" d="M86.23,52.06c-9.75-1.39-17.07,1.78-17.89,6.56L90.43,70.88c6.12.45,4.91-4.9,4.91-4.9s3.23-2.15,2.74-5.5C97.27,54.91,93.47,53.09,86.23,52.06Z"/><path class="cls-8" d="M63.16,93.66c4.41-7.48,10.72-20.89,10.72-20.89l14,9.69L83,100.86s-3.34,2.87-9.83.77A17.34,17.34,0,0,1,63.16,93.66Z"/><path class="cls-4" d="M74,61.16c-4.9,6.3-4.94,28.09-2,30s6.44,3.73,9.87,3.43,5.71-1.17,6.06-1.91,3.48-21.85,5-25.33C95.26,61.83,78.79,55.05,74,61.16Z"/><path class="cls-38" d="M67.85,85l2.2-2.64.21-3.78,3.55-.45s-1.55-13.87.74-15.47,8.73-4.25,3.57-6.42S66,59,65.62,61.93,67.85,85,67.85,85Z"/><path class="cls-4" d="M71,80.92c-4.44-1.66-6-5.83-4.85-7.91S70,72.94,71,74.22,71,80.92,71,80.92Z"/><path class="cls-31" d="M83.81,98.12l-.09,0s-4.2,1.88-6.49,1.17c-3.62-1.14-12-9.34-12-9.34L61,93.47l9.41,12.16,6.5-2.93,4.22,4.58,3.74-4.88Z"/><path class="cls-8" d="M70.19,79.27c-2.76-1-3.69-3.62-3-4.9s2.36-.05,3,.75S70.19,79.27,70.19,79.27Z"/><path class="cls-4" d="M70.6,79.59c-1.91-.47-2.73-2.12-2.38-3s1.56-.21,2,.27S70.6,79.59,70.6,79.59Z"/><path class="cls-4" d="M29.38,156.37c-2.78-13,9.65-18.7,14.75-15s4.17,19.28,2.17,20.81S30,159.08,29.38,156.37Z"/><path class="cls-4" d="M35,153c-.77,5.51-4.1,12.16-5.42,12.7s-3.45-1.81-2.94-3.69,1.74-7.91,2.7-9.62S35.32,150.94,35,153Z"/><path class="cls-4" d="M41,156.82c-.36,6.34-3.21,14.3-4.49,15.08s-3.58-1.62-3.21-3.81,1.16-9.18,2-11.24S41.09,154.46,41,156.82Z"/><path class="cls-4" d="M48.09,156.75c.3,6.34-1.69,14.56-2.89,15.46s-3.72-1.23-3.58-3.44.18-9.25.8-11.39S48,154.39,48.09,156.75Z"/><path class="cls-4" d="M135.94,169.59c-4.41,1.22-8.37.71-9-.21s.91-3.48,2.44-3.68,6.41-1.22,7.88-1S137.58,169.13,135.94,169.59Z"/><path class="cls-4" d="M138.35,163.3c-4.87.86-9.27,0-9.95-.93s.9-3.92,2.6-4,7.49-.72,9.12-.37S140.17,163,138.35,163.3Z"/><path class="cls-4" d="M141.15,157.46c-4.44-.36-8.37-2.19-8.94-3.26s1-3.46,2.52-3.13,6.79,1.12,8.24,1.83S142.8,157.59,141.15,157.46Z"/><polygon class="cls-39" points="76.68 106.21 74.42 103.71 76.98 100.29 78.22 100.35 79.16 104.67 76.68 106.21"/><path class="cls-39" d="M77.26,111.07c.3-4.8.69-7.83.69-7.83l-.79-1-1.08.77s-.55,3-1.12,7.86C75.74,111,76.51,111,77.26,111.07Z"/><path class="cls-40" d="M197.81,137.7a1.65,1.65,0,0,0-3.29.1l.29,10a19.8,19.8,0,0,0,3.44,5Z"/><path class="cls-23" d="M81.9,75.39c.08-1.38-.49-2.57-1.28-2.67S79.11,73.64,79,75s.49,2.57,1.28,2.67S81.81,76.76,81.9,75.39Z"/><path class="cls-38" d="M82.39,66.83l-5.17.38a.81.81,0,0,0-.73.87l.11,1.68a.79.79,0,0,0,.83.75l5.17-.39a.8.8,0,0,0,.73-.86l-.1-1.68A.79.79,0,0,0,82.39,66.83Z"/><path class="cls-23" d="M88.79,75.65c0-1.38-.67-2.53-1.46-2.57s-1.43,1-1.42,2.42.67,2.52,1.47,2.57S88.81,77,88.79,75.65Z"/><path class="cls-38" d="M91.63,69.1l-4.1-1.52a.65.65,0,0,0-.84.45l-.45,1.42a.74.74,0,0,0,.41.92l4.1,1.53a.66.66,0,0,0,.84-.45L92,70A.74.74,0,0,0,91.63,69.1Z"/><path class="cls-8" d="M84.28,76.23c.83,3.39.94,5.45-.38,5.88a3.86,3.86,0,0,1-2.72-.54l0,.06s2.46,1.78,3.88,1.42S85.83,80.27,84.28,76.23Z"/><path class="cls-23" d="M79,87.8a.93.93,0,0,1-.06-1.25c.29-.47.79-.67,1.11-.46a.94.94,0,0,1,.06,1.25C79.78,87.81,79.29,88,79,87.8Z"/><rect class="cls-4" x="78.4" y="72.03" width="4.94" height="2.76"/><rect class="cls-4" x="85.44" y="72.49" width="4.94" height="2.76" transform="translate(18.52 -17.62) rotate(12.78)"/></g></g></svg>