<svg xmlns="http://www.w3.org/2000/svg" viewBox="0 0 143.71 88.31"><defs><style>.cls-1{fill:#fceede;}.cls-2{fill:#e2b988;}.cls-3{fill:#bf7783;}.cls-4{fill:#c68383;}.cls-5{fill:#fcbed2;}.cls-6{fill:#fff;}.cls-7{fill:#a86770;}.cls-8{fill:#ff8f67;}.cls-9{fill:#5bbcbc;}.cls-10{fill:#d18896;}.cls-11{fill:#aa5f5f;}.cls-12{fill:#84525b;}.cls-13{fill:#d7f2f1;}</style></defs><g id="Layer_2" data-name="Layer 2"><g id="Layer_2-2" data-name="Layer 2"><path class="cls-1" d="M131.6,28c-20.53-18.28-40.9-9.28-64.89-6.83-9.54,1-17.76-3.52-26.85-5.57C23.48,11.89,8.42,17.23,2.57,33.21-1.6,44.6-1.1,60.9,7.05,70.68,14.9,80.1,28.22,82.59,40,82.74c8.69.11,16.28-3.79,24.72-4.64,6.92-.71,15.6-1.77,22.42-.4,6.55,1.32,12.47,5.1,19.23,6.19a39.74,39.74,0,0,0,15.48-.72c13.81-3.66,22.81-17.11,21.77-30.27C142.87,43.19,139.09,34.67,131.6,28Z"/><path class="cls-2" d="M143.71,30.62,136.79,60a2.46,2.46,0,0,1-1,1.7,3.76,3.76,0,0,1-2,.58H133l-18.36-.17L103.77,62l-4,0c-.66,0-1.67.15-2.2-.32-.76-.68-.26-2,0-2.84A6.74,6.74,0,0,1,99,56.36c1.31-1.39,3-1.52,4.79-1.52l4.13,0,10.87,0,9.3,0c.13,0,2.32,0,2.33,0l1.93-15.84s2.17-8.85,8.08-10C140.45,28.88,143.23,27.71,143.71,30.62Z"/><path class="cls-3" d="M141.26,28.72A8.46,8.46,0,0,0,138.52,34s-2.6,13.58-4.89,21.28l-20.24-.47a127.27,127.27,0,0,0,5.51-20.66s.8-4.81,2.89-5.43Z"/><path class="cls-2" d="M101.34,61.34,95.41,78.81A.32.32,0,0,1,95,79a.3.3,0,0,1-.21-.38L100,60.93a.74.74,0,0,1,.9-.48.7.7,0,0,1,.5.86Z"/><path class="cls-2" d="M117.93,61.24,112.62,78.9a.33.33,0,0,1-.4.21.31.31,0,0,1-.23-.37l4.54-17.86a.72.72,0,0,1,.87-.52.7.7,0,0,1,.53.85Z"/><path class="cls-2" d="M132.16,61.34l5.93,17.47a.32.32,0,0,0,.41.2.3.3,0,0,0,.21-.38l-5.17-17.7a.72.72,0,0,0-.89-.48.69.69,0,0,0-.5.86Z"/><path class="cls-2" d="M125.54,61.17,130.43,79a.34.34,0,0,0,.4.22.31.31,0,0,0,.23-.37l-4.11-18a.73.73,0,0,0-.86-.53.7.7,0,0,0-.55.84Z"/><path class="cls-4" d="M100.73,74a7.73,7.73,0,0,1-2.61,1c-.87.09-1,.39-1.44,1.07-.72,1-1.86,1.4-2.81,2.11a1.18,1.18,0,0,0,.76,2.18c1.51,0,2.92-.89,4.36-1.34,1.73-.54,4.58-1.61,3.48-4a2.44,2.44,0,0,0-.74-.88C101.33,73.79,101.17,73.76,100.73,74Z"/><path class="cls-5" d="M97.3,73.57a9.19,9.19,0,0,1,.16,2.25s3.12.26,4.06-1.46l-.44-3.21Z"/><path class="cls-4" d="M111.52,73.94a7.87,7.87,0,0,1-2.64,1c-.87.1-1,.4-1.45,1.08-.71,1-1.87,1.41-2.82,2.12-1.16.86-.42,2.16.78,2.14,1.54,0,3-.92,4.41-1.38,1.75-.56,4.62-1.65,3.49-4a2.44,2.44,0,0,0-.76-.86A.75.75,0,0,0,111.52,73.94Z"/><path class="cls-5" d="M108,73.58a9,9,0,0,1,.18,2.22s3.17.22,4.1-1.5l-.48-3.16Z"/><path class="cls-4" d="M107.5,48a15.3,15.3,0,0,0-4-.13,19.08,19.08,0,0,0-4.95.7,5.4,5.4,0,0,0-3.36,2.26c-.78,1.44-.67,3.48-.56,5,.08,1,.29,2.07.36,3.1.1,1.37.19,2.72.39,4.09a15.45,15.45,0,0,1,.22,2.28c0,.85.41,1.58.42,2.43a19.94,19.94,0,0,0,.2,3.37,14.31,14.31,0,0,1,.58,3.49,3.21,3.21,0,0,1,1.29-.3c.63.06.94.42,1.59.33.89-.12,1.91-.4,2.81-.58a16.32,16.32,0,0,0-.35-3.06c-.09-2-.35-3.93-.43-5.91,0-1.12.1-2.21,0-3.34a13.87,13.87,0,0,1-.23-4c.07-.4.72-2.94.16-3.11,0,0,6.69,2.07,9.92.64S109.09,48.47,107.5,48Z"/><path class="cls-4" d="M108.32,50.61l.82-6.85,8.63-.57,1.61,8.28S111.67,53.94,108.32,50.61Z"/><path class="cls-5" d="M104,32.72c.16,1.88.33,3.75.49,5.63.2,2.37,1.15,5.71-.28,8-.47.74-2.7,1.18-1.89,1.88.51.44,1.7,0,2.27-.19,1.9-.54,2,1.11,3.74,1.07.76,0,1.47-.52,2.22-.57,1-.08,1.3.38,2,.87a3.16,3.16,0,0,0,2.11.75c1,0,2.15-.37,2.9.3.56.49.67,1.75,1.76,1.66s.87-2.26.92-3c.1-1.15.62-2.28.75-3.46.39-3.54,1-7.08,1.07-10.62.06-2.36.17-5.23-1.77-6.84-1.25-1-3.41-1.48-4.94-2.07-.17-.07-.76.46-.91.57a2.84,2.84,0,0,1-.92.42,3.54,3.54,0,0,1-2,0c-.54-.15-.78-.58-1.27-.77a3.63,3.63,0,0,0-1.63.12C105.47,27.12,103.93,29.8,104,32.72Z"/><path class="cls-4" d="M118.29,49.37c-2.2-.66-5.21-.49-7.54-.38a16.17,16.17,0,0,0-5.44,1c-3.66,1.52-2.57,4.78-2,7.55.37,1.85.72,3.73,1.2,5.56.17.66.16,1.33.34,2,.38,1.45,1.12,2.81,1.49,4.25.12.46,0,.89.1,1.33s.53,1,.64,1.56.14,1.36.26,2c.74-.5,1.91-.55,2.8-1,.61-.3.64-.08,1.28-.15a5,5,0,0,0,1.36-.56c-.25.11-.29-3.36-.33-3.73a37.42,37.42,0,0,1-.7-4.61c0-1.13-.49-2-.56-3.13s-.62-2.23-.73-3.39c-.08-.76-.15-1.51-.29-2.27.08.41,3.36.54,3.71.55,2.06.09,5.06-.22,6.09-2.44A2.94,2.94,0,0,0,118.29,49.37Z"/><path class="cls-6" d="M104.27,62.6a.15.15,0,0,1-.14-.11c-2.35-8.16-1.49-10-1.45-10.09.69-2.74,4.89-3.33,5.06-3.36a.16.16,0,0,1,.17.12.15.15,0,0,1-.13.16s-4.17.6-4.83,3.18c0,0-.84,1.92,1.46,9.92a.14.14,0,0,1-.1.17Z"/><path class="cls-7" d="M116.14,20.84c0,.4-.41.79-.56,1.17a5.51,5.51,0,0,0-.26,1.27,1,1,0,0,1-.13-.46,2.88,2.88,0,0,0-.15.5.56.56,0,0,1,0-.29c0,.14-.07.38-.24.3s-.08-.42-.09-.52a2.83,2.83,0,0,1,.19-1.57,1.34,1.34,0,0,1,1-.67c.67-.05.17.31.12.61Z"/><path class="cls-7" d="M108,16.24c-1,.63-.82,1.44-.64,2.41s0,2,.1,3a3.42,3.42,0,0,1,.22-.61,4.18,4.18,0,0,0,.2.88c0-.16.05-.29.07-.45.11.27.15.63.37.8a1.42,1.42,0,0,0,.11-.33.77.77,0,0,1,.1.15,7,7,0,0,0-.1-2.19,6.71,6.71,0,0,1,.19-1.89,3.31,3.31,0,0,0,.16-1.51c-.14-.32-.71-.61-.91-.12Z"/><path class="cls-8" d="M107.73,20.25a10.91,10.91,0,0,0,.65,2.5c.57,1.49,1.8,3.25,3.66,2.36a7.46,7.46,0,0,0,3.47-3.9c1-2.64,1.36-6.34-1.86-7.08a4.91,4.91,0,0,0-4.6,1.13,4.44,4.44,0,0,0-1,1.43A6.76,6.76,0,0,0,107.73,20.25Z"/><path class="cls-8" d="M110.54,24.07a18,18,0,0,1-.65,2.44c-.31.93,1.17,1.09,1.89,1.15.9.08,2.57-.07,3.26-.8a1.29,1.29,0,0,0,.14-1.23,5.52,5.52,0,0,1-.13-1.23c0-.92.1-1.86.15-2.79,0-.75-.61-.43-1-.1a6.45,6.45,0,0,0-.59.58,7.35,7.35,0,0,1-1.16.82Z"/><path class="cls-7" d="M117.15,17.53c0-1.12-.53-1.73-1.76-1.57s-1.55,1.39-1.47,2.32.56,1.73.37,2.64c0,0,0-.08.08-.11s0,.07,0,.06c.31-.44.44-1,1.12-.85.21,1-.47,2,0,3,0-.21,0-.42,0-.63a2.09,2.09,0,0,0,.16.5A6.61,6.61,0,0,1,116,22a2.74,2.74,0,0,1,.08.5,7.29,7.29,0,0,1,.7-2.39A8.27,8.27,0,0,0,117.15,17.53Z"/><path class="cls-7" d="M116.37,16.32c.64-.75.18-2.31-.43-2.86a4.7,4.7,0,0,0-3.09-.89,5.22,5.22,0,0,0,.48.34,3.63,3.63,0,0,1-1.19-.14l.44.18c-1.38-.8-3.39.76-4.82,0a4.2,4.2,0,0,0,.7.93,1.5,1.5,0,0,1-.92-.13,5.11,5.11,0,0,0,.84.43,2.16,2.16,0,0,1-1.29-.14,2.53,2.53,0,0,0,3.37,1.46c-.5.14-1,.19-1.51.34a4.68,4.68,0,0,0,1.68.2,3.86,3.86,0,0,0-1,.13,6.29,6.29,0,0,0,2.57.13,2,2,0,0,0-.8.09c.49.38,1.49,0,2.13.06,0,.31.33.43.66.37,0,0,0,0,0,0a1.52,1.52,0,0,0,.21,1.69c.7.62.67-.48,1-1.07a3.8,3.8,0,0,0,.16.67.48.48,0,0,1,.48-.27c.15-.73.71-1.38.69-2.14Z"/><path class="cls-7" d="M107.19,18.25A4.87,4.87,0,0,1,107.6,16a5.74,5.74,0,0,1-.41,1.43c.21-.44.13-1,.38-1.45a2.19,2.19,0,0,1,.92-.89c.89-.44,2.53-.59,3.2.1,1,1.06-1.91,1.12-2.38,1.2C108.25,16.59,107.21,17.07,107.19,18.25Z"/><path class="cls-7" d="M114.29,16.39c-.47.65-2.19.33-2.93.66.27-.15.57-.3.81-.46a19.47,19.47,0,0,1-2.11.48c.3-.19.61-.38.92-.54-.35.15-1.1.42-1.37.19.65-1.27,2.75-1.36,4-1.2Z"/><path class="cls-8" d="M115.79,20.78c-.11.71-.52,1.25-.92,1.23s-.63-.61-.52-1.31.52-1.25.92-1.23S115.9,20.08,115.79,20.78Z"/><path class="cls-7" d="M111.61,19.25a.16.16,0,0,1-.12-.06.14.14,0,0,1,0-.2,2.66,2.66,0,0,1,2.36,0,.13.13,0,0,1,.09.18.14.14,0,0,1-.19.08,2.39,2.39,0,0,0-2.08,0A.16.16,0,0,1,111.61,19.25Z"/><path class="cls-7" d="M107.84,19.3a.14.14,0,0,1-.12-.06.14.14,0,0,1,0-.2,2.63,2.63,0,0,1,2.36-.06.16.16,0,0,1,.09.18.14.14,0,0,1-.19.09,2.38,2.38,0,0,0-2.08,0A.16.16,0,0,1,107.84,19.3Z"/><path class="cls-7" d="M110.46,22.47a.55.55,0,0,1-.43-.17c-.25-.27-.12-.78,0-1.33s.23-.91.1-1.11a.13.13,0,0,1,0-.19.16.16,0,0,1,.21,0c.2.3.07.81-.07,1.34s-.23.92-.09,1.08a.36.36,0,0,0,.3.05.14.14,0,0,1,.16.13.14.14,0,0,1-.12.16Z"/><path class="cls-7" d="M111,23.55a1.69,1.69,0,0,1-.84-.22.14.14,0,0,1,0-.2.15.15,0,0,1,.2,0,1.6,1.6,0,0,0,1.81-.25.17.17,0,0,1,.21,0,.14.14,0,0,1,0,.2A2.16,2.16,0,0,1,111,23.55Z"/><path class="cls-7" d="M112.85,20.31a.5.5,0,0,1,0-.12c0-.3-.05-.54-.2-.55s-.3.23-.34.53a.41.41,0,0,0,0,.11A1.44,1.44,0,0,1,112.85,20.31Z"/><path class="cls-7" d="M109.31,20.31s0-.08,0-.12c0-.29-.19-.5-.34-.47s-.24.29-.2.58a.43.43,0,0,0,0,.11A1.6,1.6,0,0,1,109.31,20.31Z"/><path class="cls-7" d="M114.87,21.19h0a.08.08,0,0,1-.07-.08v0c0-.21.07-.75.32-.93a.28.28,0,0,1,.25-.06.08.08,0,0,1,.06.09.07.07,0,0,1-.09.05.18.18,0,0,0-.14,0c-.19.15-.23.66-.25.83v0A.08.08,0,0,1,114.87,21.19Z"/><path class="cls-7" d="M114.92,20.88a.08.08,0,0,1-.07-.05.06.06,0,0,1,0-.09l.38-.14a.07.07,0,0,1,.1,0,.08.08,0,0,1,0,.09l-.39.14Z"/><path class="cls-7" d="M108.24,15c-.72.08-1.23,1.05-1.3,1.63a11.49,11.49,0,0,1-.35,2.19c.06-.07.22-.3.33-.42a1.86,1.86,0,0,1-.27,1,.63.63,0,0,1,.29-.31,2.61,2.61,0,0,1-.08.56c.11-.1.21-.23.32-.31a2.35,2.35,0,0,1,0,.59l.1-.09a1.6,1.6,0,0,0,0,.49c.41-.45.37-1.66.42-2.24a5,5,0,0,1,.2-1.39c.16-.43.43-.83.59-1.25h-.14a.68.68,0,0,1,.09-.42.41.41,0,0,0-.27,0s0,.06,0,.1Z"/><path class="cls-7" d="M107.71,46a3.11,3.11,0,0,0,1.74,3.38L112,47.28,107.73,46Z"/><path class="cls-8" d="M110,47.52c-.13-.5-.49-1.2-1.08-1.28a5.1,5.1,0,0,0-2.21.64A8.08,8.08,0,0,0,104.5,48a4.55,4.55,0,0,0-.82.82,6,6,0,0,0-.69,1.61,2.44,2.44,0,0,1-.1.24,1.26,1.26,0,0,0-.09.41,1.29,1.29,0,0,0,0,.39c0,.24.19.3.41.17a.38.38,0,0,0,.12-.09c0,.11-.1.22-.14.33s-.33.74.13.7.62-.38.8-.71c-.17.36-.39.88-.07,1s.92-1,1.08-1.26a4.73,4.73,0,0,0-.07.6c-.06.24,0,.46.28.31a1.32,1.32,0,0,0,.45-.57c.22-.44.28-.93.5-1.37a5.39,5.39,0,0,0,3.14-1.69C109.81,48.37,110.13,48.07,110,47.52Z"/><path class="cls-7" d="M103.41,51.43h0s-.07,0-.06-.08.37-2.3,2-3c0,0,.09,0,.1,0s0,.07,0,.09c-1.56.65-1.92,2.85-1.93,2.87S103.45,51.43,103.41,51.43Z"/><path class="cls-7" d="M104.16,51.7h0a.09.09,0,0,1-.06-.09A4.32,4.32,0,0,1,105.76,49a.08.08,0,0,1,.1,0,.07.07,0,0,1,0,.1,4.21,4.21,0,0,0-1.6,2.48A.07.07,0,0,1,104.16,51.7Z"/><path class="cls-7" d="M105.1,51.67h0a.07.07,0,0,1,0-.1l.12-.32c.08-.24.17-.48.27-.71a2,2,0,0,1,.89-.94l0,0a.09.09,0,0,1,.11,0,.08.08,0,0,1,0,.1l-.06,0a1.84,1.84,0,0,0-.83.87c-.1.23-.19.47-.27.7a3.24,3.24,0,0,1-.13.33A.06.06,0,0,1,105.1,51.67Z"/><path class="cls-5" d="M116.49,34.12c-.1,1.82.16,3.74,0,5.16-.16,1.24,0,3.45-1.06,4.15a13.67,13.67,0,0,1-2.77.93L107.71,46a2.47,2.47,0,0,1,1.74,3.38s9.2-1,10.81-3.24c1.23-1.67,1.3-4.9,1.6-6.84a31.35,31.35,0,0,0,.35-4.62c0-2.21-.31-6.33-3.71-5C116.92,30.36,116.55,32.81,116.49,34.12Z"/><path class="cls-6" d="M107.86,46.08a.1.1,0,0,1-.1-.07.11.11,0,0,1,.07-.14l6.62-2.15s1.49-.45,1.54-1.22l.51-7.17a.1.1,0,0,1,.11-.1.12.12,0,0,1,.11.12l-.51,7.16c0,.92-1.62,1.4-1.69,1.42l-6.62,2.14Z"/><path class="cls-6" d="M109.45,49.51a.1.1,0,0,1-.11-.09.1.1,0,0,1,.1-.12,38.26,38.26,0,0,0,7.86-1.64l.25-.08a5.4,5.4,0,0,0,2.56-1.39,7.43,7.43,0,0,0,1.17-3.54c.07-.52.15-1,.24-1.54.13-.84.28-1.7.37-2.56.06-.57.06-1.15.07-1.72s0-1.26.09-1.88a.11.11,0,0,1,.12-.1.1.1,0,0,1,.1.12c-.07.62-.08,1.25-.09,1.86s0,1.16-.07,1.74c-.09.86-.24,1.73-.37,2.57-.09.51-.17,1-.24,1.54a7.52,7.52,0,0,1-1.22,3.64,5.54,5.54,0,0,1-2.66,1.46l-.24.08a38.86,38.86,0,0,1-7.92,1.65Z"/><path class="cls-8" d="M101.24,50.22c0,.3-.2,1,.1,1.17.55.37.75-.71,1-1-.15.14.26.88.61.36a7.39,7.39,0,0,0,.64-1.87c.26-.77-.31-1-.67-1.46-.48-.67-.84-1.55-1.73-1.39-1.07.19-2.29.82-2.35,2a2.24,2.24,0,0,0,.31,1.39c.33.56.44.47.33,1.24,0,.3-.27,1.32.34,1.17.4-.09.46-1.09.5-1.39,0,.24-.12,1.21.35,1.15S101.2,50.48,101.24,50.22Z"/><path class="cls-5" d="M106.38,27.49c-1.9,1.63-3.74,3.35-5.5,5.12-2.29,2.31-5.88,5.1-5.22,8.49.49,2.53,2,5,3,7.32l4.38-1.62-2.39-7.32,7.66-7.33S110.06,28.25,106.38,27.49Z"/><path class="cls-7" d="M102.42,49.93h0a.06.06,0,0,1,0-.09c.49-1.21-.13-1.5-.16-1.51a.07.07,0,0,1,0-.09.08.08,0,0,1,.1,0s.78.35.23,1.69A.08.08,0,0,1,102.42,49.93Z"/><path class="cls-7" d="M101.2,50.75h0a.07.07,0,0,1,0-.1c.51-1,.48-1.58.37-1.86a.5.5,0,0,0-.25-.28.06.06,0,0,1,0-.09.07.07,0,0,1,.09,0,.63.63,0,0,1,.33.35c.13.3.17.89-.36,2A.08.08,0,0,1,101.2,50.75Z"/><path class="cls-7" d="M100.3,50.94h0a.07.07,0,0,1,0-.1,2.48,2.48,0,0,0,.15-1.89.07.07,0,0,1,0-.09.07.07,0,0,1,.1,0,2.55,2.55,0,0,1-.15,2A.06.06,0,0,1,100.3,50.94Z"/><path class="cls-6" d="M104.73,41.16a.13.13,0,0,1-.11-.1s-.54-4.61,0-7.1a.12.12,0,0,1,.14-.08.11.11,0,0,1,.08.13c-.59,2.45,0,7,0,7a.09.09,0,0,1-.09.11Z"/><path class="cls-2" d="M115.54,57.44l-1.34-.52L117,50.15A3.78,3.78,0,0,1,120.3,48h19.06v1.4H120.3a2.34,2.34,0,0,0-2,1.29Z"/><path class="cls-7" d="M111,25.54a3.8,3.8,0,0,1-.59,0,.12.12,0,0,1-.1-.14.13.13,0,0,1,.15-.09,3.68,3.68,0,0,0,3.92-2,.13.13,0,0,1,.16-.06.12.12,0,0,1,.06.16A3.9,3.9,0,0,1,111,25.54Z"/><path class="cls-4" d="M43.51,82.21a5.76,5.76,0,0,0,1.34,2.58,6.79,6.79,0,0,0,2.16.88,3.18,3.18,0,0,1,1,.59c1.06.9-.9.79-1.38.79h-3c-1.2,0-3.33.48-3.75-1-.12-.4.36-3.69,0-3.76Z"/><path class="cls-4" d="M45.52,63.76c.93.86.38,3,.29,4.23-.13,1.72-.25,3.44-.37,5.16-.17,2.33-.34,4.64-.5,7a25.75,25.75,0,0,0-.21,3c-1.2-1.28-2,.24-3.27,0-1-.15-1.19-.89-2.27-.13,1.05-2.94.61-6.88.73-10,0-.61,0-8.92.34-9,1.41-.08,2.88-.82,4.28-.76A1.48,1.48,0,0,1,45.52,63.76Z"/><path class="cls-9" d="M32.92,21.17H36a.18.18,0,0,0,.18-.17.18.18,0,0,0-.18-.18H32.92a.18.18,0,0,0-.18.18A.18.18,0,0,0,32.92,21.17Z"/><path class="cls-4" d="M55.38,83.11a3,3,0,0,0,1.18,1.68,6.79,6.79,0,0,0,2.16.88,3,3,0,0,1,1,.59c1.07.9-.9.79-1.37.79h-3c-1.19,0-3.33.48-3.75-1-.12-.4.37-3.69,0-3.76Z"/><path class="cls-4" d="M48.8,57.58l2.12.85c1.89.76,2,2.14,2.31,3.89l.87,4.89q1,5.55,2,11.1c.3,1.65.61,3.3.89,5-.51.12-1-.3-1.6-.16s-1,.58-1.68.58-1.05-.45-1.61-.53a4.07,4.07,0,0,0-1.33.25c-.07-.9-.48-1.59-.62-2.48-.12-.73-.21-1.46-.32-2.19-.27-1.85-.53-3.7-.8-5.55-.23-1.62-.47-3.25-.7-4.87-.16-1.07,0-2.64-.77-3.5-1-1.2-3-1.79-4.36-2.6L46.08,58Z"/><path class="cls-6" d="M32.79,29.22A13.34,13.34,0,0,1,38,31.37c5.39,3.83-.2,12.61-.38,17.51-.06,1.8-.68,4.67.59,6.21,1,1.2,4,.63,5.42.86a24.81,24.81,0,0,1,4.52,1c.37.13,2,.64,2.07,1.09.06.66-1.13.73-1.55,1a2.55,2.55,0,0,0-1.27,1.68,6.86,6.86,0,0,1-.54,2.16c-.49.81-1.19,1.44-1.74,2.19C44.28,66.18,44,68,42.39,68.19a10.75,10.75,0,0,0-1.51.2c-.49.16-.82.57-1.4.52.23,0-.83-2.41-1.21-2.64-.79-.45-2.42-.14-3.32-.17-3.1-.1-6.51-.07-9.49-1,0,0-6.74-1.27-6-14.05.24-3.65.47-7.3.71-10.95.15-2.27.06-4.38,1.16-6.42C23.5,29.63,28.36,28.39,32.79,29.22Z"/><path class="cls-8" d="M29.18,16c2.1-1.49,5-1.79,6.72.39,1.32,1.66.65,4.08.65,6,0,2.36-.25,5-3.21,5.17C27.34,27.79,24.45,19.3,29.18,16Z"/><path class="cls-8" d="M28.91,25a5.29,5.29,0,0,0,0,1.78,8.38,8.38,0,0,1-.13,1.4c-.16.8-.93,1.67,0,2.22,1.21.7,4.48.93,4.89-.91.05-.23,0-3.92-.34-4-.58-.18-1.28-.18-1.88-.31s-1-.36-1.56-.47S29,24.76,28.91,25Z"/><path class="cls-7" d="M27.12,26.85a.93.93,0,0,1-.77.31A3.69,3.69,0,0,0,27,25.08a12.78,12.78,0,0,0-.33-2.62,9.59,9.59,0,0,1-.13-4c.57-3.37,4-5.16,7.28-4.45.51.11,1,.36,1.46.49a22.31,22.31,0,0,0,4,1.12c0,1-1.44,1.32-2.23,1.64a9.57,9.57,0,0,1,1.43-.08c-.27.87-1.52,1-2.37,1a3.86,3.86,0,0,1,.88.15c-.06.56-.68.67-1.27.72,1.16.38-.47,4.8-.45,5.32-.09-.39-.22-.71-.27-1.09a2,2,0,0,1-.52,1.37,1.12,1.12,0,0,0-.16-.33,2.07,2.07,0,0,0-.15.58c-.63.5-.43,1.45-1,2.11a3.41,3.41,0,0,1-2,1,5.65,5.65,0,0,0,.37-.88c-.55.34-.92.9-1.61,1-.14-.37-.25-.48-.14-.72-.41.48-1.37.93-1.74.35a.18.18,0,0,1,0-.1h-.06c-.57.08-.71,0-.73-.51a.35.35,0,0,1-.39.15c.05-.14.11-.3.15-.45Z"/><path class="cls-7" d="M16.61,69.1l-6.44,19a.36.36,0,0,1-.45.21.33.33,0,0,1-.23-.41L15.1,68.66a.79.79,0,0,1,1-.52.76.76,0,0,1,.55.93A0,0,0,0,0,16.61,69.1Z"/><path class="cls-7" d="M25,69.1l-6.44,19a.36.36,0,0,1-.45.21.33.33,0,0,1-.23-.41l5.61-19.22a.79.79,0,0,1,1-.52.76.76,0,0,1,.55.93A0,0,0,0,0,25,69.1Z"/><path class="cls-7" d="M31.26,69.1l6.44,19a.35.35,0,0,0,.44.21.33.33,0,0,0,.23-.41L32.76,68.66a.79.79,0,0,0-1-.52.74.74,0,0,0-.54.93A0,0,0,0,0,31.26,69.1Z"/><path class="cls-7" d="M43.48,69.1l6.44,19a.35.35,0,0,0,.44.21.33.33,0,0,0,.23-.41L45,68.66a.78.78,0,0,0-1-.52.75.75,0,0,0-.54.93Z"/><path class="cls-7" d="M45.64,65.45l-3-7.35a2.56,2.56,0,0,0-2.14-1.4H19.78V55.18h20.7a4.14,4.14,0,0,1,3.6,2.36l3,7.35Z"/><path class="cls-7" d="M26.92,33.08H8.23a2.78,2.78,0,0,0-2.9,3.3l5,29.66.29,2c.16,1.09,1.52,2,3.05,2l31.67-.14c1.52,0,2.83-.81,2.91-1.79l.14-1.78s1.39-6-15.69-5.35l-2-24.51A3.75,3.75,0,0,0,26.92,33.08Z"/><path class="cls-8" d="M49.08,54.68a8,8,0,0,1,4,6.17c-.7.06-1.08-.68-1.44-1.2a4.09,4.09,0,0,1,.4.69A1.6,1.6,0,0,1,51,59.4c.07.18.11.38.19.55a9.58,9.58,0,0,0-2.22-2,5,5,0,0,1-1.84-1.78c.47-.5,1.24-1.52,1.93-1.6Z"/><path class="cls-6" d="M39.47,33.18l1.29,6.36c.72,3.57.82,6.72,3.4,9.57.37.41,5.12,5.63,5.09,5.65L46.81,57C46.74,57,41,51.83,40.5,51.4c-3.15-2.95-3.82-7.29-5.22-11.14C35.28,40.26,34.76,32.17,39.47,33.18Z"/><path class="cls-10" d="M37.42,46.73a.19.19,0,0,1-.19-.15c0-.06-1.32-6.09-1.71-8.1a.19.19,0,0,1,.16-.22.2.2,0,0,1,.23.15c.39,2,1.69,8,1.7,8.09a.18.18,0,0,1-.15.23Z"/><polygon class="cls-6" points="47.46 18.98 42.42 8.04 53.22 8.39 57.54 19.51 47.46 18.98"/><path class="cls-8" d="M54,21.53c-1-1-2.41-.85-3.39-1.71a4.72,4.72,0,0,1-1.47-2.67c-.09-.34-.38-.7-.21-1,.25.06.4.29.6.44-.42-1,.4-.66.94-.21a2.81,2.81,0,0,1,0-.29c.31,0,.48.32.63.54-.19-.27.29-.1.33-.09.26.11.42.53.54.75a3,3,0,0,0,.8,1,6,6,0,0,0,1.39.85c.49.21,1,.32,1.15.91Z"/><path class="cls-8" d="M70.44,69.32c.19-1,.42-1.91.56-2.88a50.26,50.26,0,0,0,.68-5.16A37.26,37.26,0,0,0,70.91,55c-.23-1.69-.47-3.36-.7-5l-4.09,2.63c0,2.19.7,3.22.81,5.41.08,1.69.2,3.39.24,5.08,0,2,.36,3.89.46,5.83.07,1.46.26,3.49-.34,4.85a21.09,21.09,0,0,0-.79,2.1l-1,3,2.45.13,2.16-3.11a4.86,4.86,0,0,0,.77-1.12c.17-.67-.72-1.33-.8-2a11.4,11.4,0,0,1,.26-3Z"/><path class="cls-11" d="M70.74,73.82s-1.51,3.71-3,4.31L65,78.18c-.16,0-.5.48-.56.57s-.38.6-.17.85.57.21,1,.19,1.45,0,2.25-.07a1.48,1.48,0,0,0,.6-.07c.18-.07.24-.21.33-.34L69,78.4c.18-.26.35-.53.52-.8l0,2.05,1.17,0v-.07l.57-4.41h0A1.06,1.06,0,0,0,70.74,73.82Z"/><path class="cls-11" d="M84.8,80.34c0,.24-3.09.15-3.4.14a2.41,2.41,0,0,1-1-.16.42.42,0,0,1-.12-.08c-.33-.27-.49-1-.64-1.33-.28-.64-.58-1.27-.89-1.89s-.57-1.16-.87-1.73a2.71,2.71,0,0,1-.4-1,.19.19,0,0,1,.2-.2c.18,0,.29.23.38.34.46.58,1.54,1.11,2.12.36.15-.2.39-.81.23-1.06l.12.17,1.58,2.58h0L83,77.88l.12.2C85,78.67,84.85,80.09,84.8,80.34Z"/><path class="cls-8" d="M83,78.31c-.06,1-.83,1.32-1.8,1.18-1.36-.2-1.78-1.59-2.29-2.76a4.29,4.29,0,0,0-.59-1.06l-.06-.08a3.14,3.14,0,0,1-.76-1.29.68.68,0,0,1,0-.14.47.47,0,0,1,0-.16c0-.22.11-.44.11-.68a11.72,11.72,0,0,0-.52-3.82c-.39-1-.81-2.1-1.18-3.15-.16-.44-.31-.89-.45-1.33-.27-.87-.5-1.75-.69-2.65-.24-1.12-.41-2.24-.54-3.38-.14-1.36-1.88-6.29,1.2-5.74,1.36.24,1.88,1.6,2.24,2.72a45.44,45.44,0,0,1,1.84,6.67c.56,3.4-.41,7.23.73,10.52a5.18,5.18,0,0,0,.31.75,10.5,10.5,0,0,0,.92,1.71c.21.31.44.6.66.87h0L83,77.88h0A2.94,2.94,0,0,1,83,78.31Z"/><path class="cls-7" d="M83.37,78.4c-.06-.14-.33-.38-.34-.51h0l-.86-1.38h0c-.22-.27-.45-.56-.66-.87.59,1.22,1.26,2.93.52,3.17a1.63,1.63,0,0,1-1.5-.34,3.54,3.54,0,0,1-.47-.38v0a33.07,33.07,0,0,1-2.26-3.64h0l-.2-.44,0,0a.47.47,0,0,0,0,.16.68.68,0,0,0,0,.14,1.78,1.78,0,0,0,.35.77l.94,1.8.49.76c.41,1,.91,2,2,2.14S84.05,79.82,83.37,78.4Z"/><path class="cls-10" d="M66,32.11s-2.67,12.45-1.8,24c0,0-.12,3.49-.12,3.63s8.27,1.28,9.11,1.06c2.73-.7,6.33.95,8.81-.81-1-1.41-.69-3.51-.8-5.11q-.23-3.26-.55-6.5c-.46-4.43-.9-9-2.3-13.3l-.62-3.26Z"/><path class="cls-12" d="M85,16.05c-.82-.25-1.74-.23-2.21-1-.36-.61-.21-1.31-.58-1.92A2.4,2.4,0,0,0,80.16,12c-.41,0-.75.3-1.16.34s-.89-.12-1.3.11a8.54,8.54,0,0,1-.88.6c-.39.16-.82-.13-1.18.09s-.27.39-.26.67c0,.59.36,1.19.13,1.76-.3.73-.72,1-.55,1.91a1.46,1.46,0,0,0,.42.94,3.72,3.72,0,0,0,1.07.44c.42.1.83,0,1.22.27s.4.73.49,1.13A5,5,0,0,0,79.82,23c1.21,1,2.82,2.48,4.35,1.13.65-.57.45-1.4.94-2,.22-.26.74-.31,1.06-.47C89,20.2,87.55,16.83,85,16.05Z"/><path class="cls-8" d="M73.69,2.25c-4.36-.87-5.7,2-5.51,5.68.1,1.87.88,4.93,3.1,5.41s4.2-1.52,5-3.21C77.72,7.25,77.59,3,73.69,2.25Z"/><path class="cls-8" d="M75.34,9.39c-.89-.4-1.8,1.39-2.12,1.91s-.53.84-.79,1.27-.16,1.09-.43,1.65a1.34,1.34,0,0,1-1.19.72c-.58.07-.91-.1-1.33.36a5.36,5.36,0,0,0-.62,1.41c-.26.51-.62,1.07-.93,1.56a14.88,14.88,0,0,0-1.78,3.14c-.45,1.46.6,3.7.77,5.19s-.6,2.2-.6,3.6c0,.59-.19,1.59.17,2.09.6.85,2.3.72,3.16.73,1.91,0,4.64.25,6.44-.39,2.24-.79,1.59-2.19,1.25-4.1-.59-3.38,1.52-6.72,2-10a2.65,2.65,0,0,0-1.42-2.94c-.91-.48-2.7-1-2.56-2.3.12-1,1.27-2.88.15-3.77A.87.87,0,0,0,75.34,9.39Z"/><path class="cls-8" d="M80.07,17.44c2.11,2.08,2.5,4.19,3.84,6.69,2,3.69,1.43,7.58.57,11.44-.38,1.71-1.11,3.32-.57,5,.32,1,1.12,2.84.44,3.86a4.51,4.51,0,0,1-.1-.53c0,.46.17,1.31-.17,1.6a1,1,0,0,1-.25-.71c0,.36,0,.73,0,1.09-.52.1-.71-.46-.72-.87a1.09,1.09,0,0,1,0,.79c-1.2-.36-.77-2.51-1.41-3.3-.34.35-.37,1-1.07.8.22-.76.49-1.59.73-2.33.18-.54.55-1,.67-1.53a8,8,0,0,0,0-2.19,49.43,49.43,0,0,1-.08-7.4c.14-1.35-.57-2-1.17-3.14-.48-.88-1.59-2.13-1.58-3.14Z"/><path class="cls-6" d="M71.35,14.7a16,16,0,0,0-1.42,6.61s3.47-4.51,6.56-6.53a6.23,6.23,0,0,1,4,3.63c0,.05-.26.84-.25.89.34,1.77-4.47,7.74-4.47,7.74L78.61,33S70.1,35.57,66,32.11l.88-5.48S64.38,22.16,68,16.88A3.5,3.5,0,0,1,71.35,14.7Z"/><path class="cls-12" d="M78.49,1.27A7.12,7.12,0,0,0,72.2.36a1.86,1.86,0,0,0-1.34,1.43,1.93,1.93,0,0,0,.2,1.37l-.19-.3c0,1.58,1.24,2.42,2.68,2.7a2.25,2.25,0,0,1,2,2,2.35,2.35,0,0,1,.06-.34c.06.18.16.35.21.52,0-.07,0-.14,0-.21.62-.5,1,.49.93,1,0,.69-.4,1-1,1.28-.91.46-1.25,2.67-.14,3.06,1.41.5,2.43-.46,2.87-1.68.31-.85.41-1.75.7-2.6C80,6.39,80.76,2.85,78.49,1.27Z"/><path class="cls-12" d="M71,.86a1.57,1.57,0,0,1,1.58,1.31c.07,1-.7,1-1.39,1.28a4.9,4.9,0,0,0-1.12.84,6,6,0,0,0-1.25,1.9c-.06-.43.19-.74.24-1.14a3.25,3.25,0,0,0-1,1.66,7,7,0,0,0,.12-1c-.77.4-.7,1.21-.75,1.93-.64-.57-.7-2.19-.6-3A3.76,3.76,0,0,1,68.13,2,5.23,5.23,0,0,1,71,.86Z"/><path class="cls-13" d="M77,12.1a2.57,2.57,0,0,0,.32-.22c.19-.15,1-1,1.23-.56A1.49,1.49,0,0,1,78,13.27c-.55.35-2.3,1.42-2.66.31-.08-.23-.26-.62-.16-.86s.38-.13.66-.18A3.55,3.55,0,0,0,77,12.1Z"/><path class="cls-7" d="M77.4,15s-4.59,7.65-4.84,14.26c0,0-.25,8.94.34,11.2,0,0,4.59.32,7.34-1.77l-1.41-5.87a39.9,39.9,0,0,1-1-4A7.88,7.88,0,0,1,78,26.3a14.08,14.08,0,0,0,.72-2.49l3,4.92-.08,8.94,2.67.4S86.08,31,85.5,27.19C85.5,27.19,82.08,16.56,77.4,15Z"/><path class="cls-7" d="M70.62,14.7a30.1,30.1,0,0,0-3.07,5.14A6,6,0,0,0,67,23.89a11.92,11.92,0,0,1,.45,4.23c-.31,2-.83,3.93-1,5.9a35.74,35.74,0,0,1-.84,6.36c.08-.27-1.45-1-1.68-1.2,0,0,2.63-10.52,2.32-12.63a9.82,9.82,0,0,1,.5-8.52S68.56,14.4,70.62,14.7Z"/><path class="cls-11" d="M68.68,10.09a1.78,1.78,0,0,1-1-1.62A2.07,2.07,0,0,1,68,7.23a1.24,1.24,0,0,1,1-.56,1,1,0,0,1,.46.08,1.76,1.76,0,0,1,1,1.62,1.6,1.6,0,0,1-1.31,1.8A1.21,1.21,0,0,1,68.68,10.09ZM69.36,7A1,1,0,0,0,69,6.92a1,1,0,0,0-.76.45A1.81,1.81,0,0,0,68,8.46a1.53,1.53,0,0,0,.83,1.39.7.7,0,0,0,.35.06c.61,0,1.09-.71,1.06-1.53A1.53,1.53,0,0,0,69.36,7Z"/><path class="cls-11" d="M72.59,10a1.78,1.78,0,0,1-1-1.62,1.59,1.59,0,0,1,1.31-1.8,1,1,0,0,1,.46.08,1.78,1.78,0,0,1,1,1.62A1.61,1.61,0,0,1,73.05,10,1.21,1.21,0,0,1,72.59,10Zm.68-3.11a1.07,1.07,0,0,0-.35-.06c-.62,0-1.09.71-1.06,1.54a1.5,1.5,0,0,0,.83,1.39.7.7,0,0,0,.35.06c.61,0,1.09-.71,1.06-1.53A1.55,1.55,0,0,0,73.27,6.84Z"/><path class="cls-11" d="M70.34,9.06A.12.12,0,0,1,70.26,9a.72.72,0,0,1,.16-.56.8.8,0,0,1,.52-.29.83.83,0,0,1,.59.16.72.72,0,0,1,.29.5.13.13,0,0,1-.11.15c-.07,0-.14-.05-.14-.11a.5.5,0,0,0-.2-.34A.56.56,0,0,0,71,8.35a.54.54,0,0,0-.36.2.49.49,0,0,0-.1.37.15.15,0,0,1-.12.15Z"/><path class="cls-11" d="M70.75,11.54a.12.12,0,0,1-.08-.16.14.14,0,0,1,.16-.08,1.82,1.82,0,0,0,1.86-.53.15.15,0,0,1,.19,0,.14.14,0,0,1,0,.18,2.09,2.09,0,0,1-2.15.62Z"/><path class="cls-11" d="M70.67,10.33a.45.45,0,0,1-.25-.22.83.83,0,0,1,.06-.68l0-.07a.94.94,0,0,0,.12-.44.13.13,0,0,1,.12-.14.12.12,0,0,1,.14.11,1.2,1.2,0,0,1-.14.57l0,.07a.6.6,0,0,0-.07.47.22.22,0,0,0,.18.11.1.1,0,0,0,.09,0,.14.14,0,0,1,.18,0,.13.13,0,0,1,0,.18.36.36,0,0,1-.33.15A.41.41,0,0,1,70.67,10.33Z"/><path class="cls-11" d="M73.07,8.21c0,.25-.17.44-.32.42s-.24-.23-.21-.48.18-.44.32-.43S73.1,8,73.07,8.21Z"/><path class="cls-11" d="M69.31,8.3c0,.25-.17.44-.32.43s-.24-.24-.21-.49.18-.44.32-.42S69.34,8.05,69.31,8.3Z"/><path class="cls-11" d="M74.12,6.78a.19.19,0,0,1-.1,0,2.26,2.26,0,0,0-2-.45.16.16,0,0,1-.2-.1.15.15,0,0,1,.1-.19,2.55,2.55,0,0,1,2.28.5.15.15,0,0,1,0,.21A.18.18,0,0,1,74.12,6.78Z"/><path class="cls-11" d="M67.72,7.29a.2.2,0,0,1-.11,0,.17.17,0,0,1,0-.22,2.56,2.56,0,0,1,2.15-.9.15.15,0,1,1,0,.3,2.26,2.26,0,0,0-1.85.8A.15.15,0,0,1,67.72,7.29Z"/><path class="cls-7" d="M69.37,15.07s-.79-.12-8.63,7.83L55,19.54l-1.81,1.93C54.76,23,56.26,24.67,58,26a7.4,7.4,0,0,0,2,1.19c1.75.68,2.82-.63,4-1.67l2.66-2.4.07-.06A8.92,8.92,0,0,1,69.37,15.07Z"/><path class="cls-11" d="M72.27,13.49a.11.11,0,0,1-.12-.1.12.12,0,0,1,.11-.14,3.9,3.9,0,0,0,2.29-1.12.14.14,0,0,1,.18,0,.12.12,0,0,1,0,.17,4,4,0,0,1-2.46,1.21Z"/></g></g></svg>