<svg xmlns="http://www.w3.org/2000/svg" viewBox="0 0 146.26 90.3"><defs><style>.cls-1{fill:#fceede;}.cls-2{fill:#a86770;}.cls-3{fill:#bf7783;}.cls-4{fill:#f9c04e;}.cls-5{fill:#ff8f67;}.cls-6{fill:#f3d3a7;}.cls-7{fill:#fff;}.cls-8{fill:#84525b;}</style></defs><g id="Layer_2" data-name="Layer 2"><g id="Layer_2-2" data-name="Layer 2"><path class="cls-1" d="M132.09,15.94C122.4,9.47,108.65,9.09,97.52,11,90.3,12.26,83.42,14.86,76,14c-6.29-.77-12-3.73-18-5.73C40.82,2.46,18.26-4.24,6.16,13.65c-7.91,11.69-7.42,28.22-2.93,41C8.88,70.85,23.89,86.24,41.41,89.61c20.21,3.89,39-10.13,58.92-6.17,8.47,1.69,19,7.32,28,4.2,13.57-4.71,18.1-20.69,18-33.19C146.1,40.84,144.81,24.44,132.09,15.94Z"/><path class="cls-2" d="M93,62.72l-1.18,21a.4.4,0,0,1-.42.37.38.38,0,0,1-.37-.39l.17-21a.9.9,0,0,1,1.8,0Z"/><path class="cls-2" d="M106.11,59.1c.3,1.15.67,2.29.92,3.46.46,2.15.91,4.31,1.37,6.47q1.13,5.31,2.24,10.62a.41.41,0,0,0,.47.3.38.38,0,0,0,.31-.44c-.42-2.63-.85-5.25-1.28-7.88-.66-4.08-1.27-8.17-1.93-12.25-.1-.58-.16-1.17-.31-1.75a9.76,9.76,0,0,0-.55-2.11c-.13-.23-1,.21-1.18.31-.63.43-.54.91-.43,1.59A15.69,15.69,0,0,0,106.11,59.1Z"/><path class="cls-2" d="M86.44,58.75c0,1.19,0,2.38-.11,3.57l-.54,6.59q-.44,5.4-.89,10.81a.39.39,0,0,0,.37.41.38.38,0,0,0,.42-.33q.53-4,1-7.92c.54-4.09,1.12-8.18,1.66-12.28.07-.59.18-1.17.2-1.76a10,10,0,0,0,.08-2.18c-.06-.27-1-.09-1.22,0-.73.24-.78.73-.87,1.41A16.4,16.4,0,0,0,86.44,58.75Z"/><path class="cls-3" d="M109.05,57h0a.72.72,0,0,1-.69-.74l1.07-22.89a.71.71,0,0,1,.75-.67.7.7,0,0,1,.69.73l-1.07,22.9A.71.71,0,0,1,109.05,57Z"/><path class="cls-2" d="M109.54,55.36l-6.32,0-.75.7L96.88,55a46.43,46.43,0,0,0-5.06-1c-3.43-.23-7,1.12-10.34,1.82l-4,.85L73,55.55a3.78,3.78,0,0,0,0,2.7v0a0,0,0,0,0,0,0c.14.24.59.47,1.39.66l14.21,3.42a16.57,16.57,0,0,0,6.94-.11l12.64-3.46c.42-.12,1.11-.28,1.34-.68a3.36,3.36,0,0,0,.26-1.82C109.78,56.23,109.65,55.36,109.54,55.36Z"/><path class="cls-3" d="M108.13,54.73l-.49-.1L96.88,52.57a46.43,46.43,0,0,0-5.06-1c-3.43-.23-7,1.12-10.34,1.82l-7.06,1.49c-1.93.4-1.94,1.11,0,1.57l14.21,3.42a16.57,16.57,0,0,0,6.94-.11l12.64-3.46C110.1,55.83,110.07,55.1,108.13,54.73Z"/><path class="cls-3" d="M91.82,53h0a.71.71,0,0,1-.72-.71l.15-22.66A.71.71,0,0,1,92,29h0a.72.72,0,0,1,.72.71l-.15,22.66A.71.71,0,0,1,91.82,53Z"/><path class="cls-3" d="M90.41,31.19s12.09.82,20.82,4.21L110.87,43S96.16,39.39,90.53,39.5Z"/><path class="cls-2" d="M77.54,59.1l-4.2,20.64a.39.39,0,0,1-.47.3.38.38,0,0,1-.31-.43l3.21-20.82a.9.9,0,0,1,1.78.27S77.54,59.08,77.54,59.1Z"/><path class="cls-4" d="M85.9,40.19a40.25,40.25,0,0,0,.42-4.76c0-1.09-1.18-2.81-2.46-2.07s-1.73,2.85-1.93,4.21a46.33,46.33,0,0,1-1.48,6.32,32.94,32.94,0,0,1-1.73,4.92,17.1,17.1,0,0,0-1.16,3.5,3.45,3.45,0,0,0,2.06-.07c.83-.25.86-.61,1.23-1.41a48.83,48.83,0,0,1,2.36-4.54C84.37,44.32,85.63,42.49,85.9,40.19Z"/><path class="cls-5" d="M73,73.11a3.51,3.51,0,0,0,.48,2.55c.5.78,1.26,1.19.72,2.17-.34.63-1.32,1-1.79,1.52s-.73,1.46-1.46,2c-.47.32-2.34.91-2.74.21-.28-.5.9-1.87,1.15-2.31,0-.09.09-.17.13-.26a11.54,11.54,0,0,0,.85-5.37c0-3.71,0-7.43,0-11.16a10.78,10.78,0,0,0,4.91,0c.5,1.38-.35,4.58-.74,5.65A22.25,22.25,0,0,0,73,73.11Z"/><path class="cls-2" d="M74.17,77.83c-.34.63-1.32,1-1.79,1.52s-.73,1.46-1.46,2c-.47.32-2.34.91-2.74.21-.28-.5.9-1.87,1.15-2.31,0-.09.09-.17.13-.26a3.26,3.26,0,0,0,2.65-.8,4.72,4.72,0,0,0,1.14-2.7l0-.11a3.58,3.58,0,0,0,.18.32C74,76.44,74.71,76.85,74.17,77.83Z"/><path class="cls-5" d="M83.94,74.21a3.52,3.52,0,0,0,.64,2.15l.24.29c.61.69,1.43,1,1.05,2-.24.69-1.16,1.17-1.53,1.78s-.5,1.55-1.14,2.15c-.41.39-2.17,1.26-2.67.62-.36-.45.59-2,.77-2.45l.09-.27a11.63,11.63,0,0,0,0-5.44q-.87-5.5-1.76-11a10.64,10.64,0,0,0,4.84-.73c.72,1.29.38,4.58.16,5.7A22.21,22.21,0,0,0,83.94,74.21Z"/><path class="cls-2" d="M85.87,78.68c-.24.69-1.16,1.17-1.53,1.78s-.5,1.55-1.14,2.15c-.41.39-2.17,1.26-2.67.62-.36-.45.59-2,.77-2.45l.09-.27a3.24,3.24,0,0,0,2.49-1.2,4.57,4.57,0,0,0,.7-2.83v-.12l.24.29C85.43,77.34,86.25,77.63,85.87,78.68Z"/><path class="cls-6" d="M76.3,58.83v3.68h0V63l-.74.24a10.24,10.24,0,0,1-6.06-.44l.5-5.36c-.9-3.69,14.17-7,14.17-7l6.64.88L88.32,56Z"/><path class="cls-6" d="M84.85,61.06l.77,3.61h0l.1.45c-.17.11-.4.23-.67.38a10.23,10.23,0,0,1-6,.79L78.41,61c-.33-2.69,3-4.53,5-5.81,1.49-.94,3-1.79,4.62-2.59,1.09-.55,2-1.47,3-1.94s3.51-.77,4.53-.13a3.42,3.42,0,0,1,1.08,3.44c-.61,2.18-3.36,3.21-5.24,4.08Z"/><path class="cls-4" d="M91.32,31.28c-.84.06-1.67.28-2.51.33-1,.05-1.84-.24-2.76.14a4.07,4.07,0,0,0-2.58,2.76,13.67,13.67,0,0,0-.28,3.87c0,1.85-.22,3.61-.11,5.46a29.19,29.19,0,0,1,0,5.37l-.06.41c-.27,1.63.72,3.33,2.59,2.69.53-.18.86-.42,1.44-.24a7.75,7.75,0,0,1,1.69,1,2.45,2.45,0,0,0,2.75.18c1.54-.73,4.34.46,5.3-1.42.56-1.11,0-2.1.1-3.23.06-.9.38-1.77.38-2.69,0-1.21-.28-2.41-.26-3.62A35.91,35.91,0,0,1,97.7,38a7.32,7.32,0,0,0-.58-3.51C96.36,32.31,93.49,31.13,91.32,31.28Z"/><path class="cls-5" d="M98.16,56.58c-.19.18-.46.41-.34.64a1.82,1.82,0,0,0,1.43-.56A10,10,0,0,1,99,60a1.08,1.08,0,0,0,.82-.71,1,1,0,0,0,0,.69,3.19,3.19,0,0,0,.49-.76,2.88,2.88,0,0,0,0,.83,3.76,3.76,0,0,0,.52-1.11l.06.66c0-.29.41-.94.49-1.26a5.64,5.64,0,0,0,.18-1.42,5.22,5.22,0,0,0-.42-2,.73.73,0,0,0-.54-.45c-.34,0-.53.19-.8.32a5.7,5.7,0,0,0-.73.25C98.64,55.38,98.63,56.16,98.16,56.58Z"/><path class="cls-5" d="M91.63,30.44a.3.3,0,0,0,0-.1c-.15-.73.28-2.36-.64-2.71-.63-.25-1.3.54-1.77.8s-1.5.52-1.64,1.23a12.44,12.44,0,0,0-.17,1.81c0,.65-.39,1.27-.08,1.91a1.81,1.81,0,0,0,1.64.77,3.74,3.74,0,0,0,2.55-.65C92.28,32.79,91.84,31.35,91.63,30.44Z"/><path class="cls-4" d="M98.72,35.35c1.18,1.55,1.46,3.57,2.13,5.39.37,1,.87,1.94,1.21,2.94,1.2,3.61.28,7.53-.65,11.21l-2,0c-.34-2.73.33-5.62-.66-8.21-.75-2-2.38-3.51-3.35-5.39a9.14,9.14,0,0,1-.73-6.27c.2-.84.39-2.21,1.42-2A6.62,6.62,0,0,1,98.72,35.35Z"/><path class="cls-7" d="M97,43.86a.11.11,0,0,1-.08,0s-2.86-3.7-2.59-7.22a.1.1,0,1,1,.19,0c-.26,3.45,2.52,7.06,2.55,7.09a.09.09,0,0,1,0,.13S97,43.86,97,43.86Z"/><path class="cls-5" d="M90.38,20.77c-1.47-.9-3.82-1.13-5.11.18-1.59,1.63-1.64,4.31-1.24,6.3s1.64,3.94,4,3.7a4.09,4.09,0,0,0,3.14-2.3C92.37,26.51,92.92,22.32,90.38,20.77Z"/><path class="cls-2" d="M89.53,23.18c-.07.8,0,1.25.75,1.54a.58.58,0,0,0,.15.93c-.34.11.1.66.1.93.16-.27.22-.75.61-.86s.69.36.61.75-1.94,1.64-.7,2c-.59.06-.45.87-.14,1.17s.37.13.5.23.22.47.51.52.35-.19.55-.2.14.34.48.05.47-1.41.08-1.51c.57-.58.4-1.19.07-1.83a2.38,2.38,0,0,0,.48-2.65c.17.53.48-.47.51-.63.09-.53.07-1.52-.54-1.76.53.17.47-.94.42-1.23s-.93-1.56-1.35-1.11a7.17,7.17,0,0,0-1.77-1c-.28-.08-.95-.24-.87.26-.45-.36-2.41-1-2.46-.1-.9-.55-2.4-1-2.44.62-.53,0-1.06-.22-1.46.23-.24.29-.42,1-.09,1.21-.13-.23-.65-.69-1-.52s-.22.67-.18.9c-.63-.18-.36.91-.25,1.18.21.53,1.12,1.22,1.44.36-.37,1.32,1.39,1.12,1.59.14.67,0,.78-.05,1.14-.64.07.38.87.75,1,.31-.39-.14-.42.46-.28.69s1.06.51,1.25.07c.11.65,1,.46,1.19,0,.12.17.42.62.6.23Z"/><path class="cls-2" d="M87.72,31a.13.13,0,0,1-.13-.11.13.13,0,0,1,.11-.15,4.41,4.41,0,0,0,2.54-1.58.13.13,0,0,1,.19,0,.13.13,0,0,1,0,.18A4.67,4.67,0,0,1,87.75,31Z"/><path class="cls-7" d="M79.62,58l-.09,0a.14.14,0,0,1,0-.18A16.32,16.32,0,0,1,84.76,54a.13.13,0,0,1,.18.06.12.12,0,0,1-.06.17,16.08,16.08,0,0,0-5.16,3.74A.1.1,0,0,1,79.62,58Z"/><path class="cls-7" d="M83.18,43.57a.08.08,0,0,1-.09-.08c0-.64,0-1.91,0-2.92,0-.59,0-1.1,0-1.42,0-1.22.29-4.45.3-4.48a.08.08,0,0,1,.09-.08.09.09,0,0,1,.09.09s-.32,3.26-.3,4.47c0,.32,0,.83,0,1.42,0,1,0,2.28,0,2.91a.08.08,0,0,1-.08.09Z"/><path class="cls-2" d="M89.34,25.47h0a13,13,0,0,1-2-1,.13.13,0,0,1,0-.18.14.14,0,0,1,.19,0,11.83,11.83,0,0,0,1.88,1,.13.13,0,0,1,.09.16A.14.14,0,0,1,89.34,25.47Z"/><path class="cls-2" d="M84,25.47a.13.13,0,0,1-.12-.1.12.12,0,0,1,.09-.16,12.83,12.83,0,0,0,1.88-1,.13.13,0,0,1,.14.22,12.47,12.47,0,0,1-2,1Z"/><path class="cls-2" d="M88.44,26c0,.27-.09.5-.21.5S88,26.22,88,26s.1-.5.21-.5S88.44,25.67,88.44,26Z"/><path class="cls-2" d="M85.12,25.93c0,.27-.09.49-.21.49s-.21-.22-.21-.49.1-.5.21-.5S85.12,25.65,85.12,25.93Z"/><path class="cls-2" d="M86.5,28.1a.78.78,0,0,1-.57-.24.64.64,0,0,1-.19-.58c0-.17.11-.33.17-.51A1.42,1.42,0,0,0,86,25.56a.13.13,0,0,1,0-.18.14.14,0,0,1,.18.05,1.64,1.64,0,0,1-.09,1.43,2.7,2.7,0,0,0-.16.48.36.36,0,0,0,.11.34.55.55,0,0,0,.46.15.13.13,0,0,1,.16.1.13.13,0,0,1-.1.16Z"/><path class="cls-2" d="M88.25,29.4h0L88,29.32a2.88,2.88,0,0,0-.83-.27,2.44,2.44,0,0,0-.91,0,.16.16,0,0,1-.18-.07.14.14,0,0,1,.07-.18,2.93,2.93,0,0,1,1.06-.05,3.16,3.16,0,0,1,.9.29l.17.07a.14.14,0,0,1,.07.18A.17.17,0,0,1,88.25,29.4Z"/><path class="cls-8" d="M26.73,68.09S26.38,79.53,28.38,82A3.74,3.74,0,0,0,31,82s1.89-4,1-13.87Z"/><path class="cls-2" d="M47.3,51.65l-.09.06v-.2l-3.77.6A74,74,0,0,0,34,49.62c-3-.78-3.81-1.13-4-4.63-.13-3.13-.41-6.25-.67-9.38-.29-3.5-.61-7-1-10.49-.34-2.89-.14-6.35-2.08-8.74-2.4-3-7.49-3.7-11.26-2.28-.32-.87-.82-1.21-1.56-.77C9.77,15.56,9.53,21.8,9.54,23.54l0,0s0,15.65,1.53,24.91a34.06,34.06,0,0,0,.8,4.14c1.16,4.37,11.82,6,15.59,6.72a26.67,26.67,0,0,0,13.28-1,17.32,17.32,0,0,0,5.39-2.84,3.78,3.78,0,0,0,1-1C47.61,53.74,47.3,51.65,47.3,51.65Z"/><path class="cls-2" d="M11.78,16.24Z"/><path class="cls-2" d="M11.78,16.24l.62-.58C12.89,15.22,11.89,16.14,11.78,16.24Z"/><path class="cls-3" d="M35.16,47.19c-3-.78-3.79-1.13-3.94-4.63-.14-3.13-.42-6.25-.68-9.37-.29-3.5-.61-7-1-10.49-.34-2.89-.14-6.35-2.08-8.75-3-3.73-10.35-3.94-13.87-.71-2.11,1.94-2.75,4.84-2.82,7.91l-.06-.06s0,15.65,1.53,24.91a34.06,34.06,0,0,0,.8,4.14c1.16,4.37,11.82,6,15.59,6.72,5.57,1,14.36,0,18.43-4.56C49.27,49.83,36.57,47.55,35.16,47.19Z"/><path class="cls-3" d="M13,13.81Z"/><path class="cls-3" d="M13,13.81l.62-.57Z"/><rect class="cls-2" x="27.97" y="58.27" width="2.77" height="10.05"/><path class="cls-2" d="M32,68.09c0,.32-1.17.58-2.62.58s-2.63-.26-2.63-.58,1.18-.58,2.63-.58S32,67.77,32,68.09Z"/><path class="cls-2" d="M20.18,80H18.52c-.28,0-.52.62-.52,1.39s.24,1.38.52,1.38h1.66c.28,0,.51-.62.51-1.38S20.46,80,20.18,80Z"/><path class="cls-8" d="M19,81.35c0,.76-.23,1.38-.52,1.38s-.51-.62-.51-1.38.23-1.39.51-1.39S19,80.58,19,81.35Z"/><path class="cls-8" d="M27.32,77a2.86,2.86,0,0,0-.64,0c-.93.13-1.86.28-2.78.46a30.93,30.93,0,0,0-3.8.92,10.72,10.72,0,0,0-1.54.61c-.39.21-1,.74-.29.95a5.22,5.22,0,0,0,2.9-.23,29.66,29.66,0,0,1,4.07-.83,10.52,10.52,0,0,1,2.1-.09c.26,0,.62.17.8-.06s.07-.6,0-.83C28.08,77.25,27.76,77,27.32,77Z"/><path class="cls-2" d="M39.13,80h1.65c.29,0,.52.62.52,1.39s-.23,1.38-.52,1.38H39.13c-.29,0-.52-.62-.52-1.38S38.84,80,39.13,80Z"/><path class="cls-8" d="M40.33,81.35c0,.76.24,1.38.52,1.38s.52-.62.52-1.38S41.14,80,40.85,80,40.33,80.58,40.33,81.35Z"/><path class="cls-8" d="M32,77a2.89,2.89,0,0,1,.64,0c.93.13,1.85.28,2.77.46a30.93,30.93,0,0,1,3.8.92,10.28,10.28,0,0,1,1.54.61c.4.21,1.06.74.3.95a5.25,5.25,0,0,1-2.91-.23,29.52,29.52,0,0,0-4.06-.83A10.66,10.66,0,0,0,32,78.81c-.26,0-.61.17-.8-.06s-.07-.6,0-.83C31.23,77.25,31.54,77,32,77Z"/><path class="cls-6" d="M33.71,17.17c.13-.35.45-.48,1.19-.29a6.18,6.18,0,0,1,2.75,1.87,7.56,7.56,0,0,1,1.51,2.89c.71,2.52,1.53,5,2.16,7.56a18.73,18.73,0,0,0,2.11,5.73L51,46.71l-4.37.35L39,36.54l-4-10.62c-.42-2.47-1-5-1.23-7.46A3.6,3.6,0,0,1,33.71,17.17Z"/><path class="cls-8" d="M52.52,79.56a7.77,7.77,0,0,0-4.85-1.76c-1,0-.84.79-.86,1.51s-.31,2,.29,2.65,1.4.26,2.1.36c1.71.23,3.35.2,5,.47.66.1,4.68.2,3.26-1.31C56.32,80.22,53.9,80.63,52.52,79.56Z"/><path class="cls-8" d="M61.64,76.25a7.78,7.78,0,0,0-4.82-1.85c-1-.07-.86.78-.89,1.5s-.35,2,.23,2.64,1.4.3,2.1.41c1.71.27,3.34.27,5,.56.66.12,4.69.31,3.3-1.23C65.42,77,63,77.35,61.64,76.25Z"/><path class="cls-2" d="M59.66,66.78c-.78-3.2-1.71-6.44-2.44-9.66-.68-3-.59-7.68-3.41-9.64-3.58-2.49-8.55-3.71-12.69-5-1.16-.36-2.39-.6-3.52-1.05a7.79,7.79,0,0,0-2.44-.93c-1.14,0-1.13.28-1.82,1.18C32.19,43.15,29.4,45.51,31,47c1.21,1.16,4.34,1.48,6,2.1a50.12,50.12,0,0,1,5.53,2.14A17.39,17.39,0,0,1,49,57.52a14.8,14.8,0,0,1,2.31,5.57,22.93,22.93,0,0,0,1.78,6c.86,1.73.74,3.85,1.45,5.71.2.54.16,1.85.65,2.21.78.55,7.3-.77,7.22-1.22C61.84,72.85,60.39,69.8,59.66,66.78Z"/><path class="cls-2" d="M34.92,5.63c-.6-1.89,1.91-1.78,2.22-.14.26,1.36-.35,2.73-.53,4.06C36.18,8.19,35.36,7,34.92,5.63Z"/><path class="cls-5" d="M28.5,23.31a22.64,22.64,0,0,0-1.93-1.71c-.51-.43-1.07-.81-1.6-1.22s-1.54-.88-1.82-1.57c-.75-1.83,2.19-1.94,3.18-2,.83-.81,1.94-2.53,1.86-6a17.22,17.22,0,0,0,3.14,1.31c.7.16,2.16.33,2.43,1.12a7,7,0,0,1-.22,3.1,2.69,2.69,0,0,0-.08,1.81,8.66,8.66,0,0,1,.38,3.57A4.9,4.9,0,0,1,31.94,25c-1.23.76-2.55-.72-3.28-1.53Z"/><path class="cls-6" d="M33.54,16.29l-.14.78c-.12-.08-.24.08-.51.16a3.11,3.11,0,0,1-1.86,0A8.89,8.89,0,0,1,28.59,16a4.33,4.33,0,0,1-1.08-1.14c-.25.15-.36.43-.63.52-1.72.63-4.62,1.54-5.75,3s-.59,3.1-.73,4.71c-.1,1.25.1,2.6.12,3.86a49.34,49.34,0,0,0,.54,5.69,70.07,70.07,0,0,1,.41,11.21c0,.28,5.42,1,6,1a40.79,40.79,0,0,0,5.41-.3c1.1-.06,3.36-.2,4.05-1.21,1-1.49.09-4,.14-5.7.06-2.47.3-5,.36-7.42,0-.13,0-.26,0-.39C37.58,18.91,33.54,16.29,33.54,16.29Z"/><path class="cls-5" d="M36.45,10.73a5.42,5.42,0,0,1-1.14,2.8,2.77,2.77,0,0,1-3.06.85,6.42,6.42,0,0,1-3.47-2.49,9.18,9.18,0,0,1-1.67-3.73,5,5,0,0,1,.44-3.6c1-1.56,3.5-2.35,5.27-2.4,2-.06,3,.89,3.39,2.68a13.87,13.87,0,0,1,.41,4.41C36.58,9.7,36.53,10.21,36.45,10.73Z"/><path class="cls-2" d="M33.51,14.63a3.25,3.25,0,0,0,.36,0,.1.1,0,0,0,.09-.11.1.1,0,0,0-.12-.08,4.68,4.68,0,0,1-4-1.55.1.1,0,0,0-.14.14A5,5,0,0,0,33.51,14.63Z"/><path class="cls-2" d="M32.54,8.13a.28.28,0,0,1-.13,0,1.24,1.24,0,0,0-.76.09.32.32,0,0,1-.43-.14.3.3,0,0,1,.11-.42,1.94,1.94,0,0,1,1.18-.15.34.34,0,0,1,.26.38A.28.28,0,0,1,32.54,8.13Z"/><path class="cls-2" d="M34.94,8.2a.28.28,0,0,0,.13,0,1.41,1.41,0,0,1,.77.14.3.3,0,0,0,.42-.11.32.32,0,0,0-.13-.43,2,2,0,0,0-1.19-.22A.3.3,0,0,0,34.7,8,.34.34,0,0,0,34.94,8.2Z"/><path class="cls-2" d="M34.65,11.13a1.09,1.09,0,0,0,.19,0A.12.12,0,0,0,34.9,11a6.34,6.34,0,0,0-.42-2.46.1.1,0,0,0-.13-.06.11.11,0,0,0-.07.12,6.2,6.2,0,0,1,.44,2.28,2.17,2.17,0,0,1-.7,0,.1.1,0,0,0-.12.08.1.1,0,0,0,.09.11A3.07,3.07,0,0,0,34.65,11.13Z"/><path class="cls-2" d="M29.29,9.21h0a.1.1,0,0,0,.06-.13c-.07-.14-.39-.85-.71-.9a.1.1,0,0,0-.12.08.1.1,0,0,0,.08.11c.16,0,.43.49.56.79A.11.11,0,0,0,29.29,9.21Z"/><path class="cls-2" d="M29,8.88a.11.11,0,0,0,.09-.07A.1.1,0,0,0,29,8.69l-.29-.09a.1.1,0,0,0-.13.06.11.11,0,0,0,.07.13l.29.09Z"/><path class="cls-2" d="M30.43,4.11c.58.73.12,1.49,0,2.21a8.11,8.11,0,0,0,0,2.2A1.72,1.72,0,0,0,30.21,8c0,.14,0,.26.09.41-.52-.65-2-2.06-2.19-.5-.1,1,1,2.07.64,3-.07-.21-.14-.39-.19-.6l.06,1s-.08-.22-.1-.3c0,.6.18,1.24-.21,1.71,0-.29,0-.58,0-.87a1.75,1.75,0,0,0,0,.72c-.62-2.65-2.53-5.34-1.72-8.14a2.57,2.57,0,0,1,2.61-1.78c1.76.06,1.52,1.44,1.54,2.67Z"/><path class="cls-2" d="M28,2.76c.22-1.35,1.6-2.93,3-1.9.47-1.57,4.33-.71,3.62.36a2.54,2.54,0,0,1,2.56,2.6.9.9,0,0,1-1.56.66c-.16.61-1.73,0-2-.33-.27.95-2.34.65-3.24.25a2.74,2.74,0,0,1-1.08.51c-.2,0-1.06.14-1.23-.08-.17.15-.67,0-.88-.1s-.49-.87,0-.63C26.25,3.77,27.3,1.85,28,2.76Z"/><path class="cls-2" d="M33.85,12.37a1.85,1.85,0,0,0,.89-.24.12.12,0,0,0,0-.17.14.14,0,0,0-.17,0,1.88,1.88,0,0,1-2.07-.21.13.13,0,0,0-.18,0,.12.12,0,0,0,0,.17A2.22,2.22,0,0,0,33.85,12.37Z"/><g id="tie"><path class="cls-2" d="M32.65,20a.56.56,0,0,0-.06-.62l-.45-.56a.24.24,0,0,0-.42,0l-.34.61a.6.6,0,0,0,.06.62l.45.56a.24.24,0,0,0,.42,0Z"/><path class="cls-2" d="M31.73,20l.72,0c.18,1.19.44,2.42.55,3.63.14,1.65.89,3.09.92,4.79a26.52,26.52,0,0,0,.37,3.68,9.81,9.81,0,0,1,.27,1.8l-1.12,1.81L32.06,34A33.63,33.63,0,0,1,32,30.14a26.49,26.49,0,0,0-.17-5.69C31.8,24.2,31.72,20,31.73,20Z"/></g><path class="cls-2" d="M32.13,19.25a.17.17,0,0,1,.06-.11A14,14,0,0,0,33,17.83a9.68,9.68,0,0,0,.54-1.71,1.24,1.24,0,0,1,.38.6,3,3,0,0,1-1,2.14,1.65,1.65,0,0,1-.47.35,3,3,0,0,1-.3.06l-.07,0S32.13,19.28,32.13,19.25Z"/><path class="cls-2" d="M31.64,18.86a14.19,14.19,0,0,0-2.15-1.35c-1-.68-2.21-1.4-1.88-2.84-.05.2-.78.38-.86.82a1.7,1.7,0,0,0,.4,1.17c.53.8,1.88,1.37,2.69,1.89a16.93,16.93,0,0,1,2.09,1.07A.78.78,0,0,0,31.64,18.86Z"/><path class="cls-2" d="M52.58,73.39a61.11,61.11,0,0,0-.34-6.5c-.36-3.59-.44-7.61-.81-11.22-.27-2.63-2.38-3.86-4.36-5.3a34.56,34.56,0,0,0-10.08-5c-3.78-1.18-7.58-1-11.25-2.48-1.35-.55-2.89-.56-4.22-1.28-.48-.26-.48,3.47-.47,3.76.09,3.75,1.48,6.07,5.15,7.46,1.87.72,4.05.7,6,1.08,2.57.49,5.1,1.18,7.61,1.89,2,.56,3.33.85,3.54,3.12.2,2.11.2,4.25.32,6.34.12,2.41.87,4.81,1.1,7.22a62.13,62.13,0,0,1,.74,6.87,27.16,27.16,0,0,0,3.92.19,19.63,19.63,0,0,0,3.89-.42,15.88,15.88,0,0,1-.74-2.79C52.58,75.38,52.58,74.39,52.58,73.39Z"/><path class="cls-6" d="M52,62.28a.18.18,0,0,1-.18-.16c0-.61-.06-1.24-.08-1.91-.09-2.83-.18-6.05-2.35-8a25.43,25.43,0,0,0-4-2.81,56.51,56.51,0,0,0-5.65-2.88.17.17,0,0,1-.09-.23.19.19,0,0,1,.24-.08,53.16,53.16,0,0,1,5.68,2.9A26.34,26.34,0,0,1,49.59,52c2.28,2,2.38,5.32,2.46,8.22,0,.67,0,1.29.09,1.89a.19.19,0,0,1-.17.19Z"/><path class="cls-5" d="M38.85,51.55a8.33,8.33,0,0,0-1.08-3.14c-.56-1.13-1.51-1.49-2.65-2a19.53,19.53,0,0,1-2.88-1.69c-.66-.47-1.23-1-1.92-1.47-.51-.32-1-.66-1.52-.28s-1.27,1-1.39,1.5.48,1,.84,1.34.85.83,1.29,1.21c.6.52,1.26.93,1.84,1.48a8.07,8.07,0,0,1,1.7,1.65c.47.8,1.66,2.81,2.73,2.83a2.89,2.89,0,0,1-.21-1.26c.27.48.7,1.55,1.43,1.45a8.67,8.67,0,0,0-.25-1.21c.19.44.68,1.55,1.35,1.4,0-.57-.37-1.24-.44-1.82.25.56.72,2.09,1.67,1.95C39.3,52.83,38.92,52.22,38.85,51.55Z"/><path class="cls-6" d="M21.62,18.34c-2.85.58-3.52,6.45-3.87,8.66a44.5,44.5,0,0,0-.35,7.21c0,1.72.1,3.75,1.37,5.11a15.88,15.88,0,0,0,2.35,1.88c2.76,2,5.58,4.65,8.64,6.2,0,0,2.6-2.86,2.4-3s-5.34-5.37-5.74-5.79c-.88-.94-2.46-1.77-2.78-3.08a12.49,12.49,0,0,1,.3-4.55c.3-1.87.58-3.85,1.06-5.69.68-2.6,1-6.57-2.6-7A2.53,2.53,0,0,0,21.62,18.34Z"/><path class="cls-7" d="M30.18,42.5l-.06,0c-1.28-.92-6.18-6.22-6.39-6.45-.75-1.2.34-6.8.38-7,.45-2,1.13-4.94,1.14-5.1a.1.1,0,0,1,.11-.1.12.12,0,0,1,.1.11c0,.22-1,4.63-1.15,5.13,0,.06-1.11,5.77-.41,6.88,0,0,5.08,5.5,6.34,6.41a.09.09,0,0,1,0,.14A.09.09,0,0,1,30.18,42.5Z"/><path class="cls-7" d="M37.06,36.5h0a.13.13,0,0,1-.11-.15c1-5.64-.22-13.51-.24-13.59a.13.13,0,0,1,.11-.15.13.13,0,0,1,.16.11c0,.07,1.29,8,.23,13.67A.13.13,0,0,1,37.06,36.5Z"/><path class="cls-2" d="M32.5,9c0,.24-.09.45-.19.45s-.19-.21-.19-.45.08-.45.19-.45S32.5,8.71,32.5,9Z"/><path class="cls-2" d="M35.8,9c0,.25-.08.45-.19.45s-.19-.2-.19-.45.09-.45.19-.45S35.8,8.72,35.8,9Z"/></g></g></svg>