<svg xmlns="http://www.w3.org/2000/svg" viewBox="0 0 152.18 95.3"><defs><style>.cls-1{fill:#fceede;}.cls-2{fill:#ff8f67;}.cls-3{fill:#a86770;}.cls-4{fill:#f3d3a7;}.cls-5{fill:#f69fb9;}.cls-6{fill:#e2b988;}.cls-7{fill:#fff;}.cls-8{fill:#c68383;}.cls-9{fill:#9f6464;}.cls-10{fill:#f4dad3;}.cls-11{fill:#d7f2f1;}.cls-12{fill:#aa5f5f;}.cls-13{fill:#d0f3f4;}.cls-14{fill:#bf7783;}</style></defs><g id="Layer_2" data-name="Layer 2"><g id="Layer_2-2" data-name="Layer 2"><path class="cls-1" d="M149.47,50.13C143.67,34,123.34,26.91,106,27.45c-9.62.3-17.65,5.32-26.83,5.89C67.33,34.07,57.58,27,47,23.8c-10.25-3.13-22.79-5.3-32.95-.75C1,28.87-1.72,46.43.9,58,4.57,74.31,16.49,86.62,34,91.67c14.39,4.15,27.43.89,41.83-.85,11.52-1.38,22.44-.85,34,.26,13,1.25,25.72.92,35.27-8.72C154,73.33,153.34,60.89,149.47,50.13Z"/><path class="cls-2" d="M83.7,94.4c-.44.77-2.32.44-3.07.41a31.13,31.13,0,0,0-4.21,0,2.8,2.8,0,0,1-1.88-.21c-.61-.46-.46-1.65-.44-2.27a1.15,1.15,0,0,0,0-.19,9.87,9.87,0,0,0-1.15-3.72c-.15-.35-.52-1.08-.4-1.45.23-.78,1.76-1,2.59-1.1,4-.58,1.5,3,2.58,5.08a2.27,2.27,0,0,0,.22.32c.65.72,1.92.91,2.86,1.23C81.52,92.73,84.32,93.31,83.7,94.4Z"/><path class="cls-3" d="M83.7,94.4c-.44.77-2.32.44-3.07.41a31.13,31.13,0,0,0-4.21,0,2.8,2.8,0,0,1-1.88-.21c-.61-.46-.46-1.65-.44-2.27a1.15,1.15,0,0,0,0-.19c.79.52,3.07.76,3.84-.87.65.72,1.92.91,2.86,1.23C81.52,92.73,84.32,93.31,83.7,94.4Z"/><path class="cls-4" d="M71.89,91.29a7,7,0,0,1,2.91-.23,9.21,9.21,0,0,0,2.28.44A32,32,0,0,1,80.65,91c-.1,0-1.14-3.78-1.21-4.09-.37-1.56-.57-3.15-1-4.7-1.59-6-1.4-15.81-10.54-16.34-3.35-.19-6.67.18-10,.18-2.1,0-4.19.25-6.27.42a14.61,14.61,0,0,1-3.09.17c-1.21-.18-1.72-.63-3-.32a92.54,92.54,0,0,0-9.14,2.45,7.32,7.32,0,0,0,3.24,4.5c3.29,2.13,5.67,2.26,9.73,2.09,4.83-.21,9.55-.17,14.33-.59,2-.17,2.82-.85,3.56,1.31,1.21,3.52,1,7,2.32,10.5C70.2,88.2,71.42,89.68,71.89,91.29Z"/><path class="cls-2" d="M33,41.53v0a1.74,1.74,0,0,0,.22-.18c1.2-1.18-.87-1.56-1.53-2.15-.28-.25-.3-.69-.43-1a3.86,3.86,0,0,0-1.92-2.36,5.9,5.9,0,0,0-3.64-.8c-3.54.38-5.28,2.92-4.34,6a8.22,8.22,0,0,0,2.47,3.72c2,1.71,6.89,2.22,9.19.81,1-.61.63-1,.3-1.85A9.53,9.53,0,0,1,33,41.53Z"/><path class="cls-2" d="M29.76,45.47a9.38,9.38,0,0,0,1.68,2.65l-5.66,2.32-2.21-7.18L28,42.08Z"/><path class="cls-3" d="M33.11,35.05a6.2,6.2,0,0,1-1.85-.46,16.79,16.79,0,0,0-2.14-1.24,4.82,4.82,0,0,0-2.77,0,.78.78,0,0,0,0-.52,6.54,6.54,0,0,0-1.61.8c-.09-.77-1-.31-1,.35a4.62,4.62,0,0,0-.35-1c-.54.43-1.4,1.36-.13,1.56-1.24-.14-3.1-.3-2.95,1.3a2.83,2.83,0,0,1,1-.49c-2.11.8-2.32,4.55-1.17,6,0,0,0-.06,0-.07a7.65,7.65,0,0,0,1.39,3.17c0-.28.13-.59.15-.87a22.8,22.8,0,0,0,1.42,2.84,1.6,1.6,0,0,0,.1-.23c.08.29.17.57.24.86A1.93,1.93,0,0,0,24.2,46a3.09,3.09,0,0,0,.45,1.28c.28-.6.54-1.22.86-1.8a2.83,2.83,0,0,0,.1,1.56,3.12,3.12,0,0,0,1-1.44,2.34,2.34,0,0,0,.23,1.18A26.7,26.7,0,0,0,28,44.31a6.83,6.83,0,0,1,0,.79,2.59,2.59,0,0,0,.42-2.45,3.25,3.25,0,0,1,.17-2.3c0,.16.14.33.19.51a5.5,5.5,0,0,1,0-2.32,6,6,0,0,0,.31.62,1.42,1.42,0,0,0-.2-1.26c.48.36.69.31,1,.77a2.11,2.11,0,0,0-.28-2,9.46,9.46,0,0,1,1.59,0A7.78,7.78,0,0,1,31,36a4,4,0,0,1,.85.08,2.24,2.24,0,0,1-.81-.45C31.56,35.25,32.57,35.7,33.11,35.05Z"/><path class="cls-2" d="M28.52,41.47c.32.82.2,1.61-.29,1.77s-1.15-.38-1.48-1.2-.2-1.6.29-1.76S28.19,40.65,28.52,41.47Z"/><path class="cls-3" d="M29.57,39.63l-.08,0a.18.18,0,0,1-.1-.24,2.06,2.06,0,0,1,1.68-1,.21.21,0,0,1,.22.17.18.18,0,0,1-.19.19,1.63,1.63,0,0,0-1.34.77A.23.23,0,0,1,29.57,39.63Z"/><path class="cls-3" d="M30.33,40.27a.09.09,0,1,1,0-.18,2.12,2.12,0,0,0,1.14-.37.11.11,0,0,1,.14,0,.09.09,0,0,1,0,.13A2.34,2.34,0,0,1,30.33,40.27Z"/><path class="cls-3" d="M32.37,43a1,1,0,0,1-.29,0,.08.08,0,0,1-.07-.11.09.09,0,0,1,.12-.06,1.15,1.15,0,0,0,.79-.11.11.11,0,0,1,.14,0,.09.09,0,0,1,0,.13A1.4,1.4,0,0,1,32.37,43Z"/><path class="cls-5" d="M48.31,65.83a7.31,7.31,0,0,0-1.42-1.32,8.86,8.86,0,0,1-2.06-2.59c-2-3.32-3.74-6.81-6.19-9.91-1.81-2.29-4.58-4.82-7.84-5,.17,0-1.3,1.57-1.56,1.69a8.18,8.18,0,0,1-1.85.44,12.88,12.88,0,0,0-2.23.19c-1.38.78-.48,4.19-.15,5.31a16,16,0,0,0,2.07,3.74c.81,1.23,1.56,2.51,2.35,3.75,1.17,1.83,2.34,3.74,3.62,5.47C34.11,69,35,70.8,36.72,71.68c2.3,1.15,2.81-.85,4.76-1.32,1.26-.31,1.81.07,2.91-.68a12.58,12.58,0,0,1,2.74-1.59C48.82,67.41,48.87,66.61,48.31,65.83Z"/><polygon class="cls-3" points="30.83 79.5 26.21 95.3 28.62 95.3 35.65 79.5 30.83 79.5"/><polygon class="cls-3" points="68.19 79.5 72.81 95.3 70.39 95.3 63.37 79.5 68.19 79.5"/><rect class="cls-3" x="32.14" y="79.41" width="33.94" height="2.54"/><path class="cls-3" d="M29.83,67.94a90,90,0,0,0,18.61-3c1.92-.58,3.77-1.54,5.83-1.65a3.34,3.34,0,0,1,2.45.78c.83.74.66,1.57.51,2.55-.3,2.07-1.1,4.08-.89,6.19h-4s2.41-5.32,2.68-6.41c0,0,0-1.7-1.74-1,0,0-14.2,5-22.5,5Z"/><path class="cls-6" d="M66.18,72.06,38.34,73.48l-14-21.42L20.5,37.66a1.34,1.34,0,0,0-1.86-.84L9.72,40.29A1.32,1.32,0,0,0,9,42.17L28.89,79a3,3,0,0,0,1.68,1.29l.06,0h0l.19,0,.11,0,39.66-.06S71.6,73.51,66.18,72.06Z"/><path class="cls-2" d="M59.49,63.39a1.38,1.38,0,0,0-1-1.13,10.39,10.39,0,0,0-2.3-.84,6.31,6.31,0,0,0-2.57.48c-.4.11-.81.18-1.19.32-1.22-.08-5.93,0-6.3,0H39.8c-.66,0-1.31,0-2,0-1.8,0-2.63-2.83-3.53-3.95-1.13.58-1.51,1.95-2.12,2.91s-1,1.29-.2,2.33c.45.58.84,1.22,1.32,1.78A4.53,4.53,0,0,0,36.41,67a32.31,32.31,0,0,0,6.88-.51,67.37,67.37,0,0,0,9-2.14l.37-.06c1.27.43,2.2-.11,3.42-.16s1.06,1,1.94,1.26a3.11,3.11,0,0,0-.11-.68c.09.31.21.85.66.82a3.36,3.36,0,0,0,.09-.9c.32.49.35,1.41.86.55.35-.58.16-1,0-1.58Z"/><path class="cls-5" d="M34,55.69c-1.39-2.74-4.11-7.37-8.36-4.86a2.57,2.57,0,0,0-1.18,2.9c.4,2.42,2.2,4.69,3.77,6.61a20.22,20.22,0,0,0,1.53,1.54c.6.59.73,1.15,1.6.89.71-.2,1.14-.79,1.75-1.11a17.11,17.11,0,0,1,1.8-.48c.45-.19.9-.63,1.36-.85S34.18,56,34,55.69Z"/><path class="cls-7" d="M36.09,59.25a.1.1,0,0,1-.1-.07c-1.38-5.79-4.75-7.92-4.78-7.94a.08.08,0,0,1,0-.12.12.12,0,0,1,.14,0s3.47,2.18,4.87,8a.1.1,0,0,1-.08.11Z"/><path class="cls-8" d="M120.38,89.69c-.07-.29-.18-.57-.26-.83-.2-.63-.32-1.27-.51-1.9s-.48-1.35-1.23-1.24l-.13,0a6,6,0,0,0-1.52,0c-.58.13-.43.64-.36,1.11.21,1.42.9,4.27,2.95,4.32a1.09,1.09,0,0,0,.87-.29A1.21,1.21,0,0,0,120.38,89.69Z"/><path class="cls-3" d="M105,49.1a22.85,22.85,0,0,1-.17-5c.26-4.49,5-3.62,8.74-2.34a8.12,8.12,0,0,0,.75,3.53c1.35,4,1.26,8.07,1.71,12.27a92.81,92.81,0,0,0,2,10.55,59.53,59.53,0,0,1,1.53,10.14c0,.79,1.28,9.48,1.31,9.49-1.79-.06-3.75-.11-5.46-.09-.67-3.62-2.27-7-3-10.57-1.16-5.39-1.86-10.91-4-16.11A55.46,55.46,0,0,1,105,49.1Z"/><path class="cls-9" d="M106,52.61l-.33-.74A2.89,2.89,0,0,1,106,52.61Z"/><path class="cls-2" d="M119,40.94a2.92,2.92,0,0,0-.08-.46c-.09-.34,2.3-.41,2.49-.4.23,2.46,3.27,4.55,2.74,7.22a1.77,1.77,0,0,1-.35-.26c.17.4.23.82-.18,1.08a2.86,2.86,0,0,1-.36-.42,1.61,1.61,0,0,1,.12.89,1.35,1.35,0,0,1-.55-.42,1.48,1.48,0,0,1,0,.42c-1-.47-1.71-2.15-2.29-3.06-1.3-2.06-.91.72-2.48.5.64.09.84-2.82.88-3.16A8.24,8.24,0,0,0,119,40.94Z"/><path class="cls-2" d="M68.09,24.45a2.28,2.28,0,0,0-2.22,1,1.29,1.29,0,0,0-.3,1.2.75.75,0,0,0,1.12.29.4.4,0,0,0,0,.66.49.49,0,0,0,.7-.17l-.18.49,3.46.68c.48.09,1.12.13,1.34-.27s0-1,.05-1.38c-.57-.34-1.25-.46-1.82-.83C69.43,25.63,69.05,24.69,68.09,24.45Z"/><path class="cls-8" d="M105.62,86s.13,2.89.93,4.1c0,0-1.06,2.29-3.6.6l-1-6.39Z"/><path class="cls-3" d="M106.69,51.62a122.73,122.73,0,0,0-.59,12.71,26.56,26.56,0,0,0,.84,6.46,21.18,21.18,0,0,1,.61,5.58,50.75,50.75,0,0,1-.36,9.54,9.8,9.8,0,0,0,0,2.48c0-.18-6,0-6.48,0-.22,0,0-6.48-.06-7-.52-5.26-1.36-10.49-2.29-15.7q-1-5.53-1.48-11.14a51.38,51.38,0,0,1-.2-8.32c.11-1.45,0-2.48,1.5-3.23,1.76-.89,3.81,0,5.72.32.81.16,1.77.46,1.89,1.19A34.41,34.41,0,0,1,106.69,51.62Z"/><path class="cls-10" d="M96,15.7a14.22,14.22,0,0,1,10.35-1.12c10.1,2.64,4.58,6.64,4.84,11.17a42.14,42.14,0,0,0,.71,5.8c.38,1.93,1.52,3.69,1.72,5.67a44,44,0,0,1,1.36,6.2c-.09-.91-6.13,1.57-6.53,1.68a9.63,9.63,0,0,1-3.78,0c-1.42-.19-2.85.12-4.26,0-1.22-.13-2.34-.87-3.57-.64a12.11,12.11,0,0,0,.26-6.54,45.81,45.81,0,0,1-2.48-8.37s0,0,0,0C93.83,26.1,91.75,17.91,96,15.7Z"/><path class="cls-3" d="M106.55,90.08c.16-.06.59.78.62.85a4,4,0,0,1,.28,2.24c-.16.7-1,.52-1.58.52H97.23c-.36,0-.65-.21-.65-.48a1,1,0,0,1,.58-.76L102.22,90c.49-.24,1.54.18,2.08.29A3.91,3.91,0,0,0,106.55,90.08Z"/><path class="cls-11" d="M97,15.52s-3.87,1.36-12.27,9.6a4.28,4.28,0,0,1-3,1.18L71,26.33l-.51,2.72,13.08,2.28a5.44,5.44,0,0,0,3.85-.77l6.26-5.31Z"/><path class="cls-11" d="M110.14,16.68c3.27.34,4.37,4.07,5.9,6.16,1.35,1.84,3.45,3.65,4.16,5.81A80.14,80.14,0,0,1,122.77,41c-1.5,0-2.8.37-4.36.3-.47,0-1.89-6-2.13-6.68A20.79,20.79,0,0,0,113,27.9c-1.56-1.92-5-3-5.8-5.2C106.41,20.67,107.12,16.37,110.14,16.68Z"/><path class="cls-3" d="M117.23,89.78a2.41,2.41,0,0,0,.33.19,2.62,2.62,0,0,0,1.61.21c.42-.11.69-.63,1.12-.67.79-.09,1.62,1.1,2.06,1.61s1,1,1.47,1.55c.22.28.89,1,.76,1.35-.23.72-1.66.33-2.24.3a30.89,30.89,0,0,1-4.2-.07,2.32,2.32,0,0,1-1.71-2.63,5.77,5.77,0,0,1,.08-1.73C116.8,89.42,116.93,89.57,117.23,89.78Z"/><g id="head"><path class="cls-2" d="M92.51,9.09A4.56,4.56,0,0,0,93,7.61a15.75,15.75,0,0,0-.22-1.68A7.14,7.14,0,0,1,93,4.35a3.86,3.86,0,0,1,1.64-2.61,6.82,6.82,0,0,1,7.32,0,6.08,6.08,0,0,1,1.9,7,7.64,7.64,0,0,1-4.77,4.45c-1.11.28-4.11,1.44-4.9.16-.18-.29.07-.52.07-.8a2.5,2.5,0,0,0-.17-.65c-.15-.51-.15-1-.63-1.4C92.66,9.94,92,10.23,92.51,9.09Z"/><path class="cls-2" d="M102.69,8.77c.1.29-.14.71-.17,1a5,5,0,0,0,.1,1.28,8.46,8.46,0,0,0,1.14,3.12c.75,1.19.85,1.79-.54,2.66-1.1.7-4.56,1.43-5.28.13s-.67-3.07-1.08-4.53A8.7,8.7,0,0,1,98.42,12a6.79,6.79,0,0,0,1.56-.87,16.23,16.23,0,0,0,2.64-2.38Z"/></g><path class="cls-12" d="M93.73,7.14a.3.3,0,0,0,.16,0,1.67,1.67,0,0,1,.91,0A.39.39,0,0,0,95.29,7a.32.32,0,0,0-.2-.44,2.42,2.42,0,0,0-1.42-.06.34.34,0,0,0-.25.43A.35.35,0,0,0,93.73,7.14Z"/><path class="cls-12" d="M94.11,8.27c.1.26.29.44.43.4s.17-.3.07-.56-.3-.44-.44-.4S94,8,94.11,8.27Z"/><path class="cls-12" d="M97.68.3a7.05,7.05,0,0,1,5.16.38c2,1,2.34,3,2.14,5a8.62,8.62,0,0,1-.25,1.59,17.63,17.63,0,0,0-.77,2,12.72,12.72,0,0,0-.18,2.54,7.43,7.43,0,0,1-.67-.51,4,4,0,0,0,.24.66c-.1-.38-.81-.7-1.1-1a11.22,11.22,0,0,1-1.77-2.08,5.86,5.86,0,0,1,0,.59A7,7,0,0,1,98.58,7a1.86,1.86,0,0,0-.12.53,2.58,2.58,0,0,1-.82-3.12l0,0c-2.16.48-5.23-1.09-5.65-3C94.23,1.69,95.56.74,97.68.3Z"/><path class="cls-2" d="M98.7,6.24c1.16-.63,1.49.74,1.56,1.49,0,.54.32,1.64-.46,1.9C98.31,10.13,97.47,6.91,98.7,6.24Z"/><path class="cls-12" d="M97.58,13.58l0,0c.12-.07,3-1.71,2.81-3.3a.11.11,0,0,0-.11-.08.08.08,0,0,0-.08.09c.17,1.49-2.69,3.13-2.72,3.15a.08.08,0,0,0,0,.12A.12.12,0,0,0,97.58,13.58Z"/><path class="cls-12" d="M94.13,11.35h0s1.15,0,1.28-.82a.1.1,0,0,0-.08-.1.09.09,0,0,0-.11.07c-.1.63-1.09.68-1.1.68a.09.09,0,0,0-.09.09A.09.09,0,0,0,94.13,11.35Z"/><path class="cls-12" d="M98.84,8.06h0c.06,0,.09-.05.08-.1a1.12,1.12,0,0,1,.4-1.07.08.08,0,0,0,0-.12.11.11,0,0,0-.13,0A1.27,1.27,0,0,0,98.75,8,.08.08,0,0,0,98.84,8.06Z"/><path class="cls-12" d="M99.2,8.68a.1.1,0,0,0,.08,0,1,1,0,0,0-.21-1.24.12.12,0,0,0-.14,0,.09.09,0,0,0,0,.12.84.84,0,0,1,.19,1,.09.09,0,0,0,0,.12Z"/><path class="cls-11" d="M108.38,15l-.67-.29a13.91,13.91,0,0,0-4.21-1.24c.12.9,1.23,1.53,1.51,2.36a3.71,3.71,0,0,1-.11,2.06c-.37,1.35-1.1,2.57-1.56,3.9a17,17,0,0,0-1.18,7.26c.3,3,1.48,6,2.4,9,1.17,3.81,1.77,7.79,2.64,11.59.57,2.45,1.58,4.74,2.28,7.08.61,2.08.49,4.7,1.41,6.74a13.13,13.13,0,0,1,4.31-.29c1.46.17,2.63.73,4.16.29-.22-1.59-1-3.23-1.21-4.88-.31-2-.16-4-.51-6-.55-3.17-1.66-6.41-2.47-9.55a39.54,39.54,0,0,1-1.71-8.22c-.12-2.54-1-5-1.22-7.38a21.2,21.2,0,0,1,.19-4.88,32.22,32.22,0,0,0,.79-3.86c0-1.38-.86-1.9-2.11-2.47C110.2,15.86,109.3,15.41,108.38,15Z"/><path class="cls-13" d="M113.38,34.36h0a.13.13,0,0,0,.1-.14,28.37,28.37,0,0,1-.65-3.61,22.6,22.6,0,0,0-.41-2.37c-.14-.52-.24-1.1-.34-1.71a12,12,0,0,0-.87-3.26.14.14,0,0,0-.18-.06.11.11,0,0,0-.06.15,11.92,11.92,0,0,1,.85,3.21c.1.61.2,1.19.34,1.72a21.71,21.71,0,0,1,.41,2.35,30.53,30.53,0,0,0,.65,3.63A.12.12,0,0,0,113.38,34.36Z"/><path class="cls-3" d="M100.72,19.75a.61.61,0,0,0-.07.17c-.27-.74.41-1.24,1-1.63a5.3,5.3,0,0,0,1.68-1.38,3.89,3.89,0,0,0,.43-2.4,1.4,1.4,0,0,1,0-.34c.1-.22.49.33.54.42a3.76,3.76,0,0,1,.37.82,2.44,2.44,0,0,1-1.15,2.86C102.77,18.69,101.15,19,100.72,19.75Z"/><path class="cls-3" d="M97.49,15.72a8,8,0,0,0,.59,1.73c.33.48.91.84,1.17,1.36A4.59,4.59,0,0,1,99.7,20c-.34-.13-.59-.52-.84-.74-.63-.54-1.49-.7-1.78-1.49a1.64,1.64,0,0,1,.33-1.87Z"/><path class="cls-3" d="M99.44,19a.81.81,0,0,1,1.43.33,2.24,2.24,0,0,1,.14.79.87.87,0,0,1-1.17.47A1.25,1.25,0,0,1,99.44,19Z"/><path class="cls-3" d="M99.51,22.88c.09-.52.16-1.06.22-1.61,0-.25-.07-1.29.16-1.41s.75.35.81.59a6,6,0,0,1,.13,1,11.55,11.55,0,0,1,.06,1.76c0,1.15-.23,2.29-.36,3.43a7,7,0,0,0,.58,2.58c.25.92-.51,1.47-.88,2.33-.58-.12-1.64-1.74-1.81-2.32a5.8,5.8,0,0,1,.39-3C99.08,25.1,99.32,24,99.51,22.88Z"/><path class="cls-7" d="M103.35,19.87c.39-1.19,1.17-2.87.88-4.14-.08-.34-.33-.65-.41-1-.15-.55-.32-1.08-.44-1.64A3.79,3.79,0,0,1,106,14.83a8.27,8.27,0,0,1,1,2.51c.39,1.54.38,3.28,1,4.77-1,0-3.59-.43-3.42,1.09.06.57,2.16,1.91,2.56,2.36-5.27,2.53-1.73,9.12-2.23,13.17-.93-.47-.91-1.72-1.22-2.55a26.33,26.33,0,0,1-1.23-3.31,30,30,0,0,1-.87-6.65C101.66,24,102.66,22,103.35,19.87Z"/><path class="cls-11" d="M94.17,17.7a3.28,3.28,0,0,1,1.44-2c.54-.37,1.2-.53,1.6-1.06.4.53.25,1.38.24,2a22.58,22.58,0,0,1-.2,2.6,44.08,44.08,0,0,0-.48,5.37,68.56,68.56,0,0,0,.87,8.09c.9,7.41,1.26,14.87,2.78,22.14.63,3,1.34,6,1.71,8.94-1.91-1.23-3.19-.16-5.33-.32.15-3.31-1.07-6.86-1.56-10.15A85.52,85.52,0,0,1,94.68,41c0-6.12-1.6-12.4-1.6-18.49,0-1.06.94-1.72.94-2.77A9.35,9.35,0,0,1,94.17,17.7Z"/><path class="cls-13" d="M94.34,35a.12.12,0,0,0,.13-.12c0-1.8,0-3.63-.09-5.4s-.09-3.62-.09-5.45A.13.13,0,0,0,94,24c0,1.83,0,3.67.09,5.45s.09,3.6.09,5.4A.12.12,0,0,0,94.34,35Z"/><path class="cls-7" d="M95.86,18.72c-.09,1.52-.32,2.9-.53,4.32a1.6,1.6,0,0,1,1.29-.3c.1.71-.55,1-.86,1.55a2.69,2.69,0,0,0-.17,1.86,44.79,44.79,0,0,0,.89,4.59c.33,1.29.87,2.48,1.17,3.78s.09,2.68.66,3.77c.6-4.5-.5-8.8-.76-13.32-.15-2.69.24-5.35.09-8a14.67,14.67,0,0,0-.4-2.46,2.75,2.75,0,0,0-.75.88,3,3,0,0,0-.44,1A13,13,0,0,0,95.86,18.72Z"/><path class="cls-14" d="M69.55,41.83a1.06,1.06,0,0,1,2.11,0,1.06,1.06,0,0,1-2.11,0Z"/><path class="cls-14" d="M70.45,41.45a.18.18,0,0,1-.19-.15l-2.58-16a.18.18,0,0,1,.16-.19.19.19,0,0,1,.22.14l2.58,16a.18.18,0,0,1-.17.2Z"/><path class="cls-2" d="M69.12,25.94c-.38-.63-.69-1.44-1.7-1.14-.63.19-1.24,1-1.79,1.3.39.37.79.11,1.26.18s.35.18.89.54c.75.51,2-.13,1.25-1Z"/></g></g></svg>