<svg xmlns="http://www.w3.org/2000/svg" viewBox="0 0 146.26 90.14"><defs><style>.cls-1{fill:#fceede;}.cls-2{fill:#f69fb9;}.cls-3{fill:#84525b;}.cls-4{fill:#8e515d;}.cls-5{fill:#a86770;}.cls-6{fill:#bf7783;}.cls-7{fill:#feeae3;}.cls-8{fill:#f4dad3;}.cls-9{fill:#ff8f67;}.cls-10{fill:#d3c3c1;}.cls-11{opacity:0.5;}.cls-12{fill:#f8f8f8;}.cls-13{fill:#f9c04e;}.cls-14{fill:#fff;}.cls-15{fill:#e2b988;}</style></defs><g id="Layer_2" data-name="Layer 2"><g id="Layer_1-2" data-name="Layer 1"><path class="cls-1" d="M14.17,14.18c9.69-6.61,23.43-7,34.57-5,7.21,1.27,14.1,3.93,21.48,3,6.29-.78,12-3.8,18-5.85C105.44.41,128-6.44,140.1,11.83c7.91,12,7.42,28.84,2.93,41.94-5.65,16.5-20.66,32.23-38.18,35.67-20.21,4-39-10.35-58.93-6.3-8.46,1.72-19,7.47-28,4.29C4.39,82.62-.14,66.29,0,53.52.16,39.61,1.45,22.86,14.17,14.18Z"/><path class="cls-2" d="M112.26,21.38a3.06,3.06,0,0,0-3.5.68,8.8,8.8,0,0,0-1.9,3.29A31.35,31.35,0,0,0,105.4,30c-.28,1.2-.44,2.72-1.45,3.56a5.85,5.85,0,0,1-1.87.93l-8,2.89.72,2.21A.72.72,0,0,0,95,40a.78.78,0,0,0,.4.12,19.49,19.49,0,0,0,9.84-1.76,9.71,9.71,0,0,0,3.06-2.08c2-2.11,3-5.4,4.21-8C113.47,26.21,114.78,22.84,112.26,21.38Z"/><path class="cls-3" d="M112.86,65.37a22.54,22.54,0,0,1-2.77,11.19,14.74,14.74,0,0,1-3.84,4.49,9.61,9.61,0,0,1-5.68,2,9.76,9.76,0,0,1-5.77-1.88,14.5,14.5,0,0,1-4-4.47,23.43,23.43,0,0,1,0-22.69,14.47,14.47,0,0,1,4-4.46,9.84,9.84,0,0,1,5.77-1.89,9.69,9.69,0,0,1,5.68,2,14.82,14.82,0,0,1,3.84,4.48,22.58,22.58,0,0,1,2.77,11.2Zm-1.07,0a21.43,21.43,0,0,0-2.73-10.6,12.92,12.92,0,0,0-3.6-4,7.84,7.84,0,0,0-9.69.13,13,13,0,0,0-3.43,4,21.06,21.06,0,0,0-2.57,10.44,21.09,21.09,0,0,0,2.57,10.44,13.1,13.1,0,0,0,3.43,4,8.14,8.14,0,0,0,4.8,1.73,8.24,8.24,0,0,0,4.89-1.6,13,13,0,0,0,3.6-4,21.38,21.38,0,0,0,2.73-10.6Z"/><path class="cls-3" d="M102,81.53c-5.88,0-10.66-7.21-10.66-16.08S96.11,49.36,102,49.36s10.67,7.22,10.67,16.09S107.87,81.53,102,81.53ZM102,50C96.48,50,92,57,92,65.45s4.48,15.41,10,15.41S112,74,112,65.45,107.5,50,102,50Z"/><path class="cls-4" d="M102.58,65.53a2.36,2.36,0,0,0-.43-1.45v-.31h-.59c-.55,0-1,.79-1,1.76s.45,1.76,1,1.76h.59l.07-.44A2.45,2.45,0,0,0,102.58,65.53Z"/><path class="cls-3" d="M103.17,65.53c0,1-.45,1.76-1,1.76s-1-.79-1-1.76.45-1.76,1-1.76S103.17,64.56,103.17,65.53Z"/><polygon class="cls-3" points="102 64.65 101.83 49.7 102.16 49.7 102.32 64.65 102 64.65"/><rect class="cls-3" x="100.07" y="50.34" width="0.32" height="15.02" transform="translate(-11.84 29.01) rotate(-15.56)"/><polygon class="cls-3" points="101.44 64.73 94.57 53.94 94.84 53.77 101.71 64.56 101.44 64.73"/><polygon class="cls-3" points="102.08 81.36 101.92 66.41 102.24 66.41 102.41 81.36 102.08 81.36"/><rect class="cls-3" x="96.99" y="56.26" width="0.32" height="11.04" transform="translate(-10.47 102.7) rotate(-53.27)"/><rect class="cls-3" x="96.53" y="59.04" width="0.32" height="10.09" transform="translate(10.19 141.38) rotate(-75.32)"/><polygon class="cls-3" points="91.67 66.57 91.66 66.25 101.57 65.8 101.58 66.11 91.67 66.57"/><rect class="cls-3" x="91.78" y="68.17" width="10.18" height="0.32" transform="translate(-18.63 41.64) rotate(-22.19)"/><polygon class="cls-3" points="95.74 77.9 95.46 77.74 101.38 67.39 93.5 74.29 93.29 74.05 102.61 65.9 95.74 77.9"/><polygon class="cls-3" points="98.89 80.44 98.58 80.36 102.09 65.92 102.4 65.99 98.89 80.44"/><polygon class="cls-3" points="102.4 65.13 102.09 65.04 105.8 50.86 106.11 50.94 102.4 65.13"/><polygon class="cls-3" points="102.71 65.17 102.45 64.99 109.54 54.82 109.8 55 102.71 65.17"/><rect class="cls-3" x="102.08" y="62.56" width="10.41" height="0.32" transform="matrix(0.85, -0.52, 0.52, 0.85, -16.96, 65.43)"/><rect class="cls-3" x="102.53" y="65.05" width="9.81" height="0.32" transform="translate(-6.83 12.87) rotate(-6.65)"/><rect class="cls-3" x="107.28" y="62.06" width="0.32" height="9.86" transform="translate(23.66 161.93) rotate(-80.52)"/><rect class="cls-3" x="106.67" y="64.17" width="0.32" height="10.31" transform="translate(-10.74 118.25) rotate(-55.58)"/><rect class="cls-3" x="105.76" y="65.62" width="0.32" height="12.01" transform="matrix(0.83, -0.56, 0.56, 0.83, -21.95, 71.43)"/><rect class="cls-3" x="104.22" y="66.34" width="0.32" height="13.66" transform="translate(-17.05 34.41) rotate(-17.33)"/><path class="cls-4" d="M133.71,67.13a2.3,2.3,0,0,0-.44-1.45l0-.31h-.59c-.55,0-1,.79-1,1.76s.45,1.76,1,1.76h.59l.07-.44A2.51,2.51,0,0,0,133.71,67.13Z"/><path class="cls-3" d="M134.3,67.13c0,1-.46,1.76-1,1.76s-1-.79-1-1.76.45-1.76,1-1.76S134.3,66.16,134.3,67.13Z"/><path class="cls-5" d="M83.09,72.91l-.62-.18,3.37-11.48a8.35,8.35,0,0,1,5-5.66l2.89-1.17.24.6L91,56.18a7.71,7.71,0,0,0-4.58,5.24Z"/><path class="cls-5" d="M109.88,76.17l-.63-.11,2.5-15.26a7,7,0,0,1,4.54-5.21l2.9-1.17.23.6-2.89,1.16a6.41,6.41,0,0,0-4.15,4.75Z"/><path class="cls-4" d="M110.69,81a1.88,1.88,0,0,0-.34-1.14v-.24h-.47c-.44,0-.79.62-.79,1.38s.35,1.39.79,1.39h.47l0-.35A1.88,1.88,0,0,0,110.69,81Z"/><path class="cls-3" d="M111.15,81c0,.77-.35,1.39-.79,1.39s-.8-.62-.8-1.39.36-1.38.8-1.38S111.15,80.27,111.15,81Z"/><rect class="cls-3" x="82.62" y="72.82" width="0.32" height="4.77"/><rect class="cls-3" x="82.62" y="78.65" width="0.32" height="4.77"/><path class="cls-3" d="M86.89,78.26a6.83,6.83,0,0,1-1,3.71,4.25,4.25,0,0,1-3.49,2.17,4,4,0,0,1-2.1-.59,5,5,0,0,1-1.51-1.48,6.94,6.94,0,0,1-1.12-3.84,7,7,0,0,1,1.12-3.81,4.35,4.35,0,0,1,3.66-2.07,4,4,0,0,1,2,.68,5.12,5.12,0,0,1,1.4,1.5,6.87,6.87,0,0,1,1,3.72Zm-1.36,0a5.43,5.43,0,0,0-.85-2.94,2.41,2.41,0,0,0-4.36.11,5.76,5.76,0,0,0,0,5.65,2.64,2.64,0,0,0,2.12,1.43,2.73,2.73,0,0,0,2.24-1.32,5.47,5.47,0,0,0,.85-3Z"/><rect class="cls-3" x="79.19" y="80.44" width="4.35" height="0.32" transform="translate(-26.81 118.21) rotate(-63.9)"/><rect class="cls-3" x="78.87" y="78.98" width="3.77" height="0.32" transform="translate(-27.95 48.02) rotate(-28.45)"/><rect class="cls-3" x="79.1" y="77.69" width="3.32" height="0.32"/><polygon class="cls-3" points="82.33 77.73 79.49 75.86 79.67 75.59 82.5 77.46 82.33 77.73"/><polygon class="cls-3" points="82.47 77.47 80.85 73.83 81.14 73.7 82.76 77.34 82.47 77.47"/><polygon class="cls-3" points="83.25 77.22 82.97 77.09 84.73 73.38 85.03 73.51 83.25 77.22"/><polygon class="cls-3" points="83.19 77.74 83.04 77.45 86.32 75.69 86.47 75.97 83.19 77.74"/><polygon class="cls-3" points="83.12 78.28 83.11 77.96 86.58 77.86 86.58 78.18 83.12 78.28"/><polygon class="cls-3" points="86.2 80.32 83.22 78.69 83.37 78.42 86.36 80.04 86.2 80.32"/><rect class="cls-3" x="83.91" y="78.51" width="0.32" height="3.98" transform="translate(-28.4 50.5) rotate(-28.82)"/><path class="cls-4" d="M83.18,77.85a1.85,1.85,0,0,0-.35-1.15l0-.24h-.47c-.44,0-.79.62-.79,1.39s.35,1.38.79,1.38h.47l.05-.34A1.93,1.93,0,0,0,83.18,77.85Z"/><path class="cls-3" d="M83.64,77.85c0,.76-.35,1.38-.79,1.38s-.8-.62-.8-1.38.36-1.39.8-1.39S83.64,77.08,83.64,77.85Z"/><path class="cls-5" d="M83.39,78.72l21.79,1.86a.69.69,0,0,0,.65-.36l.29-.58a.67.67,0,0,0-.54-1l-22-1.75a.66.66,0,0,0-.71.6l0,.48A.67.67,0,0,0,83.39,78.72Z"/><rect class="cls-3" x="110.2" y="75.73" width="0.32" height="4.77"/><rect class="cls-3" x="110.2" y="81.56" width="0.32" height="4.77"/><path class="cls-3" d="M114.47,81.17a6.83,6.83,0,0,1-1,3.71,4.23,4.23,0,0,1-3.5,2.17,3.83,3.83,0,0,1-2.09-.59A5,5,0,0,1,106.35,85a7.11,7.11,0,0,1,0-7.66,5.12,5.12,0,0,1,1.52-1.48,3.77,3.77,0,0,1,4.19.09,5,5,0,0,1,1.4,1.5,6.8,6.8,0,0,1,1,3.72Zm-1.36,0a5.44,5.44,0,0,0-.86-2.94A2.72,2.72,0,0,0,110,76.9a2.67,2.67,0,0,0-2.09,1.43,5.71,5.71,0,0,0,0,5.66A2.67,2.67,0,0,0,110,85.42a2.71,2.71,0,0,0,2.23-1.33,5.47,5.47,0,0,0,.86-2.94Z"/><polygon class="cls-3" points="108.12 85.53 107.84 85.39 109.75 81.49 110.04 81.63 108.12 85.53"/><polygon class="cls-3" points="106.75 83.1 106.6 82.82 109.92 81.02 110.07 81.3 106.75 83.1"/><rect class="cls-3" x="106.67" y="80.6" width="3.32" height="0.32"/><polygon class="cls-3" points="109.9 80.64 107.06 78.77 107.24 78.51 110.08 80.37 109.9 80.64"/><rect class="cls-3" x="109.22" y="76.51" width="0.32" height="3.98" transform="translate(-22.47 51.26) rotate(-23.99)"/><polygon class="cls-3" points="110.83 80.14 110.55 80 112.31 76.29 112.6 76.43 110.83 80.14"/><polygon class="cls-3" points="110.76 80.65 110.61 80.37 113.9 78.61 114.05 78.89 110.76 80.65"/><polygon class="cls-3" points="110.69 81.19 110.68 80.87 114.15 80.78 114.16 81.1 110.69 81.19"/><polygon class="cls-3" points="113.78 83.23 110.8 81.61 110.95 81.33 113.93 82.95 113.78 83.23"/><rect class="cls-3" x="111.49" y="81.43" width="0.32" height="3.98" transform="translate(-26.38 64.16) rotate(-28.82)"/><path class="cls-3" d="M110,48.8,112.54,32A2.51,2.51,0,0,1,115,29.87h14.15a2.52,2.52,0,0,1,2.5,2.82l-2,16.69a2.18,2.18,0,0,1-2.16,1.92H112.19A2.19,2.19,0,0,1,110,48.8Z"/><path class="cls-5" d="M108.65,48.8,111.15,32a2.51,2.51,0,0,1,2.49-2.15h14.15a2.52,2.52,0,0,1,2.5,2.82l-2,16.69a2.17,2.17,0,0,1-2.16,1.92H110.8A2.18,2.18,0,0,1,108.65,48.8Z"/><path class="cls-3" d="M127.64,55.61H92.87a1.43,1.43,0,0,1-1.44-1.44h0a1.43,1.43,0,0,1,1.44-1.43h34.26a1.69,1.69,0,0,1,1.69,1.69h0A1.18,1.18,0,0,1,127.64,55.61Z"/><path class="cls-5" d="M127.64,54.17H92.87a1.43,1.43,0,0,1-1.44-1.43h0a1.43,1.43,0,0,1,1.44-1.44h34.26A1.69,1.69,0,0,1,128.82,53h0A1.18,1.18,0,0,1,127.64,54.17Z"/><path class="cls-3" d="M144,67a22.33,22.33,0,0,1-2.77,11.19,14.57,14.57,0,0,1-3.83,4.49,9.41,9.41,0,0,1-11.46.13,14.47,14.47,0,0,1-4-4.47,23.43,23.43,0,0,1,0-22.69,14.44,14.44,0,0,1,4-4.46,9.37,9.37,0,0,1,11.46.13,14.54,14.54,0,0,1,3.83,4.48A22.37,22.37,0,0,1,144,67Zm-1.06,0a21.43,21.43,0,0,0-2.73-10.6,12.92,12.92,0,0,0-3.6-4,8.2,8.2,0,0,0-4.91-1.61,8.29,8.29,0,0,0-4.78,1.73,13.22,13.22,0,0,0-3.43,4A21.13,21.13,0,0,0,120.9,67a21.09,21.09,0,0,0,2.57,10.44,13.1,13.1,0,0,0,3.43,4,8.14,8.14,0,0,0,4.8,1.73,8.27,8.27,0,0,0,4.89-1.6,13,13,0,0,0,3.6-4A21.38,21.38,0,0,0,142.92,67Z"/><path class="cls-3" d="M133.12,83.13c-5.88,0-10.66-7.21-10.66-16.08S127.24,51,133.12,51s10.67,7.22,10.67,16.09S139,83.13,133.12,83.13Zm0-31.5c-5.51,0-10,6.92-10,15.42s4.48,15.41,10,15.41,10-6.91,10-15.41S138.63,51.63,133.12,51.63Z"/><path class="cls-4" d="M133.71,67.13a2.3,2.3,0,0,0-.44-1.45l0-.31h-.59c-.55,0-1,.79-1,1.76s.45,1.76,1,1.76h.59l.07-.44A2.51,2.51,0,0,0,133.71,67.13Z"/><path class="cls-3" d="M134.3,67.13c0,1-.46,1.76-1,1.76s-1-.79-1-1.76.45-1.76,1-1.76S134.3,66.16,134.3,67.13Z"/><rect class="cls-3" x="133.05" y="51.3" width="0.32" height="14.95" transform="translate(-0.65 1.49) rotate(-0.64)"/><polygon class="cls-3" points="133.22 66.73 129.19 52.26 129.5 52.17 133.53 66.64 133.22 66.73"/><rect class="cls-3" x="129.11" y="54.45" width="0.32" height="12.79" transform="translate(-12.46 78.94) rotate(-32.48)"/><rect class="cls-3" x="133.13" y="68.01" width="0.32" height="14.95" transform="translate(-0.84 1.5) rotate(-0.64)"/><polygon class="cls-3" points="132.61 66.81 123.76 60.21 123.95 59.95 132.8 66.55 132.61 66.81"/><polygon class="cls-3" points="132.66 67.12 122.9 64.56 122.98 64.25 132.75 66.81 132.66 67.12"/><rect class="cls-3" x="122.79" y="67.62" width="9.92" height="0.32" transform="matrix(1, -0.05, 0.05, 1, -2.95, 5.89)"/><rect class="cls-3" x="122.91" y="69.77" width="10.18" height="0.32" transform="translate(-16.93 53.52) rotate(-22.19)"/><polygon class="cls-3" points="126.87 79.5 126.59 79.34 132.51 68.99 124.63 75.89 124.42 75.65 133.74 67.5 126.87 79.5"/><rect class="cls-3" x="124.19" y="74.62" width="14.86" height="0.32" transform="translate(27.79 184.93) rotate(-76.3)"/><rect class="cls-3" x="127.9" y="59.43" width="14.66" height="0.32" transform="translate(43.7 175.61) rotate(-75.51)"/><polygon class="cls-3" points="133.84 66.77 133.58 66.59 140.67 56.42 140.93 56.6 133.84 66.77"/><rect class="cls-3" x="133.21" y="64.16" width="10.41" height="0.32" transform="translate(-13.09 82.86) rotate(-31.9)"/><polygon class="cls-3" points="133.71 67.53 133.68 67.21 143.42 66.09 143.46 66.41 133.71 67.53"/><polygon class="cls-3" points="143.41 69.56 133.68 67.94 133.74 67.62 143.46 69.25 143.41 69.56"/><rect class="cls-3" x="137.8" y="65.77" width="0.32" height="10.31" transform="matrix(0.57, -0.82, 0.82, 0.57, 1.48, 144.65)"/><rect class="cls-3" x="136.89" y="67.22" width="0.32" height="12.01" transform="translate(-17.53 89.07) rotate(-33.97)"/><polygon class="cls-3" points="137.39 81.33 133.32 68.29 133.62 68.2 137.69 81.24 137.39 81.33"/><path class="cls-3" d="M112.9,42.09H91.26a1,1,0,0,1-1.05-1h0a1,1,0,0,1,1.05-1H112.9a1,1,0,0,1,1,1h0A1,1,0,0,1,112.9,42.09Z"/><path class="cls-3" d="M101,75.26c-.16-.39-.24-.82-.43-1.19a.82.82,0,0,0-.85-.58c-1.13-.06-2.21-.73-3.38-.54a.34.34,0,0,0-.31.26,10.14,10.14,0,0,1-1,2.2l-1.28,1.91a1.9,1.9,0,0,1-.57.14,3.32,3.32,0,0,0-1.48.17,1.26,1.26,0,0,0,0,1.94,3,3,0,0,0,2.13.57,8.16,8.16,0,0,0,2.85-.55,12.33,12.33,0,0,0,2.08-1.2l1.29-.86c.53-.35,1.11-.8,1.14-1.43A2.08,2.08,0,0,0,101,75.26Z"/><path class="cls-6" d="M120.33,45a3.45,3.45,0,0,0-1-1.52,3.71,3.71,0,0,0-1.95-.61c-.49,0-1-.08-1.46-.1h-.09a24,24,0,0,0-2.68.06,63.18,63.18,0,0,0-14.76,2.35h0a3.37,3.37,0,0,0-.86.4c-1.48,1-1.68,3-1.77,4.78a157.57,157.57,0,0,1-3,23.89,46.29,46.29,0,0,0,8.8.51,1.85,1.85,0,0,0,1-.26,1.89,1.89,0,0,0,.53-1.38,143.54,143.54,0,0,0,.4-17.72,2.93,2.93,0,0,1,.17-1.38c.4-.86,1.51-1.1,2.46-1.21a88.86,88.86,0,0,1,9.23-.63,7,7,0,0,0,3.73-.74C121.15,50.15,121.19,47.21,120.33,45Z"/><path class="cls-3" d="M91.21,75.26a12.08,12.08,0,0,0-.44-1.19c-.23-.46-.4-.56-.84-.58-1.13-.06-2.21-.73-3.39-.54a.43.43,0,0,0-.21.09.35.35,0,0,0-.09.17,10.68,10.68,0,0,1-1,2.2c-.43.64-.85,1.28-1.28,1.91a1.84,1.84,0,0,1-.56.14,3.31,3.31,0,0,0-1.48.17,1.26,1.26,0,0,0,0,1.94,3,3,0,0,0,2.14.57,8.16,8.16,0,0,0,2.85-.55A11.87,11.87,0,0,0,89,78.39l1.29-.86c.53-.35,1.12-.8,1.14-1.43A1.92,1.92,0,0,0,91.21,75.26Z"/><path class="cls-6" d="M110.52,45a3.47,3.47,0,0,0-1-1.52,3.68,3.68,0,0,0-2-.61c-.48,0-1-.08-1.45-.1H106a24.16,24.16,0,0,0-2.69.06A63.15,63.15,0,0,0,88.6,45.18h0a3.44,3.44,0,0,0-.87.4c-1.48,1-1.68,3-1.77,4.78a157.57,157.57,0,0,1-3,23.89,46.29,46.29,0,0,0,8.8.51,1.83,1.83,0,0,0,1-.26,1.81,1.81,0,0,0,.53-1.38,143.54,143.54,0,0,0,.41-17.72A2.92,2.92,0,0,1,93.92,54c.41-.86,1.51-1.1,2.46-1.21a89.23,89.23,0,0,1,9.23-.63,6.92,6.92,0,0,0,3.73-.74C111.33,50.15,111.38,47.21,110.52,45Z"/><path class="cls-7" d="M94.49,63.93h-.06a.16.16,0,0,1-.09-.21c.68-1.87,1.3-10.52,1.3-10.61,0-.51,0-5.1,1.13-6,0,0,1.61-1.72,9.4-2.89a.16.16,0,0,1,.18.14.15.15,0,0,1-.13.18C98.59,45.7,97,47.34,97,47.35c-.84.68-1,4.39-1,5.76,0,.37-.62,8.8-1.32,10.71A.16.16,0,0,1,94.49,63.93Z"/><path class="cls-8" d="M126.06,22.56a9.66,9.66,0,0,0-2.91-1.75,14.28,14.28,0,0,0-5.71-1.52,12.2,12.2,0,0,0-3.38.56,12,12,0,0,0-5,2.62c-1.78,1.7-2,4.07-1.74,6.38a44.76,44.76,0,0,1,.14,5.43,5.61,5.61,0,0,1-2,4c-.86.68-1.88,1.12-2.78,1.74a3.21,3.21,0,0,0-1.06,1.11c-.58,1.2.39,1.93,1.5,2,1.4.06,2.77-.72,4.15-.47,1.22.22,2.23,1.22,3.47,1.3s2.19-.65,3.32-.76A6.68,6.68,0,0,1,119.75,46c.49.68.81,2.13,1.65,2.46,1.25.49,1.88-1,2.08-1.91.63-3,1.16-6,2-9q.85-2.91,1.7-5.82a11.56,11.56,0,0,0,.44-3.47,16.2,16.2,0,0,0-.15-2.87A4.76,4.76,0,0,0,126.06,22.56Z"/><path class="cls-9" d="M119.86,15.26A9.79,9.79,0,0,0,121.6,9.4a5.3,5.3,0,0,0-1.71-4.3c-2-1.53-6.65-1.33-7.83,1.24a12.92,12.92,0,0,0-1.26,6.29c.13,1.75.65,4.25,2.35,5.13C115.67,19.07,118.37,17.3,119.86,15.26Z"/><path class="cls-9" d="M114.11,17.42a16,16,0,0,0-.1,3.86.87.87,0,0,0,.63.73,6,6,0,0,0,5.45-1,.88.88,0,0,0,.12-1.23c-.46-.59-1-1.86-.82-4.63a.86.86,0,0,0-1-.9C116.85,14.59,114.23,15.38,114.11,17.42Z"/><path class="cls-10" d="M120,14.73a.59.59,0,0,0-.56-.07.51.51,0,0,0-.6-.19c-.64.14-1.41,1.06-2.08.93-.16,0-.31-.11-.47-.13-.59-.07-1,.68-1.63.6a1.77,1.77,0,0,1-.73-.43.67.67,0,0,0-.79-.08c-.11.09-.16.25-.27.33-.77.57-.9-1.5-1.77-1-.43.25-.36.72-.3,1.14a10.8,10.8,0,0,1-.3,3.2,1.11,1.11,0,0,0,.26,1c.28.25.53.39.89.17a.8.8,0,0,1,.54-.21c.28.05.38.39.59.59a.73.73,0,0,0,1,0c.12-.11.21-.27.37-.32s.39.07.58.14a1.13,1.13,0,0,0,1-.1,5.48,5.48,0,0,1,.68-.51c.22-.1.43,0,.64-.16a7.35,7.35,0,0,0,1.58-1.57A10.43,10.43,0,0,0,120,15.71C120.12,15.38,120.22,15,120,14.73Z"/><path class="cls-10" d="M113,14.19c.34-.06.73-.11.78-.53.09-.82-1.68-.62-2.12-.5a1.49,1.49,0,0,0-1.14,1.15c0,.47.19,1,0,1.4l.94-.83a.25.25,0,0,1,.19-.09c.07,0,.08.15,0,.15A2.55,2.55,0,0,1,113,14.19Z"/><path class="cls-10" d="M114.51,14.19c-.33-.06-.73-.11-.78-.53-.08-.82,1.69-.62,2.12-.5A1.49,1.49,0,0,1,117,14.31c.05.47-.19,1,0,1.4-.31-.28-.62-.56-.94-.83a.23.23,0,0,0-.19-.09c-.06,0-.08.15,0,.15A2.52,2.52,0,0,0,114.51,14.19Z"/><path class="cls-10" d="M122.21,5.51a1.42,1.42,0,0,0-.46-.66c-.32-.24-.77-.18-1.17-.26a5.53,5.53,0,0,1-1.37-.74,7.1,7.1,0,0,0-3.2-.67,3,3,0,0,0-1.52.2c-.24.13-.45.33-.71.44a2.27,2.27,0,0,1-.63.12L112.4,4a4.48,4.48,0,0,0-1.45.31,1.44,1.44,0,0,0-.88,1.12,1.12,1.12,0,0,0,.72,1.1A.61.61,0,0,0,111,7a1,1,0,0,0,1.24,0,10.31,10.31,0,0,1,1.09-.78.92.92,0,0,0,1.11.57c.29-.08.59-.31.86-.17a2,2,0,0,1,.26.24,1.48,1.48,0,0,0,1.08.17,5.5,5.5,0,0,1,1.76.19.48.48,0,0,1,.25.14.47.47,0,0,1,0,.33,1.89,1.89,0,0,0,0,1.2c.17.37.53.61.71,1a2.28,2.28,0,0,1-.19,1.79c.1.16.38.08.47-.09a1.74,1.74,0,0,0,.11-.56c.07-.39.51-.75.87-.56s.32.72.2,1.12a10.91,10.91,0,0,1-.88,2.15c-.17.33-.52.71-.86.55a1.19,1.19,0,0,0-.17.91c.11.29.62.4.73.1,0,.26.09.59.34.6s.28-.15.37-.28a12.09,12.09,0,0,0,1.43-2.49,12.68,12.68,0,0,0,.37-1.24c.2-.74.39-1.48.59-2.23A6.88,6.88,0,0,0,123,8.4,6.36,6.36,0,0,0,122.21,5.51Z"/><path class="cls-10" d="M117,9.58a1.46,1.46,0,0,1,.51,0,1.32,1.32,0,0,1,.45.32l.67.65a.47.47,0,0,1-.4,0l-1.13-.28a.28.28,0,0,0-.18,0,1.31,1.31,0,0,0-.12.11.56.56,0,0,1-.44.12c-.32,0-1.74.1-1.19-.64C115.39,9.53,116.6,9.62,117,9.58Z"/><path class="cls-10" d="M111.85,9.29a1.3,1.3,0,0,0-.51-.06,1.06,1.06,0,0,0-.5.24l-.77.53a.52.52,0,0,0,.39.07l1.16-.09a.27.27,0,0,1,.18,0s.07.09.1.13a.61.61,0,0,0,.42.19c.31,0,1.7.39,1.28-.44C113.41,9.5,112.2,9.39,111.85,9.29Z"/><path class="cls-5" d="M113.77,13.23a1.87,1.87,0,0,1-.56-.09.87.87,0,0,1-.4-.25.72.72,0,0,1,0-.82,2.11,2.11,0,0,1,.28-.37,1.37,1.37,0,0,0,.16-.18,1.72,1.72,0,0,0,.35-1.12.16.16,0,0,1,.16-.16h0a.15.15,0,0,1,.16.15,2,2,0,0,1-.42,1.33c0,.07-.11.13-.17.2a2.42,2.42,0,0,0-.25.31.45.45,0,0,0,0,.46.56.56,0,0,0,.25.14,1.08,1.08,0,0,0,1-.11.16.16,0,0,1,.23,0,.16.16,0,0,1,0,.22A1.14,1.14,0,0,1,113.77,13.23Z"/><path class="cls-5" d="M115.2,15h0a1.52,1.52,0,0,1-.38-.11l-.13,0a4.16,4.16,0,0,0-1.89,0,.16.16,0,0,1-.18-.14.16.16,0,0,1,.14-.18,4.36,4.36,0,0,1,2,0l.14.05a2,2,0,0,0,.32.1.16.16,0,0,1,.13.18A.15.15,0,0,1,115.2,15Z"/><path class="cls-5" d="M116.78,11.19a.56.56,0,0,1,0,.12,2.67,2.67,0,0,0-.59-.1s0-.08,0-.12c0-.28.22-.5.39-.47S116.82,10.9,116.78,11.19Z"/><path class="cls-5" d="M111.78,10.89V11a2.61,2.61,0,0,1,.61,0s0-.08,0-.12c0-.28-.09-.53-.26-.54S111.81,10.6,111.78,10.89Z"/><g class="cls-11"><path class="cls-12" d="M120,9.67h0a.16.16,0,0,1-.11-.2,1.66,1.66,0,0,0-.31-1.13l-.12-.23c-.3-.58-.32-1.33.21-1.62a.15.15,0,0,1,.15.27c-.39.22-.25.86-.07,1.21l.11.22a1.92,1.92,0,0,1,.34,1.37A.17.17,0,0,1,120,9.67Z"/><path class="cls-12" d="M117.73,5.83a1.59,1.59,0,0,1-.5-.08c-.17,0-.33-.12-.48-.18a2.56,2.56,0,0,0-.62-.22.74.74,0,0,0-.85.31.16.16,0,0,1-.21.09.16.16,0,0,1-.08-.21,1.05,1.05,0,0,1,1.2-.51,4,4,0,0,1,.69.24,4.07,4.07,0,0,0,.44.18.93.93,0,0,0,.94-.14.16.16,0,0,1,.23,0,.17.17,0,0,1,0,.23A1,1,0,0,1,117.73,5.83Z"/><path class="cls-12" d="M111.49,5.8h-.06a.17.17,0,0,1-.09-.21,1.42,1.42,0,0,1,1.34-.75h0a2.4,2.4,0,0,1,.52.07,1.66,1.66,0,0,0,.65.06c.29-.06.37-.22.49-.45a1.58,1.58,0,0,1,.36-.49,2.25,2.25,0,0,1,2-.16A3.09,3.09,0,0,0,118,4a.15.15,0,0,1,.19.11.17.17,0,0,1-.11.2,3.4,3.4,0,0,1-1.44-.09c-.65-.14-1.26-.26-1.69.09a1.05,1.05,0,0,0-.27.39,1,1,0,0,1-.71.61,1.93,1.93,0,0,1-.79-.06,2.76,2.76,0,0,0-.45-.07h0a1.13,1.13,0,0,0-1,.56A.18.18,0,0,1,111.49,5.8Z"/><path class="cls-12" d="M121.25,7.33a.17.17,0,0,1-.16-.13,2.62,2.62,0,0,0-2-2.07.16.16,0,1,1,.07-.31,2.92,2.92,0,0,1,2.22,2.32.18.18,0,0,1-.13.19Z"/><path class="cls-12" d="M121.47,11.31a.16.16,0,0,1-.13-.25,2.22,2.22,0,0,0-.09-2.49.15.15,0,0,1,0-.22.16.16,0,0,1,.22,0,2.52,2.52,0,0,1,.1,2.85A.16.16,0,0,1,121.47,11.31Z"/></g><g class="cls-11"><path class="cls-12" d="M111.32,19.56h-.07a.55.55,0,0,1-.38-.28.85.85,0,0,1,0-.68,2,2,0,0,1,.34-.6l.08-.1a.91.91,0,0,0,.22-.37.76.76,0,0,0-.08-.43c0-.08,0-.15-.07-.22a.83.83,0,0,1,.07-.61.46.46,0,0,1,.3-.21.16.16,0,0,1,.19.13.16.16,0,0,1-.13.18.17.17,0,0,0-.09.07.53.53,0,0,0,0,.36l.06.19a1.09,1.09,0,0,1,.1.6,1.14,1.14,0,0,1-.3.51l-.07.09a1.78,1.78,0,0,0-.29.52.55.55,0,0,0,0,.43.21.21,0,0,0,.14.1.08.08,0,0,0,.08,0,.16.16,0,0,1,.22,0,.16.16,0,0,1,0,.23A.39.39,0,0,1,111.32,19.56Z"/><path class="cls-12" d="M112.62,18.76a.1.1,0,0,1-.07,0,.16.16,0,0,1-.07-.21,1.93,1.93,0,0,0,.35-1.27,1.48,1.48,0,0,0-.1-.27,2.09,2.09,0,0,1-.12-.4.71.71,0,0,1,.13-.53.51.51,0,0,1,.31-.19.16.16,0,1,1,0,.32.2.2,0,0,0-.1.07.38.38,0,0,0-.06.28,1.39,1.39,0,0,0,.1.33,3,3,0,0,1,.11.32,2.23,2.23,0,0,1-.38,1.49A.16.16,0,0,1,112.62,18.76Z"/><path class="cls-12" d="M113.44,19.05a.16.16,0,0,1-.14-.08.17.17,0,0,1,.06-.22,1.16,1.16,0,0,0,.53-.77,2.31,2.31,0,0,0,0-1,.17.17,0,0,1,.12-.19.18.18,0,0,1,.2.12,2.73,2.73,0,0,1,0,1.16,1.5,1.5,0,0,1-.68,1A.12.12,0,0,1,113.44,19.05Z"/><path class="cls-12" d="M115.35,19.59a.15.15,0,0,1-.15-.1.15.15,0,0,1,.09-.21,6.39,6.39,0,0,0,1.39-.68A3.14,3.14,0,0,0,118,16a.16.16,0,0,1,.16-.16h0a.16.16,0,0,1,.16.16,3.47,3.47,0,0,1-1.45,2.85,6.18,6.18,0,0,1-1.46.72Z"/><path class="cls-12" d="M115.68,18.46a.19.19,0,0,1-.1,0,.17.17,0,0,1,0-.23,3.42,3.42,0,0,0,.84-2,.16.16,0,0,1,.17-.14.16.16,0,0,1,.15.17,3.77,3.77,0,0,1-.91,2.17A.17.17,0,0,1,115.68,18.46Z"/><path class="cls-12" d="M114.88,18.41a.14.14,0,0,1-.09,0,.15.15,0,0,1-.05-.22A1.68,1.68,0,0,0,115,17a.16.16,0,0,1,.13-.19.15.15,0,0,1,.18.13,1.93,1.93,0,0,1-.28,1.44A.16.16,0,0,1,114.88,18.41Z"/><path class="cls-12" d="M113.2,20.08a1.16,1.16,0,0,1-.42-.08.17.17,0,0,1-.08-.21.16.16,0,0,1,.21-.08.91.91,0,0,0,.68,0,3.07,3.07,0,0,0,.65-.4.16.16,0,0,1,.23,0,.16.16,0,0,1,0,.22,3.4,3.4,0,0,1-.74.45A1.31,1.31,0,0,1,113.2,20.08Z"/><path class="cls-12" d="M118.94,16a.14.14,0,0,1-.14-.09.14.14,0,0,1,.06-.21,2.7,2.7,0,0,0,1-.91.15.15,0,0,1,.22,0,.16.16,0,0,1,0,.22A3.11,3.11,0,0,1,119,16Z"/></g><path class="cls-2" d="M107.38,29.44c.45-.49.89-1,1.31-1.48,0,.62.1,1.25.17,1.87-.46.57-.93,1.12-1.43,1.67C107.4,30.81,107.39,30.12,107.38,29.44Z"/><path class="cls-2" d="M108.82,29.82c.43-.5.84-1,1.24-1.53.07.62.16,1.24.25,1.87-.44.58-.89,1.15-1.36,1.72C108.9,31.19,108.85,30.51,108.82,29.82Z"/><path class="cls-2" d="M110.18,30.13c.41-.52.8-1.05,1.18-1.58.1.62.21,1.24.32,1.85-.41.6-.84,1.19-1.28,1.78C110.31,31.49,110.24,30.81,110.18,30.13Z"/><path class="cls-2" d="M111.64,30.4c.38-.54.75-1.08,1.11-1.63.12.61.25,1.23.4,1.84-.39.61-.8,1.22-1.22,1.82C111.82,31.75,111.72,31.07,111.64,30.4Z"/><path class="cls-2" d="M113,30.59c.36-.55.71-1.1,1-1.67.14.61.29,1.22.46,1.83q-.54.95-1.14,1.86C113.26,31.94,113.13,31.27,113,30.59Z"/><path class="cls-2" d="M114.48,30.74c.35-.56.67-1.13,1-1.71q.26.9.54,1.8c-.33.65-.69,1.28-1.06,1.92C114.78,32.08,114.63,31.41,114.48,30.74Z"/><path class="cls-2" d="M115.87,30.83c.32-.58.62-1.16.91-1.75.2.59.4,1.19.61,1.78-.31.66-.64,1.31-1,2Q116.13,31.82,115.87,30.83Z"/><path class="cls-2" d="M117.35,30.86c.29-.59.57-1.19.83-1.79.22.59.45,1.18.68,1.76-.28.67-.58,1.33-.9,2C117.75,32.17,117.54,31.52,117.35,30.86Z"/><path class="cls-2" d="M118.73,30.83c.28-.6.53-1.21.77-1.81.24.57.49,1.15.75,1.72-.25.68-.53,1.36-.82,2C119.19,32.13,119,31.48,118.73,30.83Z"/><path class="cls-2" d="M120.21,30.75c.24-.62.47-1.23.69-1.85.26.57.54,1.13.82,1.69-.23.69-.48,1.38-.74,2.06C120.71,32,120.45,31.38,120.21,30.75Z"/><path class="cls-2" d="M121.59,30.61c.22-.62.43-1.25.62-1.87.29.55.58,1.11.89,1.66-.2.7-.42,1.39-.66,2.08C122.14,31.86,121.86,31.24,121.59,30.61Z"/><path class="cls-2" d="M123.05,30.4c.2-.63.39-1.26.55-1.89q.47.81,1,1.62c-.18.71-.37,1.41-.58,2.11C123.66,31.63,123.35,31,123.05,30.4Z"/><path class="cls-2" d="M124.43,30.16c.17-.64.33-1.28.47-1.92.33.53.67,1.06,1,1.58-.15.71-.32,1.43-.5,2.14Q124.91,31.06,124.43,30.16Z"/><path class="cls-2" d="M125.87,29.83c.15-.64.28-1.29.4-1.93.35.52.71,1,1.08,1.54-.11.71-.25,1.43-.41,2.15C126.58,31,126.22,30.42,125.87,29.83Z"/><path class="cls-3" d="M129.1,42.09H107.46a1,1,0,0,1-1-1h0a1,1,0,0,1,1-1H129.1a1,1,0,0,1,1,1h0A1,1,0,0,1,129.1,42.09Z"/><path class="cls-9" d="M115.34,38.06a.33.33,0,0,0-.1-.23.34.34,0,0,0-.28,0c-1,.19-2.13.32-3.16.59a4.1,4.1,0,0,0-1.22.65,3.07,3.07,0,0,0-1.5,2.75,9.17,9.17,0,0,1-.24,1.27c0,.15-.16.33,0,.41.51.25,1.1-1.27,1.16-1.6-.09.5-.24,1-.28,1.53,0,.2-.1.33.1.44.4.22.94-.81,1-1.1,0,.26-.07.51-.12.76,0,.06,0,.13,0,.17s.2,0,.28,0a6.36,6.36,0,0,0,1.1-1.22c0,.16-.34,1.11-.13,1.1a.39.39,0,0,0,.2-.14c.5-.63.79-1.4,1.31-2,.25-.29,1-.3,1.31-.28a.61.61,0,0,0,.51-.19.4.4,0,0,0,.2-.24A4.89,4.89,0,0,0,115.34,38.06Z"/><path class="cls-2" d="M128,25.62A4.51,4.51,0,0,0,125.36,22c-1.94-.68-2.7,1.91-2.88,3.34-.31,2.38.22,4.69.38,7.05,0,.76.32,2.09-.14,2.76s-1.56.81-2.24,1a58.08,58.08,0,0,0-6.43,2,10.54,10.54,0,0,1,.93,3.54c0,.1,7-1.47,7.57-1.59,1.86-.43,4.6-1.13,5-3.32a56.48,56.48,0,0,0,.69-6.87A16,16,0,0,0,128,25.62Z"/><path class="cls-9" d="M95,40c-.63.37-2,.72-2.52,1.37a.55.55,0,0,1-.17.17c-.24.14-.54-.15-.53-.42a1.15,1.15,0,0,1,.41-.69A1.23,1.23,0,0,0,91,41.63a8.2,8.2,0,0,1,.06,1.1c-.06.37-.45.73-.78.55a.67.67,0,0,1-.3-.5,2.38,2.38,0,0,1-.06-.37c-.16,0-.3-.16-.34-.33A3.38,3.38,0,0,1,91,38.41a6.42,6.42,0,0,1,1.65-.61c.42-.11,1-.34,1.4-.42Z"/><path class="cls-9" d="M66.89,84.48c.09,1.44-6.84,0-7.91-.12-3-.36-4.28-.18-3.48-3.67l0-.16A16.92,16.92,0,0,0,56.22,76a43.43,43.43,0,0,0-1.31-9.22,16.41,16.41,0,0,1,1.25-10.59l5.21,1.49q-.48,4.47-.91,9c-.36,3.7-1.4,7.72-.43,11.41a7.4,7.4,0,0,0,3,4.45l.11.07C63.87,83,66.83,83.49,66.89,84.48Z"/><path class="cls-5" d="M66.89,84.48c.09,1.44-6.84,0-7.91-.12-3-.36-4.28-.18-3.48-3.67a13.73,13.73,0,0,0,7.55,1.82l.11.07C63.87,83,66.83,83.49,66.89,84.48Z"/><path class="cls-13" d="M35.79,43.57s27.66-2.23,26.62,9.52l-.6,5.35-17.55.15S34.6,50.71,35.79,43.57Z"/><path class="cls-9" d="M44.73,5.3a3.41,3.41,0,0,1,.19,1.64c0,1.73-.55,2-.32,2.86.14.54,1.06,1.27,1,1.78s-.3.31-.57.51a1.71,1.71,0,0,0-.64,1.08,6.3,6.3,0,0,0-.27,1.36c0,.65.33,1-.28,1.44a2.38,2.38,0,0,1-1.91.35c-.48-.08-1.27-.31-1.71,0-.27.19-.48.78-.64,1.05-.46.79-1,1.66-1.53,2.59l-5.79-2.33a15.86,15.86,0,0,0,1.15-2.34A10.17,10.17,0,0,0,33.77,13c.11-1.17.21-2.34.32-3.51.19-2,.29-3,.86-3.6.8-.81,1.46-.38,4.42-1.39,1.4-.48,1.68-.72,2.48-.69A3.34,3.34,0,0,1,44.73,5.3Z"/><path class="cls-2" d="M40.63,40.91a18.59,18.59,0,0,1-1,1.59,23.05,23.05,0,0,1-4,4.2,8.69,8.69,0,0,1-7,2.23,49.83,49.83,0,0,1-5.63-.8q.38-3.15.94-6.51A133.4,133.4,0,0,1,27,28.1a72.16,72.16,0,0,1,2.19-7.21c.77-2,2.07-3.92,4.38-4.08a6.6,6.6,0,0,1,5.8,2.65c1.7,2.06,2.77,4.93,3.69,7.28,1.38,3.51,1.65,4.19,1.58,5.38a8.51,8.51,0,0,1-2.51,5.24c-.51.54-.65,1.89-1,2.58C41,40.27,40.8,40.6,40.63,40.91Z"/><path class="cls-9" d="M62.88,40.4h-.11a5.46,5.46,0,0,0-2.22-.46,5.76,5.76,0,0,0-3.46,1.2L45.85,38l-6.67-12.1-.94.8-2.35,2.41-1.1,1.53,8,10.86a10.86,10.86,0,0,0,1.33.81c3.14,1.58,5.75.95,12.45,1.1.65,0,1.47,0,2.41.07l2.39.57a.23.23,0,0,0,0-.34.93.93,0,0,0,.91-.75,1.19,1.19,0,0,0,1.17-1,.64.64,0,0,0,.85-.52C64.3,40.73,63.4,40.52,62.88,40.4Z"/><path class="cls-5" d="M44.15,9.14H44a1.32,1.32,0,0,0-.78.07A.32.32,0,0,1,43,8.63a2,2,0,0,1,1.21-.11.32.32,0,0,1,0,.62Z"/><path class="cls-5" d="M43.88,9.85c0,.26-.15.46-.27.45s-.2-.24-.18-.5.16-.47.28-.45S43.91,9.59,43.88,9.85Z"/><path class="cls-5" d="M41.62,16.31h0a3.19,3.19,0,0,1-2.39-1.82.13.13,0,0,1,.07-.16.11.11,0,0,1,.16.06,3,3,0,0,0,2.19,1.68.12.12,0,0,1,.11.14A.13.13,0,0,1,41.62,16.31Z"/><path class="cls-5" d="M40.36,1.64a10.92,10.92,0,0,0-2.31.18,14.53,14.53,0,0,0-3.38,1c-3.2,1.48-3.46,5-2.26,8,.24.59.52,1.16.74,1.76s.2,1.42.45,1.94c.43.87,2.07,0,2.81-.24.23-.1,2.7-1.6,2.52-1.75A2.35,2.35,0,0,1,38,11a1.38,1.38,0,0,1,.76-1.44,1,1,0,0,1,1.33.73C40,7.58,43.58,7.18,44.29,5,45.12,2.43,42.61,1.7,40.36,1.64Z"/><path class="cls-5" d="M28.1,4.41A3.89,3.89,0,0,0,26.93,5a4.42,4.42,0,0,0-1.29,2.84,13.68,13.68,0,0,0,.12,4.69c.25,1.25.67,2.47.89,3.74a6.11,6.11,0,0,1-.35,3.76L28,18.25a3.77,3.77,0,0,0-.33,1.4l1-1-.48,1,.66-.91c0,.14,0,.28,0,.41a10.7,10.7,0,0,0,2.56-8.27c-.14-1.17-.47-2.43.11-3.46a2.27,2.27,0,0,1,.73-.78c.21-.15.85-.27,1-.44.47-.64-.4-1.24-.82-1.46A5.19,5.19,0,0,0,28.1,4.41Z"/><path class="cls-14" d="M33.78,30.37a.13.13,0,0,1-.09-.06c-.16-.29-3.73-7-3-9.51a.1.1,0,0,1,.13-.08.11.11,0,0,1,.08.14c-.66,2.39,3,9.27,3,9.34a.11.11,0,0,1,0,.15Z"/><path class="cls-14" d="M39.29,25.05a.12.12,0,0,1-.1-.07,25.64,25.64,0,0,0-3.32-5.47.11.11,0,1,1,.16-.14,25.07,25.07,0,0,1,3.36,5.52.12.12,0,0,1,0,.15Z"/><path class="cls-5" d="M43.94,13.48a1.79,1.79,0,0,1-1-.34.12.12,0,0,1,0-.17.13.13,0,0,1,.17,0,1.22,1.22,0,0,0,1,.28.13.13,0,0,1,.16.08.12.12,0,0,1-.07.15A.57.57,0,0,1,43.94,13.48Z"/><path class="cls-5" d="M25.66,76.58,22.29,83.8A.67.67,0,0,1,21,83.35l2-7.72a1.41,1.41,0,1,1,2.74.7A1.25,1.25,0,0,1,25.66,76.58Z"/><path class="cls-5" d="M48,76.58l3.38,7.22a.66.66,0,0,0,.89.32.68.68,0,0,0,.37-.77l-2-7.72a1.42,1.42,0,1,0-2.75.7Z"/><path class="cls-15" d="M10.06,20.89A2.46,2.46,0,0,0,7.56,24L18.13,75.38a4,4,0,0,0,3.75,3.06H51.33a3.1,3.1,0,0,0,3.1-3.12l-.18-29A3.16,3.16,0,0,0,51.1,43.2H29.69a4.08,4.08,0,0,1-3.79-3.05L22.33,23.94a4.07,4.07,0,0,0-3.79-3.05Z"/></g></g></svg>