<svg xmlns="http://www.w3.org/2000/svg" viewBox="0 0 154.05 94.03"><defs><style>.cls-1{fill:#fceede;}.cls-2{fill:#a86770;}.cls-3{fill:#e2b988;}.cls-4{fill:#f3d3a7;}.cls-5{fill:#ff8f67;}.cls-6{fill:#d7f2f1;}.cls-7{fill:#fff;}.cls-8{fill:#bf7783;}.cls-9{fill:#84525b;}</style></defs><g id="Layer_2" data-name="Layer 2"><g id="Layer_2-2" data-name="Layer 2"><path class="cls-1" d="M141.06,21.31c-22-20.72-43.84-10.52-69.55-7.74-10.23,1.1-19.05-4-28.79-6.32C25.17,3.05,9,9.1,2.76,27.2c-4.47,12.91-3.94,31.39,4.8,42.46C16,80.33,30.25,83.16,42.89,83.32c9.31.13,17.45-4.29,26.49-5.26,7.42-.79,16.73-2,24-.44,7,1.5,13.36,5.77,20.6,7a40.63,40.63,0,0,0,16.61-.81c14.79-4.16,24.44-19.39,23.33-34.31C153.14,38.52,149.09,28.86,141.06,21.31Z"/><path class="cls-2" d="M36.19,74.74l-7,10.1a1.36,1.36,0,0,1-1.85.43,1.27,1.27,0,0,1-.43-1.55l4.49-11.36A3.06,3.06,0,0,1,35,70.49a2.66,2.66,0,0,1,1.51,3.6A3.41,3.41,0,0,1,36.19,74.74Z"/><path class="cls-2" d="M118.13,74.74l5.32,10.1a1.25,1.25,0,0,0,1.78.43,1.48,1.48,0,0,0,.69-1.55l-2.54-11.36A2.58,2.58,0,0,0,120,70.49a3.15,3.15,0,0,0-2.13,3.6A3,3,0,0,0,118.13,74.74Z"/><path class="cls-3" d="M133.11,46.22l-.44,0v0H125l.8-9.36a11.93,11.93,0,0,0-11.93-13.33H46.06A14.68,14.68,0,0,0,31.84,36.86l-.79,9.34H23.13v0l-.44,0a9.52,9.52,0,0,0-9.23,8.67A7.8,7.8,0,0,0,18.21,63L17.07,76.21a4,4,0,0,0,4,4.45H121.78v0h7.08a4.89,4.89,0,0,0,4.74-4.45L134.73,63a9.67,9.67,0,0,0,6.13-8.09A7.76,7.76,0,0,0,133.11,46.22Z"/><path class="cls-4" d="M122,76.5a2.64,2.64,0,0,1-2.6,2.33H31.43a2.14,2.14,0,0,1-2.19-2.33l1.37-15.22A2.63,2.63,0,0,1,33.21,59h87.95a2.13,2.13,0,0,1,2.19,2.33Z"/><path class="cls-5" d="M48,7.78a2.41,2.41,0,0,1,.18-1.12,1.92,1.92,0,0,1-.19.41c.08-.12,0-.79.12-1a3,3,0,0,1,.39-.7c.46-.61,1-1.13,1.51-1.73.23-.29.6-.63.61-1-1.26-.34-2.15.77-3,1.56A8.27,8.27,0,0,0,45.5,7.51c-.72,2.1-.75,4.39-1.68,6.43,1.57-.11,1.78-.73,2.85-1.59l-.11.12A5.41,5.41,0,0,0,47.88,9.7,8.47,8.47,0,0,1,49.2,6.94,1.12,1.12,0,0,0,48,7.78Z"/><path class="cls-5" d="M58.05,18.68h0c-3.38-1-6.5,1.7-9.41,2.89-.9.37-3.59,2.41-4.51,1.74-.23-.17-.09-.87,0-1.11a12.31,12.31,0,0,1,.32-1.3q.24-.83.45-1.65c.58-2.29,1.18-4.62,1.85-6.87l-1.89-.78C43.6,13.66,42.08,15.9,41,18a17.74,17.74,0,0,0-2.09,7.25c-.07,1.56,0,3.1,1.57,3.61,1.8.59,4.18,0,5.93-.46a33.77,33.77,0,0,0,6.71-2.67c1.8-.88,4.46-1.63,5.79-3.21C60,21.23,59.81,19.25,58.05,18.68Z"/><path class="cls-5" d="M60.09,76.34a2.42,2.42,0,0,0,1.13,1.26,5.19,5.19,0,0,0,1.68.49c1.7.27,1.54,1.45,1.35,2.84-.25,1.89.88,3.54.8,5.36,0,1.08-1.08,2.83-2.3,2.26-.62-.29-.65-1.09-.78-1.7a18.82,18.82,0,0,0-.55-2.3,6.28,6.28,0,0,0-1-1.51c-.14-.18-.28-.37-.4-.56-.46-.73-.69-1.59-1.15-2.33a21,21,0,0,0-1.78-2.47c-.46-.55-1.14-.92-1.24-1.67-.15-1,.89-2.87,2-2.67C59.3,73.57,59.66,75.28,60.09,76.34Z"/><path class="cls-2" d="M64.25,80.93c-.25,1.89.88,3.54.8,5.36,0,1.08-1.08,2.83-2.3,2.26-.62-.29-.65-1.09-.78-1.7a18.82,18.82,0,0,0-.55-2.3,6.28,6.28,0,0,0-1-1.51c.56-.61,1.54-2.23.77-5.44a5.19,5.19,0,0,0,1.68.49C64.6,78.36,64.44,79.54,64.25,80.93Z"/><path class="cls-2" d="M41.34,57.07c.5,3,4.42,6.11,5.95,8,2.6,3.26,5.32,6.48,7.67,9.94a41.14,41.14,0,0,0,2.74,3.83l3.13-1.81c-.56.32-4-9.21-4.33-10a28.5,28.5,0,0,0-5.17-8.79c-.52-.57-2.2-1.37-1.61-2.37s3.59-1.61,4.71-1.95c2.07-.63,4.18-1.12,5.73-2.77,1.07-1.15.38-2.19-1.13-2.43-3.59-.56-7.14.81-10.09,2.78A23.34,23.34,0,0,1,44.49,54C42.77,54.7,40.91,54.52,41.34,57.07Z"/><path class="cls-5" d="M30.09,75.06a2.72,2.72,0,0,0-.77,1.77,6.2,6.2,0,0,0,.26,2c.51,1.92-.77,2.29-2.28,2.72-2,.6-3.21,2.55-5.1,3.3-1.12.44-3.38.13-3.35-1.43,0-.78.81-1.17,1.37-1.6a16.89,16.89,0,0,0,2.1-1.64,6.63,6.63,0,0,0,1.09-1.71c.13-.23.25-.46.4-.68.53-.82,1.31-1.45,1.85-2.28a24.93,24.93,0,0,0,1.71-3c.35-.73.41-1.62,1.13-2.08.94-.6,3.34-.36,3.66.95C32.55,73,31,74.12,30.09,75.06Z"/><path class="cls-2" d="M70.64,48.83a5.58,5.58,0,0,1-1.12,2.9c-1.12,1.68-2.61,2.39-4.74,3-4,1-8.53.44-12.53-.12-2.43-.35-5.41-.71-7.75.19-1.58.61-1.86,2.34-2.37,3.78a12.12,12.12,0,0,1-2.38,3.73c-2.61,3.26-5.19,6.79-7.59,10.23-.64.91-1.17,1.87-1.73,2.82s-.35,1-1.37.69c-.31-.09-3.12-1.62-3-1.9a144.07,144.07,0,0,0,9.72-22.35c.7-2,1.14-3.63,3.61-4.42a40.68,40.68,0,0,1,10.11-1.47A111.54,111.54,0,0,1,64,46.05l5.47-.21C70.24,45.81,70.65,48.38,70.64,48.83Z"/><path class="cls-6" d="M68.91,41.11c-.71-1.53-1.47-3-1.79-4-1.41-4.37,1.14-8.38.46-12.69-.4-2.58-1.46-5.61-3.93-6.82-2.07-1-6.39-1.13-8,.85a27.32,27.32,0,0,0-4.83,9.35,5.16,5.16,0,0,0,0,3.36c.58,1.48,1.84,1.73,2.73,2.84,1.6,2,1.89,6.37.51,8.53-1.09,1.69-4.42,3.19-.66,4,1.72.36,1.32,1.53,2.74,2s3.16-.45,4.68-.32,2.66,1,4.12.88c1.12-.07,4.14-.25,4.81-1.18C71,46.28,70,43.57,68.91,41.11Z"/><path class="cls-5" d="M52.49,2.58c-3.86.15-6.14,3.76-5,7.46a18.74,18.74,0,0,1,.67,2.52,5.59,5.59,0,0,1-.1,1.73c-.09.57-.33,1.24.5,1.3.43,0,.65-.22.91.18a9.63,9.63,0,0,1,.52,1c.12.28.31.48.44.76s.1.82.53,1.05c.95.52,2-.34,2.87-.77a2.83,2.83,0,0,1,1.1-.41c.45-.06.67.05.94-.44a16.27,16.27,0,0,0,1.87-6.61c.13-2.36-.26-5.31-2.22-6.86A4.46,4.46,0,0,0,52.49,2.58Z"/><path class="cls-5" d="M54.93,17.11c.35.41.7.82,1,1.26.53.75.69,1.75,1.4,2.41.92.84,2,.38,2.7-.39S62.37,18.28,61.8,17c-.48-1-1.65-1.53-2.35-2.38a9.64,9.64,0,0,1-2-3.49c-.16-.65-.17-2.94-1.37-2a8.93,8.93,0,0,0-1.34,2.34,12.52,12.52,0,0,0-1.13,2.66,2,2,0,0,0,.31,1.71C54.24,16.28,54.59,16.7,54.93,17.11Z"/><path class="cls-2" d="M47.61,5.47c.35,1.87,3,1.91,4.42,2.67a4.45,4.45,0,0,1,1.85,2.18c.34.88.32,1.86,1.07,2.53A6.59,6.59,0,0,1,54.66,10a10.62,10.62,0,0,1,.13,1.22c0-1.37,1.32-3,1.61-.75.08.6-.21,1.46,0,2a3.19,3.19,0,0,0,1.3,1.33c.23.11.54,0,.74.17s.36.72.55.93a3.08,3.08,0,0,0,3.67.77A3.52,3.52,0,0,0,63,10a1.87,1.87,0,0,0-1.28-.31c-.13-2-.56-4.39-2-5.92a8.72,8.72,0,0,0-6.41-2.57c-1.92,0-4.56.43-5.45,2.44a3.58,3.58,0,0,0-.29,1.94c.2,1,.9,1.16,1.76,1.47Z"/><path class="cls-2" d="M27.3,81.57c-2,.6-3.21,2.55-5.1,3.3-1.12.44-3.38.13-3.35-1.43,0-.78.81-1.17,1.37-1.6a16.89,16.89,0,0,0,2.1-1.64,6.63,6.63,0,0,0,1.09-1.71c.89.32,3,.62,5.91-1.66a6.2,6.2,0,0,0,.26,2C30.09,80.77,28.81,81.14,27.3,81.57Z"/><path class="cls-7" d="M42.23,58.73h0a.11.11,0,0,1-.08-.14l.07-.36a6.13,6.13,0,0,1,1.09-2.79,4.21,4.21,0,0,1,2.21-1.29,12.63,12.63,0,0,1,5.27,0c2.9.48,6.28.93,6.78.93a.12.12,0,0,1,.12.12.11.11,0,0,1-.12.11c-.57,0-4.07-.48-6.81-.93a12.54,12.54,0,0,0-5.18,0,4.08,4.08,0,0,0-2.1,1.23,5.88,5.88,0,0,0-1,2.68l-.08.36A.11.11,0,0,1,42.23,58.73Z"/><path class="cls-2" d="M48.62,5.33a8.11,8.11,0,0,1-.4,1.92A8.68,8.68,0,0,0,48.4,10,4.54,4.54,0,0,0,48,9.08a4.26,4.26,0,0,0,0,.62c0-.13-.14-.26-.19-.39-.22.31-.14.91-.17,1.34-1-.6-1-3.51-.69-4.5.19-.66.59-1.41,1.33-1.46.92-.05.16.88.23,1.52Z"/><path class="cls-5" d="M63,20.75c-1.16,2.08,1.34,5.49,2.33,7.05,1.47,2.33,3.57,4.24,4.75,6.77.74,1.57-.06,3.1-.5,4.7s-.9,3-1.33,4.45c-.25.86-.44,1.74-.71,2.58-.34,1-1.15,2-1.31,3.06s-.22,2.09-.32,3c.88,0,.57-1.1,1.22-1.37,0,1.46.4,4.17,1.71,5A4.2,4.2,0,0,0,69,54.3a1.61,1.61,0,0,0,.46,1.48c.32-.49.17-1.06.35-1.59A7.85,7.85,0,0,0,70,55.4c-.24-.83.22-2,.29-2.87A15.49,15.49,0,0,0,70,49.41c-.26-2.35,1.33-5.3,2.69-7.09a11.31,11.31,0,0,0,2.8-6.89c0-2-1.22-3.7-2.13-5.42a52.2,52.2,0,0,0-3.3-5.54c-1.07-1.54-4.27-6.3-6.54-4.38A2.38,2.38,0,0,0,63,20.75Z"/><path class="cls-2" d="M48.74,11.35a.23.23,0,0,1-.09-.44A3.75,3.75,0,0,1,51,10.66a.24.24,0,0,1,.16.29.23.23,0,0,1-.28.16,3.45,3.45,0,0,0-2,.22A.15.15,0,0,1,48.74,11.35Z"/><path class="cls-2" d="M49.3,12.12s.84.92,1.32-.24Z"/><path class="cls-2" d="M54.07,17.4a.11.11,0,0,1-.1-.06.12.12,0,0,1,0-.16,5.25,5.25,0,0,0,2-3.47.11.11,0,0,1,.13-.09.11.11,0,0,1,.09.13,5.35,5.35,0,0,1-2.07,3.63Z"/><path class="cls-2" d="M50,16.54a.12.12,0,0,1-.11-.1A.13.13,0,0,1,50,16.3c.38-.06.81-.23.82-.36a.11.11,0,0,1,.13-.1A.11.11,0,0,1,51,16c0,.37-.78.53-1,.57Z"/><path class="cls-2" d="M123.54,40.86a215.2,215.2,0,0,0-26.13-1.71s-2.36,6.08,2.83,9.51C100.24,48.66,122.54,50.06,123.54,40.86Z"/><path class="cls-5" d="M98.12,56.43s4.47-2.51,5.61-3.74l3.73,3-3.73,2.16Z"/><path class="cls-5" d="M125.88,93.3c-.74,1.63-4.44.12-5.39-.55s-2-1.68-3.1-2.51c-1.78-1.38-2.67-1.64-2.3-4.11a6,6,0,0,0,.07-.69,8.58,8.58,0,0,0-1-3.71c-.5-1.29-.7-.74.16-1.53a3.28,3.28,0,0,1,1.48-.62c4.07-1.4,3.6,4.77,5.12,7.24a0,0,0,0,1,0,0,4.11,4.11,0,0,0,.59.69C123.12,89.13,126.64,91.62,125.88,93.3Z"/><path class="cls-2" d="M116.7,61.2a30.23,30.23,0,0,0-.64-4.51c-.76-2.92-1.27-5.64-3.82-7.37s-5.55-2.45-8.37-3.28c-2.37-.7-4.51-1.86-6.87-2.64-2.07-.69-4-1.93-6.23-2.2l-1-.15c-2.2-.34-5.16-.83-6.85.36s-1.23,4.06-1,5.79c.71,4.4,3.62,6.75,7.69,7.61,4.58,1,10.45-.23,14.8,1.72,2.07.93,1.9,3.37,2.37,5.24.56,2.22.73,4.54,1.28,6.73.63,2.5,1.37,5,2,7.52.52,1.92,1.08,7.4,2.71,8.1,1.4.61,6.52-.88,7.45-2.06,1.22-1.55-.78-6.09-1.11-7.92a90.1,90.1,0,0,0-1.9-9.66c-.37-1.22-.44-2.49-.69-3.74.07.57.7,6.09,1,6.08Z"/><path class="cls-8" d="M89.3,16.09a5.4,5.4,0,0,1,1.93-.17,28.66,28.66,0,0,1,4.81.15,18.44,18.44,0,0,1,5.55,1.46c3.67,1.7,4.87,5.74,6.36,9.25,1.21,2.87,2.26,6.16,4,8.78a9.67,9.67,0,0,1,1.3,3.72,3.28,3.28,0,0,1-.4,2.42,2.93,2.93,0,0,1-3.54.89c-.68-.39-1.07-1.15-1.67-1.63-.32-.25-.86-.3-1.1-.54a8.59,8.59,0,0,1-1-2.11c-.88-2-1.85-3.89-2.57-5.91a6.6,6.6,0,0,0-.84-1.75,59.47,59.47,0,0,0-1.07,14.65L84,40S82.88,20.3,89.3,16.09Z"/><path class="cls-5" d="M93.48,10.88c-.89.46-1.45,2.15-1.84,2.86s-1,1.65-1.56,2.46a2,2,0,0,0-.48,1c.1,1.63,2.52,3,4,3,1.85,0,2.69-1.26,3.58-2.72.56-.91,1.84-3.38,1-4.39-.41-.51-1.26-.66-1.82-.94s-1.31-1.09-2-1.35A1,1,0,0,0,93.48,10.88Z"/><path class="cls-5" d="M102.26,3.37a5.2,5.2,0,0,0-6.85.87,9.68,9.68,0,0,0-2.18,5.69c-.25,2.82.79,7.83,4.07,8.28,1.45.2,2.3-.75,3.14-1.77a14,14,0,0,0,2.29-4.05C103.67,9.8,104.89,5.38,102.26,3.37Z"/><path class="cls-8" d="M87,26.2,84.31,38C80.76,37.43,77,39.89,77,39.89c0-5.73.27-8.93,1.38-12.75.87-3,1.78-5.82,4-8.12,2-2.09,4.6-2.59,7.41-3,0,0-5.32,5.38-2.86,10.17Z"/><path class="cls-8" d="M97.46,18.49h0c-3.37-.24-4.08-4.91-4.08-5a.11.11,0,0,1,.09-.13.11.11,0,0,1,.13.1c0,.05.69,4.53,3.88,4.75a.13.13,0,0,1,.11.13A.13.13,0,0,1,97.46,18.49Z"/><path class="cls-8" d="M96.42,2.66a6.38,6.38,0,0,0,3.21,2.75A10.52,10.52,0,0,1,102,6.63a2.54,2.54,0,0,1-.63-1,10.46,10.46,0,0,1,1.52,1.46,1.39,1.39,0,0,1-.36-.75c.39.28.55.8.9,1.14a3.13,3.13,0,0,1-.07-.75C104,7,104.27,8,105,8c.36-.93-.31-2.5-.61-3.4a6.14,6.14,0,0,0-2.22-3.13A7.09,7.09,0,0,0,97,.07C95,.39,95.68,2.4,96.88,3.36Z"/><path class="cls-8" d="M96.11,1.49c-6.06-.91-6,7.87-4.63,11.85a6.72,6.72,0,0,1,1-1.22c0,.32,0,.65,0,1,.25-.31.41-.7.66-1a2.89,2.89,0,0,1-.07.49,10.65,10.65,0,0,1,1.15-3.11A38.51,38.51,0,0,1,97,6.49a4.45,4.45,0,0,0,.76-3.68c-.32-1.27-1.32-1.45-2.45-1.55Z"/><path class="cls-8" d="M95.73,2A6.11,6.11,0,0,0,93.93.87c.46-.1,1.15-.32,1.58,0a4.57,4.57,0,0,1,0-.74A3.87,3.87,0,0,1,96.26,2c-.4,0-.94.34-1.21.24Z"/><path class="cls-7" d="M84.2,37.78h0a.11.11,0,0,1-.11-.12,40.32,40.32,0,0,1,2.06-10.25.12.12,0,0,1,.15-.07.12.12,0,0,1,.07.15,39.87,39.87,0,0,0-2.06,10.18A.11.11,0,0,1,84.2,37.78Z"/><path class="cls-5" d="M91.88,39.3c-1.3-.2-2.6-.37-3.88-.57-1.53-.24-2.9-.89-4.49-.95-1.39-.06-7.16.14-6.21,2.34.74,1.74,4,2.36,5.52,2.68,3.25.68,6.58.29,9.85.1,1.14-.07,3.63-.6,4.63,0,.37.24.61.85,1,1.16a7.22,7.22,0,0,0,1.82,1.11c.94.4,1.39.81,2.42.43s2.58-.51,1.93-2.25a7.65,7.65,0,0,0-1.69-2.22c-.85-.91-1.06-1.24-2.29-1.28-1,0-1.93,0-2.86-.12C95.71,39.57,93.76,39.6,91.88,39.3Z"/><path class="cls-5" d="M111.79,39.07a4,4,0,0,0-3.36-.65A5.88,5.88,0,0,0,106,41.07a5.27,5.27,0,0,0-.42.81c.11.28.77.15,1,.12a4.21,4.21,0,0,0,.36,1.44c.37.38.87.15,1.28.34s.54.64,1.14.5c.41-.1.57-.44,1-.51s.72.12,1.1-.45a8.37,8.37,0,0,0,.52-1.28C112.36,41.07,112.75,39.85,111.79,39.07Z"/><path class="cls-9" d="M125.88,93.3c-.74,1.63-4.44.12-5.39-.55s-2-1.68-3.1-2.51c-1.78-1.38-2.67-1.64-2.3-4.11a6,6,0,0,0,.07-.69c1.51,1,3.16,2.26,5,1.69a4.09,4.09,0,0,0,.77-.31,0,0,0,0,1,0,0,4.11,4.11,0,0,0,.59.69C123.12,89.13,126.64,91.62,125.88,93.3Z"/><path class="cls-8" d="M97.53,9.65a7.88,7.88,0,0,1-1.37-.12.23.23,0,0,1,.08-.46s2.23.4,3.14-.35a.24.24,0,0,1,.33,0,.25.25,0,0,1,0,.33A3.53,3.53,0,0,1,97.53,9.65Z"/><path class="cls-8" d="M103.3,10.8l-.09,0a4,4,0,0,1-2.06-1.61.23.23,0,0,1,.11-.31.21.21,0,0,1,.3.11,3.58,3.58,0,0,0,1.83,1.38.24.24,0,0,1,.12.31A.23.23,0,0,1,103.3,10.8Z"/><path class="cls-8" d="M97.72,15.6a.22.22,0,0,1-.22-.16.23.23,0,0,1,.15-.29,2.85,2.85,0,0,1,2,0,.24.24,0,0,1,.08.32.23.23,0,0,1-.32.08,2.48,2.48,0,0,0-1.64,0Z"/><path class="cls-8" d="M99.72,13.92a1.13,1.13,0,0,1-.53-.16.13.13,0,0,1,0-.16.11.11,0,0,1,.15,0c.26.15.46.18.58.1.33-.2.32-1.09.31-1.74a6.13,6.13,0,0,1,0-.76.14.14,0,0,1,.13-.11.12.12,0,0,1,.1.13,5.77,5.77,0,0,0,0,.74c0,.78,0,1.67-.42,1.94A.51.51,0,0,1,99.72,13.92Z"/><path class="cls-8" d="M98.05,11.26a2.09,2.09,0,0,1-1.17-.43.18.18,0,0,1,0-.25.16.16,0,0,1,.24,0,1.45,1.45,0,0,0,1.49.21.17.17,0,0,1,.23.07.18.18,0,0,1-.06.24A1.47,1.47,0,0,1,98.05,11.26Z"/><path class="cls-8" d="M102.21,11.88a1.52,1.52,0,0,1-1.15-.48.18.18,0,0,1,0-.25.16.16,0,0,1,.24,0,1.44,1.44,0,0,0,1.48.27.19.19,0,0,1,.23.1.2.2,0,0,1-.1.23A2.23,2.23,0,0,1,102.21,11.88Z"/><path class="cls-2" d="M104.75,49.2c.19.12,2.76-2,3-2.11A64,64,0,0,1,114.68,43c3.17-1.61,10.35-4.75,11.16,1,.71,5-9.24,8.71-12.54,10.25Z"/><path class="cls-2" d="M96,57.39s-.15-.67,2.14-1.25c0,0,6,.62,8.21,3L104.86,62Z"/><path class="cls-9" d="M106.65,59.32c-1.63-1.16-3.47-.88-5.26-1.31-1.3-.31-2.67-1.14-4-1.29-1.87-.21-2.08,1.94-1.13,3.16s2.84,1.62,4.11,2.58a7.33,7.33,0,0,0,5.5,1.4A2.46,2.46,0,0,0,106.65,59.32Z"/><path class="cls-7" d="M114.75,52.67a.12.12,0,0,1-.11-.08,7.88,7.88,0,0,0-6-5.07l-4.79-1.37a.12.12,0,0,1-.08-.14.12.12,0,0,1,.14-.09l4.77,1.38a8.07,8.07,0,0,1,6.19,5.22.11.11,0,0,1-.07.14Z"/><path class="cls-7" d="M110.86,45.19a.11.11,0,0,1-.1-.06.12.12,0,0,1,0-.16s5.4-3.37,8.74-4.14a.11.11,0,0,1,.14.08.12.12,0,0,1-.09.14c-3.3.77-8.62,4.09-8.67,4.12Z"/></g></g></svg>