<svg xmlns="http://www.w3.org/2000/svg" viewBox="0 0 151.46 92.87"><defs><style>.cls-1{fill:#fceede;}.cls-2{fill:#c68383;}.cls-3{fill:#a86770;}.cls-4{fill:#f69fb9;}.cls-5{fill:#ff8f67;}.cls-6{fill:#f9c04e;}.cls-7{fill:#e2b988;}.cls-8{fill:#965963;}.cls-9{fill:#bf7783;}.cls-10{fill:#fff;}.cls-11{fill:#d7f2f1;}.cls-12{fill:#f4dad3;}</style></defs><g id="Layer_2" data-name="Layer 2"><g id="Layer_1-2" data-name="Layer 1"><path class="cls-1" d="M114.27,7.38c-9.2-.13-16.73,1.47-24,6.64-5.77,4.08-11.37,9.71-19.14,8.05s-13.8-8.42-21.38-11C36.93,6.81,22,11.36,12.19,19.82-9.08,38.08-1.46,78.38,26.8,84.58c12.16,2.66,23-.14,34.83-2.8,13-2.93,27.76-1.6,40.85.43,22.77,3.53,46-.82,48.73-27.84C153.57,31,138.94,7.74,114.27,7.38Z"/><path class="cls-2" d="M29.9,85.93a2.24,2.24,0,0,1-1.74-2.09l1.67-19.11H27.44L25.79,83.59a3,3,0,0,1-2.18,2.34s-3.94.14-4.21,2.17H33.73C33.82,86.07,29.9,85.93,29.9,85.93Z"/><path class="cls-3" d="M43.22,59.59l-13.28-.33a1,1,0,0,0,0-.39l-4.62-30.8c-.09-.61-.41-1.46-1-1.47l-12.84,0c-1.4.33-1.73,1.52-1.52,2.73l4.28,29.52s-.75,9.8,26.49,7.62C70.74,64.1,43.22,59.59,43.22,59.59Z"/><path class="cls-2" d="M14.79,26.6a.89.89,0,0,0-.87,1.09l4.52,31.18A1.3,1.3,0,0,0,19.64,60H33.25a.92.92,0,0,0,.87-1.13l-4.63-30.8a1.34,1.34,0,0,0-1.2-1.14Z"/><polygon class="cls-4" points="58.77 26.3 47.19 33.73 46.61 32.82 58.06 25.33 58.77 26.3"/><path class="cls-5" d="M69.8,91.71l-9.91-.26a.85.85,0,0,1-.85-.93c0-.34.09-.69.13-1s.11-.7.11-.7c.61-3.17-2.11-10-2.11-10-4.25-8.93-2.73-14.38-2.73-14.38s7.56-4.84,7.41,1.82c-.12,5.64,1.38,16.63,1.84,19.83a1.83,1.83,0,0,0,1,1.26l3.41,1.47,1.57.68a1.74,1.74,0,0,1,1,1.28A.76.76,0,0,1,69.8,91.71Z"/><path class="cls-3" d="M69.8,91.71l-9.91-.26a.85.85,0,0,1-.85-.93c0-.34.09-.69.13-1,1.87.35,6.57,1,8.9-.68l1.57.68a1.74,1.74,0,0,1,1,1.28A.76.76,0,0,1,69.8,91.71Z"/><path class="cls-5" d="M61,91.71l-9.91-.26a.86.86,0,0,1-.85-.93c0-.34.09-.69.13-1s.11-.7.11-.7c.61-3.17-2.11-10-2.11-10-4.24-8.93-2.73-14.38-2.73-14.38s7.57-4.84,7.42,1.82C53,72,54.45,82.94,54.91,86.14a1.83,1.83,0,0,0,1,1.26l3.41,1.47,1.58.68a1.79,1.79,0,0,1,1,1.28A.77.77,0,0,1,61,91.71Z"/><path class="cls-3" d="M61,91.71l-9.91-.26a.86.86,0,0,1-.85-.93c0-.34.09-.69.13-1,1.88.35,6.57,1,8.9-.68l1.58.68a1.79,1.79,0,0,1,1,1.28A.77.77,0,0,1,61,91.71Z"/><path class="cls-5" d="M41.87,5.34a6.12,6.12,0,0,0-4-2.38,8.18,8.18,0,0,0-7.08,2.6,6.17,6.17,0,0,0-1.43,5.67,6.77,6.77,0,0,1-3.61,3.67l5.11,5.56,1-1.78c.32-.54.62-1.61,1.33-1.63,1.29,0,2.41,2,3.73,1.61.65-.19,1.43-1.34,2-1.78a7.27,7.27,0,0,1,1-.86c.23-.11.53.12.75,0,.5-.36.14-2.2.22-2.78,0-.08,0-.17,0-.26a17.08,17.08,0,0,1,.71-2C42.32,9,43.09,7.27,41.87,5.34Z"/><path class="cls-3" d="M43.26,5.55c-.55-1.33-1.81-1.48-3-1.89-1.31,0-2.37.32-1.92,1.84.32,1-.28,1.32-.35,2.4,0,.55-.05,2.38.82,2.26a2.44,2.44,0,0,1,.77-1.35c.3-.3.68-.18.61-.83.64.15.12,1.43.14,1.9.05.85.31.93,1.05,1.14,0,.39,0,1.36.25,1.65.69.7.7-.36.87-.78s.76-.86.86-1.49-.37-1-.38-1.52.45-1.06.53-1.59A3.33,3.33,0,0,0,43.26,5.55Z"/><path class="cls-3" d="M40.71,12.06a.24.24,0,0,1-.2-.11,1.92,1.92,0,0,0-1.66-.85.24.24,0,0,1-.24-.22.23.23,0,0,1,.22-.24,2.41,2.41,0,0,1,2.07,1.08.22.22,0,0,1-.08.31A.2.2,0,0,1,40.71,12.06Z"/><path class="cls-3" d="M38.44,16.94h-.06a1.86,1.86,0,0,1-1-1.06.16.16,0,0,1,.1-.22.17.17,0,0,1,.22.09,1.54,1.54,0,0,0,.75.87.16.16,0,0,1,.09.22A.15.15,0,0,1,38.44,16.94Z"/><path class="cls-3" d="M40,12.78h0a1.69,1.69,0,0,1-1.22-.69.11.11,0,0,1,0-.16A.11.11,0,0,1,39,12a1.49,1.49,0,0,0,1.05.59.13.13,0,0,1,.11.12A.11.11,0,0,1,40,12.78Z"/><path class="cls-6" d="M66,65.5a59.58,59.58,0,0,0-1.63-7.91c-1.31-4.32-4.84-5.46-8.7-6.85a65.42,65.42,0,0,0-10-2.59c-2.27-.43-4.55-1-6.84-1.31-1.47-.23-3.23-.5-4-2a3.75,3.75,0,0,1-.34-1.93c0-1.41.23-2.71.22-4.12s-.17-2.59.65-3.74c1.13-1.59,2.17-2.14,1.64-4.26-.45-1.82-1.77-3.56-2.74-5.15s-1.9-3.23-2.77-4.9c-1.49-2.86-3.3-6.89-7-3.78A11.38,11.38,0,0,0,21.17,23a23.87,23.87,0,0,0-.83,6.11c0,3.14,1.49,6,1.64,9.14a7.7,7.7,0,0,1-.54,3.85c-2.61,6.47-4.58,16.61,5.38,16.61,1.87,0,3.62.14,5.49.3a51.36,51.36,0,0,1,5.25.57c1.82.36,5.17,1,5.65,3.18.3,1.36-.22,3-.23,4.4A15,15,0,0,0,43.3,71c.23,1,.52,2.88,1.71,3.21,1.44.41,2.8-1.54,4.23-1.7,2.26-.26,4.54,1.13,6.9.91,2.2-.19,3.65-2,5.79-1.45a27.27,27.27,0,0,0,2.81.66c1.17.17,1.3.22,1.64-.88a8.41,8.41,0,0,0,0-3.8C66.22,67.17,66.09,66.34,66,65.5Z"/><path class="cls-3" d="M40.41,3.31a5.24,5.24,0,0,0-.87-1C38.08,1.08,36-.2,34,0a4.51,4.51,0,0,0-3.45,2.39c-1.07-.2-2.25-.54-3.22.45s-.71,1.66-2,1.93c-1.17.24-1.43.09-1.92,1.25a1.78,1.78,0,0,0-.1.43c-.93.27-1.42.2-2.1,1a23.32,23.32,0,0,1-1.47,2.24c-1.25,1.25-1.65,1.87-1,3.49.52,1.27-.11,2.23.23,3.42.77,2.64,6.05,2.61,8,1.63,1.13-.57,1.76-1.76,2.84-2.38.93-.54,1.84-.48,2.52-1.47.28-.41,1-.67,1.2-1.14s-.38-.93-.55-1.4c-.35-1,.25-2.37,1.48-1.78.28.13.27.67.51.73.63.14.59-.72.74-1a5.63,5.63,0,0,1,1.86-2.16A15.31,15.31,0,0,1,39.68,6.5C41.49,5.94,41.18,4.46,40.41,3.31Z"/><path class="cls-5" d="M53,29.46c-1.14,1-2.2,2.47-3.65,2.93a3.89,3.89,0,0,0,0-.68c-.79.71-1.45.23-2.35.54a5.87,5.87,0,0,0-1.93,1.4l-11.79,3q-1.86-4.78-3.73-9.56c-.52-1.33-1-3.24-2-4.31a2,2,0,0,0-3.17-.17,3.67,3.67,0,0,0-1,2.49,25.1,25.1,0,0,0,.76,5.3c.72,3.35,2.68,11.09,6.9,11.78,1.81.29,4.88-1.25,6.57-1.88A40.42,40.42,0,0,0,46,36.19a12.33,12.33,0,0,0,3.66-1.51c1.2-.88,3.08-2,3.14-3.65a2.49,2.49,0,0,1-.33.16A7.87,7.87,0,0,0,53,29.46Z"/><path class="cls-7" d="M97.39,68.31,90,90.79a.4.4,0,0,1-.77-.23l6.42-22.78a.9.9,0,0,1,1.73.49S97.39,68.29,97.39,68.31Z"/><path class="cls-7" d="M118,68.17l-6.6,22.73a.4.4,0,0,1-.78-.21l5.64-23a.9.9,0,1,1,1.74.43Z"/><path class="cls-7" d="M135.69,68.31l7.38,22.48a.39.39,0,0,0,.51.26.41.41,0,0,0,.26-.49l-6.42-22.78a.9.9,0,0,0-1.74.49S135.69,68.29,135.69,68.31Z"/><path class="cls-7" d="M127.48,68.09,133.55,91a.39.39,0,0,0,.49.28.41.41,0,0,0,.29-.48l-5.11-23.11a.89.89,0,0,0-1.07-.68.9.9,0,0,0-.68,1.07A.06.06,0,0,0,127.48,68.09Z"/><path class="cls-8" d="M150.05,28.77l-8.6,37.82a3.24,3.24,0,0,1-1.21,2.19,4.5,4.5,0,0,1-2.48.74h-1L114,69.3l-13.55-.13-5,0c-.83,0-2.09.2-2.74-.41-.94-.87-.32-2.63,0-3.64a8.66,8.66,0,0,1,1.79-3.17c1.63-1.79,3.71-2,5.95-2l5.13,0,13.51,0,11.57,0c.15,0,2.88,0,2.89,0L136,39.41S138.65,28,146,26.52C146,26.52,149.45,25,150.05,28.77Z"/><path class="cls-9" d="M147,26.32s-2.6,2-3.4,6.79c0,0-3.24,17.48-6.07,27.39l-25.16-.6a167.44,167.44,0,0,0,6.84-26.59s1-6.19,3.6-7Z"/><path class="cls-10" d="M101.61,42.32a.14.14,0,0,1-.14-.12c0-.06-.67-5.94.07-9.14a.13.13,0,0,1,.16-.1.13.13,0,0,1,.1.16c-.72,3.16-.06,9,0,9.05a.14.14,0,0,1-.12.15Z"/><path class="cls-11" d="M109.7,29.16c-2.7.52-3.29,4.35-3.69,6.55a13.39,13.39,0,0,1-.93,3.62c-.18.38-2.88,4.92-3,4.64,0,0,2.42,4.2,2.2,7.14a30,30,0,0,0,9.45-13.23,6.64,6.64,0,0,0-1.15-8.19S111.91,28.75,109.7,29.16Z"/><path class="cls-11" d="M90.85,53.15s4.23-3.13,6.4-10.47l-4.6-7.49s-2.75,7.56-4,8.43C88.67,43.62,91.75,51.06,90.85,53.15Z"/><path class="cls-11" d="M99.2,27.8s9.88-1.37,13,.21c0,0,11.24,5.14,10.4,24.46l-17-.1S95.84,43,94.37,35.15Z"/><path class="cls-5" d="M85.46,48.81c0,1.78-.17,3.71,1.37,5a2.75,2.75,0,0,0,4.35-1.14c1.28-3.19-1-7.76-1.68-10.88-.17-.75-.38-1.47-.52-2.26-.29-1.7.41-2.83.64-4.41.16-1.1-.36-2.06.11-3.09a5.57,5.57,0,0,0-1.67,1.1c-1.41-.89-2.23-2.55-3.23-3.91,0,.32-.08.73,0,1-.17-.36-.51-.68-.68-1-.49,1.57.44,3,.84,4.47.64,2.31,1.4,4.3,1.32,6.71C86.16,43.2,85.49,46,85.46,48.81Z"/><path class="cls-5" d="M97.68,28.06c-1.17-1.61-3.65-2.65-5.45-3.36A10.34,10.34,0,0,0,88.7,24a3.29,3.29,0,0,0-2.76,1.47c-1.54,1.73-1.14,4.43-.08,6.29a7.78,7.78,0,0,0,2.21,2.36,22.12,22.12,0,0,0,2.31.85,3.65,3.65,0,0,1,1.42,1.89c.48,1,1,0,1.89.27.65.16,1.77,1,2.46.72s1.14-1.79,1.44-2.46a15.64,15.64,0,0,0,1.1-3.56A4.67,4.67,0,0,0,97.68,28.06Z"/><path class="cls-5" d="M98.75,26.93A4.47,4.47,0,0,0,100,28.25c1,.75,2.75.68,3.51,1.83a4.54,4.54,0,0,1,.52,2.17c0,2.33-1.9,3.34-4,3.56a5.52,5.52,0,0,1-2.44-1.36c-1-1-.39-2.61.06-3.71a4.68,4.68,0,0,0,.42-1.63A20.9,20.9,0,0,0,98.75,26.93Z"/><path class="cls-8" d="M97.18,22.68A6.44,6.44,0,0,0,95,19.61c-2-1.26-6.48-1-8.36.93a1.93,1.93,0,0,0,.15-.4c-.66.34-1,1.24-1.44,1.77,0-.1,0-.19,0-.29a3.31,3.31,0,0,0-1.64,1.79c-.24.81-.14,1.05.09,1a9.19,9.19,0,0,0-.41,4.23c.28,1.77.95,3.25,1,5.11A18.83,18.83,0,0,0,86,32c0,.37,0,.76,0,1.13.11-.18.46-.42.58-.61,0,.19.21.44.23.61a5,5,0,0,0,.64-.79c0,.1.1.31.11.47.68,0,1.28-1.53,1.78-2,.16.53,0,1.15.41,1.55.22-.34.39-.82.74-1,.5.6,1.06,1.55,1.9,1.66.2-.45.18-1,.33-1.43.27.33.57.8,1,.9,0-.41,0-.83,0-1.24.59.51,1.08.21,1.06-.63a5.84,5.84,0,0,0,.58.61c0-.19,0-.42,0-.61.12.2.38.26.52.4a5.8,5.8,0,0,0,.75-2c.24.35.44.84.9.93a11.35,11.35,0,0,1,.75-1.66c.41-.61.93-1.2,1.35-1.77A10.32,10.32,0,0,1,97.18,22.68Z"/><path class="cls-8" d="M91.74,33.2c-.72,0-1.3,1.08-1.92,1.44a2,2,0,0,0,.81,0s0-.07-.06-.07-.06,0,0,0c.76,0,1.33-1,2-1.37a1.24,1.24,0,0,0-1.12,0Z"/><path class="cls-10" d="M103.09,42.92l-.07,0a.11.11,0,0,1,0-.15,18,18,0,0,0,3.12-8.19.1.1,0,0,1,.12-.09.1.1,0,0,1,.09.11,18.11,18.11,0,0,1-3.17,8.3A.09.09,0,0,1,103.09,42.92Z"/><path class="cls-10" d="M106.76,49.06a.11.11,0,0,1-.07-.18c3.52-3.25,6.51-9.93,6.54-10a.11.11,0,0,1,.14-.06.11.11,0,0,1,0,.14c0,.07-3,6.78-6.58,10.06A.13.13,0,0,1,106.76,49.06Z"/><path class="cls-5" d="M85,57.34a1.45,1.45,0,0,0-.87.07A2.6,2.6,0,0,0,83,58.46c-1.17,1.92-.13,4.69.65,6.53.39,1.25.78,2.51,1.16,3.76.95,3.11,1.89,6.23,2.77,9.36.35,1.26.69,2.53,1,3.81.21.84.36,1.27-.29,2A15.21,15.21,0,0,1,86,85.64l-2.32,1.75s4.63,1.82,10.78-2.66l-1.26-2.94s-.6-5.83-.57-9.8c0-.29,0-.57,0-.84.14-3.92-.55-7.42-2.66-9.8C88.72,60,86.88,57.72,85,57.34Z"/><path class="cls-5" d="M97.49,59.24s-1.82.84,0,5.18c0,0,6.16,16.52,6.16,18.76,0,0,.7,3.08-3.36,5.74,0,0,2.66,4.48,9.38-3.92a6,6,0,0,1-1.4-3.64s.56-12.6-2.1-16.66C106.17,64.7,102.53,58.54,97.49,59.24Z"/><path class="cls-8" d="M103.73,89.49c-.8.31-1.35-.07-2.1-.28a4.08,4.08,0,0,1-1.12-.57l-2.38,1.58c-.68.45-1,1-.34,1.68,1.09,1,3.82,1.09,5.23.85,1.79-.32,3.5-1.76,5.14-2.53,1.06-.5,3-.84,3-2.23a3.6,3.6,0,0,0-1.65-3.26A5.94,5.94,0,0,1,108.43,86a16.32,16.32,0,0,1-1.75,1.68A12.64,12.64,0,0,1,103.73,89.49Z"/><path class="cls-8" d="M84,87.18c-.77.59-2.43,1.29-1.33,2.59.55.66,1.84.59,2.61.56a5,5,0,0,0,2.51-.79,15.16,15.16,0,0,1,3.76-2.08c.85-.24,3.1-.38,3.53-1.26s-.72-3-1.47-3.28c-.71,2-3.76,3.31-5.62,4a6.57,6.57,0,0,1-4.06.26Z"/><path class="cls-12" d="M122.62,52.47s-13.09-2.66-22,0c-.25.08-.51.1-.75.17l-.24.08c-2.8,1-3.51,3.82-3.24,6.57a26.45,26.45,0,0,0,.88,5.35c2.59-1.67,7.51-.22,9.86,1.42-.23-1.88-.28-2.5-.51-3.82,3.34.06,6.68.52,10,.22,2-.18,7.28-.87,7.53-3.66C124.2,58.77,124.61,54.05,122.62,52.47Z"/><path class="cls-12" d="M103.78,51l-.73,0a58,58,0,0,0-12.63,2.5c-2.91.85-7,2.79-7.81,6,0,.14-.27,2.41.08,2.37,0,0,6.36-.74,9.32,3.42L92.08,63l0-.17,12-2.52,6.58-2.51C113.08,52.11,108.22,50.85,103.78,51Z"/><path class="cls-5" d="M91,30.07c.5,1.22-1.54.68-2.07.55-.28-.08-1.42-.59-1.53-.3s.58.82.78.95c1,.69,2.51.47,3.32,1.41s1,2.28,1.65,3.29a22.5,22.5,0,0,1,1.89,4c1.19,3,2.11,6.45,4.2,9,.88,1.06,2.06,2.38,3.53,2.51a2.53,2.53,0,0,0,2.5-2A9.86,9.86,0,0,0,103.71,44a39.46,39.46,0,0,0-3.14-3.69,18.9,18.9,0,0,1-2.48-2.81,5.28,5.28,0,0,1-.45-3.77,45.64,45.64,0,0,1,.48-4.54c.09-.36.32-.69.13-1-.35-.65-1.06.81-1.1.95-.1.35,0,1.13-.27,1.37-.52.42-.49-1-.62-1.35-.27-.7-.6-1.38-.86-2.08a6.14,6.14,0,0,0-1.18-2.23c-.28-.29-1.08-1.11-1.11-.35,0,.31.45.7.58.95a5.39,5.39,0,0,1,.77,2.17c.06,1.6-1.27,0-1.67-.54-.65-.89-1.32-2.15-2.38-2.6-.42-.18.13,1.1.17,1.16.41.58,2.33,2.83,1.73,3.67-.37.51-2.25-1.61-2.49-1.85s-.77-.88-1.18-.78c-.89.22.89,1.85,1.2,2.17S90.79,29.48,91,30.07Z"/><path class="cls-3" d="M98.26,37.83l-.06,0c-.82-.58-.92-2.43-.89-3a15.05,15.05,0,0,1,.21-1.66c.07-.47.15-1,.19-1.43V31.5a14.49,14.49,0,0,1,.44-3,.11.11,0,0,1,.13-.08.11.11,0,0,1,.07.13,14.78,14.78,0,0,0-.43,3v.17c0,.49-.12,1-.19,1.45a15,15,0,0,0-.21,1.64c0,.72.11,2.37.8,2.86a.09.09,0,0,1,0,.14A.1.1,0,0,1,98.26,37.83Z"/><path class="cls-8" d="M95.07,40.12a.12.12,0,0,1-.1-.07c-.08-.26-1.4-3.3-1.52-3.58a25.23,25.23,0,0,1-1.85-3.54.1.1,0,0,1,.05-.13.1.1,0,0,1,.14.05,23.71,23.71,0,0,0,1.81,3.48l0,0c.06.13,1.45,3.33,1.54,3.61a.09.09,0,0,1-.07.13Z"/><path class="cls-8" d="M115.05,63.28l-1.67-.66,3.46-8.72A4.72,4.72,0,0,1,121,51.11h23.68v1.8H121a2.92,2.92,0,0,0-2.45,1.66Z"/></g></g></svg>